<?xml version="1.0" encoding="utf-8"?>
<!-- Generator: Adobe Illustrator 19.0.0, SVG Export Plug-In . SVG Version: 6.00 Build 0)  -->
<svg version="1.1" id="actor_icon" xmlns="http://www.w3.org/2000/svg" xmlns:xlink="http://www.w3.org/1999/xlink" x="0px" y="0px"
	 viewBox="0 0 50 50" style="enable-background:new 0 0 50 50;" xml:space="preserve">
<style type="text/css">
	.st0{fill:#FFFFFF;}
	.st1{fill:#FF1F1F;}
</style>
<g id="group">
	<g id="silhouette">
		<path id="outside_lining" class="st0" d="M48.4,47.4c-1.2-5.3-5.2-17.4-16.2-21c2.6-2.3,4.1-6.1,4.1-10.5c0-2.7-0.8-5.4-2.3-7.6
			V8.1C33.9,3.7,30.1,0,25.5,0c-3.6,0-6.8,2.2-8.1,5.5c-3.1,2.5-4.9,6.4-4.9,10.3c0,4.5,2.1,8.5,5.6,10.8
			C10.2,29.5,3.8,37.4,1.4,47.4c-0.1,0.6,0,1.2,0.4,1.7c0.4,0.5,1,0.8,1.6,0.8h43.2c0.6,0,1.2-0.3,1.6-0.8
			C48.5,48.7,48.6,48,48.4,47.4z"/>
		<path id="color_2_" class="st1" d="M3.3,47.9h43.2c-2.2-9.3-7.8-18.8-18-20.3l-0.2-1.1c3.6-1.2,6-5.4,6-10.6c0-2.6-0.9-5.1-2.3-7
			c0-0.2,0-0.4,0-0.7C31.9,4.8,29,2,25.5,2c-3,0-5.6,2-6.4,4.7c-2.7,2-4.6,5.3-4.6,9.1c0,4.5,2.5,8.4,6.2,10l-0.6,2.3
			C12.1,30.3,5.7,38,3.3,47.9z"/>
		<path id="inside_lining" class="st0" d="M46.5,48.9H3.3c-0.3,0-0.6-0.1-0.8-0.4c-0.2-0.2-0.3-0.6-0.2-0.9
			c2.5-10.2,8.9-17.9,16.9-20.4l0.2-1c-3.7-2-6-6-6-10.5c0-3.8,1.8-7.4,4.7-9.7c1-3,4-5.1,7.3-5.1c4,0,7.4,3.2,7.5,7.2v0.4
			c1.5,2.1,2.3,4.7,2.3,7.3c0,5-2,9.1-5.3,11c11.9,2.6,16.2,15.3,17.5,20.8c0.1,0.3,0,0.6-0.2,0.9C47.1,48.8,46.8,48.9,46.5,48.9z
			 M4.6,46.9h40.6c-1.6-5.8-6-16.7-16.9-18.3c-0.4-0.1-0.8-0.4-0.8-0.8l-0.2-1.1c-0.1-0.5,0.2-1,0.7-1.1c3.2-1.1,5.3-4.9,5.3-9.7
			c0-2.3-0.8-4.6-2.1-6.4C31.1,9.3,31,9.1,31,8.9V8.2C30.9,5.3,28.4,3,25.5,3c-2.5,0-4.7,1.6-5.4,4c-0.1,0.2-0.2,0.4-0.4,0.5
			c-2.6,1.9-4.2,5-4.2,8.3c0,4,2.2,7.6,5.6,9.1c0.5,0.2,0.7,0.7,0.6,1.2l-0.6,2.3c-0.1,0.3-0.4,0.6-0.7,0.7
			C13.1,31.1,7.2,37.8,4.6,46.9z"/>
	</g>
</g>
</svg>
