<?xml version="1.0"?>
<svg xmlns="http://www.w3.org/2000/svg" viewBox="0 0 24 24" enable-background="new 0 0 24 24">
    <path fill="white" d="M 4 3 C 2.9 3 2 3.9 2 5 L 2 13 C 2 14.1 2.9 15 4 15 L 6.09375 15 C 6.19375 14.3 6.5125 13.6 6.8125 13 L 4 13 L 4 5 L 20 5 L 20 13 L 17.1875 13 C 17.5875 13.6 17.80625 14.3 17.90625 15 L 20 15 C 21.1 15 22 14.1 22 13 L 22 5 C 22 3.9 21.1 3 20 3 L 4 3 z M 12 11 C 9.2 11 7 13.2 7 16 C 7 18.8 9.2 21 12 21 C 14.8 21 17 18.8 17 16 C 17 13.2 14.8 11 12 11 z M 11 13 L 13 13 L 13 15 L 15 15 L 15 17 L 13 17 L 13 19 L 11 19 L 11 17 L 9 17 L 9 15 L 11 15 L 11 13 z"/>
</svg>
