<?xml version="1.0" encoding="utf-8"?>
<!-- Generator: Adobe Illustrator 19.0.0, SVG Export Plug-In . SVG Version: 6.00 Build 0)  -->
<svg version="1.1" id="anim_icon" xmlns="http://www.w3.org/2000/svg" xmlns:xlink="http://www.w3.org/1999/xlink" x="0px" y="0px"
	 viewBox="0 0 50 50" style="enable-background:new 0 0 50 50;" xml:space="preserve">
<style type="text/css">
	.st0{fill:#FFFFFF;}
	.st1{fill:#4D56AE;}
</style>
<g id="group">
	<g id="background">
		<path id="white_lining" class="st0" d="M47.3,50H2.7C1.2,50,0,48.8,0,47.3V2.7C0,1.2,1.2,0,2.7,0h44.6C48.8,0,50,1.2,50,2.7v44.6
			C50,48.8,48.8,50,47.3,50z M8.9,41.1H41V8.9H8.9V41.1z"/>
		<rect id="color" x="3.2" y="3.2" class="st1" width="43.6" height="43.6"/>
	</g>
	<g id="triangle">
		<path id="triangle_color" class="st0" d="M12.8,11.2L37,24.6c0.4,0.2,0.4,0.8,0,1L12.8,39c-0.4,0.2-0.8-0.1-0.8-0.5V11.7
			C12,11.3,12.4,11,12.8,11.2z"/>
		<path id="triangle_lining" d="M43.3,22.6L11.9,5.2c-0.9-0.7-2.2-0.7-3.2,0C7.8,5.6,7.2,6.7,7.2,7.8v34.6c0,0.9,0.5,1.8,1.5,2.6
			c0.5,0.3,0.9,0.5,1.6,0.5c0.6,0,1.1-0.2,1.5-0.5l31.4-17.1c0.9-0.6,1.5-1.6,1.5-2.7C44.7,24.2,44.3,23.3,43.3,22.6z M37.3,25.1
			L12.4,38.9V11.3L37.3,25.1z"/>
	</g>
</g>
</svg>
