<?xml version="1.0" encoding="utf-8"?>
<!-- Generator: Adobe Illustrator 19.0.0, SVG Export Plug-In . SVG Version: 6.00 Build 0)  -->
<svg version="1.1" id="body_icon" xmlns="http://www.w3.org/2000/svg" xmlns:xlink="http://www.w3.org/1999/xlink" x="0px" y="0px"
	 viewBox="0 0 50 50" style="enable-background:new 0 0 50 50;" xml:space="preserve">
<style type="text/css">
	.st0{fill:#FFFFFF;}
	.st1{fill:#ED1C24;}
</style>
<g id="group">
	<path id="white_lining" class="st0" d="M46.9,14.4l-14.1-4.1c-0.1,0-0.1,0-0.2,0c0.2-0.7,0.3-1.4,0.3-2.1C32.9,3.7,29.4,0,25,0
		s-7.9,3.7-7.9,8.2c0,0.8,0.1,1.5,0.3,2.2l-13.7,4c-1.8,0.5-3.1,2.1-3.3,4.1c-0.2,2.4,1.2,4.5,3.4,4.9l8.9,1.9
		c0.4,0.1,0.7,0.4,0.9,0.7c0.2,0.3,0.2,0.7,0.1,1.2L8.4,43.7c-0.7,2,0,4.3,1.6,5.5c1.6,1.1,3.9,0.9,5.3-0.5l8.8-8.9
		c0.5-0.5,1.4-0.5,1.9,0l8.7,8.9c0.8,0.9,1.9,1.3,3,1.3c0.9,0,1.7-0.2,2.9-0.7c1.6-1.1,2.3-3.4,1.6-5.5l-5.3-16.5
		c-0.1-0.3-0.1-0.9,0.1-1.2c0.2-0.4,0.5-0.6,0.9-0.7l8.9-1.9c2.1-0.4,3.6-2.6,3.4-4.9C50,16.5,48.7,14.9,46.9,14.4z"/>
	<path id="body" class="st1" d="M23.2,34.4L14,45.8c-0.9,1-3.4-0.1-3-1.4L18.8,25c0.4-1.4-0.3-2.9-1.6-3.4L4.7,19.9
		c-1.3-0.3-1.3-2.2-0.1-2.6l14.1-2.7l3.2,1.1c2,0.6,4.1,0.6,6.1,0l3.4-1.1l14.1,2.7c1.3,0.3,1.2,2.4-0.1,2.6l-12.6,1.7
		c-1.3,0.5-1.9,2-1.6,3.4L39,44.6c0.4,1.3-2.1,2.4-3,1.4l-9.2-11.4C25.8,33.3,24.2,33.3,23.2,34.4z"/>
	<g id="head">
		<ellipse id="color" class="st1" cx="25" cy="8.6" rx="5.8" ry="5.8"/>
	</g>
</g>
</svg>
