<?xml version="1.0" encoding="utf-8"?>
<!-- Generator: Adobe Illustrator 19.0.0, SVG Export Plug-In . SVG Version: 6.00 Build 0)  -->
<svg version="1.1" id="camera_icon" xmlns="http://www.w3.org/2000/svg" xmlns:xlink="http://www.w3.org/1999/xlink" x="0px"
	 y="0px" viewBox="0 0 50 50" style="enable-background:new 0 0 50 50;" xml:space="preserve">
<style type="text/css">
	.st0{fill:#D84848;}
	.st1{fill:#FFFFFF;}
</style>
<g id="group">
	<g id="triangle">
		<polygon id="triangle_color" class="st0" points="45.4,41.4 27.2,26 45.4,10.6 		"/>
		<path id="triangle_lining" class="st1" d="M45.4,42.9c-0.3,0-0.7-0.1-1-0.4L26.3,27.1c-0.3-0.3-0.5-0.7-0.5-1.1s0.2-0.9,0.5-1.1
			L44.4,9.4C44.8,9.1,45.5,9,46,9.2s0.9,0.8,0.9,1.4v30.8c0,0.6-0.3,1.1-0.9,1.4C45.8,42.8,45.6,42.9,45.4,42.9z M29.5,26l14.3,12.2
			V13.8L29.5,26z"/>
	</g>
	<g id="square">
		<rect id="square_color" x="4.5" y="13.5" class="st0" width="25" height="25"/>
		<path id="square_lining" class="st1" d="M29.5,40h-25C3.7,40,3,39.3,3,38.5v-25C3,12.7,3.7,12,4.5,12h25c0.8,0,1.5,0.7,1.5,1.5v25
			C31,39.3,30.3,40,29.5,40z M6,37h22V15H6V37z"/>
	</g>
</g>
</svg>
