<?xml version="1.0" encoding="utf-8"?>
<!-- Generator: Adobe Illustrator 19.0.0, SVG Export Plug-In . SVG Version: 6.00 Build 0)  -->
<svg version="1.1" id="hidden_zones_icon" xmlns="http://www.w3.org/2000/svg" xmlns:xlink="http://www.w3.org/1999/xlink" x="0px"
	 y="0px" viewBox="0 0 50 50" style="enable-background:new 0 0 50 50;" xml:space="preserve">
<style type="text/css">
	.st0{fill:#FFFFFF;}
	.st1{fill:#00FF12;}
</style>
<g id="group">
	<path id="lining_53_" class="st0" d="M25.8,12.7c12,0,21.5,10.9,21.9,11.4c0.3,0.4,0.5,0.7,0.5,1.2V26c0,0.5-0.2,0.8-0.5,1.2
		c-0.5,0.5-10,11.4-22,11.4h-1.6c-12,0-21.5-10.9-21.9-11.4C2,26.8,1.8,26.4,1.8,26v-0.6c0-0.5,0.2-0.8,0.5-1.2
		c0.4-0.5,9.9-11.4,21.9-11.4L25.8,12.7 M25.8,10.9h-1.6c-13.3,0-23.3,12-23.4,12.1l0,0l0,0C0.6,23.3,0,24.1,0,25.3V26
		c0,0.9,0.3,1.6,0.6,2l0.1,0.2l0.1,0.2c0.1,0.1,10.1,12.1,23.4,12.1h1.6c11,0,19.9-8.3,23.2-11.8l0.1-0.1l0.1-0.1l0.1-0.1
		C49.4,28,50,27.2,50,26v-0.6c0-1.2-0.6-2-0.8-2.3l0,0l0,0C49,22.8,39,10.9,25.8,10.9L25.8,10.9z"/>
	<path id="color" class="st1" d="M25.7,38.6h-1.6c-12,0-21.5-10.9-21.9-11.4C2,26.8,1.8,26.4,1.8,26v-0.6c0-0.5,0.2-0.8,0.5-1.2
		c0.4-0.5,9.9-11.4,21.9-11.4h1.6c12,0,21.5,10.9,21.9,11.4c0.3,0.4,0.5,0.7,0.5,1.2V26c0,0.5-0.2,0.8-0.5,1.2
		C47.2,27.6,37.7,38.6,25.7,38.6z M7.5,24.1c-0.9,0.8-0.9,2.2,0,3c3.3,2.9,9.6,7.7,16.7,7.7h1.6c7.1,0,13.4-4.7,16.7-7.7
		c0.9-0.8,0.9-2.2,0-3c-3.3-2.9-9.6-7.7-16.7-7.7h-1.6C17.1,16.5,10.8,21.2,7.5,24.1z"/>
	<path id="cross_pupil" class="st0" d="M25,17.5c-5.9,0-10.7,3.7-10.7,8.3s4.8,8.3,10.7,8.3s10.7-3.7,10.7-8.3S30.9,17.5,25,17.5z
		 M29.8,20.3l-4.5,4.2l-4.6-4.4c1.3-0.6,2.8-0.9,4.4-0.9C26.8,19.3,28.4,19.7,29.8,20.3z M16.2,25.8c0-1.8,1-3.5,2.7-4.7l5,4.7
		l-5,4.7C17.3,29.3,16.2,27.6,16.2,25.8z M20.7,31.4l4.6-4.3l4.5,4.2c-1.4,0.6-3,1-4.7,1C23.4,32.2,22,31.9,20.7,31.4z M31.4,30.3
		l-4.8-4.5l4.8-4.5c1.5,1.2,2.5,2.7,2.5,4.5C33.9,27.5,32.9,29.1,31.4,30.3z"/>
</g>
</svg>
