<?xml version="1.0" encoding="utf-8"?>
<!-- Generator: Adobe Illustrator 19.0.0, SVG Export Plug-In . SVG Version: 6.00 Build 0)  -->
<svg version="1.1" id="lines_icon" xmlns="http://www.w3.org/2000/svg" xmlns:xlink="http://www.w3.org/1999/xlink" x="0px" y="0px"
	 viewBox="0 0 50 50" style="enable-background:new 0 0 50 50;" xml:space="preserve">
<style type="text/css">
	.st0{fill:#EDEDED;}
</style>
<g id="group">
	<g id="black_lines">
		<polygon id="right_line_1_" points="17.4,50 50,17.4 50,11.8 11.8,50 		"/>
		<polygon id="center_line_1_" points="0,41.8 0,47.4 47.4,0 41.8,0 		"/>
		<polygon id="left_line_1_" points="0,21.8 0,27.4 27.4,0 21.8,0 		"/>
	</g>
	<g id="white_lines">
		<polygon id="right_line" class="st0" points="50,28.3 50,28.3 28.3,50 17,50 17.2,49.8 49.8,17.2 50,17 		"/>
		<polygon id="center_line" class="st0" points="0,48.7 0,47 47,0 48.7,0 50,0 50,1.3 50,8.3 8.3,50 1.3,50 0,50 		"/>
		<polygon id="left_line" class="st0" points="0,27 0,32.7 0,38.3 38.3,0 32.7,0 27,0 		"/>
	</g>
</g>
</svg>
