<?xml version="1.0" encoding="utf-8"?>
<!-- Generator: Adobe Illustrator 19.0.0, SVG Export Plug-In . SVG Version: 6.00 Build 0)  -->
<svg version="1.1" id="magnifier_icon" xmlns="http://www.w3.org/2000/svg" xmlns:xlink="http://www.w3.org/1999/xlink" x="0px"
	 y="0px" viewBox="0 0 50 50" style="enable-background:new 0 0 50 50;" xml:space="preserve">
<style type="text/css">
	.st0{opacity:0.25;fill:#D8D8D8;}
	.st1{opacity:0.25;fill:#F4F4F4;}
	.st2{fill:#FFFFFF;}
</style>
<g id="group">
	<g id="glass">
		<circle id="transparency" class="st0" cx="18" cy="18.2" r="15.8"/>
		<path id="shine" class="st1" d="M16.3,6.2c0,0,0.3-0.1,0.9-0.2c0.3-0.1,0.6-0.1,1-0.2c0.4-0.1,0.8,0,1.4,0c0.5,0,1.1,0.1,1.6,0.2
			c0.6,0.1,1.2,0.3,1.7,0.6c0.6,0.3,1.2,0.5,1.7,0.9c0.3,0.2,0.5,0.4,0.8,0.6l0.7,0.7c0.5,0.4,0.9,1,1.4,1.4c0.4,0.5,0.8,1,1.1,1.6
			c0.3,0.5,0.6,1,0.8,1.6c0.2,0.5,0.4,1,0.6,1.5c0.3,0.9,0.5,1.7,0.5,2.3c0.1,0.6,0.1,0.9,0.1,0.9s-0.1-0.3-0.4-0.8
			c-0.3-0.5-0.7-1.1-1.2-1.9c-0.5-0.8-1.1-1.6-1.8-2.5c-0.4-0.4-0.7-0.8-1.1-1.3c-0.4-0.4-0.8-0.8-1.3-1.1L24,9.8l-0.7-0.5
			c-0.5-0.3-1-0.6-1.4-0.8c-0.5-0.3-0.9-0.4-1.4-0.7c-0.5-0.2-0.9-0.4-1.3-0.5c-0.4-0.2-0.8-0.4-1.2-0.4c-0.4-0.1-0.7-0.2-1-0.3
			C16.6,6.4,16.3,6.2,16.3,6.2z"/>
	</g>
	<path id="magnifier" class="st2" d="M48.7,42.4l-5.8-4.5c-0.4-0.3-0.8-0.7-1.1-1.1L37,30.4c-1.4-1.5-3.6-1.7-5.4-0.8
		c2.6-3.1,4.2-7.1,4.2-11.4c0-9.8-8-17.8-17.8-17.8c-9.8,0-17.8,8-17.8,17.8C0.2,28,8.2,36,18,36c4.5,0,8.7-1.7,11.8-4.5
		c-0.9,1.7-0.6,3.8,0.8,5.2l6,4.7c0.4,0.3,0.8,0.7,1.2,1.2l4.5,6.1c0.9,0.9,2,1.4,3.2,1.4c1.1,0,2.3-0.4,3.1-1.3
		C50.4,47,50.5,44.1,48.7,42.4z M18,32c-7.6,0-13.8-6.2-13.8-13.8c0-7.6,6.2-13.8,13.8-13.8c7.6,0,13.8,6.2,13.8,13.8
		C31.8,25.8,25.6,32,18,32z"/>
</g>
</svg>
