<?xml version="1.0" encoding="UTF-8" standalone="no"?>
<svg
   xmlns:dc="http://purl.org/dc/elements/1.1/"
   xmlns:cc="http://creativecommons.org/ns#"
   xmlns:rdf="http://www.w3.org/1999/02/22-rdf-syntax-ns#"
   xmlns:svg="http://www.w3.org/2000/svg"
   xmlns="http://www.w3.org/2000/svg"
   xmlns:sodipodi="http://sodipodi.sourceforge.net/DTD/sodipodi-0.dtd"
   xmlns:inkscape="http://www.inkscape.org/namespaces/inkscape"
   inkscape:version="1.0rc1 (09960d6, 2020-04-09)"
   sodipodi:docname="message.svg"
   version="1.1"
   viewBox="0 0 128 128"
   data-name="Layer 1"
   id="Layer_1">
  <metadata
     id="metadata111">
    <rdf:RDF>
      <cc:Work
         rdf:about="">
        <dc:format>image/svg+xml</dc:format>
        <dc:type
           rdf:resource="http://purl.org/dc/dcmitype/StillImage" />
        <dc:title>a</dc:title>
      </cc:Work>
    </rdf:RDF>
  </metadata>
  <sodipodi:namedview
     inkscape:current-layer="Layer_1"
     inkscape:window-maximized="0"
     inkscape:window-y="23"
     inkscape:window-x="0"
     inkscape:cy="78.751034"
     inkscape:cx="68.347306"
     inkscape:zoom="4.2008354"
     showgrid="false"
     id="namedview109"
     inkscape:window-height="683"
     inkscape:window-width="967"
     inkscape:pageshadow="2"
     inkscape:pageopacity="0"
     guidetolerance="10"
     gridtolerance="10"
     objecttolerance="10"
     borderopacity="1"
     bordercolor="#666666"
     pagecolor="#ffffff" />
  <defs
     id="defs96">
    <style
       id="style94">.cls-1{fill:#3b4551;}.cls-2{fill:#2b77c0;}</style>
  </defs>
  <title
     id="title98">a</title>
  <path
     style="fill:#000000"
     inkscape:connector-curvature="0"
     id="path100"
     d="m 112.97335,21.06168 h -97.9467 c -7.454,0 -13.99239,6.9757 -13.99239,14.92612 v 58.30162 c 0,7.44484 6.01577,13.05865 13.99239,13.05865 h 46.32586 l 17.98582,18.20331 a 4.66276,4.66276 0 0 0 6.63636,0 l 17.987,-18.20331 h 9.0117 c 7.97776,0 13.99239,-5.61381 13.99239,-13.05865 V 35.9878 c -4e-5,-7.95042 -6.53847,-14.92612 -13.99243,-14.92612 z m 4.66413,73.22773 c 0,2.75338 -2.512,3.73039 -4.66413,3.73039 H 102.0122 A 4.663,4.663 0 0 0 98.694,99.40675 L 82.6565,115.63783 66.619,99.40675 A 4.66108,4.66108 0 0 0 63.30082,98.01981 H 15.02665 c -2.15215,0 -4.66413,-0.977 -4.66413,-3.73039 V 35.9878 c 0,-2.77388 2.3537,-5.59787 4.66413,-5.59787 h 97.94671 c 2.30929,0 4.66413,2.824 4.66413,5.59787 z"
     class="cls-1" />
  <path
     inkscape:connector-curvature="0"
     id="path102"
     d="M 89.65271,43.76515 H 38.34729 a 3.4981,3.4981 0 1 0 0,6.99619 h 51.30542 a 3.4981,3.4981 0 1 0 0,-6.99619 z"
     class="cls-2" />
  <path
     inkscape:connector-curvature="0"
     id="path104"
     d="M 89.65271,60.70678 H 38.34729 a 3.4981,3.4981 0 1 0 0,6.99619 h 51.30542 a 3.4981,3.4981 0 1 0 0,-6.99619 z"
     class="cls-2" />
  <path
     inkscape:connector-curvature="0"
     id="path106"
     d="M 89.65271,77.64841 H 38.34729 a 3.4981,3.4981 0 1 0 0,6.99619 h 51.30542 a 3.4981,3.4981 0 1 0 0,-6.99619 z"
     class="cls-2" />
  <path
     inkscape:connector-curvature="0"
     id="path940"
     d="m 74.788132,107.28582 c -4.245821,-4.44365 -8.145374,-8.324342 -8.665671,-8.623768 -0.67103,-0.38617 -8.5572,-0.612796 -27.132301,-0.779699 C 14.081091,97.658536 12.755555,97.603332 11.81369,96.750593 10.826274,95.856616 10.823529,95.768104 10.823529,64.821182 V 33.788235 l 1.6,-1.6 1.6,-1.6 H 64 113.97647 l 1.6,1.6 1.6,1.6 v 31.032947 c 0,30.936846 -0.003,31.035722 -0.98918,31.929411 -0.86217,0.781369 -1.97953,0.926673 -8.70289,1.13176 l -7.713727,0.235294 -8.631435,8.623763 -8.631431,8.62377 z M 92.235294,83.764706 c 0.582635,-0.582635 0.941177,-1.568626 0.941177,-2.588235 0,-1.01961 -0.358542,-2.0056 -0.941177,-2.588236 C 91.315755,77.668696 90.666668,77.647059 64,77.647059 c -26.666667,0 -27.315754,0.02165 -28.235294,0.941176 -0.582633,0.582636 -0.941177,1.568626 -0.941177,2.588236 0,1.019609 0.358544,2.0056 0.941177,2.588235 0.91954,0.919539 1.568627,0.941176 28.235294,0.941176 26.666668,0 27.315755,-0.02165 28.235294,-0.941176 z m 0,-16.941177 c 0.582635,-0.582633 0.941177,-1.568627 0.941177,-2.588235 0,-1.019608 -0.358542,-2.005602 -0.941177,-2.588235 C 91.315755,60.727519 90.666668,60.705882 64,60.705882 c -26.666667,0 -27.315754,0.02164 -28.235294,0.941177 -0.582633,0.582633 -0.941177,1.568627 -0.941177,2.588235 0,1.019608 0.358544,2.005602 0.941177,2.588235 0.91954,0.919541 1.568627,0.941177 28.235294,0.941177 26.666668,0 27.315755,-0.02164 28.235294,-0.941177 z m 0,-16.941176 c 0.582635,-0.582633 0.941177,-1.568627 0.941177,-2.588235 0,-1.019608 -0.358542,-2.005603 -0.941177,-2.588236 C 91.315755,43.786342 90.666668,43.764706 64,43.764706 c -26.666667,0 -27.315754,0.02164 -28.235294,0.941176 -0.582633,0.582633 -0.941177,1.568628 -0.941177,2.588236 0,1.019608 0.358544,2.005602 0.941177,2.588235 0.91954,0.91954 1.568627,0.941176 28.235294,0.941176 26.666668,0 27.315755,-0.02164 28.235294,-0.941176 z"
     style="fill:#ffffff;stroke:none;stroke-width:3.76471;stroke-linecap:round;stroke-linejoin:round;stroke-miterlimit:64" />
</svg>
