<?xml version="1.0" encoding="utf-8"?>
<!-- Generator: Adobe Illustrator 19.0.0, SVG Export Plug-In . SVG Version: 6.00 Build 0)  -->
<svg version="1.1" id="reset_icon" xmlns="http://www.w3.org/2000/svg" xmlns:xlink="http://www.w3.org/1999/xlink" x="0px" y="0px"
	 viewBox="0 0 50 50" style="enable-background:new 0 0 50 50;" xml:space="preserve">
<style type="text/css">
	.st0{fill:#FFFFFF;}
</style>
<path id="arrow" class="st0" d="M25,40c-8.3,0-15-6.7-15-15c0-8.3,6.7-15,15-15c5.1,0,9.6,2.6,12.3,6.5l-7.7,7.7l20.3,0l0-20.3
	l-5.5,5.5C39.9,3.7,32.9,0,25,0C11.2,0,0,11.2,0,25s11.2,25,25,25c10,0,18.6-5.8,22.6-14.3l-8.7-5C36.6,36.1,31.3,40,25,40z"/>
</svg>
