<?xml version="1.0" encoding="utf-8"?>
<!-- Generator: Adobe Illustrator 19.0.0, SVG Export Plug-In . SVG Version: 6.00 Build 0)  -->
<svg version="1.1" id="settings_icon" xmlns="http://www.w3.org/2000/svg" xmlns:xlink="http://www.w3.org/1999/xlink" x="0px"
	 y="0px" viewBox="0 0 50 50" style="enable-background:new 0 0 50 50;" xml:space="preserve">
<style type="text/css">
	.st0{fill:#595959;}
	.st1{fill:#FFFFFF;}
</style>
<g id="group">
	<path id="color" class="st0" d="M43.7,31.4l4.2-1.5c0.3-1.6,0.5-3.2,0.5-4.9c0-1.5-0.2-3-0.4-4.5L43.7,19c-1-0.4-1.5-1.5-1-2.5
		l2-4.2c-1.7-2.6-3.9-4.9-6.5-6.6l-4.3,2c-1,0.5-2.1,0-2.5-1l-1.6-4.5c-1.5-0.3-3.1-0.5-4.8-0.5c-1.5,0-3,0.1-4.4,0.4l-1.6,4.6
		c-0.4,1-1.5,1.5-2.5,1l-4.4-2.1c-2.5,1.7-4.7,3.9-6.4,6.4l2.1,4.4c0.5,1,0,2.1-1,2.5l-4.6,1.6C2,22,1.9,23.5,1.9,25
		c0,1.6,0.2,3.2,0.5,4.7l4.5,1.6c1,0.4,1.5,1.5,1,2.5l-2,4.3c1.7,2.6,4,4.8,6.6,6.5l4.2-2c1-0.5,2.1,0,2.5,1l1.5,4.3
		c1.5,0.3,3,0.4,4.5,0.4c1.7,0,3.3-0.2,4.8-0.5l1.5-4.2c0.4-1,1.5-1.5,2.5-1l4,1.9c2.7-1.7,4.9-4,6.7-6.7l-1.9-4
		C42.2,32.9,42.7,31.7,43.7,31.4z M25.2,32.4c-4.1,0-7.5-3.4-7.5-7.5s3.4-7.5,7.5-7.5c4.1,0,7.5,3.4,7.5,7.5S29.3,32.4,25.2,32.4z"
		/>
	<path id="lining" class="st1" d="M25.1,49.8c-1.6,0-3.2-0.2-4.8-0.5l-0.8-0.2l-1.8-5.1c0-0.1-0.1-0.2-0.2-0.2c-0.1,0-0.1,0-0.2,0
		l-4.9,2.3l-0.7-0.5c-2.8-1.8-5.2-4.1-7-6.9l-0.5-0.7l2.4-5c0-0.1,0-0.2,0-0.2s-0.1-0.1-0.2-0.2L1,30.8L0.9,30
		c-0.3-1.6-0.5-3.3-0.5-5c0-1.6,0.2-3.1,0.5-4.7L1,19.5l5.4-1.9c0.1,0,0.2-0.1,0.2-0.2s0-0.1,0-0.2l-2.5-5.2l0.5-0.7
		c1.8-2.7,4.1-5,6.8-6.8l0.7-0.5l5.2,2.5c0.1,0,0.2,0,0.2,0c0.1,0,0.1-0.1,0.2-0.2l1.9-5.4l0.8-0.2C23.7,0,27,0.1,30.2,0.7L31,0.9
		l1.9,5.3c0,0.1,0.1,0.2,0.2,0.2c0.1,0,0.1,0,0.2,0l5-2.4l0.7,0.5c2.8,1.9,5.1,4.2,6.9,7l0.5,0.7l-2.3,4.9c0,0.1,0,0.2,0,0.2
		c0,0.1,0.1,0.1,0.2,0.2l5.1,1.8l0.2,0.8c0.3,1.6,0.5,3.2,0.5,4.8c0,1.7-0.2,3.5-0.5,5.2L49.2,31l-5,1.8c-0.1,0-0.2,0.1-0.2,0.2
		c0,0.1,0,0.1,0,0.2l2.3,4.7l-0.5,0.7c-1.9,2.8-4.3,5.2-7.1,7.1L38,46.2l-4.7-2.3c-0.1,0-0.2,0-0.2,0c-0.1,0-0.1,0.1-0.2,0.2l-1.8,5
		l-0.8,0.2C28.6,49.6,26.9,49.8,25.1,49.8z M21.7,46.5c2.4,0.4,4.8,0.4,7.1,0l1.2-3.4c0.3-0.9,1-1.6,1.8-1.9
		c0.9-0.4,1.8-0.3,2.7,0.1l3.2,1.5c2-1.4,3.7-3.1,5.1-5.1l-1.5-3.2c-0.4-0.8-0.4-1.8-0.1-2.7c0.4-0.9,1.1-1.5,1.9-1.8l3.4-1.2
		c0.2-1.2,0.3-2.5,0.3-3.7c0-1.1-0.1-2.3-0.3-3.4l-3.4-1.2c-0.9-0.3-1.6-1-1.9-1.8s-0.3-1.8,0.1-2.7l1.6-3.4c-1.4-1.9-3-3.6-4.9-5
		l-3.5,1.6c-0.8,0.4-1.8,0.4-2.7,0.1c-0.9-0.4-1.5-1.1-1.8-1.9l-1.3-3.7c-2.3-0.4-4.6-0.4-6.9-0.1l-1.3,3.8c-0.3,0.9-1,1.6-1.8,1.9
		c-0.9,0.4-1.8,0.3-2.7-0.1l-3.6-1.7c-1.9,1.4-3.5,3-4.8,4.8l1.7,3.7c0.4,0.8,0.4,1.8,0.1,2.7c-0.4,0.9-1.1,1.5-1.9,1.8l-3.8,1.3
		c-0.2,1.1-0.3,2.2-0.3,3.3c0,1.2,0.1,2.4,0.3,3.6l3.7,1.3c0.9,0.3,1.6,1,1.9,1.8s0.3,1.8-0.1,2.7l-1.6,3.5c1.4,1.9,3.1,3.5,5,4.9
		l3.4-1.6c0.8-0.4,1.8-0.4,2.7-0.1c0.9,0.4,1.5,1.1,1.8,1.9L21.7,46.5z M25.2,33.9c-5,0-9-4-9-9c0-5,4-9,9-9s9,4,9,9
		C34.2,29.8,30.1,33.9,25.2,33.9z M25.2,18.9c-3.3,0-6,2.7-6,6s2.7,6,6,6c3.3,0,6-2.7,6-6S28.5,18.9,25.2,18.9z"/>
</g>
</svg>
