<?xml version="1.0" encoding="utf-8"?>
<!-- Generator: Adobe Illustrator 19.0.0, SVG Export Plug-In . SVG Version: 6.00 Build 0)  -->
<svg version="1.1" id="split_horizontal_icon" xmlns="http://www.w3.org/2000/svg" xmlns:xlink="http://www.w3.org/1999/xlink"
	 x="0px" y="0px" viewBox="0 0 50 50" style="enable-background:new 0 0 50 50;" xml:space="preserve">
<style type="text/css">
	.st0{fill:#ED1C24;}
	.st1{fill:#7092BE;}
	.st2{fill:#FFFFFF;}
</style>
<g id="group">
	<g id="rectangles">
		<g id="rectangle_left">
			<rect id="rectangle_left_color" class="st0" width="22.5" height="50"/>
			<path id="rectangle_left_lining" d="M19.5,3v44H3V3H19.5 M22.5,0H0v50h22.5V0L22.5,0z"/>
		</g>
		<g id="rectangle_right">
			<rect id="rectangle_right_color" x="27.5" class="st1" width="22.5" height="50"/>
			<path id="rectangle_right_lining" d="M47,3v44H30.5V3H47 M50,0H27.5v50H50V0L50,0z"/>
		</g>
	</g>
	<g id="arrows">
		<path id="arrow_color" class="st2" d="M35.5,22H14.3l5.7-7.1h-7.1L5.6,24c-0.5,0.6-0.5,1.7,0,2.3l7,8.8h7.1l-5.5-6.8h21.2L30,35.1
			h7.1l7-8.8c0.5-0.6,0.5-1.7,0-2.3l-7.3-9.1h-7.1L35.5,22z"/>
		<path id="arrow_lining" d="M37.5,36.1h-9.6l5.5-6.8h-17l5.5,6.8h-9.6l-7.3-9.2c-0.8-1-0.8-2.6,0-3.6l7.6-9.5h9.6L16.4,21h17
			l-5.7-7.1h9.6l7.6,9.5c0.8,1,0.8,2.6,0,3.6L37.5,36.1z M32.1,34.1h4.5l6.7-8.4c0.2-0.3,0.2-0.8,0-1.1l-7-8.7h-4.5l5.7,7.1H12.2
			l5.7-7.1h-4.5l-7,8.7c-0.2,0.3-0.2,0.8,0,1.1l6.7,8.4h4.5l-5.5-6.8h25.3L32.1,34.1z"/>
	</g>
</g>
</svg>
