<?xml version="1.0" encoding="utf-8"?>
<!-- Generator: Adobe Illustrator 19.0.0, SVG Export Plug-In . SVG Version: 6.00 Build 0)  -->
<svg version="1.1" id="split_vertical_icon" xmlns="http://www.w3.org/2000/svg" xmlns:xlink="http://www.w3.org/1999/xlink"
	 x="0px" y="0px" viewBox="0 0 50 50" style="enable-background:new 0 0 50 50;" xml:space="preserve">
<style type="text/css">
	.st0{fill:#ED1C24;}
	.st1{fill:#7092BE;}
	.st2{fill:#FFFFFF;}
</style>
<g id="group">
	<g id="rectangles">
		<g id="rectangle_left">
			<rect id="rectangle_left_color" x="1.3" y="1.1" class="st0" width="47.5" height="20.3"/>
			<path id="rectangle_left_lining" d="M47,19.5H3V3h44V19.5 M50,22.5V0H0v22.5H50L50,22.5z"/>
		</g>
		<g id="rectangle_right">
			<rect id="rectangle_right_color" x="1.3" y="28.6" class="st1" width="47.5" height="20.3"/>
			<path id="rectangle_right_lining" d="M47,47H3V30.5h44V47 M50,50V27.5H0V50H50L50,50z"/>
		</g>
	</g>
	<g id="arrows">
		<path id="arrow_color" class="st2" d="M28,35.5V14.3l7.1,5.7v-7.1L26,5.6c-0.6-0.5-1.7-0.5-2.3,0l-8.8,7v7.1l6.8-5.5v21.2L14.9,30
			v7.1l8.8,7c0.6,0.5,1.7,0.5,2.3,0l9.1-7.3v-7.1L28,35.5z"/>
		<path id="arrow_lining" d="M13.9,37.5v-9.6l6.8,5.5v-17l-6.8,5.5v-9.6L23.1,5c1-0.8,2.6-0.8,3.6,0l9.5,7.6v9.6L29,16.4v17l7.1-5.7
			v9.6l-9.5,7.6c-1,0.8-2.6,0.8-3.6,0L13.9,37.5z M15.9,32.1v4.5l8.4,6.7c0.3,0.2,0.8,0.2,1.1,0l8.7-7v-4.5L27,37.5V12.2l7.1,5.7
			v-4.5l-8.7-7c-0.3-0.2-0.8-0.2-1.1,0l-8.4,6.7v4.5l6.8-5.5v25.3L15.9,32.1z"/>
	</g>
</g>
</svg>
