<?xml version="1.0" encoding="UTF-8" standalone="no"?>
<!DOCTYPE svg PUBLIC "-//W3C//DTD SVG 1.1//EN" "http://www.w3.org/Graphics/SVG/1.1/DTD/svg11.dtd">
<svg version="1.1" xmlns="http://www.w3.org/2000/svg" xmlns:xlink="http://www.w3.org/1999/xlink" preserveAspectRatio="xMidYMid meet" viewBox="0 0 640 640" width="64" height="64"><defs><path d="M40 0L140 0L140 640L40 640L40 0Z" id="b1EBE5FdoX"></path><path d="M260 0L380 0L380 120L260 120L260 0Z" id="elJuT61EI"></path><path d="M260 240L380 240L380 360L260 360L260 240Z" id="hx0Zdvrw1"></path><path d="M260 120L380 120L380 240L260 240L260 120Z" id="aaLaoNXPM"></path><path d="M380 0L500 0L500 120L380 120L380 0Z" id="d1Ak0Q6gMB"></path><path d="M380 120L500 120L500 240L380 240L380 120Z" id="d2q2dFLcao"></path><path d="M380 240L500 240L500 360L380 360L380 240Z" id="b1eMOpidFm"></path><path d="M500 0L620 0L620 120L500 120L500 0Z" id="d2yYvJnRD"></path><path d="M500 240L620 240L620 360L500 360L500 240Z" id="av6sMCJOS"></path><path d="M140 0L260 0L260 120L140 120L140 0Z" id="erp4Pce3I"></path><path d="M140 120L260 120L260 240L140 240L140 120Z" id="cfY54nXBs"></path><path d="M140 240L260 240L260 360L140 360L140 240Z" id="a7R5Lp5me"></path><path d="M500 120L620 120L620 240L500 240L500 120Z" id="b2hYaY6KWz"></path></defs><g><g><g><use xlink:href="#b1EBE5FdoX" opacity="1" fill="#000000" fill-opacity="1"></use></g><g><use xlink:href="#elJuT61EI" opacity="1" fill="#000000" fill-opacity="1"></use></g><g><use xlink:href="#hx0Zdvrw1" opacity="1" fill="#000000" fill-opacity="1"></use></g><g><use xlink:href="#aaLaoNXPM" opacity="1" fill="#ffffff" fill-opacity="1"></use></g><g><use xlink:href="#d1Ak0Q6gMB" opacity="1" fill="#ffffff" fill-opacity="1"></use></g><g><use xlink:href="#d2q2dFLcao" opacity="1" fill="#000000" fill-opacity="1"></use></g><g><use xlink:href="#b1eMOpidFm" opacity="1" fill="#ffffff" fill-opacity="1"></use></g><g><use xlink:href="#d2yYvJnRD" opacity="1" fill="#000000" fill-opacity="1"></use></g><g><use xlink:href="#av6sMCJOS" opacity="1" fill="#000000" fill-opacity="1"></use></g><g><use xlink:href="#erp4Pce3I" opacity="1" fill="#ffffff" fill-opacity="1"></use></g><g><use xlink:href="#cfY54nXBs" opacity="1" fill="#000000" fill-opacity="1"></use></g><g><use xlink:href="#a7R5Lp5me" opacity="1" fill="#ffffff" fill-opacity="1"></use></g><g><use xlink:href="#b2hYaY6KWz" opacity="1" fill="#ffffff" fill-opacity="1"></use></g></g></g></svg>