<?xml version="1.0" encoding="utf-8"?>
<!-- Generator: Adobe Illustrator 19.0.0, SVG Export Plug-In . SVG Version: 6.00 Build 0)  -->
<svg version="1.1" id="step_icon" xmlns="http://www.w3.org/2000/svg" xmlns:xlink="http://www.w3.org/1999/xlink" x="0px" y="0px"
	 viewBox="0 0 50 50" style="enable-background:new 0 0 50 50;" xml:space="preserve">
<style type="text/css">
	.st0{fill:#FFFFFF;}
</style>
<g id="group">
	<g id="left_foot">
		<path id="heel_1_" class="st0" d="M19.1,27.8c-1.3,0.4-2.7,0.7-4,0.6l-3.1-0.1c-0.3,1-0.3,2.1-0.1,3.4c0.7,4.3,4,7.9,7.3,7.3
			c3.3-0.5,5.4-4.9,4.8-9.2c-0.2-1.3-0.6-2.4-1.2-3.3L19.1,27.8z"/>
		<path id="point_1_" class="st0" d="M14.5,24.6c1.4,0,2.7-0.2,4-0.6l3.9-1.3c0.9-3.2,1.2-7.3,0.5-11.4c-1-6.4-5.5-11.8-9.9-11.1
			S5.9,7.4,6.9,13.7c0.6,4.2,2.1,8,4,10.8L14.5,24.6z"/>
	</g>
	<g id="right_foot">
		<path id="heel" class="st0" d="M34.2,39.3c-1.4,0-2.7-0.3-4-0.8l-2.9-1.2c-0.6,0.8-1.1,1.9-1.3,3.1c-0.9,4.3,1,8.8,4.3,9.5
			s6.8-2.7,7.7-6.9c0.3-1.3,0.3-2.5,0-3.5L34.2,39.3z"/>
		<path id="point" class="st0" d="M31,34.7c1.3,0.5,2.6,0.8,4,0.8l4.1,0.1c2-2.7,3.7-6.4,4.5-10.5c1.3-6.4-1-13-5.4-13.9
			S29,15.7,27.7,21.8c-0.9,4.1-0.8,8.3-0.1,11.5L31,34.7z"/>
	</g>
</g>
</svg>
