<?xml version="1.0" encoding="utf-8"?>
<!-- Generator: Adobe Illustrator 19.0.0, SVG Export Plug-In . SVG Version: 6.00 Build 0)  -->
<svg version="1.1" id="three_icon" xmlns="http://www.w3.org/2000/svg" xmlns:xlink="http://www.w3.org/1999/xlink" x="0px" y="0px"
	 viewBox="0 0 50 50" style="enable-background:new 0 0 50 50;" xml:space="preserve">
<style type="text/css">
	.st0{fill:#FFFFFF;}
</style>
<g id="group">
	<g id="circles">
		<circle id="left" class="st0" cx="14.5" cy="35" r="9.5"/>
		<circle id="right" class="st0" cx="35.8" cy="35" r="9.5"/>
		<circle id="top" class="st0" cx="25.3" cy="15" r="9.5"/>
	</g>
	<path id="lining" d="M35.8,23.5c-1.2,0-2.4,0.2-3.5,0.6c2.7-2.1,4.4-5.4,4.4-9.1c0-6.3-5.2-11.5-11.5-11.5
		c-6.3,0-11.5,5.2-11.5,11.5c0,3.7,1.8,7.1,4.6,9.2c-1.2-0.4-2.5-0.7-3.8-0.7C8.2,23.5,3,28.7,3,35s5.2,11.5,11.5,11.5
		c4.8,0,9-3,10.7-7.2c1.7,4.2,5.8,7.2,10.7,7.2c6.3,0,11.5-5.2,11.5-11.5S42.2,23.5,35.8,23.5z M25.3,7.5c4.1,0,7.5,3.4,7.5,7.5
		s-3.4,7.5-7.5,7.5s-7.5-3.4-7.5-7.5S21.1,7.5,25.3,7.5z M14.5,42.5C10.4,42.5,7,39.1,7,35s3.4-7.5,7.5-7.5S22,30.9,22,35
		S18.6,42.5,14.5,42.5z M25.2,30.7c-0.8-2-2.1-3.7-3.8-4.9c1.2,0.4,2.5,0.7,3.8,0.7c1.2,0,2.4-0.2,3.5-0.6
		C27.2,27.2,25.9,28.8,25.2,30.7z M35.8,42.5c-4.1,0-7.5-3.4-7.5-7.5s3.4-7.5,7.5-7.5s7.5,3.4,7.5,7.5S40,42.5,35.8,42.5z"/>
</g>
</svg>
