<?xml version="1.0" encoding="UTF-8" standalone="no"?>
<!DOCTYPE svg PUBLIC "-//W3C//DTD SVG 1.1//EN" "http://www.w3.org/Graphics/SVG/1.1/DTD/svg11.dtd">
<svg version="1.1" xmlns="http://www.w3.org/2000/svg" xmlns:xlink="http://www.w3.org/1999/xlink" preserveAspectRatio="xMidYMid meet" viewBox="0 0 400 50" width="400" height="50"><defs><path d="M200.16 36.13L376.38 5.05L377.72 5L378.98 5.29L380.11 5.88L381.06 6.74L381.76 7.83L382.17 9.11L382.23 10.45L381.94 11.71L381.34 12.84L380.48 13.79L379.39 14.49L378.12 14.9L378.12 14.9L200.85 46.16L199.51 46.21L198.4 45.96L198.38 45.96L198.38 45.96L21.11 14.7L21.11 14.7L19.84 14.29L18.75 13.59L17.89 12.64L17.29 11.51L17 10.25L17.06 8.91L17.46 7.63L18.17 6.54L19.11 5.68L20.25 5.09L21.51 4.8L22.85 4.85L200.12 36.11L200.12 36.11L200.16 36.13Z" id="a29Jl2DQDw"></path></defs><g><g><g><use xlink:href="#a29Jl2DQDw" opacity="1" fill="#000000" fill-opacity="0.35"></use></g></g></g></svg>