<?xml version="1.0" encoding="UTF-8" standalone="no"?>
<!DOCTYPE svg PUBLIC "-//W3C//DTD SVG 1.1//EN" "http://www.w3.org/Graphics/SVG/1.1/DTD/svg11.dtd">
<svg version="1.1" xmlns="http://www.w3.org/2000/svg" xmlns:xlink="http://www.w3.org/1999/xlink" preserveAspectRatio="xMidYMid meet" viewBox="0 0 400 50" width="400" height="50"><defs><path d="M200.85 4.85L378.12 36.11L379.39 36.52L380.48 37.22L381.34 38.17L381.94 39.3L382.23 40.56L382.17 41.9L381.76 43.18L381.06 44.27L380.11 45.13L378.98 45.72L377.72 46.01L376.38 45.96L376.38 45.96L200.16 14.89L200.12 14.9L22.85 46.16L21.51 46.21L20.25 45.92L19.11 45.33L18.17 44.47L17.46 43.38L17.06 42.1L17 40.76L17.29 39.5L17.89 38.37L18.75 37.42L19.84 36.72L21.11 36.31L21.11 36.31L198.38 5.05L198.4 5.05L199.51 4.8L200.85 4.85L200.85 4.85L200.85 4.85Z" id="a6ieUM6HW3"></path></defs><g><g><g><use xlink:href="#a6ieUM6HW3" opacity="1" fill="#000000" fill-opacity="0.35"></use></g></g></g></svg>