<?xml version="1.0" encoding="UTF-8" standalone="no"?>
<!DOCTYPE svg PUBLIC "-//W3C//DTD SVG 1.1//EN" "http://www.w3.org/Graphics/SVG/1.1/DTD/svg11.dtd">
<svg version="1.1" xmlns="http://www.w3.org/2000/svg" xmlns:xlink="http://www.w3.org/1999/xlink" preserveAspectRatio="xMidYMid meet" viewBox="0 0 320 640" width="320" height="640"><defs><path d="M0 50L320 50L320 110L0 110L0 50Z" id="hyceqSsnC"></path><path d="M31.25 0L90 0L90 640L31.25 640L31.25 0Z" id="f3tC6HEVuT"></path><path d="M231.25 0L290 0L290 640L231.25 640L231.25 0Z" id="a5zxFcEPZr"></path><path d="M0 170L320 170L320 230L0 230L0 170Z" id="b2s5QYyu73"></path><path d="M0 290L320 290L320 350L0 350L0 290Z" id="estG830K1"></path><path d="M0 410L320 410L320 470L0 470L0 410Z" id="d8WnXx0IQ"></path><path d="M0 530L320 530L320 590L0 590L0 530Z" id="a9l1eFecu"></path></defs><g><g><g><use xlink:href="#hyceqSsnC" opacity="1" fill="#000000" fill-opacity="1"></use></g><g><use xlink:href="#f3tC6HEVuT" opacity="1" fill="#000000" fill-opacity="1"></use></g><g><use xlink:href="#a5zxFcEPZr" opacity="1" fill="#000000" fill-opacity="1"></use></g><g><use xlink:href="#b2s5QYyu73" opacity="1" fill="#000000" fill-opacity="1"></use></g><g><use xlink:href="#estG830K1" opacity="1" fill="#000000" fill-opacity="1"></use></g><g><use xlink:href="#d8WnXx0IQ" opacity="1" fill="#000000" fill-opacity="1"></use></g><g><use xlink:href="#a9l1eFecu" opacity="1" fill="#000000" fill-opacity="1"></use></g></g></g></svg>