<?xml version="1.0" encoding="utf-8"?>
<!-- Generator: Adobe Illustrator 19.0.0, SVG Export Plug-In . SVG Version: 6.00 Build 0)  -->
<svg version="1.1" id="trash_icon" xmlns="http://www.w3.org/2000/svg" xmlns:xlink="http://www.w3.org/1999/xlink" x="0px" y="0px"
	 viewBox="0 0 50 50" style="enable-background:new 0 0 50 50;" xml:space="preserve">
<style type="text/css">
	.st0{fill:#FFFFFF;}
	.st1{fill:#EDEDED;}
</style>
<g id="group">
	<path id="lining" class="st0" d="M36.3,43.3H14c-0.3,0-0.5-0.2-0.5-0.5v-4h-1.8c-0.3,0-0.5-0.2-0.5-0.5V16.7H8.8
		c-0.3,0-0.5-0.2-0.5-0.5v-4c0-0.3,0.2-0.5,0.5-0.5h8.9V8.1c0-0.8,0.7-1.5,1.5-1.5h12.5c0.8,0,1.5,0.7,1.5,1.5v3.6h8.3
		c0.3,0,0.5,0.2,0.5,0.5v4c0,0.3-0.2,0.5-0.5,0.5h-2.4v21.7c0,0.3-0.2,0.5-0.5,0.5h-1.8v4C36.8,43.1,36.5,43.3,36.3,43.3z
		 M14.5,42.3h21.2v-4c0-0.3,0.2-0.5,0.5-0.5h1.8V16.2c0-0.3,0.2-0.5,0.5-0.5h2.4v-3h-8.3c-0.3,0-0.5-0.2-0.5-0.5V8.1
		c0-0.3-0.2-0.5-0.5-0.5H19.2c-0.3,0-0.5,0.2-0.5,0.5v4.1c0,0.3-0.2,0.5-0.5,0.5H9.3v3h2.4c0.3,0,0.5,0.2,0.5,0.5v21.7H14
		c0.3,0,0.5,0.2,0.5,0.5V42.3z"/>
	<path id="color" class="st1" d="M32.7,12.2V8.1c0-0.6-0.4-1-1-1H19.2c-0.6,0-1,0.4-1,1v4.1H8.8v4h2.9v22.2H14v4.5h22.2v-4.5h2.3
		V16.2h2.9v-4H32.7z M20.2,9.1h10.5v3.1H20.2V9.1z M21.3,37.9h-1c-2.2,0-4.1-1.8-4.1-4.1V23.5c0-2.2,1.8-4.1,4.1-4.1h1V37.9z
		 M27.7,37.9h-5.1V19.4h5.1V37.9z M34,34.1c0,2.1-1.7,3.8-3.8,3.8h-1.4V19.4h1.4c2.1,0,3.8,1.7,3.8,3.7V34.1z"/>
</g>
</svg>
