<?xml version="1.0" encoding="utf-8"?>
<!-- Generator: Adobe Illustrator 19.0.0, SVG Export Plug-In . SVG Version: 6.00 Build 0)  -->
<svg version="1.1" id="var_icon" xmlns="http://www.w3.org/2000/svg" xmlns:xlink="http://www.w3.org/1999/xlink" x="0px" y="0px"
	 viewBox="0 0 50 50" style="enable-background:new 0 0 50 50;" xml:space="preserve">
<style type="text/css">
	.st0{fill:#FFFFFF;}
	.st1{fill:#6940EE;}
</style>
<g id="group">
	<path id="white_lining" class="st0" d="M47.1,0H3H2C0.9,0,0,0.9,0,2v1V47v1c0,1.1,0.9,2,2,2h1h44.1h1c1.1,0,2-0.9,2-2v-1V3V2
		c0-1.1-0.9-2-2-2H47.1z"/>
	<path id="purple_lining" class="st1" d="M3,6.2v37.6C3,45.6,4.4,47,6.2,47h37.6c1.8,0,3.2-1.4,3.2-3.2V6.2c0-1.8-1.4-3.2-3.2-3.2
		H6.2C4.4,3,3,4.4,3,6.2z"/>
	<polyline id="cross_background" class="st0" points="43.1,7 43.1,43 7,43 7,7 43.1,7 	"/>
	<path id="cross" d="M31,22.9l5.6-5.1c0.3-0.3,0.6-0.5,1-0.6l3.7-1.5c0.1-0.1,0.1-0.2,0.1-0.3v-4c0-0.2-0.2-0.4-0.4-0.4H29.3
		c-0.2,0-0.4,0.2-0.4,0.4L28,20.5c-0.1,0.9-0.7,1.6-1.6,1.7l-0.8,0.2c-0.2,0-0.5,0-0.7,0L24,22.2c-0.9-0.2-1.5-0.9-1.6-1.7l-0.9-9.2
		c0-0.2-0.2-0.4-0.4-0.4H9.3c-0.2,0-0.4,0.2-0.4,0.4v4c0,0.1,0.1,0.2,0.1,0.3l3.7,1.5c0.4,0.1,0.7,0.4,1,0.6l5.7,5.1
		c0.2,0.2,0.4,0.4,0.6,0.7l0.6,0.9c0.3,0.5,0.3,1.2,0,1.7l-0.9,0.7l-6.4,5.8c-0.3,0.3-0.7,0.5-1.1,0.7L9,34.5
		c-0.1,0.1-0.1,0.2-0.1,0.3v4c0,0.2,0.2,0.4,0.4,0.4H21c0.2,0,0.4-0.2,0.4-0.4l0.9-8.6c0.1-0.9,0.7-1.6,1.6-1.7l0.9-0.2
		c0.2,0,0.5,0,0.7,0l0.9,0.2c0.9,0.2,1.5,0.9,1.6,1.7l0.9,8.6c0,0.2,0.2,0.4,0.4,0.4H41c0.2,0,0.4-0.2,0.4-0.4v-4
		c0-0.1-0.1-0.2-0.1-0.3l-3.1-1.1c-0.4-0.1-0.8-0.4-1.2-0.7l-6.4-5.8l-0.8-0.7c-0.3-0.5-0.3-1.2,0-1.7l0.6-0.9
		C30.5,23.4,30.7,23.1,31,22.9z"/>
</g>
</svg>
