<?xml version="1.0" encoding="utf-8"?>
<!-- Generator: Adobe Illustrator 19.0.0, SVG Export Plug-In . SVG Version: 6.00 Build 0)  -->
<svg version="1.1" id="visible_zones_icon" xmlns="http://www.w3.org/2000/svg" xmlns:xlink="http://www.w3.org/1999/xlink" x="0px"
	 y="0px" viewBox="0 0 50 50" style="enable-background:new 0 0 50 50;" xml:space="preserve">
<style type="text/css">
	.st0{fill:#FFFFFF;}
	.st1{fill:#00FF12;}
</style>
<g id="group_25_">
	<g id="eye">
		<path id="eye_lining" class="st0" d="M25.8,12.7c12,0,21.5,10.9,21.9,11.4c0.3,0.4,0.5,0.7,0.5,1.2v0.6c0,0.5-0.2,0.8-0.5,1.2
			c-0.5,0.5-10,11.4-22,11.4h-1.6c-12,0-21.5-10.9-21.9-11.4c-0.2-0.4-0.4-0.7-0.4-1.2v-0.6c0-0.5,0.2-0.8,0.5-1.2
			c0.4-0.5,9.9-11.4,21.9-11.4H25.8 M25.8,10.9h-1.6C11,10.9,1,22.8,0.9,23l0,0l0,0C0.6,23.3,0,24.1,0,25.3v0.6c0,0.9,0.3,1.6,0.6,2
			l0.1,0.2l0.1,0.2c0.1,0.1,10.1,12.1,23.3,12.1h1.6c11,0,19.9-8.3,23.2-11.8l0.1-0.1l0.1-0.1l0.1-0.1c0.2-0.3,0.8-1.1,0.8-2.3v-0.6
			c0-1.2-0.6-2-0.8-2.3l0,0l0,0C49,22.8,39,10.9,25.8,10.9L25.8,10.9z"/>
		<path id="eye_color" class="st1" d="M25.7,38.6h-1.6c-12,0-21.5-10.9-21.9-11.4c-0.2-0.4-0.4-0.7-0.4-1.2v-0.6
			c0-0.5,0.2-0.8,0.5-1.2c0.4-0.5,9.9-11.4,21.9-11.4h1.6c12,0,21.5,10.9,21.9,11.4c0.3,0.4,0.5,0.7,0.5,1.2v0.6
			c0,0.5-0.2,0.8-0.5,1.2C47.2,27.6,37.7,38.6,25.7,38.6z M7.5,24.1c-0.9,0.8-0.9,2.2,0,3c3.3,2.9,9.6,7.7,16.7,7.7h1.6
			c7.1,0,13.4-4.7,16.7-7.7c0.9-0.8,0.9-2.2,0-3c-3.3-2.9-9.6-7.7-16.7-7.7h-1.6C17.1,16.5,10.8,21.2,7.5,24.1z"/>
	</g>
	<g id="pupil">
		<path id="pupil_lining" class="st0" d="M25.1,19.3c4.9,0,8.8,2.9,8.8,6.5s-4,6.5-8.8,6.5s-8.8-2.9-8.8-6.5S20.2,19.3,25.1,19.3
			 M25.1,17.4c-5.9,0-10.7,3.7-10.7,8.3s4.8,8.3,10.7,8.3s10.7-3.7,10.7-8.3S30.9,17.4,25.1,17.4L25.1,17.4z"/>
		<ellipse id="pupil_color" class="st1" cx="25.1" cy="25.8" rx="8.8" ry="6.5"/>
	</g>
</g>
</svg>
