<?xml version="1.0" encoding="utf-8"?>
<!-- Generator: Adobe Illustrator 19.0.0, SVG Export Plug-In . SVG Version: 6.00 Build 0)  -->
<svg version="1.1" id="visible_icon" xmlns="http://www.w3.org/2000/svg" xmlns:xlink="http://www.w3.org/1999/xlink" x="0px"
	 y="0px" viewBox="0 0 50 50" style="enable-background:new 0 0 50 50;" xml:space="preserve">
<style type="text/css">
	.st0{fill:#FFFFFF;}
</style>
<g id="group">
	<path id="lining" class="st0" d="M25.8,38.7h-1.7c-13,0-23.3-11.9-23.7-12.4C0.2,25.9,0,25.5,0,25v-0.7c0-0.5,0.2-0.9,0.5-1.3
		c0.4-0.5,10.7-12.4,23.7-12.4h1.7c13,0,23.3,11.9,23.7,12.4c0.3,0.4,0.5,0.8,0.5,1.3V25c0,0.5-0.2,0.9-0.5,1.3
		C49.1,26.8,38.8,38.7,25.8,38.7z M6.1,23c-1,0.9-1,2.4,0,3.3c3.6,3.2,10.4,8.4,18.1,8.4h1.7c7.7,0,14.5-5.1,18.1-8.4
		c1-0.9,1-2.4,0-3.3c-3.6-3.2-10.4-8.4-18.1-8.4h-1.7C16.5,14.7,9.7,19.8,6.1,23z"/>
	<ellipse id="pupil" class="st0" cx="25.1" cy="24.8" rx="8.7" ry="6.4"/>
</g>
</svg>
