<?xml version="1.0" encoding="UTF-8" standalone="no"?>
<!DOCTYPE svg PUBLIC "-//W3C//DTD SVG 1.1//EN" "http://www.w3.org/Graphics/SVG/1.1/DTD/svg11.dtd">
<svg version="1.1" xmlns="http://www.w3.org/2000/svg" xmlns:xlink="http://www.w3.org/1999/xlink" preserveAspectRatio="xMidYMid meet" viewBox="0 0 640 640" width="640" height="640"><defs><path d="M34.56 640C15.36 640 0 624.64 0 605.44C0 548.35 0 91.65 0 34.56C0 15.36 15.36 0 34.56 0C91.65 0 548.35 0 605.44 0C624.64 0 640 15.36 640 34.56C640 91.65 640 548.35 640 605.44C640 624.64 624.64 640 605.44 640C491.26 640 91.65 640 34.56 640ZM524.8 526.08L524.8 113.92L113.92 113.92L113.92 526.08L524.8 526.08Z" id="a22WIKdCMS"></path><path d="M599.04 40.96C599.04 40.96 599.04 40.96 599.04 40.96C599.04 375.81 599.04 561.83 599.04 599.04C599.04 599.04 599.04 599.04 599.04 599.04C264.19 599.04 78.17 599.04 40.96 599.04C40.96 599.04 40.96 599.04 40.96 599.04C40.96 264.19 40.96 78.17 40.96 40.96C40.96 40.96 40.96 40.96 40.96 40.96C375.81 40.96 561.83 40.96 599.04 40.96Z" id="c8vjYAFW5o"></path><path d="M320 565.34C205.49 565.34 112.52 472.48 112.52 358.11C112.52 243.74 205.49 150.89 320 150.89C434.51 150.89 527.48 243.74 527.48 358.11C527.48 472.48 434.51 565.34 320 565.34Z" id="cMKja1uE0"></path><path d="M469.84 123.72C458.66 116.61 443.82 119.9 436.71 131.07C435.11 133.58 422.32 153.66 420.73 156.16C397.16 144.44 371.3 136.69 344 133.8C344 131.73 344 121.35 344 102.69C344.9 102.69 345.4 102.69 345.5 102.69C358.76 102.69 369.5 91.96 369.5 78.72C369.5 65.49 358.76 54.75 345.5 54.75C340.4 54.75 299.6 54.75 294.5 54.75C281.24 54.75 270.5 65.49 270.5 78.72C270.5 91.96 281.24 102.69 294.5 102.69C294.6 102.69 295.1 102.69 296 102.69C296 121.35 296 131.73 296 133.8C182.28 145.82 93.37 242.17 93.37 358.89C93.37 483.71 195.03 585.25 320 585.25C444.97 585.25 546.63 483.71 546.63 358.89C546.63 287.35 513.22 223.47 461.18 181.96C464.38 176.92 475.6 159.32 477.2 156.81C484.31 145.64 481.02 130.82 469.84 123.72ZM320 180.47C418.5 180.47 498.64 260.51 498.64 358.89C498.64 457.27 418.5 537.31 320 537.31C221.5 537.31 141.36 457.27 141.36 358.89C141.36 260.51 221.5 180.47 320 180.47Z" id="g1GT7sVGFm"></path><path d="M469.84 123.72C458.66 116.61 443.82 119.9 436.71 131.07C435.11 133.58 422.32 153.66 420.73 156.16C397.16 144.44 371.3 136.69 344 133.8C344 131.73 344 121.35 344 102.69C344.9 102.69 345.4 102.69 345.5 102.69C358.76 102.69 369.5 91.96 369.5 78.72C369.5 65.49 358.76 54.75 345.5 54.75C340.4 54.75 299.6 54.75 294.5 54.75C281.24 54.75 270.5 65.49 270.5 78.72C270.5 91.96 281.24 102.69 294.5 102.69C294.6 102.69 295.1 102.69 296 102.69C296 121.35 296 131.73 296 133.8C182.28 145.82 93.37 242.17 93.37 358.89C93.37 483.71 195.03 585.25 320 585.25C444.97 585.25 546.63 483.71 546.63 358.89C546.63 287.35 513.22 223.47 461.18 181.96C464.38 176.92 475.6 159.32 477.2 156.81C484.31 145.64 481.02 130.82 469.84 123.72ZM320 180.47C418.5 180.47 498.64 260.51 498.64 358.89C498.64 457.27 418.5 537.31 320 537.31C221.5 537.31 141.36 457.27 141.36 358.89C141.36 260.51 221.5 180.47 320 180.47Z" id="c1vvA939Vg"></path><path d="M301.92 343.13C293.2 353.11 294.24 368.25 304.22 376.95C314.21 385.65 329.37 384.62 338.08 374.65C344.51 367.29 395.94 308.42 402.36 301.06C411.07 291.09 410.05 275.95 400.06 267.25C390.08 258.55 374.92 259.57 366.2 269.55C359.77 276.91 308.35 335.77 301.92 343.13Z" id="b3y0kPjop2"></path><path d="M301.92 343.13C293.2 353.11 294.24 368.25 304.22 376.95C314.21 385.65 329.37 384.62 338.08 374.65C344.51 367.29 395.94 308.42 402.36 301.06C411.07 291.09 410.05 275.95 400.06 267.25C390.08 258.55 374.92 259.57 366.2 269.55C359.77 276.91 308.35 335.77 301.92 343.13Z" id="a3lgXmaveb"></path></defs><g><g><g><use xlink:href="#a22WIKdCMS" opacity="1" fill="#ffffff" fill-opacity="1"></use><g><use xlink:href="#a22WIKdCMS" opacity="1" fill-opacity="0" stroke="#000000" stroke-width="1" stroke-opacity="0"></use></g></g><g><use xlink:href="#c8vjYAFW5o" opacity="1" fill="#4d56ae" fill-opacity="1"></use><g><use xlink:href="#c8vjYAFW5o" opacity="1" fill-opacity="0" stroke="#000000" stroke-width="1" stroke-opacity="0"></use></g></g><g><use xlink:href="#cMKja1uE0" opacity="1" fill="#dddddd" fill-opacity="1"></use><g><use xlink:href="#cMKja1uE0" opacity="1" fill-opacity="0" stroke="#000000" stroke-width="1" stroke-opacity="0"></use></g></g><g><use xlink:href="#g1GT7sVGFm" opacity="1" fill="#000000" fill-opacity="1"></use><g><use xlink:href="#g1GT7sVGFm" opacity="1" fill-opacity="0" stroke="#000000" stroke-width="1" stroke-opacity="0"></use></g></g><g><use xlink:href="#c1vvA939Vg" opacity="1" fill="#000000" fill-opacity="0"></use><g><use xlink:href="#c1vvA939Vg" opacity="1" fill-opacity="0" stroke="#000000" stroke-width="1" stroke-opacity="0"></use></g></g><g><use xlink:href="#b3y0kPjop2" opacity="1" fill="#000000" fill-opacity="1"></use><g><use xlink:href="#b3y0kPjop2" opacity="1" fill-opacity="0" stroke="#000000" stroke-width="1" stroke-opacity="0"></use></g></g><g><use xlink:href="#a3lgXmaveb" opacity="1" fill="#000000" fill-opacity="0"></use><g><use xlink:href="#a3lgXmaveb" opacity="1" fill-opacity="0" stroke="#000000" stroke-width="1" stroke-opacity="0"></use></g></g></g></g></svg>