<?xml version="1.0" encoding="UTF-8" standalone="no"?>
<!DOCTYPE svg PUBLIC "-//W3C//DTD SVG 1.1//EN" "http://www.w3.org/Graphics/SVG/1.1/DTD/svg11.dtd">
<svg version="1.1" xmlns="http://www.w3.org/2000/svg" xmlns:xlink="http://www.w3.org/1999/xlink" preserveAspectRatio="xMidYMid meet" viewBox="0 0 640 640" width="640" height="640"><defs><path d="M570 365.98C570 503.96 457.98 615.98 320 615.98C182.02 615.98 70 503.96 70 365.98C70 228 182.02 115.98 320 115.98C457.98 115.98 570 228 570 365.98Z" id="e13sTKq6Pa"></path><path d="M509.42 123.12C517.99 109.65 514.02 91.77 500.55 83.2C487.08 74.63 469.2 78.6 460.63 92.07C458.7 95.1 443.29 119.32 441.37 122.34C412.98 108.2 381.82 98.85 348.92 95.37C348.92 92.87 348.92 80.35 348.92 57.83C350 57.83 350.61 57.83 350.73 57.83C366.7 57.83 379.64 44.89 379.64 28.92C379.64 12.95 366.7 0 350.73 0C344.58 0 295.42 0 289.27 0C273.3 0 260.36 12.95 260.36 28.92C260.36 44.89 273.3 57.83 289.27 57.83C289.39 57.83 290 57.83 291.08 57.83C291.08 80.35 291.08 92.87 291.08 95.37C154.05 109.86 46.92 226.11 46.92 366.92C46.92 517.5 169.42 640 320 640C470.58 640 593.08 517.5 593.08 366.92C593.08 280.61 552.82 203.54 490.11 153.46C493.97 147.39 507.49 126.15 509.42 123.12ZM104.75 366.92C104.75 248.23 201.31 151.67 320 151.67C438.69 151.67 535.25 248.23 535.25 366.92C535.25 485.61 438.69 582.17 320 582.17C201.31 582.17 104.75 485.61 104.75 366.92Z" id="bKvvSo5d6"></path><path d="M375.67 259.13C367.92 268.01 305.96 339.03 298.21 347.91C287.71 359.94 288.96 378.21 300.99 388.71C313.02 399.2 331.29 397.96 341.79 385.93C349.53 377.05 411.5 306.03 419.24 297.15C429.74 285.12 428.5 266.86 416.47 256.36C404.44 245.86 386.17 247.1 375.67 259.13Z" id="fl88UZT68"></path></defs><g><g><g><use xlink:href="#e13sTKq6Pa" opacity="1" fill="#dddddd" fill-opacity="1"></use></g><g><use xlink:href="#bKvvSo5d6" opacity="1" fill="#000000" fill-opacity="1"></use><g><use xlink:href="#bKvvSo5d6" opacity="1" fill-opacity="0" stroke="#000000" stroke-width="1" stroke-opacity="0"></use></g></g><g><use xlink:href="#fl88UZT68" opacity="1" fill="#000000" fill-opacity="1"></use><g><use xlink:href="#fl88UZT68" opacity="1" fill-opacity="0" stroke="#000000" stroke-width="1" stroke-opacity="0"></use></g></g></g></g></svg>