<?xml version="1.0" encoding="utf-8"?>
<!-- Generator: Adobe Illustrator 19.0.0, SVG Export Plug-In . SVG Version: 6.00 Build 0)  -->
<svg version="1.1" id="zones_icon" xmlns="http://www.w3.org/2000/svg" xmlns:xlink="http://www.w3.org/1999/xlink" x="0px" y="0px"
	 viewBox="0 0 50 50" style="enable-background:new 0 0 50 50;" xml:space="preserve">
<style type="text/css">
	.st0{fill:#6495ED;}
	.st1{fill:#FFFFFF;}
</style>
<g id="group">
	<polygon id="color" class="st0" points="46.9,36.9 25,48.4 3.1,36.9 3.1,12.7 25,1.8 46.9,12.7 	"/>
	<path id="lining" class="st1" d="M47.7,10.8L25.9,0.2c-0.6-0.3-1.2-0.3-1.8,0L2.4,10.8c-0.7,0.3-1.1,1-1.1,1.8v24.3
		c0,0.8,0.4,1.4,1.1,1.8l21.8,11c0.3,0.1,0.6,0.2,0.9,0.2s0.6-0.1,0.9-0.2l21.8-11c0.7-0.3,1.1-1,1.1-1.8V12.6
		C48.8,11.9,48.3,11.2,47.7,10.8z M25,4.3l17.2,8.4l-17.4,8.7L7.7,12.7L25,4.3z M5.2,15.9l17.6,8.9l0.1,19.8l-17.7-9
		C5.2,35.6,5.2,15.9,5.2,15.9z M26.9,44.7l-0.1-19.9l17.9-9v19.8L26.9,44.7z"/>
</g>
</svg>
