<?xml version="1.0" encoding="iso-8859-1"?>
<!-- Generator: Adobe Illustrator 18.0.0, SVG Export Plug-In . SVG Version: 6.00 Build 0)  -->
<!DOCTYPE svg PUBLIC "-//W3C//DTD SVG 1.1//EN" "http://www.w3.org/Graphics/SVG/1.1/DTD/svg11.dtd">
<svg version="1.1" id="Capa_1" xmlns="http://www.w3.org/2000/svg" xmlns:xlink="http://www.w3.org/1999/xlink" x="0px" y="0px"
	 viewBox="0 0 56.142 56.142" style="enable-background:new 0 0 56.142 56.142;" xml:space="preserve">
<g>
	<g>
		<path style="fill:#7383BF;" d="M41.679,22.989l-8.485-8.485L11.385,36.313c-1.45,1.45-2.522,3.234-3.121,5.195l-0.024,0.077
			c-0.599,1.961-1.671,3.745-3.121,5.195l-3.706,3.706l4.243,4.243l3.667-3.668c1.474-1.474,3.294-2.557,5.293-3.151h0
			c1.999-0.593,3.818-1.676,5.293-3.15L41.679,22.989z"/>
		<path style="fill:#556080;" d="M5.656,56.142L0,50.485l4.413-4.413c1.33-1.331,2.322-2.983,2.871-4.779
			c0.668-2.187,1.833-4.126,3.395-5.688L33.193,13.09l9.899,9.899L20.616,45.467c-1.588,1.587-3.563,2.763-5.715,3.402
			c-1.835,0.544-3.519,1.546-4.87,2.898L5.656,56.142z M2.828,50.485l2.828,2.828l2.961-2.96c1.586-1.587,3.563-2.764,5.715-3.402
			c1.833-0.544,3.518-1.547,4.87-2.898l21.063-21.063l-7.071-7.071L12.093,37.02c-1.33,1.33-2.323,2.983-2.872,4.779
			c-0.668,2.186-1.833,4.126-3.394,5.688L2.828,50.485z"/>
	</g>
	<path style="fill:#7FABDA;" d="M21.242,32.899c-0.256,0-0.512-0.098-0.707-0.293c-0.391-0.391-0.391-1.023,0-1.414l9.899-9.899
		c0.391-0.391,1.023-0.391,1.414,0s0.391,1.023,0,1.414l-9.899,9.899C21.754,32.802,21.498,32.899,21.242,32.899z"/>
	<circle style="fill:#7FABDA;" cx="18.142" cy="35" r="1"/>
	<path style="fill:#434C6D;" d="M49.429,13.825l5.129-5.129c1.844-1.844,2.16-4.837,0.511-6.857
		c-1.893-2.318-5.351-2.445-7.415-0.381l-5.296,5.296c-1.547,1.547-4.054,1.547-5.601,0l-0.582-0.582
		c-0.475-0.475-1.246-0.475-1.721,0l-3.936,3.936c-0.475,0.475-0.475,1.246,0,1.721l13.835,13.835c0.475,0.475,1.246,0.475,1.721,0
		l3.936-3.936c0.475-0.475,0.475-1.246,0-1.721l-0.582-0.582C47.883,17.879,47.883,15.372,49.429,13.825z"/>
</g>
<g>
</g>
<g>
</g>
<g>
</g>
<g>
</g>
<g>
</g>
<g>
</g>
<g>
</g>
<g>
</g>
<g>
</g>
<g>
</g>
<g>
</g>
<g>
</g>
<g>
</g>
<g>
</g>
<g>
</g>
</svg>
