<?xml version="1.0" encoding="UTF-8" standalone="no"?>
<!DOCTYPE svg PUBLIC "-//W3C//DTD SVG 1.1//EN" "http://www.w3.org/Graphics/SVG/1.1/DTD/svg11.dtd">
<svg version="1.1" xmlns="http://www.w3.org/2000/svg" xmlns:xlink="http://www.w3.org/1999/xlink" preserveAspectRatio="xMidYMid meet" viewBox="0 0 640 540" width="640" height="540"><defs><path d="M264.28 77.74C250.29 89.86 223.78 112.77 197.81 135.15C188.62 143.14 178.09 152.2 174.36 155.53C173.91 155.92 171.65 157.88 167.57 161.39L95.77 161.39L23.84 161.39C20.33 163.15 18.37 164.13 17.98 164.32C13.99 166.32 10.92 169.25 9.06 172.71C8.85 173.07 7.83 174.85 6 178.04C6 233.83 6 264.82 6 271.02C6 375.45 5.46 370.12 15.72 376.91C16.08 377.15 17.9 378.35 21.18 380.51L93.38 380.91L165.57 381.31C181.8 395.38 190.81 403.19 192.61 404.75C207.53 417.68 226.05 433.66 233.91 440.32C241.63 446.98 258.55 461.77 271.74 473.09C314.23 509.98 319.56 514.38 325.28 516.51C334.47 520.11 344.73 516.51 351.52 507.32C351.71 507.07 352.64 505.83 354.32 503.59C354.56 365.73 354.69 289.13 354.72 273.82C354.99 46.97 354.99 44.04 352.32 38.98C348.59 31.52 342.73 27.79 333.81 27.12C328.88 26.86 325.02 27.39 322.62 28.72C319.42 30.45 299.18 47.37 264.28 77.74Z" id="a3EIUtYDn"></path><path d="M511.63 47.87C510.44 54.53 513.1 61.59 520.56 71.18C545.6 103.81 566.65 146.44 577.3 186.13C586.1 219.17 587.43 230.89 587.43 272.71C587.43 306.28 587.03 312.54 584.5 326.66C574.24 381.81 555.06 427.1 524.29 469.05C512.57 485.04 510.84 490.1 513.5 499.96C515.5 507.15 521.89 513.14 529.62 515.14C540.01 517.94 548.27 513.94 557.86 501.42C595.95 451.47 620.73 391.93 630.98 326.26C634.71 301.75 635.11 246.87 631.52 223.43C624.19 173.88 612.74 138.18 591.29 97.02C576.77 69.18 552.93 34.81 545.47 30.95C543.34 29.88 538.14 28.95 533.88 28.95C527.75 28.95 525.09 29.62 521.09 32.28C515.63 36.01 512.97 40.41 511.63 47.87Z" id="f18b4DUhoR"></path><path d="M452.63 111.54C453.03 118.2 454.09 120.46 462.75 133.52C512.83 208.38 519.23 301.48 479.93 381.81C475.54 390.86 468.08 403.92 463.55 410.84C458.89 417.77 454.49 424.96 453.82 426.96C452.36 431.09 453.56 440.95 455.96 445.48C458.75 450.54 466.48 455.47 472.74 456.13C485.13 457.6 492.45 451.87 505.77 430.43C536.41 380.87 550.8 330.39 550.8 272.31C550.8 209.44 533.61 154.43 497.78 103.01C487.13 87.83 477 84.1 464.21 90.49C455.82 94.75 451.96 101.81 452.63 111.54Z" id="djjyo5XRS"></path><path d="M388.29 174.68C388.29 180 389.35 183.07 394.15 191.33C408.93 216.63 416.26 243.41 416.26 272.85C416.26 299.62 410.67 321.86 397.61 346.91C388.69 363.82 387.36 369.02 389.62 375.95C394.28 389.93 408.93 396.33 421.59 389.93C427.72 386.87 431.45 382.21 438.77 368.62C450.76 346.11 458.89 318.27 461.55 289.76C465.68 247.27 454.09 199.45 431.31 163.75C423.85 152.03 412 148.57 400.28 154.43C392.68 158.29 388.29 165.62 388.29 174.68Z" id="b2eZOHl6hJ"></path><path d="M501.67 453.3L139.39 108.81" id="b28r3zNlEX"></path><path d="M570.23 272.47C570.23 409.17 459.05 520.16 322.11 520.16C185.18 520.16 74 409.17 74 272.47C74 135.77 185.18 24.79 322.11 24.79C459.05 24.79 570.23 135.77 570.23 272.47Z" id="aaovLrP3m"></path></defs><g><g><g><use xlink:href="#a3EIUtYDn" opacity="1" fill="#f6f4f4" fill-opacity="1"></use><g><use xlink:href="#a3EIUtYDn" opacity="1" fill-opacity="0" stroke="#000000" stroke-width="1" stroke-opacity="0"></use></g></g><g><use xlink:href="#f18b4DUhoR" opacity="1" fill="#f6f4f4" fill-opacity="1"></use><g><use xlink:href="#f18b4DUhoR" opacity="1" fill-opacity="0" stroke="#000000" stroke-width="1" stroke-opacity="0"></use></g></g><g><use xlink:href="#djjyo5XRS" opacity="1" fill="#f6f4f4" fill-opacity="1"></use><g><use xlink:href="#djjyo5XRS" opacity="1" fill-opacity="0" stroke="#000000" stroke-width="1" stroke-opacity="0"></use></g></g><g><use xlink:href="#b2eZOHl6hJ" opacity="1" fill="#f6f4f4" fill-opacity="1"></use><g><use xlink:href="#b2eZOHl6hJ" opacity="1" fill-opacity="0" stroke="#000000" stroke-width="1" stroke-opacity="0"></use></g></g><g><g><filter id="shadow3122045" x="130.39" y="99.81" width="381.29" height="363.49" filterUnits="userSpaceOnUse" primitiveUnits="userSpaceOnUse"><feFlood></feFlood><feComposite in2="SourceAlpha" operator="in"></feComposite><feGaussianBlur stdDeviation="1"></feGaussianBlur><feOffset dx="1" dy="1" result="afterOffset"></feOffset><feFlood flood-color="#000000" flood-opacity="0.5"></feFlood><feComposite in2="afterOffset" operator="in"></feComposite><feMorphology operator="dilate" radius="1"></feMorphology><feComposite in2="SourceAlpha" operator="out"></feComposite></filter><path d="M501.67 453.3L139.39 108.81" id="crUqs6Cml" fill="none" stroke="white" filter="url(#shadow3122045)"></path></g><g><use xlink:href="#b28r3zNlEX" opacity="1" fill-opacity="0" stroke="#ff0000" stroke-width="40" stroke-opacity="1"></use></g><g><filter id="shadow6346242" x="130.39" y="99.81" width="381.29" height="363.49" filterUnits="userSpaceOnUse" primitiveUnits="userSpaceOnUse"><feFlood></feFlood><feComposite in2="SourceAlpha" operator="out"></feComposite><feGaussianBlur stdDeviation="1"></feGaussianBlur><feOffset dx="1" dy="1" result="afterOffset"></feOffset><feFlood flood-color="#ff0000" flood-opacity="0.8"></feFlood><feComposite in2="afterOffset" operator="in"></feComposite><feMorphology operator="dilate" radius="1"></feMorphology><feComposite in2="SourceAlpha" operator="in"></feComposite></filter><path d="M501.67 453.3L139.39 108.81" id="acgEJQMBS" fill="none" stroke="white" filter="url(#shadow6346242)"></path></g></g><g><use xlink:href="#aaovLrP3m" opacity="1" fill="#000000" fill-opacity="0.01"></use><g><use xlink:href="#aaovLrP3m" opacity="1" fill-opacity="0" stroke="#ff0000" stroke-width="40" stroke-opacity="1"></use></g></g></g></g></svg>