<?xml version="1.0" encoding="utf-8"?>
<!-- Generator: Adobe Illustrator 19.0.0, SVG Export Plug-In . SVG Version: 6.00 Build 0)  -->
<svg version="1.1" id="building_icon" xmlns="http://www.w3.org/2000/svg" xmlns:xlink="http://www.w3.org/1999/xlink" x="0px"
	 y="0px" viewBox="0 0 500 500" style="enable-background:new 0 0 500 500;" xml:space="preserve">
<style type="text/css">
	.st0{fill:#FFFFFF;}
	.st1{fill:#AAA7A3;}
	.st2{fill:#302724;}
	.st3{fill:#181B1A;}
	.st4{fill:#5B4029;}
	.st5{fill:#B08743;}
	.st6{fill:#201C13;}
	.st7{fill:#866045;}
	.st8{fill:#5F482C;}
	.st9{fill:#44331E;}
	.st10{fill:#C7A876;}
	.st11{fill:#6C4D37;}
	.st12{fill:#4F3722;}
	.st13{fill:#322212;}
	.st14{fill:#0F4E20;}
	.st15{fill:#0A3415;}
	.st16{fill:#7A5643;}
	.st17{fill:#961212;}
	.st18{fill:#916957;}
</style>
<g id="group">
	<path id="lining" class="st0" d="M348.28,4.34c-2.59,0-5.18,0.36-7.7,1.07L99.48,74.09c-2.8,0.8-5.46,2.03-7.89,3.64l-11.3,7.54
		l-64.66,32.14c-10.66,5.3-16.82,16.74-15.38,28.55l19.66,161.57c0.8,6.56,3.89,12.63,8.72,17.14l0.09,0.09
		c0.18,0.17,0.35,0.34,0.54,0.51l25.18,23.5c0.18,0.17,0.37,0.34,0.55,0.5l0.61,0.57c0.18,0.17,0.36,0.35,0.54,0.52L77.4,370.2
		c0.06,0.05,0.11,0.11,0.17,0.16l61.64,57.52c0.05,0.05,0.11,0.1,0.16,0.15l2.73,2.55c0.18,0.17,0.37,0.34,0.55,0.5l1.02,0.95
		c0.18,0.18,0.36,0.35,0.54,0.52l26.83,25.04c0.18,0.17,0.37,0.34,0.56,0.5l0.6,0.56c0.18,0.17,0.36,0.35,0.54,0.52l27.45,25.62
		c0.18,0.17,0.37,0.34,0.55,0.5l0.59,0.55c0.18,0.17,0.36,0.35,0.54,0.52l1.93,1.81c1.59,1.55,3.39,2.93,5.35,4.09
		c4.39,2.58,9.32,3.88,14.25,3.88c0.92,0,1.84-0.04,2.75-0.13c2.98-0.29,5.95-1.07,8.78-2.34c1.16-0.52,2.28-1.12,3.34-1.78
		l18.06-10.81c3.23-0.84,6.48-2.01,9.75-3.52c7.97-3.69,14.7-8.49,20.08-14.33l3.78-2.26c11.54-2.55,20.61-9.76,26.52-15.87
		l7.78-4.66c0.2,0,0.41,0,0.61,0c17.79,0,33.92-11.9,42.33-22.09c0.18-0.22,0.36-0.43,0.53-0.65c9.78-3.37,18.81-9.88,25.8-18.72
		l65.78-39.36c7.1-4.25,11.97-11.41,13.3-19.58l26.93-165.06c1.3-7.98-0.9-16.14-6.04-22.38L390.4,27.45
		c-1.11-1.35-2.34-2.59-3.68-3.71l-10.56-8.81c-2.2-1.83-4.66-3.32-7.31-4.41l-9.88-4.07C355.56,5.04,351.92,4.34,348.28,4.34
		L348.28,4.34z"/>
	<g id="walls">
		<polygon id="front_1_" class="st1" points="223.4,468.15 47.69,304.17 28.02,142.51 31.51,145.22 94.7,118.86 115.63,130.11 
			214.87,277.03 221.66,280.91 		"/>
		<polygon id="side_1_" class="st2" points="471.89,170.42 444.95,335.57 223.4,468.15 221.66,280.91 		"/>
		<g id="texture">
			<path id="small_texture" class="st3" d="M314.85,402.29c-3.52,1.42-6.65,3.06-8.35,4.59c-0.64,5.24-3.81,11.29-8.02,16.34
				l20.86-12.49C317.24,409.18,315.64,406.49,314.85,402.29z"/>
			<path id="main_texture" class="st3" d="M221.66,280.91l-6.79-3.88l-0.05-0.08c-5.81-2.43-12.56-4.19-9.71,1.52
				c-5.56-10.8-12.26-29.31-17.93-42.42c2.37,13.43-4.67-4.26-5.87-8.68c0-0.01-0.01-0.03-0.01-0.04l-0.74-1.1
				c-4.84-4.65-30.71-14.04-10.77-15.88c-0.16-0.27-0.32-0.52-0.49-0.78l-2.61-3.87c-4.03-5.51-7.77-8.83-11.61-15.04
				c-0.77,1.93,4.46,16.56,2.56,16.13c-5.4-1.18-18.15-40.31-22.77-48.15c-0.05,0.79,0.23,2.29,0.66,4.15
				c-1.73-2.94-3.12-6.57-4.75-10.26l-7.53-11.14c-0.68,1.87-3.9,4.73-4.99,5.19c-0.33,0.14-13.02-2.94-12.57-6.78
				c0.48-4.1,1.6-6.27,3.01-7.13c-7.87-6.89-14.9-11.83-17.67-12.28l-0.01,0c6.25,1.47,18.53,31.53,13.61,36.58
				c-1.27,1.29-17.55-30.62-16.21-35.49l-10.88,4.54c0.06,0.46,0.33,1.22,0.61,1.79c-0.04,0.05-0.09,0.11-0.16,0.23
				c-2.5,2.42-6.62,4.11-7,7.71c0.22-2.05-1.11-4.78-3.54-5.52l-7.24,3.02c-3.27,3.63-4.63,8.91-0.91,7.7
				c4.14-1.33-2.13,1.11-5.97,4.08c-0.58-3.24-0.88-6.7-1.83-8.15l-0.21,0.09c-3.33,1.9-4.63,6.85-15.02,6.27l-0.06,0.03
				c1.31,1.55,9.86,27.38,7.86,29.45c-0.82,0.84-13.47-23.65-15.73-27.59l0.05,0.43c1.13,5.22,11.13,31.76,2.27,18.63l0.06,0.53
				c0.48,2.59,2.32,7.68,4.72,13.94c-0.15-1.21,0-2.55,0.56-4.05c1.8-4.85,13.06,8.8,20.76,20.75c-2.44,6.13-1.65,9.69-7.41-2
				c0.1,0.2,0.19,0.39,0.23,0.47c-0.03-0.07-0.11-0.22-0.26-0.52c-1.99-4.05-9.52-6.7-12.61-11.32
				c7.24,18.69,17.84,44.9,13.86,49.01c-0.68,0.7-13.14-24.44-15.25-28.35l0.03,0.26c0.87,4.58,10.96,32.83,2.29,18.79l0.02,0.14
				c1.28,9.1,25.09,61.77,19.43,67.43c-0.55,0.55-12.71-25.08-14.76-29.07l0.04,0.3c0.93,4.79,10.81,33.06,2.28,18.75l0.25,2.02
				c1.42,11.01,3.47,20.07,8.33,28.07l20.15,18.8c0.04,0.02,0.08,0.05,0.12,0.07c-1.49-5.07-2.22-10.77-4.4-15.59
				c-2.14,18.92-15.99-21.76-17.12-22.65c17.33,13.64,21.51,33.44,34.12,50.04l10.55,9.85l-0.51-5.36
				c-4.84,1.57-13.27-26.97-14.8-28.07c5.8,4.16,10.03,9.13,13.53,14.53l-1.13-12.01c-1.44-3.02-2.48-5.59-2.75-7.14
				c0.11,0.64,1.05,1.89,2.42,3.58l-1.17-12.4c-2.43-0.28-4.59,0.08-4.68,1.34c-0.65-3.74,0.41-13.49,3.03-10.45
				c0.24,0.28,0.54,0.57,0.87,0.87l-1.26-13.32c-6.35-4.66-18.79-18.18-16.64-24.01c1.56-4.21,9.14,5.1,15.84,15.61l-1.38-14.67
				c-0.98-2.3-1.76-4.56-2.16-6.75c-0.16-0.89,0.6,0.59,1.84,3.33l-0.88-9.32c-2.53-2.43-4.58-6.35-4.76-10.61
				c0.02,0.37,0.02,0.58,0-0.01c-0.08-1.77-0.03-0.65,0,0c-0.07-1.75,1.5-1.97,3.64-1.3l-1.14-12.05
				c-5.35-1.26-13.53-13.33-15.97-19.43c-4.44-11.03,9.81,0.68,8.64,1.66c-0.15,0.12-0.45,0.35,0,0.01c2.7-2.16,6.39,2.36,9.7,8.55
				l8.2,5.87c-4.24-9.1-14.24-26.18-14.39-26.98c-0.7-3.73,11.95,9.21,12.3,13.97c-0.02-0.28-0.16-2.54,0,0.03
				c0-0.38,1.68,3.27,3.06,7.44l0.21,0.57c0.8,2.47,1.37,4.82,1.52,6.91l12.63,9.05c0.33-1.99,0.29-3.06-0.74-2.39
				c3.31-2.26,7.07,2.62,10.22,9.18l6.73,4.82c-4.37-9.79-13.26-28.01-13.31-28.42c-0.5-3.97,11.22,10.94,12.05,12.94
				c3.63,8.67,7.61,19.95,0.48,3.61c-0.39,1.95,2.57,9.18,3.56,13.86l11.31,8.1c0.15-0.12,0.28-0.25,0.43-0.37
				c2.48-2,5.62,1.47,8.52,6.79l0.31,0.22l0.02,0.39c5.2,9.83,9.52,25.24,7.76,25.16c-3.91-0.18-4.72-15.48-5.6-17.43
				c0.09-0.47-0.65-0.97-1.82-1.52l1.08,19.46c4.96,2.44,10.21,7.48,5.94,11.4c0.69-0.64-2.25-2.13-5.48-3.04l0.74,13.41
				c4.72,5.79,11.46,14.26,12.58,17.82c2.94,9.38-8.98-10.78-5.39-1.2c2.84,4.05,3.68,8.38,2.53,13c-1.08-0.3-5.56-11.39-9.24-21.1
				l0.76,13.7c5.88,10.17,9.97,20.05,6.37,19.52c-3.87-0.59-4.28-15.12-5.36-17.61c-0.41,1.13-0.43,2.27-0.08,3.42
				c0.13,0.72-0.1,1.02-0.58,0.99l0.83,14.93c3.84,3.17,8.07,7.17,3.51,11.62c0.45-0.44-0.6-3.38-3.1-4.19l0.67,12.14
				c4.81,5.61,11.26,14.92,11.95,19.59c-1.8-0.33-5.12-0.1-7.97,0.65c-1.07-2.68-2.22-5.61-3.33-8.49l0.4,7.17
				c0.39,0.62,0.79,1.24,1.18,1.87c-0.37,0.14-0.73,0.3-1.06,0.46l0.97,17.63l2.67,2.5c0.07,0.04,0.14,0.09,0.22,0.13
				c-1.02-4.37-1.46-9.22-2.67-13.65c1.41,0.83,3.29,1.71,5.73,2.65c7.64,12.96,15.31,26.81,21.42,33.92l4.14,3.86
				c0.11,0.07,0.23,0.15,0.34,0.22c-1.22-5.51-1.49-11.65-3.46-16.94c-3.87,21.13-15.78-23-16.49-23.55
				c17.43,13.41,19.4,33.86,30.83,50.74l18.11,16.9c0.06,0.03,0.11,0.07,0.16,0.1c-1.12-5.53-1.28-11.92-3.26-17.21
				c-5.11,21.23-15.22-22.95-16.6-23.91c13.83,9.62,21.12,28.72,23.91,44.93c1.17-0.7,2.45-1.44,3.83-2.22l18.93-11.33
				c-4.17,0.38-7.82-0.9-9.87-4.95c-3.21,1.3-5.46,2.38-4.79,3.46c-8.11-13.38,5.53-18.47,16.53-17.7c2.3-1.64,3.93-3.2,3.79-4.39
				c0.57-0.14,1.18-0.04,1.68,0.26c-0.05-0.22,1.66-1.81,3.64-3.52c-4.4-4.28-11.99-9.34-12.04-9.68c-0.11-0.81-0.04-1.53,0.18-2.16
				c-1.29-0.64-2.46-1.54-3.45-2.68c-1.07,1.45-1.32,2.51-0.06,2.69c-5.22-0.76-5.16-4.1-2.73-7.99c-0.18-0.66-0.32-1.34-0.41-2.05
				c-0.09-0.67,2.46-2.22,5.62-4.09c3.66-3.5,8.02-6.61,11.06-7.91c0.29-0.45,0.44-0.88,0.39-1.26c0.57-0.14,1.18-0.04,1.68,0.26
				c-0.5-2.12,2.47-2.95,5.08-3.96c0.59-0.8,1.68-1.57,3.46-2.34c0.5-1.14-0.12-2.74-2.94-5.19c-0.08,0.19-0.16,0.39-0.2,0.6
				c-4.04-3.59-10.08-5.56-10.96-12.37c-0.09-0.71,2.76-2.4,6.16-4.41c-2.64-3.8-12.1-5.53-12.51-8.51
				c-1.32-9.2,20.04-5.61,21.74-2.99c3.82,5.86-5.4,3.47-7.13,1.95c-0.26,0.92,0.46,4.35,1.1,7.65c4.09-2.49,7.92-5.15,7.71-6.94
				c0.57-0.14,1.18-0.04,1.68,0.26c-0.23-1,0.16-2.15,0.92-2.9c-2.37-0.54-6.9-7.74-7.26-10.47c-0.05-0.37,0.71-1.01,1.93-1.82
				c-2.69-3.33-4.99-5.91-4.66-4.78c-3.09-10.6,5.86-11.2,12.24-12.62c4.28-0.93,2.18,6.93,1.68,11.76
				c1.99-1.28,3.77-2.56,4.84-3.71c-0.11-0.24-0.09-0.66,0.1-1.29c-0.45,1.58,14.63-30.69,18.15-16.84
				c0.22,0.83-4.03,6.02-8.5,10.68c5.08-0.37,11.12,0.75,11.99,1.09c-0.04,1.4-0.34,2.78-0.81,4.13c0.35-0.04,0.74-0.09,1.23-0.14
				c7.28-0.78,1.68-0.15-1.23,0.16c-1.27,3.64-3.81,7.1-6.01,10.43c4.78,8.52,8.06,16.64,1.97,5.47c0.16,0.29,0.31,0.57-0.13-0.25
				c-0.63-1.17-1.85-2.12-3.28-2.94c-1.55,2.6-2.66,5.12-2.53,7.59c-1.75-0.21-3.63-0.37-5.3,0.04c1.18,0.72,2.41,1.35,3.69,1.86
				c0,0.11-0.02,0.2-0.02,0.31c3.42-0.33,5.85-0.34,5.86-0.29c0.14,0.47,0.01,4.97-0.31,8.6c0.96,0.41,2.12,0.89,3.58,1.46
				c-0.09,3.33-1.15,6.95-2.71,10.42c1.71,0.13,1.35,2.57-3.11,8.78c0.68-0.96-1.55,0.49-4.43,2.74c-0.85,0.93-1.69,1.75-2.5,2.43
				c-0.19,0.16-0.53,0.29-0.93,0.39c-3.91,3.38-7.5,7.09-6.06,7.83c1.12-0.31,2.4-0.48,3.73-0.56c1.46-6.56,12.53-2.74,16.53,3.85
				c-2.86,0-1.74,0.01,0.01,0.02c0.83,1.38,1.35,2.88,1.41,4.42c0.89,0.38,1.73,0.81,2.59,1.27c-1.06-10.18,14.46-13.28,23.6-11.05
				c2.86-1.91,5.05-3.78,4.89-5.14c0.57-0.14,1.18-0.04,1.68,0.26c-0.21-0.87,0.06-1.85,0.64-2.59c-1.25-0.62-2.63-1.55-3.92-2.68
				c-4.47-0.39-9.52-2.37-9.67-8.19c-0.11-3.84,5.76-4.97,11.23-4.83c2.27-2.16,4.33-4.39,4.71-5.18c0.85,0.54,1.91,0.68,2.88,0.44
				c-1.08-0.58-4.34-4.09-6.45-7.24c-0.49,0.75-1.06,1.57-1.73,2.49c0.85-1.15,2.88-3.87-0.18,0.25c-0.22,0.29-0.16,0.22,0.02-0.03
				c1.54-2.15-18.06,12.92-13.71,13.41c-11.82-1.38,6.55-17.97,14.47-21.37c-3.92-2.58-8.98-5.7-9.82-11.38
				c-5.44,4.93-11.23,13.41-13.61,9.3c-5.36-9.09,11.9-22.71,20.41-13.68c4.27-2.75,8.95-5.82,8.86-5.75
				c-3.96-2.49-9.13-5.82-9.88-11.56c-0.01-0.09,0.04-0.21,0.12-0.34c-2.2-1.51-3.82-2.78-3.83-3.45
				c-0.07-2.44,15.04-6.17,17.81-5.68c1.85-1.42,3.09-2.74,2.97-3.78c0.27-0.07,0.54-0.07,0.81-0.04
				c-3.39-7.05-3.8-18.59,7.56-21.14c5.56-1.3-1.12,14.57,1.61,14.71c0.54,0.03,0.28,0.02,0,0c0.49,0.03,0.87,0.42,1.13,1.03
				c4.42,0.03,8.85,0.88,9.58,1.16c-0.09,3.17-0.95,6.91-2.43,10.38c5.25-1.02,9.65-1.1,9.84-0.6c0.79,2.07,0.07,16.03-2.05,12.38
				c-0.17-0.29-0.11-0.18-0.02-0.02c-2.93-4.95-7.76-3.75-12.34-1.15c0.39,0.18,0.78,0.37,1.18,0.53
				c-0.17,6.04-3.34,5.99-3.04,11.14c1.06-4.15,5.27-2.1,8.25-0.22c5.42-3.37,9.75-4.29,6.39,1.06c-0.2,0.32-1.73,1.47-3.81,3.03
				c-0.63,2.94-2.06,7.71-3.72,11.45c4.55-1.86,10.3-3.35,11.31-2.47c10.02,8.58-7.41,6.57-4.28,10.1c0.69,0.79,0.2,0.23,0.03,0.03
				c2.38,2.72,3.19,4.34,3.02,5.16c1.46,0.25,2.76,0.56,3.74,0.85c-4.69-18.04,37.33-17.6,27.08-5.05
				c6.51-8.26-28.38,3.18-25.93,8.07c-0.08-0.16-0.15-0.32-0.22-0.48c-0.49,4.16-2.05,8.36-4.34,12.15l62.52-37.41
				c0.75-0.88,1.49-1.76,2.17-2.62c-1.6-0.77-0.74-8.16-2.3-8.94c-1.57,3.88-21.32,15.05-21.06,15.61
				c-4.04-8.76,12.31-21.41,19.49-16.97c0.26,0.16,0.17,0.1,0,0c0.6,0.35,7.03,0.76,8.6,3.36c2-3.51,3.32-6.92,3.86-10.2
				c-1.44,2.58-14.88-8.44-14.88-8.39c-0.26-19.9,14.29,0.83,15.57,4.19c2.67-16.54,5.18-31.72,8.25-50.56
				c-1.38,2.39-15.62-8.83-15.62-8.98c-0.43-19.72,14.89,1.16,16.32,4.71c2.73-16.47,5.16-31.51,8.25-50.53
				c-1.33,2.3-16.38-9.32-16.38-9.63c-0.18-19.64,15.78,2.5,17.04,5.59c0.67-4.01,1.31-7.9,1.94-11.77l2.92-17.91
				c0.38-2.32,0.76-4.68,1.15-7.13L221.66,280.91z M255.61,385.18C255.11,383.39,256.02,386.62,255.61,385.18L255.61,385.18z
				 M403.7,359.19c-0.48,0.48-0.24,0.24,0.03-0.03C403.72,359.17,403.71,359.18,403.7,359.19c0.01-0.01,0.03-0.03,0.04-0.04
				C404.05,358.83,404.38,358.49,403.7,359.19z M427.94,194.34c0.42-0.82,0.26-0.51,0.02-0.04c10.61-20.42,20.43,20.81,8.59,21.42
				C433.4,215.88,428.32,193.65,427.94,194.34C427.59,195.02,427.11,195.95,427.94,194.34z M427.01,214.07
				c5.52,4.29,1.13,9.97-4.19,5.25c-2.32,5.05,6.25,8.06,0.86,13.23c1.8-1.74-15.32-11.78-15.29-13.36
				C408.45,216.53,425.61,212.98,427.01,214.07z M432.38,259.76C432.3,259.74,432.27,259.74,432.38,259.76
				c3.81,0.73,0.19,11.3-3.59,11.63c-2.67,0.24-19.29-21.66,3.45-25.69C436.98,244.82,430.28,259.27,432.38,259.76z M418.44,278.03
				c-9.35-4.81,3.56,4.75-2.08,10.53c1.79-1.82-14.65-11.24-14.59-12.84c0.61-17.53,27.34,7.88,16.79,2.37
				C418.16,277.88,418.27,277.94,418.44,278.03z M408.34,302.92c-3.6-18.71-20.33,13.21-23.73,6.41
				c-8.14-16.13,26.1-18.87,26.36-18.13c1.48,4.32-2.27,13.41-2.63,11.73C408.4,303.23,408.44,303.46,408.34,302.92z M407.5,234.1
				c2.92,1.59,21.56,3.3,10.46,12.86c-3.84,3.32-2.56-8.04-4.59-8.99c-1.55,3.43-22.47,14.83-22.72,14.35
				c-3.5-6.69,9.99-21.85,16.82-18.23C407.03,233.85,406.49,233.55,407.5,234.1z M397.64,273.61c-0.03,0.01-0.06,0-0.1-0.07
				c1.44-4.96,10.97-26.44,18.89-19.26C417.8,255.5,399.34,274.37,397.64,273.61z M392.32,265.36c5.29-1.23-1.65,14.47,1.67,14.61
				c0.08,0,0.07,0,0,0c-1.11-0.03-6.62,11.53-14.22-1.53C373.89,268.31,387.52,266.5,392.32,265.36z M405.05,213.39
				c0.3-1.01,0.14-0.47,0.02-0.07c1.37-4.46,9.16-18.47,16.03-16.64c3.99,1.07-20.08,30.64-16.07,16.79
				C404.97,213.65,404.95,213.72,405.05,213.39z M386.98,212.47C387.31,212.04,387.2,212.19,386.98,212.47
				c14.88-19.56,17.78,21.69,9.3,22.14C392.46,234.81,387.4,211.93,386.98,212.47C386.58,213,385.83,213.99,386.98,212.47z
				 M386.56,232.82C386.42,232.7,386.34,232.64,386.56,232.82C387.3,233.43,386.82,233.03,386.56,232.82
				c-1.27-1.04-2.01,16.31-2.77,18.4c0.34-2.1-16.01-14.27-15.88-12.18C367.65,235.53,384.07,230.78,386.56,232.82z M364.47,231.81
				c1.35-5.03,11.16-21.59,18.47-15.2C383.09,216.74,360.88,244.98,364.47,231.81z M346.01,230.82c0.37-0.8,0.25-0.54,0.05-0.1
				c9.77-20.83,22.15,22.29,10.03,22.67C352.73,253.5,346.3,230.32,346.01,230.82C345.68,231.53,345.22,232.54,346.01,230.82z
				 M323.62,250.27c0.06-0.25,0.09-0.4,0.12-0.49C323.71,249.9,323.66,250.11,323.62,250.27c0.87-3.67,9.43-20.18,15.93-16.93
				C343.11,234.98,320.34,264.18,323.62,250.27C323.56,250.52,323.53,250.66,323.62,250.27z M315.72,272.3
				c-3.49,0.08-10.58-23.47-10.68-23.32C318.63,228.6,324.85,272.13,315.72,272.3z M282.03,270.6c-0.4,1.41,15.33-30.9,18.9-16.39
				C301.35,255.84,279.85,278.13,282.03,270.6z M263.41,267.7c0.34-0.88,0.22-0.56,0.03-0.07c8.3-21.25,24.17,23.47,11.71,23.7
				C272.05,291.39,263.5,267.59,263.41,267.7C263.14,268.41,262.77,269.37,263.41,267.7z M241.56,287.71
				c0.01-0.03,0.02-0.1,0.04-0.23c0.21-1.16,0.08-0.44,0-0.01c1.08-5.86,9.98-22.39,17.96-15.5c0.27,0.23-20.47,29.2-17.96,15.52
				C241.58,287.59,241.56,287.68,241.56,287.71z M234.64,310.23c-4.32,0-12.45-24.03-12.74-24.82
				C244.44,268.7,237.85,310.23,234.64,310.23z M234.72,371.92c2.96-0.09-11.86-13.97-12.4-14.41
				c-3.71-11.54,3.72-12.23,11.88-13.94C233.3,343.76,244.36,371.69,234.72,371.92z M219.76,377.73c0.02,0.09-0.03-0.11-0.27-1.02
				c-0.01-0.04-0.02-0.06-0.02-0.07c-1.16-4.25-8.52-29.1-7.45-27.87c7.61,8.72,6.18,19.91,10.55,29.7v-0.08
				C222.57,390.55,223.6,392.49,219.76,377.73z M219.73,398.7c-3.89-1.9-3.02-11.02-4.03-16.1
				C220.46,392.18,223.24,400.42,219.73,398.7z M190.63,348.95c-0.2-0.45-0.32-0.73,0.12,0.28c0.79,1.79,2.26,15.57,0.56,9.8
				c-3.23-10.71-11.33-23.3-12.95-33.62c-0.17-5.01,22.51,24.34,16.86,26.54C196.53,351.45,183.99,333.63,190.63,348.95z
				 M189.93,372.91c-4.08-0.77-3.41-14.23-4.95-17.73C190.21,364.79,193.52,373.57,189.93,372.91z M177.22,319.47
				c-4.46,3.7-2.17-17.53,1.66-13.2c0.63,0.71,21.25,9.7,7.38,15.41c-9.54,3.91,6.91-15.39-9.01-2.23
				C177.54,319.2,178.47,318.43,177.22,319.47z M173.05,274.12c7.07-4.29,18.27,34.06,15.22,33.48c-4.16-0.76-3.43-14.19-5.11-17.61
				C183.46,289.03,157.64,283.37,173.05,274.12z M200.83,354.63c-2.23-3.3-10.56-35.37-9.21-39.05c1.85,1.68,2.23,1.85,2.41,0.55
				c6.98,9.18,3.55,19.98,8.46,27.87c0.44,0.72,0.23,0.38,0.01,0.01C203.4,345.53,205.76,361.91,200.83,354.63z M195.74,358.31
				c2.33-5.51,12.5,9.62,19.29,22.95c-0.28,1.04-0.28,2.1,0.04,3.18C215.86,390.4,192.12,366.82,195.74,358.31z M205.38,341.19
				c0.01,0.25-0.04,0.49-0.16,0.08c2.96-22.18,17.45-0.75,12.22,5.04C220.36,343.03,206.99,340.95,205.38,341.19z M221.91,364.6
				C221.86,364.66,221.61,364.94,221.91,364.6C221.92,364.59,221.92,364.59,221.91,364.6c0.43-0.47,11.4,16.04,2.81,14.25
				C222.39,378.36,221.06,365.58,221.91,364.6z M221.93,311.78c-0.03,23.53-10.57-28.96-10.85-29.26
				C218.95,290.98,217.43,302.16,221.93,311.78z M219.02,332.17c-4.49-1.96-2.72-13.6-4.7-17.76c0.25-0.99-25.06-6.47-10.01-16.03
				c-0.01,0,0,0,0.03-0.02c1.31-0.81,0.24-0.15,0.01-0.01C210.08,294.86,224.38,334.51,219.02,332.17z M188.69,254.8
				c0.06-5.6,22.57,26.83,14.3,35.32C202.68,290.44,188.69,259.65,188.69,254.8C188.76,248.66,188.69,254.92,188.69,254.8z
				 M188.09,273.12C187.99,272.87,187.45,271.5,188.09,273.12c0.01,0.03,0.02,0.04,0.02,0.04c3.29,8.46,7.27,20.97,0.49,3.86
				c-0.69,2.17,4.78,18.53,2.53,18.6c-0.38,0.01-14.59-35.39-14.64-36C176.2,256.25,187.24,270.97,188.09,273.12z M172.81,248.79
				c0.16-1.43,0.05-0.46,0-0.03c1.89-17.14,18.61,0.8,12.11,7.44c2.75-2.84-12.68-1.73-12.11-7.4
				C172.79,248.94,172.79,248.99,172.81,248.79z M157.82,226.59c0.23-0.16,0.16-0.11,0.02-0.01c6.43-4.51,17.91,35.29,13.74,39.46
				c-1.08,1.09-17.61-36.55-13.77-39.44C157.53,226.8,157.06,227.14,157.82,226.59z M155.3,219.15c-2.9-0.16-4.01-8.63-4.82-13.73
				C155.23,212.99,158.25,219.32,155.3,219.15z M98.94,159.56c2.83,1.65,12.25,13.52,18.7,23.21c0.2,1.83,0.27,3.63-0.97,4.04
				C109.11,189.33,94.78,157.13,98.94,159.56z M90.02,142.55C90.24,142.3,89.67,142.95,90.02,142.55L90.02,142.55z M62.35,138.39
				c0.26-0.66,0.14-0.35,0.01-0.03c2.35-5.84,13.78,7.6,21.52,19.62c-0.35,1.8,1.01,6.93-0.67,7.4
				c-2.21,0.61-22.42-22.84-20.86-26.98C62.22,138.73,62.09,139.05,62.35,138.39z M43.93,159.73
				C43.99,158.67,44.26,160.51,43.93,159.73L43.93,159.73z M43.95,159.39c1.48-23.54,14.75,4.31,12.06,5.28
				C57.4,164.18,44.93,158.4,43.95,159.39z M48.49,168.49c-1.11-5.29,11.09,9.42,12.01,11.25c4.16,8.33,8.65,19.18,0.74,3.61
				c-0.55,2.49,6.48,16.17,3.78,16.94C66.01,200.01,48.49,168.5,48.49,168.49z M67,245.14c0.52,0.86,1.01,1.66,1.46,2.39
				c1.77,3.76,2.56,7.73,2.35,11.92c-0.53-2.5-16-32.38-16-32.39c-0.75-3.68,7.12,9.71,12.19,18.06
				C67.22,246.68,67.09,245.78,67,245.14z M68.93,270.18c-3.78-1.05-3.9-10.13-5.25-14.74C68.38,263.78,71.37,270.84,68.93,270.18z
				 M63.07,211.01c-3.71-0.72-3.94-9.32-5.24-13.99C62.75,204.88,65.79,211.57,63.07,211.01z M50.38,218.09
				C50.43,217.03,50.7,218.88,50.38,218.09L50.38,218.09z M50.4,217.77c1.23-23.33,14.26,5.09,11.61,5.92
				C63.4,223.25,51.31,216.85,50.4,217.77z M55.72,251.74c-2.83-6.09-15.9-10.4-12.35-20.36c1.68-4.57,12.28,10.11,19.54,22.71
				c-2.14,6.98-2.01,8.69-6.94-1.8C56.02,252.37,55.97,252.27,55.72,251.74z M60.33,268.19c2.66,3.04,13.7,8.42,8.02,14.24
				c-1.27,1.29-1.35-10.19-9.01-2.53C56.18,283.06,56.01,263.26,60.33,268.19z M78.3,310.97C78.48,311.01,78.72,311.06,78.3,310.97
				c-0.21-0.04-0.13-0.03-0.01,0c-2.76-0.6-4.31-7.01-5.32-9.2c-0.39,2.11,5.71,16.81,3.62,17.19c0.6-0.1-15.45-33.26-15.46-33.31
				C59.88,279.4,81.81,311.66,78.3,310.97z M87.89,305.44c0,0.01,0.01,0.01,0.01,0.02C87.9,305.46,87.89,305.45,87.89,305.44
				c0.2,0.33,0.55,0.9,0.01,0.02C87.7,305.14,87.77,305.25,87.89,305.44z M86.8,315.77c-0.51,0.5-16.29-33.53-14.85-38.04
				C71.89,277.92,93.98,308.82,86.8,315.77z M81.47,255.78c-5.44-1.52-8.37-5.7-8.8-12.52c0.28,0.77,1.07,2.93,0-0.01
				c-1.38-3.76-7.13-23.17-6.47-24.91C66.52,217.49,88.47,249,81.47,255.78z M76.18,195.79c-1,1.04-17.38-32.19-15.77-36.69
				c-0.16,0.43-0.36,0.97,0-0.02c0.21-0.55,0.12-0.32,0,0C61.37,156.7,82.44,189.34,76.18,195.79z M76.86,173.68
				c-0.1-1.39,13.35,2.76,13.81,10.12C90.52,181.73,78.04,190.18,76.86,173.68z M89.69,173.91c-3.97-1.37-3.79-10.87-5.3-15.12
				C89.88,167.45,93.28,175.13,89.69,173.91z M92.33,162.85c-0.6,0.31-17.19-37.25-13.72-34.28c0,0,0,0,0,0c0,0,0,0,0,0
				c0.47,0.4,0.29,0.25,0,0c2.12,1.83,6.47,8.57,9.97,15.62c-1.55,1.77-3.3,3.78,0,0C92.69,152.47,95.62,161.18,92.33,162.85z
				 M105.24,217.85c-1.43-1.7-13.47-34.28-11.97-36.42c1.91,1.61,2.93,1.77,3.06,0.48c7.38,8.14,4.78,18.74,9.9,25.55
				c-0.23-0.3-0.4-0.52,0.05,0.06C107.27,208.8,110.59,224.18,105.24,217.85z M123.06,207.58
				C122.94,207.7,122.98,207.66,123.06,207.58c2.38-2.42-15.13-5.59-13.36-0.71c-1.34-3.11-0.01-7.57,0.09-10.49
				c0.14-4.18,20.49,3.86,13.28,11.18C123.27,207.37,123.69,206.94,123.06,207.58z M119.09,184.98c3.96,6.18,6.28,10.97,4.12,10.68
				C120.38,195.28,119.75,189.73,119.09,184.98z M125.8,184.12c0,0-16-33.48-16.04-33.82c-0.53-4.2,14.72,11.35,13.66,12.86
				c0.41-0.58,0.14-0.2,0,0c0.95-1.31,9.15,25.16-0.61,3.1C122.16,168.34,128.03,184,125.8,184.12z M137.06,240.76
				c-2.14-2.89-12.22-34.22-10.95-37.47c1.89,1.62,2.92,1.79,3.08,0.5c7.18,8.66,4.16,19.38,9.24,26.74
				c0.46,0.68,0.25,0.36,0.01,0.02C139.42,232.04,142.3,247.82,137.06,240.76z M131.96,180.83
				C131.78,180.71,130.81,180.07,131.96,180.83C132,180.86,131.99,180.85,131.96,180.83c2.05,1.37,10.84,12.71,17.31,22.7
				C144.01,219.29,130.34,179.76,131.96,180.83z M141.25,227.69c0.02,0.27-0.02,0.59-0.18,0.12c2.8-20.26,18.13-0.88,12.36,4.89
				C156.06,230.07,142.91,227.38,141.25,227.69z M159.95,270.94c-0.75-0.22-14.71-33.52-14.72-33.63
				c-1.04-7.45,10.29,9.96,11.2,10.91c0.11,0.12,0.12,0.12,0.08,0.09c2.3,2.42,10.56,11.57,6.02,13.9c-1.55,0.8-4.63-6.57-5.17-7.49
				C156.65,256.62,161.46,271.38,159.95,270.94z M165.3,317.43C165.54,318.27,166.24,320.62,165.3,317.43
				c-0.88-2.97-4.73-26.98-5.06-26.74c5.94-4.12,17.34,35.83,13.48,39.95C167.95,329.35,165.14,324.95,165.3,317.43z M165.39,332.8
				c1.99-5.01,12.52,9.41,19.57,22.34c-4.4,12.19-4.96,3.78-9.84-7.71c0.18,0.41,0.3,0.69-0.1-0.24c-0.33-0.76-0.19-0.43-0.01-0.01
				C174.06,345.08,160.91,344.22,165.39,332.8z M175.8,395.28c-0.48,0.52-17.32-37.51-13.13-40.45
				C168.03,351.08,179.76,391.04,175.8,395.28z M178.94,384.54c-0.04,0.04-0.04,0.04-0.01,0.01c-3.28,3.35-2.28-18.43,2.01-13.19
				c2.94,3.58,13.64,8.49,7.38,15.2C187.18,387.78,187.74,375.21,178.94,384.54z M196.68,417.4c0.19,0.02,0.42,0.05-0.02,0
				c-0.22-0.03-0.14-0.02-0.01,0c-2.75-0.38-4.16-7.64-4.94-9.73c-0.69,2.82,5.5,17.93,2.5,18.77c1.33-0.38-13.81-35.31-13.85-35.65
				C179.45,383.16,201.2,417.83,196.68,417.4z M205.39,421.91C204.87,422.48,205.16,422.16,205.39,421.91
				c-0.42,0.36-13.07-31.26-13.64-36.12c-0.03-5.47,21.46,27.24,13.66,36.09C205.58,421.7,205.7,421.56,205.39,421.91z
				 M208.64,410.97C208.6,411.01,208.61,411.01,208.64,410.97c-3.22,3.42-1.22-18.54-1.17-13.27c-0.1-9.03,17.01,22.58,9.6,15.24
				C211.89,407.85,217.43,401.32,208.64,410.97z M213.06,415.14c6.03,7.58,6.08,16.45,8.25,24.99c-1.46-0.27-1.08-0.2,0,0
				c0.49,1.94,1.09,3.86,1.89,5.74c0.32,2.48,0.64,4.97,0.96,7.45C223.49,454.45,211.89,413.66,213.06,415.14z M234.82,433.62
				c-11.37,0.72-2.87-8.81-4.67-12.42c-1.24-2.47-15.66-2.98-7.27-11.5c3.47-2.68,7.28-4.15,11.43-4.41
				C233.05,405.61,244.36,433.02,234.82,433.62z M253.73,380.75c-6.36-9.28-18.09,17.56-22.5,10.48
				C224.24,379.95,245.61,367.12,253.73,380.75z M240.83,352.82c-0.03,0.02-0.07,0.01-0.12-0.07c0.83-4.99,6.85-25.44,15.54-21.61
				C260.4,333.08,242.72,353.26,240.83,352.82z M259.19,324.63c-3.66,3.43-3.77-9.19-5.92-10.02c-1.49,4.15-21.75,15.62-22.27,14.8
				c-5-7.86,8.41-23.32,15.6-19.28c0.67,0.38,0.38,0.21,0,0C249.61,311.81,270.04,314.48,259.19,324.63z M260.95,294.71
				c-1.71,5.64,7.43,8.25,2.62,14.34c1.88-2.41-17.87-14.31-17.78-13.75c-2.2-15.02,13.5,0.38,16.22-4.6c0.78-1.41,0.16-0.29,0,0
				C265.45,284.44,272.82,304.49,260.95,294.71z M298.62,305.42c-3.39,2.59-3.57-9.05-5.31-9.97c-1.53,4.14-21.97,15.41-22.38,14.75
				c-4.57-7.44,8.45-23.06,15.72-19.17c-0.42-0.23-0.86-0.48,0.05,0.02C289.24,292.46,311.01,296.05,298.62,305.42z M286.37,276.59
				c-2.72-22.47,22.23,8.47,18.29,6.96c0.22,0.09,0.17,0.07,0.01,0C311.81,286.31,287.42,284.98,286.37,276.59z M310.45,363.63
				c-1.58,0.42,8.58,26.23-0.76,27.2c-11.01,1.09-2.61-8.67-4.05-11.82C303.12,373.46,292.8,368.32,310.45,363.63z M312.76,331.57
				c-6.7,0.45-15.73-23.39,0.67-27.24c5.68-1.3-0.87,14.79,2.08,15.02c-0.27-0.02-0.51-0.03,0.01,0
				C318.43,319.52,318.04,331.22,312.76,331.57z M337.15,297.74c-0.22,0.35-22.29,15.95-16.65,16.86
				C304.56,312.03,347.42,281.32,337.15,297.74z M338.89,285.65c-3.94,3.61-3.07-8.77-5.26-9.5c-1.47,3.08-21.9,15.69-22.49,14.69
				c-4.3-7.25,9.01-22.8,16.08-18.93c0.67,0.36,0.38,0.2,0.02,0.01C330.33,273.56,349.77,275.65,338.89,285.65z M342.21,256.85
				c-2.08,5.23,6.94,8.5,1.68,13.84c1.77-1.79-16.45-12.77-16.5-14.29c-0.43-12.3,13.35,1.32,16.06-3.42c-0.11,0.19-0.17,0.3,0,0
				C347.29,246.19,352.84,267.1,342.21,256.85z M351.05,271.5c-3.99-7.08,9.51-22.34,16.34-18.62c0.69,0.37,0.38,0.2,0.03,0.01
				c3.02,1.59,22.08,3.22,11.46,13.14c-3.9,3.61-3.99-8.19-5.19-9.07C372.08,261.47,351.32,271.98,351.05,271.5z M359.58,294.77
				c-14.62-2.52,26.78-31.62,17.22-17.09C376.32,278.42,355.06,293.93,359.58,294.77z M362.85,296.76
				c-0.21-3.27,15.47-8.8,17.93-6.76c-1.21-1-1.94,16.18-2.74,18.43C378.44,306.18,362.73,294.86,362.85,296.76z M386.7,335.88
				c-6.45-1.54-26.8-5.86-0.73-13.56C390.13,321.12,386.27,332.95,386.7,335.88z M392.1,331.65c-14.68,2.03,33.04-37.35,14.06-13.21
				c0.81-1.02,3.4-4.31-0.07,0.1c-0.22,0.27-0.17,0.21,0-0.01C407.3,316.97,390.1,331.95,392.1,331.65z M411.15,334.05
				c-0.39-0.22-0.28-0.16-0.12-0.06c-7.1-4.05,1.33,5.48-2.35,10.86c2.33-3.39-13.74-12.02-13.71-11.69
				C397.09,314.04,419.43,338.93,411.15,334.05z M424.3,314.78c-5.56-1.59-24.93-6.04-0.23-13.29
				C427.97,300.36,424.06,311.86,424.3,314.78z M445.69,294.79C445.63,294.88,445.64,294.86,445.69,294.79
				c-0.34,0.49-20.85,15.41-16.05,15.87c-13.54-1.19,27.7-33.35,16.08-15.91C446.08,294.2,447.76,291.69,445.69,294.79z
				 M443.21,272.49c-0.28-0.18-0.69-0.43,0.04,0.02c0.91,0.58,16.58,1.69,5.39,10.2c-3.46,2.63-1.72-7.82-3.74-8.76
				c-1.57,3.83-22.04,14.74-21.94,14.94C418.49,279.61,435.93,268.05,443.21,272.49z M455.11,238.78
				C454.85,239.14,454.94,239.02,455.11,238.78c-0.81,1.13-22.56,14.58-17.43,16.43c-13.15-5.02,26.64-29.64,17.45-16.46
				C455.44,238.31,455.95,237.58,455.11,238.78z M451.53,217.27C451.85,217.48,451.73,217.4,451.53,217.27
				c0.95,0.6,17.59,2.03,5.86,10.47c-3.89,2.8-1.73-8.11-3.97-8.94c-1.45,2.73-22.39,15.19-22.81,14.42
				C425.32,223.28,444.24,212.55,451.53,217.27z M463.71,183.97C463.52,184.22,463.57,184.15,463.71,183.97
				c-0.51,0.63-22.85,15.08-17.98,15.82c-14.7-2.13,29.02-30.79,18.03-15.89C464.1,183.44,464.73,182.59,463.71,183.97z"/>
		</g>
	</g>
	<g id="door">
		<polygon id="base_color_2_" class="st4" points="96.65,349.87 83.46,209.96 150.04,257.65 158.32,407.43 		"/>
		<g id="bottom_drawing">
			<path id="drawing" class="st5" d="M117.18,324.34c-0.12-0.77-0.32-1.59-0.53-2.36c-0.16-0.6-0.38-1.17-0.58-1.75
				c-0.6-1.74-1.43-2.44-1.9-1.61c-0.17,0.29-0.31,0.63-0.44,1.02c-0.94,2.8,0.15,8,1.91,10.56c0.28,0.41,0.58,0.92,0.81,1.51
				c0.4,1.06,0.81,1.98,1.31,2.69c0.45,0.63,0.73,1.69,1,2.73c0.24,0.92,0.01,1.25-0.02,1.81c0,0.03-0.01,0.06-0.01,0.1
				c-0.09,0.89,0.05,1.54,0.52,2.35c0.19,0.33,0.39,0.59,0.57,0.92c0.47,0.82,0.66,1.71,0.54,2.59c-0.03,0.22-0.08,0.42-0.14,0.58
				c-0.46,1.27-0.97,2.44-1.69,3.02c-0.14,0.12-0.25,0.33-0.43,0.57c0.23,0.48,0.4,0.92,0.59,1.24c0.71,1.21,1.43,1.96,2.14,2.37
				c0.19,0.11,0.41,0.29,0.54,0.19c0.66-0.51,1.26-1.15,1.18-3.32c-0.04-1.27-0.03-2.49,0-3.69c0.02-0.86,0.28-1.16,0.59-0.9
				c0.28,0.24,0.52,0.91,0.62,1.97c0.11,1.22,0.21,2.43,0.23,3.57c0.04,2.15,1.21,5.65,2.15,6.58c0.72,0.71,1.41,1.23,2.07,1.32
				c0.18,0.03,0.33-0.14,0.56-0.25c-0.44-1.19-0.79-2.11-1.13-3.06c-0.44-1.26-0.88-2.53-1.28-3.84c-0.37-1.22-0.58-2.46-0.57-3.67
				c0.17,0.04,0.32,0.08,0.47,0.11c0.17,0.04,0.34,0.11,0.51,0.13c0.5,0.06,0.64-0.43,0.49-1.69c-0.02-0.21-0.07-0.42-0.1-0.63
				c-0.2-1.49-0.05-2.23,0.49-2.47c0.57-0.25,1.13-0.53,1.7-0.79c0.1-0.05,0.21-0.08,0.33-0.05c1.22,0.27,2.2-1.8,1.82-5.39
				c-0.08-0.76-0.24-1.58-0.42-2.34c-0.19-0.77-0.44-1.52-0.69-2.24c-0.43-1.27-1.15-2.21-1.54-1.9c-0.57,0.46-1.03,1.26-1.23,2.66
				c-0.12,0.87,0.02,1.84,0.38,2.82c0.18,0.49,0.42,0.9,0.63,1.34c0.17,0.36,0.34,0.71,0.52,1.07c-0.35,1.56-0.88,2.15-1.83,1.06
				c-0.05-0.06-0.11-0.1-0.16-0.15c-0.74-0.68-1.27-0.43-1.58,0.68c-0.12,0.43-0.18,0.98-0.26,1.49c-0.07,0.44-0.11,0.91-0.17,1.4
				c-0.15-0.3-0.25-0.49-0.34-0.69c-0.58-1.31-0.87-1.51-1.13-0.55c-0.02,0.08-0.06,0.13-0.09,0.19c-0.39,0.67-0.8,0.35-1.29-1.03
				c-0.24-0.66-0.46-1.34-0.7-2.04c-0.32,0.11-0.62,0.21-0.96,0.33c-0.16-1.04-0.3-2.01-0.48-2.98c-0.37-2.05-0.93-3.35-1.79-4.16
				c-0.27-0.26-0.54-0.43-0.81-0.69c-0.75-0.72-1.25-2.09-1.45-3.99c0.15-0.02,0.31-0.04,0.46-0.06
				C117.26,326.94,117.46,326.18,117.18,324.34z"/>
			<path id="right_dot" class="st5" d="M129.62,354c-0.12,0.46-0.13,0.99,0.04,1.74c0.19,0.82,0.34,1.65,0.49,2.47
				c0.29,1.59,0.69,2.51,1.38,3.13c0.73,0.65,1.53,0.23,1.78-1.01c0.26-1.3-0.07-2.82-0.58-4.38c-0.08-0.23-0.16-0.46-0.24-0.68
				C131.56,352.88,130.09,352.25,129.62,354z"/>
			<path id="left_dot" class="st5" d="M113.27,342.53c0.24,2.03,1.21,4.41,2.18,5.21c0.64,0.71,1.06,0.38,1.23-0.93
				c0.08-0.62,0.25-1.1,0.34-1.72c0.04-0.31,0.06-0.82-0.03-1.17c-0.34-1.28-0.71-2.53-1.3-3.41c-1.16-1.74-2.38-1.15-2.45,1.22
				C113.23,341.97,113.24,342.25,113.27,342.53z"/>
		</g>
		<g id="top_drawing">
			<path id="drawing_1_" class="st5" d="M122.83,294.97l3.33,2.59c0.09,0.07,0.21-0.04,0.15-0.13c-0.55-0.82-0.96-1.96-1.3-3.18
				c-0.19-0.67-0.07-1.14,0.27-0.86c0.69,0.57,1.13,0.42,1.49-0.18c0.1-0.17,0.35-0.05,0.55,0.04c0.37,0.17,0.71,0.22,0.91-0.15
				c0.35-0.62,0.71-1.24,1.01-1.97c0.31-0.76,0.21-1.43-0.35-2.64c-0.35-0.77-0.72-1.52-1.09-2.26c-0.36-0.71-0.53-0.81-0.8-0.55
				c-0.08,0.08-0.15,0.21-0.23,0.28c-0.34,0.29-0.77-0.31-0.89-1.25c-0.06-0.54-0.07-1.06-0.06-1.53c0.04-0.97,0.23-1.73,0.56-2.22
				c0.4-0.57,0.84-1.03,1.28-1.51c0.09-0.1,0.22-0.12,0.34-0.12c0.46,0,0.8,0.54,0.99,1.55c0.08,0.46,0.14,0.91,0.23,1.37
				c0.21,1.09,0.52,1.58,1.03,1.69c0.25,0.05,0.46-0.13,0.8,0.47c0.42,0.76,0.8,1.58,0.93,2.49c0.16,1.14,0.45,2.23,0.82,3.37
				c0.18,0.57,0.3,1.17,0.39,1.76c0.3,2.06,1.01,3.75,1.94,5.17c0.71,1.08,1.33,1.16,1.86,0.83c0.26-0.17,0.49-0.46,0.7-0.76
				c0.25-0.35,0.25-0.86-0.02-1.66c-0.26-0.81-0.55-1.61-0.86-2.39c-0.34-0.87-0.69-1.12-0.96-0.73c-0.14,0.2-0.25,0.44-0.41,0.72
				c-0.84-1.57-1.48-3.17-1.93-4.92c-0.33-1.26-0.3-2.28-0.17-3.19c0.07-0.47,0.29-0.49,0.57,0c1.14,1.99,2.35,3.82,3.18,6.43
				c0.39,1.22,0.86,2.4,1.3,3.61c0.26,0.71,0.63,1.9,0.79,2.64c0.19,0.87,0.45,1.65,0.83,2.38c0.5,0.97,0.45,2.57,1.48,2.93
				c0.8,0.28,0.25-0.86,0.25-0.86c-0.2-0.06-0.33-0.4-0.46-0.77c-0.49-1.39-1.01-2.76-1.16-4.25c-0.07-0.69-0.38-1.35-0.67-1.94
				c-0.99-2.03-1.78-4.24-2.47-6.53c-0.19-0.63-0.45-1.69-0.6-2.33c-0.84-3.54-2.07-6.88-3.38-10.16c-0.82-2.04-1.53-4.09-2.04-6.27
				c-0.11-0.47-0.32-0.95-0.51-1.4c-0.21-0.49-0.46-0.93-0.68-1.41c-0.54-1.2-1.11-2.32-1.77-3.28c-0.53-0.77-0.99-1.73-1.36-2.79
				c-0.31-0.9-0.61-1.8-0.9-2.7c-0.25-0.78-0.31-1.46-0.21-2.05c0.04-0.25,0.07-0.52,0.12-0.94c-0.24-0.12-0.35-0.22-0.44-0.21
				c-0.5,0.04-0.91-0.58-1.29-1.56c-0.52-1.31-1.05-2.61-1.58-3.91c-0.29-0.71-0.62-1.35-1.02-1.81c-0.13-0.15-0.26-0.29-0.38-0.38
				c-0.43-0.3-0.61-0.03-0.53,0.75c0.19,1.92,0.19,1.92-0.73,1.91c-0.03,0-0.06,0.01-0.1,0.01c-0.27,0-0.52,0.06-0.52,0.62
				c0,0.55,0.25,1.09,0.52,1.58c0.1,0.18,0.2,0.35,0.3,0.52c1.51,2.5,1.81,5.29,1.57,6.89c-0.08,0.55-0.22,1.04-0.37,1.48
				c-0.08,0.24-0.23,0.43-0.4,0.47c-0.9,0.21-1.88-0.52-2.91-2.13c-0.18-0.28-0.37-0.66-0.49-1.03c-0.76-2.3-1.13-4.4-0.84-6.15
				c0.13-0.77,0.4-1.26,0.88-1.31c0.17-0.02,0.34-0.07,0.47-0.19c0.37-0.34,0.28-1.14-0.23-1.97c-0.22-0.36-0.46-0.66-0.69-0.99
				c-0.66-0.96-0.76-1.29-0.73-2.39c0.01-0.39,0.14-0.71-0.2-1.29c-0.32-0.56-0.65-1-0.95-0.92c-0.3,0.07-0.58,0.24-0.8,0.51
				c-0.41,0.52-0.76,1.16-1.15,1.73c-0.18,0.28-0.39,0.52-0.59,0.78c-0.33-0.41-0.64-0.79-1.01-1.25c0.03,0.29,0.03,0.5,0.08,0.7
				c0.3,1.12,0.25,1.92,0.02,2.54c-0.49,1.32-1.11,2.28-2.12,2.48c-0.63,0.12-1.12,0.73-1.62,1.22c-0.2,0.2-0.33,0.62-0.4,1.07
				c-0.17,1.15-0.51,2-1.02,2.51c-1.11,1.12-1.68,3.24-2.42,5c-0.05,0.11-0.08,0.26-0.1,0.41c-0.33,2.24-1.11,3.64-2.07,4.69
				c-0.39,0.42-0.69,0.97-0.78,1.93c-0.07,0.81-0.43,1.17-0.74,1.51c-1.4,1.52,0.13,1.53,0.13,1.53c0.35-0.17,0.69-0.37,1.05-0.51
				c0.45-0.17,0.73-0.64,0.8-1.55c0.03-0.4,0.17-0.7,0.31-0.95c0.35-0.6,0.76-1.07,1.08-1.72c0.44-0.89,1.01-1.46,1.72-1.72
				c0.32-0.12,0.62-0.28,0.94-0.39c0.32-0.11,0.48,0.13,0.65,0.94c0.65,3.06,0.11,4.36-0.88,5.13c-0.19,0.15-0.39-0.02-0.61-0.57
				c-0.04-0.1-0.08-0.2-0.13-0.29c-0.56-1.22-0.82-1.43-1.21-0.95c-0.19,0.23-0.38,0.47-0.54,0.76c-0.23,0.43-0.17,1.05,0.21,1.92
				c0.3,0.68,0.62,1.34,0.93,2.01c0.72,1.55,2.04,2.48,2.55,1.94c0.29-0.3,0.51-0.76,0.71-1.24c0.1-0.23,0.13-0.62,0.11-1.01
				c-0.04-0.7,0.04-1.19,0.24-1.54c0.22-0.39,0.36-0.9,0.35-1.66c-0.01-0.75,0.16-1.23,0.48-1.45c0.27-0.19,0.53-0.15,0.95,0.5
				c0.63,0.97,0.9,0.88,0.99-0.13c0.03-0.38,0.04-0.8,0.08-1.17c0.07-0.68,0.32-0.72,0.76-0.13c0.12,0.16,0.25,0.36,0.35,0.57
				c0.58,1.24,1.17,2.47,1.71,3.76c0.66,1.57,1.07,3.17,1.19,4.73c0.01,0.19,0.03,0.39,0.03,0.57c-0.02,0.79-0.36,0.77-0.77-0.05
				c-0.14-0.28-0.25-0.59-0.39-0.87c-0.28-0.58-0.49-0.79-0.73-0.64c-0.39,0.24-0.76,0.52-1.11,0.82c-0.21,0.18-0.24,0.61-0.09,1.24
				c0.42,1.84,1.08,3.55,1.87,5.17c0.18,0.38,0.44,0.68,0.67,0.91c0.44,0.45,0.81,1.04,1.09,1.89c0.23,0.71,0.52,1.12,0.86,1.39
				c0.14,0.11,0.28,0.23,0.42,0.38c0.48,0.54,0.64,1.19,0.4,1.63c-0.19,0.35-0.43,0.59-0.65,0.87c-0.12,0.15-0.37,0.19-0.36,0.44
				c0,0.08,3.25,2.64,3.25,2.64c0.05,0.04,0.13,0,0.12-0.07c-0.06-0.88,0.09-1.39,0.44-1.65c0.38-0.28,0.31-0.84-0.17-1.86
				c-0.18-0.38-0.36-0.74-0.55-1.13c0.09-0.35,0.27-0.3,0.49-0.13c0.69,0.53,1.37,1.05,2.06,1.58c0.1,0.08,0.22,0.19,0.32,0.33
				c0.23,0.33,0.29,0.72,0.13,0.89c-0.07,0.07-0.16,0.09-0.23,0.15c-0.44,0.34-0.42,0.79,0.06,1.94c0.1,0.23,0.21,0.45,0.29,0.69
				c0.37,1,0.26,1.29-0.01,1.49C122.56,294.79,122.83,294.97,122.83,294.97z M108.74,256.34c0.18-0.24,0.43-0.24,0.73,0.04
				c0.22,0.2,0.44,0.45,0.65,0.69c0.37,0.4,0.51,0.38,0.53-0.22c0.02-0.67,0.14-1.18,0.44-1.36c0.37-0.21,0.48-0.78,0.42-1.64
				c-0.08-1.14,0.05-1.98,0.4-2.55c0.06-0.1,0.12-0.2,0.2-0.25c0.28-0.18,0.61,0.24,0.73,0.95c0.06,0.34,0.1,0.68,0.11,0.99
				c0.09,2.58,0.83,5.32,1.68,8.11c0.25,0.81,0.58,1.42,1,1.61c0.47,0.22,0.85,0.78,1.2,1.65c0.22,0.53,0.47,1.02,0.71,1.53
				c0.6,1.3,1.09,2.65,1.42,4.1c0.09,0.38,0.2,0.78,0.33,1.15c0.48,1.37,0.95,1.74,1.28,1c0.09-0.21,0.17-0.45,0.21-0.74
				c0.19-1.3,0.61-2.15,1.26-2.58c0.12-0.08,0.23-0.17,0.32-0.32c0.25-0.42,0.59-0.5,1.07-0.1c0.42,0.35,0.71,0.19,0.87-0.28
				c0.53-1.52,0.92-3.24,0.73-5.7c-0.03-0.43-0.04-0.84-0.05-1.25c-0.01-0.42-0.01-0.85,0.27-0.77c0.27,0.07,0.45,0.52,0.63,0.97
				c0.47,1.18,0.74,2.37,0.87,3.56c0.02,0.17,0.02,0.33,0.04,0.5c0.1,1.11,0.35,1.82,0.94,2.55c0.51,0.63,0.98,1.26,1.34,2.34
				c0.14,0.42,0.41,0.76,0.62,1.14c0.66,1.22,1.1,2.54,1.27,3.97c0.09,0.78,0.04,1.07-0.18,1.09c-0.23,0.02-0.44-0.27-0.73-0.99
				c-0.08-0.2-0.15-0.41-0.23-0.61c-0.32-0.74-0.59-0.95-0.85-0.68c-0.07,0.08-0.13,0.18-0.19,0.29c-0.19,0.33-0.45,0.25-0.79-0.22
				c-0.83-1.14-1.62-1.49-2.38-1.65c-0.26-0.06-0.51,0.13-0.68,0.38c-0.36,0.54-0.65,1.22-0.74,2.24c-0.06,0.71-0.31,0.99-0.75,0.83
				c-0.24-0.08-0.48-0.15-0.69-0.14c-0.5,0.04-0.57,0.75-0.23,1.89c0.07,0.24,0.16,0.49,0.25,0.73c0.4,1,0.6,1.14,0.86,0.59
				c0.29-0.62,0.69-0.26,1.02,0.95c0.22,0.8,0.28,1.49,0.05,1.87c-0.31,0.51-0.26,1.37-0.02,2.43c0.24,1.11,0.53,2.18,0.95,3.26
				c0.56,1.43,0.52,2.74-0.05,3.04c-0.42,0.22-1.04-0.41-1.44-1.59c-0.37-1.11-0.81-1.83-1.35-2.45c-0.33-0.37-0.67-0.9-0.97-1.44
				c-0.77-1.37-1.45-1.85-2.1-1.63c-0.26,0.09-0.57,0.04-0.87-0.03c-0.47-0.1-0.85,0.01-1.14,0.44c-0.38,0.57-0.74,0.44-1.25-0.41
				c-0.5-0.82-0.86-2.11-0.78-2.95c0.03-0.33,0.15-0.58,0.3-0.72c0.69-0.67,0.73-2.74,0.06-4.83c-0.32-1.01-0.33-1.74-0.02-2.1
				c0.22-0.26,0.46-0.07,0.74,0.61c0.15,0.36,0.28,0.74,0.44,1.17c0.37,0.22,0.56,0.02,0.69-0.34c0.31-0.84,0.05-1.93-0.69-2.89
				c-0.18-0.23-0.36-0.41-0.54-0.6c-0.44-0.48-0.76-1.14-0.91-1.99c-0.28-1.56-0.89-2.98-1.47-4.42c-0.07-0.16-0.15-0.35-0.23-0.45
				c-0.91-1.09-1.83-2.43-2.7-2.37c-0.26,0.02-0.51-0.25-0.76-0.8c-0.01-0.03-0.03-0.06-0.04-0.1c-0.64-1.32-0.74-1.4-1.23-0.98
				c-0.07,0.06-0.15,0.12-0.24,0.13c-0.4,0.04-0.78-0.6-0.82-1.42C108.25,257.58,108.39,256.81,108.74,256.34z"/>
		</g>
		<path id="frame_decorations" class="st6" d="M155.88,386.01l-2.83-2.48l-1.7-36.56l0.13,0.11c0.25,0.21,0.56,0.32,0.88,0.32
			c0.2,0,0.4-0.04,0.59-0.14c0.48-0.23,0.79-0.73,0.77-1.27L153,324.04c-0.01-0.39-0.2-0.76-0.5-1.01l-2.34-1.9l-2.83-60.93
			l-0.03-0.66l-60.23-42.8l5.24,57.65c-0.35-0.11-0.73-0.1-1.06,0.08c-0.48,0.25-0.76,0.77-0.72,1.32l1.75,20.5
			c0.03,0.36,0.2,0.69,0.47,0.92l1.77,1.5l3.33,36.67c-0.26-0.03-0.53,0.01-0.77,0.14c-0.5,0.25-0.79,0.78-0.74,1.34l1.16,12.36
			c0.03,0.33,0.19,0.65,0.43,0.87l56.11,51.61c0.26,0.24,0.59,0.36,0.92,0.36c0.19,0,0.37-0.04,0.55-0.12
			c0.49-0.22,0.81-0.7,0.81-1.24v-13.66C156.34,386.64,156.17,386.27,155.88,386.01z M153.62,397.6l-53.45-49.16l-0.79-8.43
			l54.24,47.63V397.6z M144.64,260.99l2.69,57.85l-52.08-42.2l-4.93-54.26L144.64,260.99z M150.3,324.75l0.6,18.26L94.94,295.5
			l-1.43-16.76L150.3,324.75z M148.52,344.55l1.69,36.48l-49.42-43.4l-3.31-36.41L148.52,344.55z"/>
	</g>
	<g id="roof">
		<polygon id="base_color" class="st7" points="116.02,121.58 221.66,280.91 471.89,170.42 368.78,45.21 		"/>
		<g id="bright_lines">
			<polygon id="bl14" class="st8" points="290.94,250.32 185.87,100.47 174.15,104.01 280.09,255.11 			"/>
			<polygon id="bl13" class="st8" points="308.59,242.52 203.92,95.02 192.18,98.57 297.73,247.32 			"/>
			<polygon id="bl12" class="st8" points="343.9,226.94 240.03,84.11 228.25,87.67 333.01,231.74 			"/>
			<polygon id="bl11" class="st8" points="326.25,234.73 221.98,89.56 210.21,93.12 315.38,239.53 			"/>
			<polygon id="bl10" class="st8" points="237.97,273.7 131.71,116.84 120.05,120.36 227.16,278.48 			"/>
			<polygon id="bl9" class="st8" points="255.63,265.91 149.76,111.38 138.08,114.91 244.8,270.69 			"/>
			<polygon id="bl8" class="st8" points="156.11,109.46 262.45,262.9 273.28,258.11 167.81,105.93 			"/>
			<polygon id="bl7" class="st8" points="449.79,180.18 348.4,51.36 336.44,54.98 336.49,55.04 438.8,185.03 			"/>
			<polygon id="bl6" class="st8" points="414.5,195.77 312.27,62.28 300.38,65.87 300.39,65.89 403.55,200.6 			"/>
			<polygon id="bl5" class="st8" points="432.14,187.97 330.34,56.82 318.41,60.43 318.44,60.46 421.18,192.82 			"/>
			<polygon id="bl4" class="st8" points="467.43,172.39 366.46,45.91 354.47,49.53 354.54,49.61 456.43,177.25 			"/>
			<polygon id="bl3" class="st8" points="276.15,73.19 379.2,211.35 368.28,216.17 264.31,76.77 			"/>
			<polygon id="bl2" class="st8" points="258.09,78.65 361.55,219.14 350.65,223.95 246.28,82.22 			"/>
			<polygon id="bl1" class="st8" points="396.85,203.56 294.21,67.74 282.34,71.32 385.92,208.38 			"/>
		</g>
		<g id="dark_lines">
			<polygon id="dl14" class="st9" points="200.4,96.08 195.7,97.5 300.99,245.88 305.34,243.96 			"/>
			<polygon id="dl13" class="st9" points="218.45,90.63 213.74,92.05 318.64,238.09 322.98,236.17 			"/>
			<polygon id="dl12" class="st9" points="164.3,106.99 159.62,108.4 265.7,261.46 270.03,259.55 			"/>
			<polygon id="dl11" class="st9" points="128.21,117.89 123.54,119.3 230.4,277.05 234.73,275.14 			"/>
			<polygon id="dl10" class="st9" points="146.26,112.44 141.58,113.85 248.05,269.25 252.38,267.34 			"/>
			<polygon id="dl9" class="st9" points="236.5,85.18 231.78,86.6 336.28,230.3 340.63,228.38 			"/>
			<polygon id="dl8" class="st9" points="182.35,101.54 177.66,102.95 283.35,253.67 287.69,251.75 			"/>
			<polygon id="dl7" class="st9" points="344.81,52.45 340.03,53.89 442.1,183.58 446.49,181.64 			"/>
			<polygon id="dl6" class="st9" points="326.76,57.9 321.99,59.34 424.47,191.36 428.85,189.43 			"/>
			<polygon id="dl5" class="st9" points="362.87,46.99 358.07,48.44 459.73,175.79 464.13,173.85 			"/>
			<polygon id="dl4" class="st9" points="254.55,79.72 249.82,81.15 353.92,222.51 358.28,220.59 			"/>
			<polygon id="dl3" class="st9" points="272.6,74.27 267.86,75.7 371.56,214.72 375.93,212.79 			"/>
			<polygon id="dl2" class="st9" points="290.65,68.81 285.9,70.25 389.2,206.93 393.57,205 			"/>
			<polygon id="dl1" class="st9" points="308.7,63.36 303.95,64.8 406.83,199.15 411.21,197.22 			"/>
		</g>
		<g id="roof_border">
			<polygon id="right_border" class="st10" points="115.63,130.11 116.02,121.58 221.66,280.91 214.87,277.03 			"/>
			<polygon id="left_border" class="st10" points="96.1,118.31 94.31,109.56 28.02,142.51 31.51,145.22 			"/>
		</g>
		<g id="roof_reinforcement">
			<polygon id="front" class="st11" points="117.96,106.85 107.1,101.03 94.31,109.56 99.74,178.18 43.2,140.35 31.51,145.22 
				211.88,272.61 190.58,241.06 120.94,193.27 115.63,130.11 116.02,121.58 			"/>
			<polygon id="top" class="st12" points="348.33,32.32 107.1,101.03 117.96,106.85 358.21,36.39 			"/>
			<polygon id="side" class="st13" points="368.78,45.21 358.21,36.39 117.96,106.85 116.02,121.58 			"/>
		</g>
	</g>
	<g id="plants">
		<g id="bright_areas">
			<path id="left_plant" class="st14" d="M306.62,405.37c-3.48-1.38-5.51-3.2-9.15-3.88c-1.8-0.34-2.16,5.33-3.75,4.41
				c-6.37-3.7,0.27-2.61,0.49-10.61c-1.6-0.63-21.03-3.95-19.02,4.54c-0.5-0.3-1.11-0.4-1.68-0.26c0.11,0.91-0.17,1.85-0.7,2.59
				c1.55-3.69-0.14-10.05,3.56-13.8c1.18-1.2,8.24-0.76,9.55-1.85c5.46-4.56,12.5-15.51,12.75-24.37
				c-12.79-5.05-4.13-3.29-12.22,0.5c-0.83-4.88,2.94-4.58,3.11-10.58c-1.28-0.51-2.51-1.14-3.69-1.86c1.67-0.41,3.55-0.25,5.3-0.04
				c-0.4-7.48,10.54-15.42,10.79-24.46c-1.6-0.63-21.03-3.95-19.02,4.54c-0.5-0.3-1.11-0.4-1.68-0.26
				c0.45,3.79-17.3,11.49-17.07,13.25c0.36,2.73,4.89,9.93,7.26,10.47c-0.76,0.75-1.15,1.9-0.92,2.9c-0.5-0.3-1.11-0.4-1.68-0.26
				c0.45,3.79-17.3,11.49-17.07,13.25c0.88,6.81,6.92,8.78,10.96,12.37c0.04-0.21,0.12-0.41,0.2-0.6c9.77,8.48-6.72,6.72-5.59,11.49
				c-0.5-0.3-1.11-0.4-1.68-0.26c0.45,3.79-17.3,11.49-17.07,13.25c1.31,10.1,11.45,14.6,19.24,8.19c3.71,2.34,0.74,8.68,4.84,9.12
				c-1.32,0.85-9.32,7.61-9.21,8.08c-0.5-0.3-1.11-0.4-1.68-0.26c0.45,3.79-17.3,11.49-17.07,13.25
				c1.57,12.11,10.81,11.98,19.54,7.94c9.56-4.42,17.67-12.03,18.21-25.31C280.06,446.33,306.19,421.11,306.62,405.37
				C304.34,404.46,306.53,408.63,306.62,405.37z"/>
			<path id="right_plant" class="st14" d="M378.54,363.69c-3.39-1.34-17.35-4.21-19.02,3.29c-0.93-4.73,2.96-4.56,3.13-10.46
				c-1.01-0.4-1.98-0.88-2.92-1.41c3.46-1.05,7.88-16.19,7.96-19.14c-1.35-0.53-9.63-7.71-11.18-1.65c-0.3-5.15,2.87-5.1,3.04-11.14
				c-1.24-0.49-2.44-1.1-3.58-1.79c5.66-3.92,9.21-13.07,9.4-19.72c-1.6-0.63-21.03-3.95-19.02,4.54c-0.5-0.3-1.11-0.4-1.68-0.26
				c0.45,3.79-17.3,11.49-17.07,13.25c0.75,5.74,5.92,9.07,9.88,11.56c0.16-0.13-15.65,10.27-15.69,9.95
				c0.76,5.88,6.03,9.04,10.01,11.67c-3.9,0.32,5.44,11.33,7.43,12.39c-0.97,0.24-2.03,0.1-2.88-0.44
				c-0.89,1.86-11.19,11.81-11.46,9.72c0.64,4.9,5.42,9.33,9.11,11.16c-0.58,0.74-0.85,1.72-0.64,2.59c-0.5-0.3-1.11-0.4-1.68-0.26
				c0.45,3.79-17.3,11.49-17.07,13.25c3.64,28.02,39.78-2.5,33.66-9.03C362.71,395.56,378.12,378.84,378.54,363.69
				C376.25,362.79,378.45,366.96,378.54,363.69z"/>
		</g>
		<g id="dark_areas">
			<path id="dark11" class="st15" d="M282.38,399.05c0.45,0.83,1.57,1.23,2.44,0.85c-1.63-0.32,0.29,5.77,0.4,5.23
				c-0.71,3.51-1.75,4.63-4.77,7.18c0.15,1.67-11.61,8.97-14.59,8.23c6.82,1.37,14.23-1.94,19.14-5.98c0.24-0.2,4.96-5.93,5.02-6.04
				c1.66-3.08,1.09-7.13,2.84-9.9c-2.06-1.22-5.14,0.05-5.73,2.37c-0.25-1.11-0.5-2.23-0.75-3.34c-1.3-0.09-2.6-0.18-3.9-0.27
				c-0.16,0.58-0.05,1.22,0.29,1.72"/>
			<path id="dark10" class="st15" d="M294.78,409.13c0.45,0.83,1.57,1.23,2.44,0.85c-1.63-0.32,0.29,5.77,0.4,5.23
				c-0.71,3.51-1.75,4.63-4.77,7.18c0.15,1.67-11.61,8.97-14.59,8.23c6.82,1.37,14.23-1.94,19.14-5.98c0.24-0.2,4.96-5.93,5.02-6.04
				c1.66-3.08,1.09-7.13,2.84-9.9c-2.06-1.22-5.14,0.05-5.73,2.37c-0.25-1.11-0.5-2.23-0.75-3.34c-1.3-0.09-2.6-0.18-3.9-0.27
				c-0.16,0.58-0.05,1.22,0.29,1.72"/>
			<path id="dark9" class="st15" d="M260.67,430.45c0.45,0.83,1.57,1.23,2.44,0.85c-1.63-0.32,0.29,5.77,0.4,5.23
				c-0.71,3.51-1.75,4.63-4.77,7.18c0.15,1.67-11.61,8.97-14.59,8.23c6.82,1.37,14.23-1.94,19.14-5.98c0.24-0.2,4.96-5.93,5.02-6.04
				c1.66-3.08,1.09-7.13,2.84-9.9c-2.06-1.22-5.14,0.05-5.73,2.37c-0.25-1.11-0.5-2.23-0.75-3.34c-1.3-0.09-2.6-0.18-3.9-0.27
				c-0.16,0.58-0.05,1.22,0.29,1.72"/>
			<path id="dark8" class="st15" d="M264.54,392.08c0.45,0.83,1.57,1.23,2.44,0.85c-1.63-0.32,0.29,5.77,0.4,5.23
				c-0.71,3.51-1.75,4.63-4.77,7.18c0.15,1.67-11.61,8.97-14.59,8.23c6.82,1.37,14.23-1.94,19.14-5.98c0.24-0.2,4.96-5.93,5.02-6.04
				c1.66-3.08,1.09-7.13,2.84-9.9c-2.06-1.22-5.14,0.05-5.73,2.37c-0.25-1.11-0.5-2.23-0.75-3.34c-1.3-0.09-2.6-0.18-3.9-0.27
				c-0.16,0.58-0.05,1.22,0.29,1.72"/>
			<path id="dark7" class="st15" d="M286.83,365.91c0.45,0.83,1.57,1.23,2.44,0.85c-1.63-0.32,0.29,5.77,0.4,5.23
				c-0.71,3.51-1.75,4.63-4.77,7.18c0.15,1.67-11.61,8.97-14.59,8.23c6.82,1.37,14.23-1.94,19.14-5.98c0.24-0.2,4.96-5.93,5.02-6.04
				c1.66-3.08,1.09-7.13,2.84-9.9c-2.06-1.22-5.14,0.05-5.73,2.37c-0.25-1.11-0.5-2.23-0.75-3.34c-1.3-0.09-2.6-0.18-3.9-0.27
				c-0.16,0.58-0.05,1.22,0.29,1.72"/>
			<path id="dark6" class="st15" d="M277.72,355.83c0.45,0.83,1.57,1.23,2.44,0.85c-1.63-0.32,0.29,5.77,0.4,5.23
				c-0.71,3.51-1.75,4.63-4.77,7.18c0.15,1.67-11.61,8.97-14.59,8.23c6.82,1.37,14.23-1.94,19.14-5.98c0.24-0.2,4.96-5.93,5.02-6.04
				c1.66-3.08,1.09-7.13,2.84-9.9c-2.06-1.22-5.14,0.05-5.73,2.37c-0.25-1.11-0.5-2.23-0.75-3.34c-1.3-0.09-2.6-0.18-3.9-0.27
				c-0.16,0.58-0.05,1.22,0.29,1.72"/>
			<path id="dark5" class="st15" d="M290.13,329.47c0.45,0.83,1.57,1.23,2.44,0.85c-1.63-0.32,0.29,5.77,0.4,5.23
				c-0.71,3.51-1.75,4.63-4.77,7.18c0.15,1.67-11.61,8.97-14.59,8.23c6.82,1.37,14.23-1.94,19.14-5.98c0.24-0.2,4.96-5.93,5.02-6.04
				c1.66-3.08,1.09-7.13,2.84-9.9c-2.06-1.22-5.14,0.05-5.73,2.37c-0.25-1.11-0.5-2.23-0.75-3.34c-1.3-0.09-2.6-0.18-3.9-0.27
				c-0.16,0.58-0.05,1.22,0.29,1.72"/>
			<path id="dark4" class="st15" d="M340.53,387.04c0.45,0.83,1.57,1.23,2.44,0.85c-1.63-0.32,0.29,5.77,0.4,5.23
				c-0.71,3.51-1.75,4.63-4.77,7.18c0.15,1.67-11.61,8.97-14.59,8.23c6.82,1.37,14.23-1.93,19.14-5.98c0.24-0.2,4.96-5.93,5.02-6.04
				c1.66-3.08,1.09-7.13,2.84-9.9c-2.06-1.22-5.14,0.05-5.73,2.37c-0.25-1.11-0.5-2.23-0.75-3.34c-1.3-0.09-2.6-0.18-3.9-0.27
				c-0.16,0.58-0.05,1.22,0.29,1.72"/>
			<path id="dark3" class="st15" d="M366.69,367.46c0.45,0.83,1.57,1.23,2.44,0.85c-1.63-0.32,0.29,5.77,0.4,5.23
				c-0.71,3.51-1.75,4.63-4.77,7.18c0.15,1.67-11.61,8.97-14.59,8.23c6.82,1.37,14.23-1.94,19.14-5.98c0.24-0.2,4.96-5.93,5.02-6.04
				c1.66-3.08,1.09-7.13,2.84-9.9c-2.06-1.22-5.14,0.05-5.73,2.37c-0.25-1.11-0.5-2.23-0.75-3.34c-1.3-0.09-2.6-0.18-3.9-0.27
				c-0.16,0.58-0.05,1.22,0.29,1.72"/>
			<path id="dark2" class="st15" d="M366.31,339.32c-2.06-1.22-5.14,0.05-5.73,2.37c-0.25-1.11-0.5-2.23-0.75-3.34
				c-1.3-0.09-2.6-0.18-3.9-0.27c-0.16,0.58-0.05,1.22,0.29,1.72l-0.38-0.06c0.45,0.83,1.57,1.23,2.44,0.85
				c-1.63-0.32,0.29,5.77,0.4,5.23c-0.71,3.51-1.75,4.63-4.77,7.18c0.12,1.31-10.52,8.4-13.41,8.41c2.93,0.32,7.93,0.29,10.51-1.41
				c0.05,0.12,0.11,0.23,0.18,0.34l-0.38-0.06c0.45,0.83,1.57,1.23,2.44,0.85c-1.63-0.32,0.29,5.77,0.4,5.23
				c-0.71,3.51-1.75,4.63-4.77,7.18c0.12,1.31-10.52,8.4-13.41,8.41c6.49,0.71,13.29-2.31,17.95-6.16c0.24-0.2,4.96-5.93,5.02-6.04
				c1.66-3.08,1.09-7.13,2.84-9.9c-2.06-1.22-5.14,0.05-5.73,2.37c-0.25-1.11-0.5-2.23-0.75-3.34c-0.76-0.05-1.51-0.1-2.27-0.16
				c3.54-3.38,5.63-3.32,8.7-7.66c1.07-1.51,3.18-2.23,4.02-4.04C366.38,344.61,364.8,341.7,366.31,339.32
				C364.25,338.1,364.96,341.44,366.31,339.32z"/>
			<path id="dark1" class="st15" d="M363.98,305.01c-2.06-1.22-5.14,0.05-5.73,2.37c-0.25-1.11-0.5-2.23-0.75-3.34
				c-1.3-0.09-2.6-0.18-3.9-0.27c-0.16,0.58-0.05,1.22,0.29,1.72l-0.38-0.06c0.45,0.83,1.57,1.23,2.44,0.85
				c-1.63-0.32,0.29,5.77,0.4,5.23c-0.71,3.51-1.75,4.63-4.77,7.18c0.12,1.31-10.52,8.4-13.41,8.41c2.72,0.3,6.93,0.07,9.58-0.93
				c0.05,0.3,0.16,0.58,0.33,0.83l-0.38-0.06c0.45,0.83,1.57,1.23,2.44,0.85c-1.63-0.32,0.29,5.77,0.4,5.23
				c-0.71,3.51-1.75,4.63-4.77,7.18c0.12,1.31-10.52,8.4-13.41,8.41c6.49,0.71,13.29-2.31,17.95-6.16c0.24-0.2,4.96-5.93,5.02-6.04
				c1.66-3.08,1.09-7.13,2.84-9.9c-2.06-1.22-5.14,0.05-5.73,2.37c-0.25-1.11-0.5-2.23-0.75-3.34c-0.86-0.06-1.71-0.12-2.57-0.18
				c3.78-2.98,5.7-4.26,9.02-7.61c1.46-1.47,3.86-3.17,4.78-5.03C364.08,310.38,362.49,307.37,363.98,305.01
				C361.92,303.79,362.64,307.13,363.98,305.01z"/>
		</g>
		<g id="flower">
			<path id="outlining" class="st16" d="M359.96,302.69c1.24,0,2.48,0.61,3.21,1.61c0.84,1.14,0.99,2.74,0.39,4.02
				c0.1-0.04,0.19-0.06,0.27-0.06c0.7,0,1.11,1.15,1.1,1.98c-0.01,1.55-0.02,3.1-0.03,4.65c0,0.35-0.01,0.72-0.23,0.99
				c-0.31,0.4-0.89,0.41-1.38,0.53c-1.27,0.32-2.09,1.55-2.59,2.76c-0.49,1.21-0.8,2.53-1.61,3.57c-0.57,0.73-1.5,1.27-2.39,1.27
				c-0.37,0-0.73-0.09-1.05-0.3c0,0-0.67-1.38-1.63-1.76c-1.06-0.42-1.85-1.49-1.86-2.63c0-0.34,0.04-0.72-0.19-0.97
				c-0.14-0.15-0.32-0.2-0.52-0.2c-0.3,0-0.64,0.11-0.95,0.17c-0.11,0.02-0.22,0.03-0.33,0.03c-1.49,0-2.65-1.81-2.36-3.34
				c0.31-1.65,1.7-2.86,3.12-3.74c1.42-0.88,3-1.59,4.13-2.82c1.64-1.79,2.24-4.56,4.38-5.72
				C359.62,302.7,359.79,302.69,359.96,302.69 M359.96,300.88c-0.25,0-0.5,0.02-0.74,0.05c-0.22,0.03-0.42,0.1-0.62,0.2
				c-1.75,0.95-2.67,2.57-3.48,4c-0.44,0.79-0.86,1.53-1.37,2.08c-0.66,0.72-1.6,1.26-2.61,1.83c-0.38,0.22-0.77,0.44-1.14,0.67
				c-2.27,1.4-3.6,3.07-3.95,4.95c-0.26,1.36,0.14,2.85,1.07,3.97c0.8,0.97,1.93,1.53,3.07,1.53c0.09,0,0.18,0,0.26-0.01
				c0.3,1.54,1.41,2.89,2.93,3.49c0.16,0.09,0.52,0.57,0.67,0.87c0.15,0.3,0.37,0.55,0.65,0.73c0.6,0.38,1.3,0.58,2.03,0.58
				c1.42,0,2.88-0.75,3.83-1.97c0.76-0.98,1.15-2.08,1.5-3.06c0.11-0.32,0.22-0.63,0.35-0.94c0.38-0.94,0.89-1.57,1.35-1.69
				c0.08-0.02,0.16-0.03,0.24-0.05c0.55-0.1,1.46-0.28,2.12-1.12c0.6-0.77,0.61-1.67,0.61-2.1l0.01-2.32l0.01-2.32
				c0.01-0.9-0.27-2.13-1.05-2.97c0.15-1.42-0.21-2.89-1.07-4.06C363.57,301.78,361.78,300.88,359.96,300.88L359.96,300.88z"/>
			<path id="color" class="st17" d="M354.04,321.95c-1.06-0.42-1.85-1.49-1.86-2.63c0-0.34,0.04-0.72-0.19-0.97
				c-0.35-0.38-0.96-0.13-1.47-0.03c-1.65,0.3-3.01-1.67-2.7-3.31c0.31-1.65,1.7-2.86,3.12-3.74s3-1.59,4.13-2.82
				c1.64-1.79,2.24-4.56,4.38-5.72c1.4-0.19,2.88,0.44,3.71,1.58s0.99,2.74,0.39,4.02c0.87-0.34,1.38,0.99,1.38,1.93
				c-0.01,1.55-0.02,3.1-0.03,4.65c0,0.35-0.01,0.72-0.23,0.99c-0.31,0.4-0.89,0.41-1.38,0.53c-1.27,0.32-2.09,1.55-2.59,2.76
				c-0.49,1.21-0.8,2.53-1.61,3.57c-0.8,1.03-2.34,1.68-3.44,0.97C355.67,323.71,355,322.33,354.04,321.95z"/>
			<path id="center" class="st18" d="M361.56,310.64c-1.34-0.64-3.11-0.6-3.92,0.65c-0.34,0.52-0.5,1.15-0.84,1.68
				c-0.43,0.67-1.13,1.11-1.72,1.65s-1.11,1.28-0.99,2.07c0.02,0.14,0.07,0.29,0.18,0.38c0.11,0.08,0.26,0.09,0.39,0.09
				c0.79,0.02,1.59,0.03,2.38,0.05c0.32,0.01,0.64,0.01,0.94-0.1c1.06-0.39,1.2-1.96,2.18-2.52c0.42-0.24,0.97-0.27,1.3-0.62
				c0.18-0.19,0.28-0.45,0.34-0.71c0.24-0.89,0.51-1.17,0.3-2.06C362.1,311.18,362.32,311,361.56,310.64z"/>
		</g>
	</g>
</g>
</svg>
