<?xml version="1.0" encoding="utf-8"?>
<!-- Generator: Adobe Illustrator 19.0.0, SVG Export Plug-In . SVG Version: 6.00 Build 0)  -->
<svg version="1.1" id="island_icon" xmlns="http://www.w3.org/2000/svg" xmlns:xlink="http://www.w3.org/1999/xlink" x="0px"
	 y="0px" viewBox="225 -225 500 500" style="enable-background:new 225 -225 500 500;" xml:space="preserve">
<style type="text/css">
	.st0{fill:#FFFFFF;}
	.st1{fill:#79B1D2;}
	.st2{fill:#2887A8;}
	.st3{fill:#7D5B44;}
	.st4{fill:#CFA783;}
	.st5{fill:#D7B38B;}
	.st6{fill:#B88B64;}
	.st7{fill:#192619;}
	.st8{fill:#546241;}
	.st9{fill:#3A4E33;}
	.st10{fill:#795135;}
	.st11{fill:#442C14;}
	.st12{fill:#271907;}
	.st13{fill:#16381F;}
	.st14{fill:#3B7244;}
	.st15{fill:#1E4B29;}
	.st16{fill:#75B27F;}
</style>
<g id="group_6_">
	<path id="lining_54_" class="st0" d="M713.5,76.4c-9.1-21.7-24.2-39.7-44.9-53.6c3.5-10.3,8-29.3,4.1-50.2
		c7.3,4.3,16.2,5.6,24.6,3.1c13.1-3.9,22.2-16.1,22.2-29.7c0-24.8-14.1-59.9-45.2-78.7c-3.2-3.8-7.4-6.7-12.1-8.6
		c-2.7-1.1-17.4-6.5-37-6.5c-1.9,0-3.9,0.1-5.8,0.2c-1.3-0.2-2.7-0.3-4.2-0.4h-1.5c-7.6,0-16.3,1.3-24.9,3.7
		c-0.2-0.4-0.4-0.9-0.5-1.3c2-3.7,3.3-7.9,3.6-12.2l2.5-29.3c1.3-15.9-9.9-30.5-25.7-33.1c-1.1-0.2-10.6-1.8-22.5-1.8
		c-6.3,0-12.2,0.5-17.6,1.3c-5.4-1.2-11-1-16.3,0.7c-4.6,1.5-16.6,5.6-28.6,11.7c-6.3,1.1-12.2,4.2-16.7,8.9c-2.8,1-5.5,2.5-8,4.3
		c-3.2,2.4-18.4,14.5-28.5,33.2c-7.9-5.3-21.3-13.2-36.3-16.6c-1.6-0.4-3.3-0.6-5-0.7c-15.7-5.2-30-6.3-39.2-6.3
		c-7.5,0-12.5,0.7-14.4,1c-5.6,0.9-10.8,3.3-15.2,7c-41.9,13.7-68.4,52.9-75.3,83.8c-3,13.4,3.4,27.4,15.5,34
		c11.2,6.1,26,4.2,35.5-4.3c0.1,0,0.1,0,0.2,0c2.2,1.4,4.6,2.5,7.1,3.3c0.9,0.3,1.8,0.5,2.8,0.7c-19.8,28-21.1,61.2-20.3,78
		c-32,11-46.1,29.8-52.3,43.9c-6.9,15.8-7.8,34.4-2.5,52.7c-0.9,1.1-1.7,2.3-2.4,3.5c-2.6,4.6-6.4,14-2.2,26.2
		c2.7,19.9,12.3,32.7,29.2,39c3.3,19.1,15.2,36,34.6,48.8c42.1,28,112.2,34,152.7,22.2c14.3,7.3,34.2,6.8,46.6,6.6
		c2.3,0,5.1,0,7.4-0.1c13.2,6.9,38,11,66.9,11c40.1,0,91.7-8.5,116.3-32.3c4.1-3.9,6.6-9.2,7.1-14.9c0.7-8.3-1.2-15.8-5.4-22
		C714.1,177.3,741.2,141.9,713.5,76.4z"/>
	<g id="island_1_">
		<g id="water_1_">
			<path id="light_1_" class="st1" d="M306.5,36.8c-61.4,14-62.9,57.3-45.4,87.9c-7,0.5-16.1,3.9-11.2,14c1.7,17.7,8.3,23.5,29.5,26
				c-11.6,69.2,133.3,85.3,170.1,62c1.2,18.6,56.6,6.6,57.7,13c22.1,14,125.6,13.5,156.9-16.9c1.2-13.4-19.5-15.2-26.7-16.3
				c39.4-29.3,83.9-51,54.4-120.9C642.9-30.4,397.7,16.9,306.5,36.8z"/>
			<path id="dark_1_" class="st2" d="M329.1,39.1c0,0-44,9.8-55.2,40c-11.2,30.2,20.3,39.2,28,45.7s-13.3-5.7-18.9-0.8
				c-5.6,4.9,22.4,22,43.3,26.1c0,0-44,3.3-2.8,37.5c41.2,34.3,82.5,28.6,72,16.3c-10.5-12.2-7.7-8.2,46.8,2.4s74.1,4.1,85.3,1.6
				c11.2-2.4-5.6,11.4-14,13.9c-8.4,2.4,28.8,10.7,72.2-3.2c43.3-13.9,40.4-19.7,25-18.1s-9.1-4.9,12.6-7.3
				c21.7-2.4,31.5-13.1,20.3-16.3c-11.2-3.3,29.7-13.7,37.7-38.4c5.6-17.1-7.7-30.2-7.7-30.2c-7.7-7.3,2.8-4.1,4.2-15.5
				c1.4-11.4,5.6-31.8-84.6-62.8C503.2-0.9,329.1,39.1,329.1,39.1z"/>
		</g>
		<g id="sand_1_">
			<g id="borders_1_">
				<g id="border4_1_">
					<path id="XMLID_64_" class="st3" d="M280.3,77.5c0,0-2.3,40,72.8,46.8c0,0,4.1-3.4,8.1-4.9C361.2,119.3,283.9,113.4,280.3,77.5
						z"/>
				</g>
				<g id="border3_1_">
					<path id="XMLID_62_" class="st3" d="M339.9,145.9c0,0-6.3,39.6,113.5,48c119.9,8.4,158.7,1.5,160.9-25.6
						c0,0-7.3,26.8-155.3,17.2C373.1,179.9,340.4,157.3,339.9,145.9z"/>
				</g>
				<g id="border2_1_">
					<path id="XMLID_60_" class="st3" d="M666.9,110.3c0,0,14,39-57,44.9c0,0-3.4-5.5-12.7-9.8C597.2,145.5,663.6,151.4,666.9,110.3
						z"/>
				</g>
				<g id="border1_1_">
					<path id="XMLID_58_" class="st3" d="M659.2,97.9c0,0,21.6,2,20.1-13.9c0,0-0.6,11-24.3,8.3L659.2,97.9z"/>
				</g>
			</g>
			<path id="color_49_" class="st4" d="M416.6,8.2c0,0-100.5,5.6-129.9,50.4s51.5,61.5,74.7,60.7c0,0-27.2,10.8-20.7,31.8
				c6.5,21.1,105.6,48,242,37.4c35.2-2.7,42.1-30.6,16-42.6c0,0,41.6,10.2,63.1-15.9c15.6-18.9-6.2-37.4-6.2-37.4s23.3,4.2,23.6-8.6
				c0.4-18.9-54.4-64.9-139.3-83.5C459.4-17.2,417.7,2.6,416.6,8.2z"/>
			<path id="shine4_1_" class="st5" d="M438.4,15.8c-31.9-0.6-100.6,9.2-108.3,36.7c-7.7,27.5,70.1,35.6,116.1,1.1
				C492,19.2,471.7,16.4,438.4,15.8z"/>
			<path id="shine3_1_" class="st5" d="M441.3,112.8c-34.4-4.8-23.2,25.8,45.5,33.9C555.4,154.7,653.6,142.6,441.3,112.8z"/>
			<path id="shine2_1_" class="st5" d="M588.8,79.5c23.5,0.6,62.9,36.7,4.8,40.2C535.6,123.1,494.9,77.2,588.8,79.5z"/>
			<path id="shine1_1_" class="st5" d="M512.4,6.6c42.7,6.8,123.8,35.6,104.5,51.1C597.5,73.2,436.9-5.4,512.4,6.6z"/>
		</g>
	</g>
	<g id="right_palm_2_">
		<path id="shadow_27_" class="st6" d="M561,113.2c0,0-24.6-36.3-92.8-25.8c-24.7,4.6-15.1,21.4,12.4,15.4
			C494.2,113.2,575.2,139.5,561,113.2z"/>
		<g id="grass_2_">
			<path id="grass_lining" class="st7" d="M524.1,86.3c-7.1-22.1,0-29,0.9-29.7c0.5-0.5,1.2-0.7,1.9-0.7c0.1,0,0.1,0,0.2,0
				c0.8,0.1,1.5,0.5,1.9,1.1c1.1,1.4,2,2.9,2.8,4.4c1.9-5.2,3.8-8.7,3.9-9.1c0.5-1,1.5-1.5,2.6-1.5h0.1c1.1,0.1,2.1,0.7,2.5,1.8
				c2.4,6,2,12,0.6,17.3c1.1-0.2,2.1-0.2,3-0.2c4.5,0.1,8.3,1.9,8.5,1.9c1.1,0.5,1.8,1.8,1.6,3c-0.2,1.2-1.1,2.1-2.3,2.3
				c8.4,2.7,9.3,9.8,9.3,10.2c0.1,1.2-0.5,2.3-1.5,2.8c-0.4,0.2-0.9,0.3-1.4,0.3c-0.7,0-1.3-0.3-1.8-0.7c-2.1-1.9-4.3-2.9-6.4-2.9
				c-5.7-0.1-10.1,6.6-10.2,6.7c-0.5,0.8-1.5,1.3-2.4,1.3l-10.6-4L524.1,86.3z"/>
			<path id="grass_color" class="st8" d="M526.8,85.5c-6.7-20.9,0-26.7,0-26.7c3.7,4.7,4.8,9.4,4.6,13.5c2.4-10.1,6.8-18.6,6.8-18.6
				c3,7.6,1,15.5-1.8,21.4c6-5.2,15.2-0.9,15.2-0.9c-5.6,0.7-9.8,4.3-12.7,8c3.1-3,7.5-3.9,11.8-2.7c7.2,2,7.9,7.9,7.9,7.9
				c-11.5-10.3-21.1,4-21.1,4S531.6,90.7,526.8,85.5z"/>
			<path id="grass_shadows" class="st9" d="M526.8,85.5c-3.1-9.8-3.3-16.3-2.6-20.4h0.1c-0.7,6.6,1.6,13.5,3,11.8s1.3-4.5-0.3-10.7
				c1.8,2.1,2.5,7.2,3.7,3.6c0.2-0.7,0.3-1.6,0.2-2.5c0.4,1.8,0.5,3.5,0.5,5.1c0.4-1.8,0.9-3.5,1.4-5.1c-0.9,4.9,1.6,6.8,3.8,1.1
				c-0.2,8,3.1-6.5,3.1-6.5l0,0c0,4.9-1.5,9.5-3.4,13.4c-1.4,1.3-2.7,3.1-3.6,5.7c0,0.2,0,0.4,0,0.6l0,0c0.3,2.4,2.3,2.6,6.7-3.2
				c2.5-3.3,5.4-4.8,8-5.4c2.5,0.5,4.2,1.3,4.2,1.3c-5.6,0.7-9.7,4.3-12.7,7.9c2.7-2.6,6.5-3.6,10.3-3c-1.8,0-3.6,0.3-4.7,1.2
				c-2.9,2.5,7.8-1,14,7.1c-11.5-10.3-20.8,4.3-20.8,4.3S531.9,91.8,526.8,85.5z"/>
		</g>
		<g id="rtree">
			<g id="rtrunk">
				<path id="rtcolor" class="st10" d="M527.3,89.2c0,0-30.2-70.2,25.9-151.4c0,0,0.4-3-4.3-4.3c0,0-55.5,30.5-65.3,150.2
					C483.6,83.7,509,81.4,527.3,89.2z"/>
				<path id="rtshadow" class="st11" d="M511.3,22c-9.6-15.8,11.2-26.3,10-38.6c-1.1-12.3,8.9-9.7,16.5-30.8
					c2.7-7.5,7.3-13.7,12.3-18.6c3.5,1.4,3.2,3.9,3.2,3.9c-56.1,81.2-25.9,151.4-25.9,151.4c-7.7-3.3-16.6-4.8-24.4-5.4
					C481.4,60.4,516.6,30.7,511.3,22z"/>
				<path id="rtlining" class="st12" d="M555.8,105.4c-7.4-6-15.8-10.8-24.8-14.4c0.5-1.1,0.6-2.3,0.1-3.4
					c-0.3-0.7-28.2-69.6,25.5-147.5c0.4-0.5,0.6-1.2,0.7-1.9c0.2-2.4-1-6.9-7.3-8.7l0,0c-1.1-0.3-2.1-0.2-3.1,0.4
					c-2.3,1.3-57.5,32.9-67.4,153.5c0,0.2,0,0.3,0,0.5c-0.8,0.1-1.7,0.1-2.5,0.2c-0.2,0-3.6,4.5-3,4.5c27.2-3.4,61.2,4.3,82,21.2
					l1.4-2.3C557,106.5,556.3,105.9,555.8,105.4z M546.9-60.2c-4,6.1-7.6,12.2-10.9,18.7c-1.4-0.8-3.2-1.7-5.4-2.3
					C537.4-52.1,543.2-57.3,546.9-60.2z M525.8-37.2c2.7,0.6,5.1,1.7,6.9,2.7c-3.8,8.1-7,16.4-9.6,25c-3.2-0.9-7.5-1.9-12.1-2.1
					C515.4-21,520.4-29.6,525.8-37.2z M507.8-4.5c4.8,0.2,9.9,1.7,13,2.9c-2.4,9.4-4,18.8-4.8,28.1c-4.7-1.7-11.3-3.8-17.4-4.6
					C501.2,12.6,504.3,3.7,507.8-4.5z M496.5,29.7c7.7,1.2,14.7,4.6,19,6.9c-0.2,9.2,0.3,18.3,1.5,27c-6.7-2.5-16.2-5.3-25.1-5.3
					c-0.4,0-0.7,0-1.1,0C492.2,48.4,494.2,38.8,496.5,29.7z M489.3,68.8c11.3-1.4,23.4,2.2,29.3,4.3c0.8,3.9,1.6,7.1,2.3,9.6
					c-9.1-2.5-18.6-3.2-25.4-3.4c-2.9-0.1-5.4,0-7.4,0C488.5,75.7,488.9,72.2,489.3,68.8z"/>
			</g>
			<path id="rleaves_lining" class="st13" d="M657.9-114.8c-0.7-2-2.2-3.7-4.3-4.5c-0.5-0.2-12.2-4.8-28.3-4.8
				c-2.6,0-5.2,0.1-7.7,0.4c-0.8-0.3-1.7-0.5-2.7-0.6h-1.2l0,0c-11.1,0-24.6,4-31.6,7.8c-1.3,0.7-2.3,1.8-3,3
				c-1.3,0.5-2.9,1.2-4.7,2.4c-0.4-5.7-1.4-9.2-1.6-9.6c-0.5-1.5-1.5-2.9-2.7-3.8c-2.2-15.6-13.4-28.4-14-29.1
				c-1.2-1.4-2.8-2.2-4.6-2.4c-7.7-9.4-21.9-18.1-27.1-21.1c-1.2-0.7-2.5-1-3.7-1c-0.8,0-1.6,0.1-2.4,0.4
				c-11.4-5.8-26.6-7.2-28.5-7.4c-0.2,0-0.4,0-0.6,0c-3.7,0-6.8,2.7-7.4,6.4l-3.1,20.9c-0.3,2,0.2,4.1,1.5,5.7l6.5,8.3
				c0.7,0.8,1.5,1.5,2.4,2l13.8,16.1c0.4,0.5,0.8,0.9,1.3,1.2c0.3,0.7,0.7,1.4,1.2,2l13.1,15.4l0.1,0.1c0,0.2,0.1,0.3,0.2,0.5
				c-7.4-3-13.7-3.7-17.5-3.7l0,0c-2.3,0-3.8,0.2-4.2,0.3c-1,0.2-1.9,0.5-2.7,1.1c-0.7,0-1.4-0.1-2-0.1c-14.1,0-25.7,8.1-26.2,8.5
				c-0.8,0.6-1.5,1.3-2,2.1C443.5-91,438-77.7,436.9-74.2c-0.7,1.8-0.7,3.9,0.1,5.7c0.1,0.3,0.2,0.5,0.4,0.7
				c-2.9,8.9-4.6,20.3-3.1,30.7c0.4,2.9,2.6,5.4,5.5,6.1c0.6,0.2,1.3,0.2,1.9,0.2c2.3,0,4.4-1,5.9-2.9c2.1-2.7,7.8-6.2,10.3-7.4
				c1.2-0.6,2.2-1.5,2.9-2.7c0.3-0.1,0.6-0.2,0.9-0.3c0.7-0.3,1.3-0.7,1.9-1.1c3.4-2.8,15-5.2,21.8-5.9c1,0.5,2.1,0.7,3.2,0.7
				s2.2-0.2,3.2-0.7c2-1,10.7-2.7,18.3-3.9c1.1,0.6,2.3,1,3.6,1c1,0,6,0.5,9.9,1c0.3,0,0.6,0,0.8,0c1.5,0,3-0.5,4.3-1.4
				c5.7-4,12-4.9,16.3-4.9c0.4,0,0.7,0,1,0l0,0l0,0c0.2,0.1,0.4,0.2,0.6,0.4c0.2,0.1,9.4,5.7,5.5,28.1c-0.4,2,0.2,4.1,1.4,5.8
				c0.5,0.6,1,1.2,1.7,1.6c-0.8,1.4-1.1,3-0.9,4.6c0.9,6.6,0.6,9.8-0.1,12.7c-0.5,2.2,0,4.6,1.4,6.4c-0.1,0.7,0,1.4,0.1,2.2
				c1.3,6.7,2.1,14.5,2.1,14.5c0.1,1.2,0.5,2.4,1.2,3.4c-0.2,1.2-0.1,2.4,0.3,3.6c1.6,4.5,4,13.3,3.6,17.7c-0.2,2.4,0.8,4.8,2.6,6.3
				c1.4,1.2,3.1,1.8,4.8,1.8c0.6,0,1.2-0.1,1.9-0.2c1.5-0.4,35.6-9.8,38-59.1l1.9,2.1c0.2,0.3,0.5,0.5,0.7,0.7
				c-0.2,0.5-0.4,0.9-0.6,1.5c-1.3,3-0.5,6.4,1.9,8.6c2.8,2.4,5.6,7,6.4,8.4c0.3,0.5,0.6,1,1,1.4c0.1,1.8,0.8,3.6,2,4.9l7.2,7.6
				c1.4,1.5,3.4,2.3,5.4,2.3c0.4,0,0.7,0,1.1-0.1c2.4-0.4,4.5-1.9,5.6-4c0.9-1.8,21.3-43.9-7.2-74.9c-9.2-9.9-18.6-16.5-27.6-20.8
				c0.8,0.3,1.6,0.4,2.4,0.4c1.3,0,2.6-0.3,3.7-1c0.5,0.1,1,0.2,1.6,0.3c0.1,0,9.7,0.8,21.9,7.5c1.1,0.6,2.4,0.9,3.6,0.9
				c1,0,2-0.2,2.9-0.6c0.2,0.1,0.4,0.1,0.6,0.2c0,0,5.2,1.6,11.6,6.9c1.4,1.1,3.1,1.7,4.7,1.7c2,0,4-0.8,5.5-2.4
				c0.1-0.1,0.2-0.2,0.2-0.2c0.6,0.4,1.3,0.6,2.1,0.8c2.6,0.6,10.7,3.2,13.5,7.6c1.4,2.2,3.8,3.4,6.3,3.4c0.7,0,1.4-0.1,2.1-0.3
				c3.2-0.9,5.3-3.8,5.3-7.1C696-72.3,684.1-101.7,657.9-114.8z"/>
			<path id="rleaves_color" class="st14" d="M648-110.9c2.8-1.5,2.8-1.5,2.8-1.5s-14.3-5.7-32.6-4c-2.4,0.3-4.5,3.7-4.5,3.7
				s-0.3-1.7,1-4.2c-10.5-0.3-23.4,3.9-29.1,6.9c-1,2.9-1.7,5.6-1.7,5.6l-1-2.4c0,0-7.3,0.4-18.9,17.8c5.6-17,1.7-29.4,1.7-29.4
				s0,0-3,2.6c2.4-16.4-12.2-32.8-12.2-32.8l-1.5,2.9c-2.8-10.2-28.3-24.9-28.3-24.9s0,0-1.5,2.2c-9.9-7.6-30-9.3-30-9.3l-3.1,20.9
				l6.5,8.3l2.4-4.2l-0.6,5.5l14.1,16.5l3.2-3.9l-0.7,7.1l13.1,15.4l2.7-3.8l-1.1,6.9l6.2,10.4l4-6.8l-1.9,8.7l8,13.6l2.4-3.5
				l-0.9,9.1l3.3,6.3c-22.6-36-48.5-31.5-48.5-31.5s0,0,2.5,2.5c-15.2-5.1-30.5,5.7-30.5,5.7s0,0,3.1,1.1
				c-26,6.1-29.7,21.6-29.7,21.6s-1.1,1.2,3.9-1.8c-4.1,7.7-8,22.6-6.2,35.4c3.8-4.9,12.8-9.5,12.8-9.5l2.2-5.6c0,0-0.5,3.5,2.1,2.4
				c6.8-5.6,25.9-7.6,25.9-7.6c2.7-3.2,6.2-5.8,6.2-5.8c-2.1,4.1-2.3,6.5-2.3,6.5c4.7-2.2,22.4-4.9,22.4-4.9
				c3.5-3.4,8.2-4.2,8.2-4.2c-3.1,2.3-5.4,5.4-5.4,5.4c2.1,0,10.7,1,10.7,1c10.8-7.6,22.8-6.3,25.1-5.9l0.5,0.9c0,0,0,0,0.1,0
				c1,0.5,14.3,8.1,9.5,36c3.5,0.3,7.9-3.6,7.9-3.6s0,5.7-5.7,13.4c1,7,0.8,11.3-0.2,15.5c6.1-1.7,9.2-3.9,9.2-3.9s-0.9,4.5-7.6,9.2
				c1.4,7.1,2.2,15.2,2.2,15.2s4.7-2.2,7.5-5.6c0.1,6.2-6.4,10.8-6.4,10.8s4.7,13.1,4,20.9c0,0,31.1-8,32.5-54
				c0.5-15.4-4.1-27.3-10.9-36c4,4.5,6.1,8,6.1,8l1.9-4.1c0,0,3.4,3.3,2.5,9.1c3.2,1.8,8.9,8.4,8.9,8.4s0,0,1.5-6.1
				c0.8,3.5,0.3,15.2,0.3,15.2l4.3,4.7c0,0,0,0,3.2-5.3c0.1,6.9,0.7,9.7-1.8,15.4c4.4,3.8,8,10.4,8,10.4s0.5,1.1,2.4-7.4
				c0.3,6.8-0.4,12.2-0.4,12.2l7.2,7.6c0,0,19.4-39-6-66.5c-36.4-39.2-75.3-22.5-77.9-21.3l0,0c0,0-0.1,0-0.1,0.1
				c0.3-0.2,16-10.4,32.3-11c1.6-5.8,1.6-5.8,1.6-5.8l1.5,4.9c0,0,12.4-3.9,22.8,0.3c5.1-4.6,5.7-5.6,5.7-5.6l0.1,4.9
				c0,0,11,0.7,25,8.4c6.5-6,6.5-6,6.5-6l-0.9,5.9c0,0,6.5,1.8,14.3,8.3c4.9-5.4,10.4-5.5,10.4-5.5l-1.1,3.7c0,0,13,2.8,18.2,10.8
				C688.6-72,675.8-101.3,648-110.9z"/>
			<g id="rleaf5">
				<path id="rl5shadow" class="st15" d="M541.4-111.4c8.9,4.4,8.6,31.2,7.8,44.7l-5.6-10.8l0.9-9.1l-2.4,3.5l-8-13.6l1.9-8.7
					l-4,6.8l-6.2-10.4l1.1-6.9l-2.7,3.8l-13.1-15.4l0.7-7.1l-3.2,3.9l-14.1-16.5l0.6-5.5l-2.4,4.2l-6.5-8.3l3-20.5
					c20.1,8.2-0.4,24,38,44C542.2-125.5,529.5-117.4,541.4-111.4z"/>
				<path id="rl5shine" class="st16" d="M556.9-87c0,0,6.9-41.6-47.7-80.9c-15.5-9.6,22.4,1,33,25.4c1.3-9.5,18.1,9.2,16.1,36
					C562.7-114.9,566.9-104.5,556.9-87z"/>
			</g>
			<g id="rleaf4">
				<path id="rl4shadow" class="st15" d="M589.1-57.4c10.8,9.3,21.2,2.4,24,13c2.8,10.6,13.1,2.9,16.9,24.2
					c3.5,19.5,10.1,23.7,6.5,40.3c-0.2,0.4-0.3,0.6-0.3,0.6L629,13c0,0,0.8-5.5,0.4-12.2c-1.9,8.5-2.4,7.4-2.4,7.4s-3.6-6.6-8-10.4
					c2.5-5.8,1.9-8.5,1.8-15.4c-3.2,5.3-3.2,5.3-3.2,5.3l-4.3-4.7c0,0,0.5-11.7-0.3-15.2c-1.5,6.1-1.5,6.1-1.5,6.1s-5.7-6.6-8.9-8.4
					c0.9-5.9-2.5-9.1-2.5-9.1l-1.9,4.1c0,0-9.6-15.8-26.5-23.5C578.3-62.5,585-60.9,589.1-57.4z"/>
				<path id="rl4shine" class="st16" d="M570.4-68.8c0,0,37.9-1,52.5,27.6c4.3,7.4,14.3,15,15.9,35.6
					C640.5,14.8,655.5-67.2,570.4-68.8z"/>
			</g>
			<g id="rleaf3">
				<path id="rl3shadow" class="st15" d="M587.3-90.4c11.7,4.8,21-9.7,29.5-0.6c8.2,8.9,57.5,4.1,71.8,36.8c0,0.1,0,0.1,0,0.2
					c-5.2-8-18.2-10.8-18.2-10.8l1.1-3.7c0,0-5.5,0.1-10.4,5.5c-7.8-6.4-14.3-8.3-14.3-8.3l0.9-5.9c0,0,0,0-6.5,6
					c-14-7.7-25-8.4-25-8.4l-0.1-4.9c0,0-0.6,0.9-5.7,5.6c-10.5-4.2-22.8-0.3-22.8-0.3l-1.5-4.9c0,0,0,0-1.6,5.8
					c-13.4,0.5-26.5,7.5-30.8,10C561.9-77.2,578.7-93.9,587.3-90.4z"/>
				<path id="rl3shine" class="st16" d="M568.6-86c0,0,46.8-43.6,103.5,8.1c12.9,12.1,0.8-29.3-33.2-27.6
					c12.3-5.6-10.1-13.2-30.8-1.6C614.6-113.7,596.4-118.8,568.6-86z"/>
			</g>
			<g id="rleaf2">
				<path id="rl2shadow" class="st15" d="M477.7-69.2c10.4-10.3,21.4,4.7,35.2-4c10.2-6.5,25.9,1.8,33.3,6.5
					c-4.8-0.2-13.7,0.5-21.9,6.2c0,0-8.6-1-10.7-1c0,0,2.2-3.1,5.4-5.4c0,0-4.7,0.9-8.2,4.2c0,0-17.7,2.7-22.4,4.9
					c0,0,0.2-2.5,2.3-6.5c0,0-3.5,2.7-6.2,5.8c0,0-19.1,2-25.9,7.6c-2.7,1.1-2.1-2.4-2.1-2.4l-2.2,5.6c0,0-8.4,4.3-12.4,9
					C446.8-70.3,467.6-59.2,477.7-69.2z"/>
				<path id="rl2shine" class="st16" d="M531.8-79.4c0,0-34.1-15.5-74.5,10.1c-13.9,10.2-6.1-19.7,27.2-19.3
					c-10-2.9-3-14.8,19.6-3.7C496-99,519.2-104.9,531.8-79.4z"/>
			</g>
			<g id="rleaf1">
				<path id="rl1shadow" class="st15" d="M570.8-41.9c-1.5,9.1,16.3,10.3,7.3,26c-8.8,15.3,13.7,27-7,58.1c-0.5,0.2-0.8,0.2-0.8,0.2
					c0.7-7.8-4-20.9-4-20.9s6.5-4.6,6.4-10.8c-2.8,3.4-7.5,5.6-7.5,5.6s-0.8-8.1-2.2-15.2c6.7-4.7,7.6-9.2,7.6-9.2s-3.1,2.1-9.2,3.9
					c1-4.2,1.2-8.5,0.2-15.5c5.7-7.6,5.7-13.4,5.7-13.4s-4.4,3.9-7.9,3.6c5-28.9-9.6-36.1-9.6-36.1c0.1-0.1,0.2-0.1,0.3-0.2
					C558.8-63.3,572.2-57,570.8-41.9z"/>
				<path id="rl1shine" class="st16" d="M569.1-62.4c0,0,37.1,17.6,17.6,75.4c-9.5,33.4,20.2-6.6,13.2-37.3
					C593-55,569.1-62.4,569.1-62.4z"/>
			</g>
		</g>
	</g>
	<g id="left_palm_2_">
		<path id="shadow_15_" class="st6" d="M371.3,139.1c0,0,42.4-35.7,124.3-5.9c29.3,11.7,11.9,28.7-20.4,14.6
			C454.7,156.3,352.6,153.6,371.3,139.1z"/>
		<g id="grass_right_2_">
			<path id="rightgrass_lining" class="st7" d="M541.5,115.7c-5.8-6.5-12.1-10.7-18.6-12.7c-2.2-0.7-4.4-1.1-6.5-1.2
				c2.8-4.6,3.3-8,3.4-8.8c0.1-1.2-0.3-2.3-1-3.2c-0.5-0.6-1.2-1.1-1.9-1.3c-0.3-0.1-0.6-0.1-0.9-0.2c-5-0.2-9.4,0.4-13.5,1.5
				c5.8-11.4,9.1-20.6,9.3-21.3c0.6-1.6,0.2-3.3-0.9-4.5c-0.5-0.5-1.1-0.9-1.7-1.1c-0.8-0.2-1.7-0.2-2.5,0.1
				c-30.3,12.2-35.4,55.5-35.6,57.4c0,0.2,0,0.4,0,0.5c-0.8,1.9-1.1,3.2-1.1,3.2c-0.4,1.5,0,3.2,1,4.3c0.5,0.5,1,0.8,1.7,1
				c0.8,0.2,1.6,0.2,2.3-0.1c0.1,0,0.1,0,0.2-0.1c1.9,0,9.6,0.2,17.7,2.7c0.6,0.2,1.2,0.4,1.8,0.6c0.7,0.2,1.4,0.5,2.1,0.7
				c9.6,2.9,22.7,4,28.8-0.6c0.9-0.7,1.5-1.7,1.7-2.9c0.2-1.2-0.1-2.3-0.8-3.3c-0.2-0.3-3.3-4.4-8.6-8.3c5.9,0.2,10.5,1.2,13.6,2.1
				c3.4,1,5.2,2.1,5.2,2.1c0.3,0.2,0.5,0.3,0.8,0.4c1.5,0.5,3.3-0.1,4.3-1.5C543,119.6,542.9,117.3,541.5,115.7z"/>
			<path id="rightgrass_color" class="st8" d="M475.2,120.9c0,0,4.7-42.4,33-53.8c0,0-5.5,15.9-15.3,31.8c5.9-3.9,13.4-6.6,23-6.3
				c0,0-0.5,6.3-9.1,14.5c8.9-2.6,20.2-1.3,32,11.6c0,0-14-8.3-38.1-2.9c14.1,1.5,22.9,13.5,22.9,13.5c-4.5,3.4-16.7,3-27.3-0.7
				c-10.7-3.7-21.2-3.5-21.2-3.5L475.2,120.9z"/>
			<path id="rightgrass_shadows" class="st9" d="M474.9,125.1c0,0,10.5-0.2,21.2,3.5s22.8,4.1,27.3,0.7c0,0-0.3-0.4-0.9-1.1
				c-8.6,4.1-19.4,0.7-24.9-1.6c-6-2.5-8.4-5.5,0.8-5.1c-5.2-1.2-4.3-5.1,3.2-5.2c0.7,0,1.4,0,2.1,0.1c-1-0.2-2.1-0.4-3.2-0.5
				c24.1-5.3,38.1,2.9,38.1,2.9c-0.7-0.7-1.3-1.4-2-2.1c-13-7.4-26.7-3-27-4.6c-0.4-1.8,5.7-2.9,5.7-2.9s-6.4,0.6-5.7-1.4
				c0.7-2,8.4-1.4,8.4-1.4l0.2-0.1c-4.2-0.7-8.1-0.2-11.6,0.8c0.8-0.8,1.6-1.6,2.3-2.3c0-0.1-0.1-0.1-0.1-0.2c-1,1-2.1,2-3.3,2.9
				l0,0c-0.5,0.4-1,0.8-1.6,1.2c-0.1,0-0.1,0.1-0.2,0.1c-0.5,0.4-1,0.7-1.5,1.1c-0.1,0.1-0.2,0.1-0.2,0.2c-0.5,0.3-1,0.7-1.5,1
				c-0.1,0-0.1,0.1-0.2,0.1c-2.8,1.7-5.4,3-7.7,3.7c-3.8,1.3-6.3,1.1-5.8-0.9c1.1-4.5,5.6-7.7,17-12.6c-5.4-0.4-14.2,4.6-9.8-1.9
				c0.8-1.2,2.1-2.4,3.7-3.4c-1.8,0.8-3.5,1.8-5.1,2.9c1.2-2,2.4-4,3.5-5.9c-5.6,7.9-11.2,6.6-6.1-4c-10.7,11,5.1-13.2,5.1-13.2
				v-0.1c-16.9,16.5-20.1,45.3-20.1,45.3L474.9,125.1z"/>
		</g>
		<g id="grass_left_2_">
			<path id="leftgrass_lining" class="st7" d="M435.9,76.4c-0.5-0.8-1.3-1.3-2.2-1.5c-0.1,0-0.2,0-0.3-0.1c-1-0.1-2,0.1-2.8,0.8
				c-1.9,1.6-3.4,3.3-4.8,5c-0.9-7.6-2.1-13.1-2.2-13.6c-0.3-1.5-1.4-2.6-2.8-2.9h-0.1c-1.4-0.3-2.8,0.3-3.7,1.6
				c-4.8,7.3-6.2,15.6-5.9,23.2c-1.3-0.6-2.5-0.9-3.7-1.2c-5.7-1.3-11-0.2-11.2-0.1c-1.6,0.4-2.8,1.8-2.9,3.5
				c-0.1,1.7,0.8,3.3,2.2,3.9c-11.3,0.9-14.6,10.3-14.7,10.7c-0.5,1.5-0.1,3.2,1,4.3c0.5,0.4,1,0.7,1.6,0.9c0.8,0.2,1.7,0.1,2.5-0.4
				c3.3-1.9,6.3-2.5,8.9-1.9c7.2,1.7,10.8,12.3,10.8,12.4c0.4,1.3,1.5,2.3,2.7,2.6c0.3,0.1,0.6,0.1,1,0.1l3.8-0.2c0.1,0,0.1,0,0.2,0
				c0.1,0,0.2,0.1,0.3,0.1c0.6,0.1,1.2,0.1,1.7-0.1l3.7-1.1c1.3-0.4,2.3-1.6,2.6-3c0.1-0.7,0.2-1.4,0.3-2.1l0,0
				c0.5,0.8,1.3,1.3,2.1,1.5c0.2,0,0.4,0.1,0.6,0.1c1.3,0.1,2.6-0.6,3.3-1.9C443.6,89.3,436.8,77.6,435.9,76.4z"/>
			<path id="leftgrass_color" class="st8" d="M415,119.9l-5.8-0.1c0,0-7.3-22.8-24.9-12.6c0,0,2.6-7.8,12.3-8.2
				c4.5-0.2,9.2,1.5,12.8,4.8c-2.6-5-6.5-9.9-12.3-12.3c0,0,12.8-2.8,18.8,6.2c-1.7-9-1.9-20.3,4.2-29.6c0,0,3,13,3,27.4
				c1.1-5.6,3.9-11.6,9.9-16.7c0,0,3.6,10.1-11.1,36.3C421.8,115,420.2,118.7,415,119.9z"/>
			<path id="leftgrass_shadows" class="st9" d="M414.7,120l-5.5-0.2c0,0-7.3-22.8-24.9-12.6c10.1-9,22.6-0.7,19.7-5
				c-1.1-1.6-3.2-2.6-5.5-3.1c4,0.3,7.7,1.6,10.7,4.6c-2.6-5.2-6.2-9.7-12.2-12.1c0,0,2.4-0.5,5.7-0.4c3,1.7,6.2,4.7,8.4,9.9
				c2.6,6.2,4.6,8.5,6,8.3l0,0c0.2,0,0.4-0.1,0.5-0.2c0,0,0.1,0,0.1-0.1c0.3-0.3,0.6-0.7,0.8-1.2c0,0,0-0.1,0.1-0.1
				c0.1-0.3,0.2-0.6,0.3-0.9c-0.4-4.6-1.9-7.9-3.8-10.2c-0.5-5.7-0.5-12,0.8-17.9h0.1c0,0-0.2,20.9,2,9.9c1,8.4,4.8,6.7,5.1-0.2
				c0.1,1.9,0.3,3.9,0.4,6c0.5-1.8,1.1-3.6,1.9-5.4c-0.4,1.3-0.6,2.5-0.5,3.5c0.4,5.3,2.9-1.4,5.8-3.7c-3.8,7.9-4.8,11.6-3.6,14.4
				c1.3,2.8,6.3-5.8,7.3-15c0.1,0,0.1,0,0.2,0c-0.4,5.8-3.8,14.6-10.7,26.9C423.7,115,419.6,119.1,414.7,120z"/>
		</g>
		<g id="ltree">
			<g id="ltrunk">
				<path id="ltcolor" class="st10" d="M421,119.6c0,0,59.1-85.2,13.2-213.5c0,0,0.4-4.1,6.7-4.4c0,0,60.5,59.4,36.6,224.7
					C477.6,126.4,446.4,115.1,421,119.6z"/>
				<path id="ltshadow" class="st11" d="M461.5,33.8c16.8-18.2-6.1-39.3-1-55.6s-8.3-16-11.4-47.1c-1.1-11-5.1-20.9-9.8-29.2
					c-4.8,0.8-5.2,4.2-5.2,4.2c46,128.3-13.1,213.5-13.1,213.5c10.7-1.9,22.3-1,32.3,0.7C487.5,95.6,452.2,43.9,461.5,33.8z"/>
				<path id="ltlining" class="st12" d="M485.7,128.1c-1.1-0.5-2.3-0.9-3.5-1.3C506-38.9,446.6-99.3,444.1-101.7
					c-0.9-0.9-2-1.4-3.4-1.3c-8,0.3-10.8,5.6-11.1,8.6l0,0c-0.1,0.7,0,1.5,0.3,2.2c44.3,123.9-12.1,208.2-12.6,209.1
					c-0.6,0.9-0.9,2-0.8,3c-12.6,1.9-24.8,5.7-36.1,11.5c-0.8,0.4-1.8,1-2.8,2.2l1,3.6c31.3-16.2,76.4-15.5,109.5-2.1
					C488.8,135.4,485.9,128.2,485.7,128.1z M478.2,38.9c-8.4-1.2-18.2-0.4-24.8,0.5c2-13.5,2.8-27.4,2.6-41.5
					c4.3-0.6,11.8-1.2,18.4,0.4C476.4,11.1,477.7,24.8,478.2,38.9z M461.6-52c4.8,12.7,8.6,26.7,11.3,41.6
					c-4.6-1.1-9.4-1.4-13.3-1.4c-1.4,0-2.8,0-4,0.1c-0.7-13.2-2.2-25.9-4.7-38.7C453.6-51.3,457.5-52.2,461.6-52z M439.5-92.9
					c3.4,4.1,11,14.3,18.7,32.3c-3.6,0-6.7,0.8-9.1,1.6C446.5-70.7,443.3-81.8,439.5-92.9z M451.3,51.5c6.1-1.9,16.6-4.3,27.2-3.3
					c0.2,13.7-0.3,28-1.5,42.6c-6.3-1.9-13.3-2.6-19.9-2.6c-6,0-11.7,0.6-16.3,1.2C445.2,77.5,448.7,64.8,451.3,51.5z M436.5,99.8
					c8-1,25.1-2,39.2,4c-0.6,6-1.2,11.3-1.9,16.4c-2.6-0.8-5.9-1.7-9.9-2.6c-7.8-1.8-18.7-3.8-29.8-3.8c-1.4,0-2.9,0-4.3,0.1
					C431.6,110.5,433.9,105.7,436.5,99.8z"/>
			</g>
			<path id="lleaves_lining" class="st13" d="M596.2-32.2c-0.2-4.1-2.6-23.5-26.7-39.9c-0.2-1.2-0.7-2.4-1.6-3.5
				c-0.6-0.7-13.6-16.6-32.4-19.9c-0.7-1-1.7-1.8-2.9-2.4c-0.7-0.3-7.1-3.2-17.5-3.2c-5,0-10.9,0.7-17.4,2.5l4.6-5.1
				c0.6-0.7,1.1-1.5,1.4-2.3c0.2-0.1,0.4-0.3,0.7-0.5l21.2-16.6c0.8-0.6,1.5-1.4,1.9-2.3c0.8-0.3,1.5-0.7,2.2-1.2l22.5-17.4
				c1.1-0.3,2.2-0.8,3.2-1.6l10.6-9.1c1.5-1.3,2.4-3.1,2.6-5l2.5-29.3c0.3-3.9-2.4-7.3-6.2-8c-0.3-0.1-8.5-1.4-18.5-1.4
				c-7.5,0-14.1,0.8-19.7,2.3c-1.3-1.1-3-1.7-4.8-1.7c-0.8,0-1.5,0.1-2.3,0.4c-5.3,1.7-27.8,9.3-40.4,19.9c-0.5-0.1-1-0.1-1.5-0.1
				c-1.6,0-3.2,0.5-4.5,1.5c-0.9,0.7-19.2,14.6-25.9,34.7c-1.8,0.5-3.4,1.8-4.4,3.5c-0.3,0.6-3.4,6.2-5.6,15.8
				c-3.2-4.3-6-6.6-8.1-7.9c0,0,0,0,0-0.1c-0.2-1.8-1-3.4-2.2-4.6c-6.8-6.5-23.1-17.3-37.9-20.7c-0.6-0.1-1.1-0.2-1.7-0.2
				c-0.6,0-1.1,0.1-1.7,0.2h-0.1c-14.1-5.3-27.1-6.3-35.4-6.3c-6.3,0-10.2,0.6-10.7,0.7c-2.6,0.4-4.7,2.1-5.7,4.5
				c-36.5,8.6-60.1,43.9-65.5,68.2c-0.7,3.2,0.8,6.6,3.7,8.2c1.1,0.6,2.3,0.9,3.5,0.9c2,0,3.9-0.8,5.3-2.2c5-5.1,15.1-6.5,20.4-6.5
				c1.2,0,2.5-0.3,3.7-0.9c0.5,0.7,0.9,1.4,1.3,2.2c0.9,1.8,2.5,3.1,4.4,3.7c0.7,0.2,1.5,0.3,2.3,0.3c1.2,0,2.4-0.3,3.5-0.9
				c9.9-5.2,17.3-5.7,17.4-5.7c0.5,0,0.9-0.1,1.3-0.2c1.4,1.4,3.3,2.2,5.2,2.2c0.7,0,1.4-0.1,2.1-0.3c9.9-2.9,18.1-3.5,23.3-3.5
				c4.5,0,7.2,0.5,7.2,0.5c0.4,0.1,0.9,0.1,1.3,0.1s0.8,0,1.1-0.1c1.4,1.9,3.6,2.9,5.9,2.9c0.4,0,0.8,0,1.1-0.1
				c1.1-0.2,2.3-0.3,3.5-0.3c5.8,0,11.5,2,15.4,3.7c-20,0.3-39.8,7.5-59.1,21.3c-43.6,31.5-31.1,93.2-30.6,95.8
				c0.5,2.4,2.2,4.5,4.6,5.4c0.9,0.3,1.8,0.5,2.7,0.5c1.5,0,3-0.5,4.3-1.3l11.3-7.9c1.8-1.3,2.9-3.2,3.1-5.4
				c0.9-0.5,1.8-1.2,2.4-2.1c1.3-1.5,6.5-6.9,11-9.5c2.7-1.5,4.2-4.6,3.7-7.7c-0.3-1.9-0.4-3.5-0.4-4.9c0.8-0.2,1.6-0.6,2.4-1.2
				l6.8-5c0.2-0.2,0.4-0.4,0.6-0.5c-0.3,1.3-0.6,2.6-0.8,3.9c-13,67.3,26.4,90.7,28.1,91.7c1.1,0.7,2.4,1,3.7,1
				c1.1,0,2.2-0.3,3.3-0.8c2.2-1.1,3.8-3.2,4.1-5.7c1-7.5,7.8-20,10.4-24.2c0.9-1.4,1.2-3,1.1-4.6c1.2-0.9,2.2-2.2,2.7-3.7
				c0-0.1,3.4-10.5,7.1-19.3c0.4-1.1,0.6-2.2,0.6-3.3c2.2-1.4,3.6-3.8,3.6-6.4c0-4.5,0.6-9.4,4-18.5c0.6-1.7,0.6-3.6-0.1-5.3
				c-0.3-0.8-0.6-1.5-0.8-2.3c1.6-0.1,3.1-0.6,4.4-1.6c1.6-1.3,2.6-3.3,2.8-5.3c2-33.9,17.3-38.9,17.4-39c0.1,0,0.1,0,0.2-0.1
				c0.3-0.1,0.6-0.2,0.8-0.3c4.9,1,14.6,4.1,21.9,13c1.2,1.5,2.9,2.4,4.8,2.7c5.2,0.7,11.6,1.6,12.9,1.9c0.6,0.1,1.2,0.2,1.7,0.2
				c1,0,1.9-0.2,2.8-0.5c9.4,4.2,20.4,9.7,22.9,11.9c1.4,1.2,3.1,1.8,4.9,1.8c0.7,0,1.4-0.1,2.1-0.3c0.1,0.1,0.2,0.1,0.3,0.1
				c8.2,3.1,22.7,10.2,26.8,16c0.4,0.6,0.9,1.1,1.5,1.6c0.6,0.4,1.1,0.8,1.7,1.1c0.3,1.6,1.1,3.2,2.3,4.3c3.4,3.1,9.5,9.8,11.4,14.4
				c1.2,2.8,3.9,4.5,6.9,4.5c0.1,0,0.1,0,0.2,0c3-0.1,5.7-2,6.8-4.8c4.9-13.2,6.1-29.6,5-42.7c0.7-0.5,1.3-1.2,1.7-1.9
				C596-28.7,596.4-30.5,596.2-32.2z"/>
			<path id="lleaves_color" class="st14" d="M451.2-60.4c0,0-16.8-19.3-37.4-25.4c-0.3-8.4-0.3-8.4-0.3-8.4l-3.3,6.1
				c0,0-14.4-9.3-28.8-7c-5-7.9-5.4-9.4-5.4-9.4l-1.6,6.5c0,0-14-2.7-34,3.2c-6.3-10.2-6.3-10.2-6.3-10.2l-0.6,8.2
				c0,0-8.7,0.4-20.4,6.5c-4.5-8.9-11.5-10.8-11.5-10.8l0.2,5.4c0,0-17.2-0.5-26.1,8.7c5.5-24.5,30.4-60,68.2-64c-3.1-3-3.1-3-3.1-3
				s19.7-3.1,42.1,5.2c2.9,1.2,4.6,6.4,4.6,6.4s0.9-2.2,0-6.1c13.2,3,28.3,12.8,34.5,18.8c0.4,4.2,0.5,8.1,0.5,8.1l2-2.9
				c0,0,9.1,2.9,18.3,30.3c-1.9-24.8,6.8-40.4,6.8-40.4s0,0,3,4.5c2-22.9,25.3-40.4,25.3-40.4l1,4.4c6.6-12.9,43.1-24.6,43.1-24.6
				s0,0,1.2,3.5c14.8-7.1,40.5-2.8,40.5-2.8l-2.5,29.3l-10.6,9.1l-1.8-6.5l-0.9,7.7l-22.7,17.7l-2.9-6.3l-1.3,9.8l-21.2,16.6
				l-2.3-6.1l-0.7,9.8l-10.9,12.1l-3-10.6L482.7-95l-14.2,15.8l-1.9-5.5L465-72.1l-6,7.5c39.3-41.4,70.5-26.9,70.5-26.9s0,0-4,2.6
				c20.6-2,36.6,17.7,36.6,17.7s0,0-4.2,0.5c30.9,16.8,30.8,38.9,30.8,38.9s1,2-4.3-3.8c2.8,11.8,3.3,33.2-3,50
				c-3.3-7.8-13.2-17-13.2-17l-1.1-8.3c0,0-0.4,4.9-3.4,2.5c-6.9-9.8-30.2-18.7-30.2-18.7c-2.5-5.2-6-9.9-6-9.9
				c1.4,6.2,0.9,9.6,0.9,9.6c-5.2-4.6-26.7-13.9-26.7-13.9c-3.4-5.7-9-8.4-9-8.4c3.2,4.2,5.1,9.1,5.1,9.1
				c-2.6-0.6-13.7-2.1-13.7-2.1c-11.2-13.7-26.4-16.3-29.4-16.6l-1.2,1.4c0,0,0,0-0.1,0c-1.4,0.4-20.5,6.3-22.8,45.7
				c-4.6-0.7-8.9-7.5-8.9-7.5s-1.8,7.8,3.1,19.9c-3.3,9.1-4.4,15-4.4,21.1c-7.2-4.3-10.4-8.2-10.4-8.2s-0.2,6.4,6.8,15
				c-3.9,9.2-7.3,19.9-7.3,19.9s-5.2-4.6-7.7-10c-2,8.4,4.7,16.7,4.7,16.7s-9.9,16.3-11.4,27c0,0-36.6-21-24.5-83.8
				c4.1-21,13.5-35.6,24.6-45.3c-6.4,4.8-10.2,8.9-10.2,8.9l-1.2-6.2c0,0-5.3,3.3-5.9,11.6c-4.6,1.4-13.8,8.5-13.8,8.5s0,0,0-8.8
				c-2.1,4.5-5,20.5-5,20.5l-6.8,5c0,0,0,0-2.5-8.2c-2.2,9.3-3.8,12.8-2.4,21.5c-6.7,3.8-13.2,11.5-13.2,11.5s-1,1.3-0.8-10.8
				c-2.5,9.1-3.1,16.7-3.1,16.7L319,30.7c0,0-12.5-59.1,27.6-88.2C406.3-99.8,451.2-60.4,451.2-60.4L451.2-60.4z"/>
			<g id="lleaf5">
				<path id="ll5shadow" class="st15" d="M478-116.9c-12.5,3.1-20.2,39.5-23.3,58L465-71.7l1.6-12.6l1.9,5.5l14.2-15.8l0.2-12.4
					l3,10.6l10.9-12.1l0.7-9.8l2.3,6.1l21.2-16.6l1.3-9.8l2.9,6.3l22.7-17.7l0.9-7.7l1.8,6.5l10.6-9.1l2.4-28.7
					c-27.7,4.5-6.8,32.6-61.1,47.2C481.4-136.2,494.9-121,478-116.9z"/>
				<path id="ll5shine" class="st16" d="M451.2-88.9c0,0,4-58.6,84.4-94c22.4-8-28.4-5.9-49.1,23.7c1.2-13.3-25.5,6.5-31.2,43.5
					C452.4-128.5,444-115.7,451.2-88.9z"/>
			</g>
			<g id="lleaf4">
				<path id="ll4shadow" class="st15" d="M401.9-59.2c-16.4,9.1-27.4-3.7-34,9.8c-6.7,13.5-17.3-0.3-28.5,27.3
					C329.1,3.2,319.6,6.7,319,30.3c0.1,0.6,0.2,0.9,0.2,0.9l11.3-7.9c0,0,0.7-7.6,3.1-16.7c-0.2,12.1,0.8,10.8,0.8,10.8
					s6.6-7.7,13.2-11.5c-1.4-8.6,0.2-12.1,2.4-21.5c2.5,8.2,2.5,8.2,2.5,8.2l6.8-5c0,0,2.9-16.1,5-20.5c0,8.8,0,8.8,0,8.8
					s9.1-7.1,13.8-8.5c0.6-8.2,5.9-11.6,5.9-11.6l1.2,6.2c0,0,16.9-18.3,40.4-23.2C416.9-62.6,408.1-62.7,401.9-59.2z"/>
				<path id="ll4shine" class="st16" d="M428.8-68.6c0,0-47.3-13.7-74.4,20.2c-7.6,8.6-22.5,15.7-30.8,43
					C315.3,21.8,321.3-94.1,428.8-68.6z"/>
			</g>
			<g id="lleaf3">
				<path id="ll3shadow" class="st15" d="M414-103.3c-16.2,2.7-23.5-20-36.9-10.4c-12.9,9.4-73.6-13.2-101.4,26.5
					c0,0.1,0,0.2-0.1,0.2c8.9-9.2,26.1-8.7,26.1-8.7l-0.2-5.4c0,0,6.9,1.9,11.5,10.8c11.8-6.2,20.4-6.5,20.4-6.5l0.6-8.2
					c0,0,0,0,6.3,10.2c19.9-5.9,34-3.2,34-3.2l1.6-6.5c0,0,0.4,1.5,5.4,9.4c14.4-2.2,28.8,7,28.8,7l3.3-6.1c0,0,0,0,0.3,8.4
					c16.7,5,31,18.7,35.7,23.6C442-77.1,425.9-105.3,414-103.3z"/>
				<path id="ll3shine" class="st16" d="M436.3-91.3c0,0-45.7-74.3-132.6-22.7c-19.9,12.2,7.9-39.9,50.1-26.6
					c-13.8-11.5,16.7-14.5,39.2,7.9C386.8-143.8,411.2-144.7,436.3-91.3z"/>
			</g>
			<g id="lleaf2">
				<path id="ll2shadow" class="st15" d="M545.4-38.9c-9.9-17.3-28.3-0.7-43-16.9c-10.9-12.1-33.2-6.4-43.9-2.4
					c6.1,1.3,17.2,5.5,25.7,15.9c0,0,11.1,1.5,13.7,2.1c0,0-1.9-4.9-5.1-9.1c0,0,5.6,2.7,9,8.4c0,0,21.5,9.4,26.7,13.9
					c0,0,0.5-3.4-0.9-9.6c0,0,3.6,4.7,6,9.9c0,0,23.4,8.9,30.2,18.7c3,2.4,3.4-2.5,3.4-2.5l1.1,8.3c0,0,9.2,8.5,12.8,16.2
					C584.5-30.3,555-22,545.4-38.9z"/>
				<path id="ll2shine" class="st16" d="M480.5-70.4c0,0,47.5-9.9,90.6,37.9c14.4,18.3,13.6-24.7-28.3-34.9
					c13.4-0.6,8.3-19.1-23.5-11.4C531.3-85.2,504.1-100.7,480.5-70.4z"/>
			</g>
			<g id="lleaf1">
				<path id="ll1shadow" class="st15" d="M420.1-32.2c-0.8,12.8-23.6,8.6-17,32.8c6.4,23.6-25.3,32.1-8.8,81
					c0.6,0.4,0.9,0.6,0.9,0.6c1.5-10.8,11.4-27,11.4-27s-6.7-8.3-4.7-16.7c2.5,5.5,7.7,10,7.7,10s3.5-10.7,7.3-19.9
					c-7-8.6-6.8-15-6.8-15s3.2,3.9,10.4,8.2c0-6.1,1.1-11.9,4.4-21.1c-4.9-12.2-3.1-19.9-3.1-19.9s4.3,6.8,8.9,7.5
					c2.5-40.8,22.9-45.7,22.9-45.7c-0.1-0.1-0.2-0.2-0.3-0.3C441.6-57.3,422.9-53.2,420.1-32.2z"/>
				<path id="ll1shine" class="st16" d="M428.4-59.5c0,0-52,11.8-45,96.3c1.8,48.4-23.5-15.5-5.4-54.8
					C396.1-57.2,428.4-59.5,428.4-59.5z"/>
			</g>
		</g>
	</g>
</g>
</svg>
