<?xml version="1.0" encoding="utf-8"?>
<!-- Generator: Adobe Illustrator 19.0.0, SVG Export Plug-In . SVG Version: 6.00 Build 0)  -->
<svg version="1.1" id="moon_icon" xmlns="http://www.w3.org/2000/svg" xmlns:xlink="http://www.w3.org/1999/xlink" x="0px" y="0px"
	 viewBox="0 0 500 500" style="enable-background:new 0 0 500 500;" xml:space="preserve" width="160px" height="160px">
<style type="text/css">
	.st0{fill:#FFFFFF;}
	.st1{fill:#38785E;}
	.st2{fill:#193A3A;}
	.st3{fill:#1A4A49;}
	.st4{fill:#84CAAC;}
	.st5{fill:#0D171A;}
	.st6{fill:#A6E0C4;}
	.st7{fill:#4DA381;}
</style>
<g id="group_1_">
	<path id="lining_1_" class="st0" d="M250,0C112.1,0,0,112.1,0,250s112.1,250,250,250s250-112.1,250-250S387.8,0,250,0z"/>
	<path id="backgound" class="st1" d="M470.2,266.1c0.4-5.3,0.6-10.7,0.6-16.1c0-36.2-8.7-70.3-24.1-100.4c0,0-0.1-0.1-0.1-0.1
		c-0.2-0.5-0.5-1-0.8-1.6c-23.2-44.4-61.2-80-107.3-100.2c-0.5-0.2-0.9-0.4-1.3-0.5c0,0,0,0-0.1-0.1c-7.2-3.1-14.5-5.8-22.1-8.1
		c-14.6-3.9-28.4-7-42.8-8.4c0,0,0,0,0,0c-7.3-0.7-14.7-1.3-22.3-1.3C128.1,29.2,29.2,128.1,29.2,250c0,79.9,42.4,149.8,106,188.6
		c0,0,0,0,0,0c0.7,0.4,1.4,0.8,2,1.2c1,0.6,1.9,1.2,2.9,1.7c1.1,0.7,2.3,1.3,3.5,1.9c0.6,0.3,1.2,0.7,1.8,1c0,0,0,0,0.1,0
		c31.1,16.8,66.8,26.3,104.6,26.3c42.5,0,82.2-12,115.9-32.9c0,0,0,0,0,0c0.5-0.3,0.9-0.6,1.4-0.9c1.5-1,3-1.9,4.5-2.9
		c0,0,0,0,0-0.1c40.1-26.6,71-66,87-112.4c0,0,0,0,0.1,0c0.4-1.2,0.8-2.5,1.2-3.7c0.2-0.7,0.5-1.4,0.7-2.1c0,0,0,0,0,0
		c4.9-15.7,8.1-32.7,9.4-49.6C470.2,266.2,470.2,266.1,470.2,266.1z"/>
	<g id="moon">
		<path id="color6" class="st2" d="M222.6,44.5c10.5-6.5,44.1-2.5,49.7-14c-7.3-0.7-14.7-1.3-22.3-1.3
			C128.1,29.2,29.2,128.1,29.2,250c0,84.1,47,157.2,116.1,194.5c21.3,0.1,36.8-19,45.4-50.9c4.2-15.6,13.4-43.1,28-52.6
			c10.3-6.8,44.1-4.1,55.7,1.8c25.2,13,6.6,46.6,21.1,61.9c5.9,6.2,16.1,2.2,21.5,6.7c5.8,4.8,2.9,14.8,8.2,20.1
			c4.7,4.8,20.2,10.4,27.6,6.1c13.4-7.9-6.1-6.2-4.8-18.6c0.5-5.2,4.4-20.3,3.6-24.6c-1.6-9.4-10.3-7.3-19.6-8.6
			c5.5-0.5,6.3-4.2,11.8-7.1c4.3-2.3,10.9,0.9,13.7-5.5c2.8-6.7-3.9-11.4-1.9-17.1c0,0.1-0.1,0.2-0.1,0.3c0-0.1,0.1-0.2,0.1-0.3
			c0-0.1,0-0.1,0.1-0.2c0,0.1,0,0.1-0.1,0.2c1.6-2.1,3.5-3.6,5.9-4.7c-6.1-7.2-16.3-17.8-19.4-26.1c-2.9-7.6-4.2-29.8-21.7-26.3
			c9.5,11.3,7,27.2,11.1,40.3c-12.5-17.3-35.9-116.9-65.1-74.7c-3.8-7.7-15.6-8.6-17.4-14.1c-2-6.4,3-11.2,5.4-17.2
			c7.5,30.8,38.7-16.3,36.9-36.1c11-5,7.6-10.4,11.9-14.7c0.8-0.8,9-5.3,10.5-7.3c3.5-4.4,3.6-9.8,3.8-9.3
			c-0.6-6.1-4.3-9.3-8.1-14.2c-13.2,4.9-7-5.6-17.5-13.7c-5-3.9-15.4-2.6-22.8-3.7c3.9-0.6-2.2-7.2,1.7-7.8
			c-6.7-4.2-30.5-2.5-22.1,17.4c2.7,6.4,45.5,9.3,28.6,31.8c0.5,0.8-18.5,19.5-19.5,23c-3.9-8.4-5-12.8-10.6-19.7
			c-2.5,1.9-3.5,4.4-3,7.5c-7.6-10.1-0.6-27.6-11.5-40.4c23.4-13.9-5.6-46.9-3.8-59.3c-14,5.8-16.6-18.6-21.6-30.4
			c5.6-2.3,11.8,4,16.3-1.9C226.8,50.5,214.1,49.7,222.6,44.5z M355.9,355.6C355.9,355.4,355.9,355.4,355.9,355.6L355.9,355.6z
			 M355.5,356.6C355.5,356.7,355.5,356.7,355.5,356.6L355.5,356.6z"/>
		<path id="color5" class="st3" d="M45.6,219.7c2.2-28.4,15-51.5,37.5-69.1c17.9-14,32.2-2,52.1,8.9c18.9,10.3,39.8,30.3,44,51.2
			c5,24.3-16.1,39.3-22.5,61.5c-2.8,9.8-6.5,28.3-6.6,39.2c-0.1,10.8,8.6,23.9,6.9,33.3c-3.6,19.8-38.7,35-55.9,28.3
			C54.8,354.9,49.2,258.9,45.6,219.7C46.8,204,46.3,228,45.6,219.7z"/>
		<path id="color2" class="st4" d="M449.6,283.3c-12.7-0.6-12.8-22.1-22.3-23.1c-3.9-0.4-11.6,12.3-17.5,13.7
			c-11.2,2.5-41.4-2.8-34.7-18.6c11,12.9,7-7.9,5.3-8.6c-4.2-1.8-10.6,0.4-14.8-1.8c-12.6-6.4-13.5-7.5-23.2-3.9
			c2.9-21.6-5.4-21.2-11.5-41.4c-7.3-24,18.6-23.3,19.3-48.6c-5.6,0.3-10.1,2.6-13.4,6.9c2.5-6.8,6.1-12.1-1.2-15.7
			c5.7-2.5,5.3-12.9,6.8-21.5c2.8-16.5,7.8-28.6,12.9-43.9c6.3,12.7,9.5,5.2,19.1,10.2c13.2,6.9,12.6,11.4,22.6,20.8
			c8.4,7.9,16.1,13.3,23.6,21.7c7.6,8.6,14.6,18.9,23.5,27.2c1.3-2.8,5-3.4,1.8-8.8c-23.2-44.4-61.2-80-107.3-100.2
			c-6.2-3.2-9.8,2.7-17.8,6.7c-10.4,5.1-16.7,2-25.5,11.6c-1.2,1.3-10.1,28.4-9.4,29.8c8.7,16.7,18.5-6.3,25.8-11.1
			c16.8-11.2,14.2-3.7,3.3,10.6c-8,10.6-36.8,10.8-40.2,17.6c-0.9,1.9,14,17.4,21.2,22c-6.8,0.2-2.5,0.2-3.4,8.7
			c-1.5,14.8,9.6,9.4,15.9,12.7c1.4,3.4,12.7,7.1,3.8,17.7c-4.4,1.2-10.1,0.2-12.9,4.4c-2.3,3.5-2.3,10,5,15.4
			c2,27.9,12.2,43.9,25.3,69.2c3.1,6,13,32.7,22.2,32.4c10.3-0.3,1.9-14.4,13.1-20.1c5.1,19.9,19.5,4.3,19.5,4.2
			c1.4,10.1,23.9,23.4,18,26.2c-4.1,1.9-15.1-15.6-16.8-15.6c-8,0.4-8.4,10.2-10.7,15.9c-5.3,13.2,2.4,23.3,10.4,27
			c20.6,9.6,42.2-5,59.9-8.5c6.4-1.3,10.2-1.1,13.7-2.8c6-17.4,9.8-36.6,11.3-55.6C462.7,271.2,459.4,283.8,449.6,283.3z"/>
		<path id="color7" class="st5" d="M369.9,407.1c-3.4,3-6.9,6-10.3,9c3-7.5,4.9-26.6-3.8-32.3c-12.4-8.2-5.7,2.6-10,9.3
			c-5.5,8.4-7.3,6.7-7,18.1c0.3,9.7,9.8,10.4,9.6,18.1c-12-1.1-19-1.3-27.1-11.1c-2.5-3-0.1-13.2-2.8-15.1
			c-8.2-5.9-15.8,0.1-23.3-7.6c-8.4-8.6-3.1-28.8-6.6-40c-7.5-24-14.5-19.7-34.8-24.1c-14.4-3.2-19.3-10.2-34.6-3.4
			c-12.5,5.5-22.4,23.8-27.7,36.3c-15.1,35.5-11.7,65.7-56.5,74.4c33.5,20.4,72.8,32.2,114.9,32.2c45,0,86.9-13.5,121.8-36.7
			c2.2-4.4,2.2-9.1-0.7-14.2C373.1,413,374.1,418.9,369.9,407.1z"/>
		<path id="color1" class="st6" d="M446.7,149.6c-0.1-0.1-0.2-0.3-0.3-0.4c-0.6-0.6-5.3,2.6-6.4,1.5c-4.7-4.5-9.2-9.9-13.3-14.9
			c-13.6-16.9-31.6-39.8-49.9-49.6c-4.3-2.3-23.4-11.2-22.5-9.8c-1.1-1.7-13.5,26.8-13.6,27.3c-1.8,6.5-12.6,50.8-6.5,54.9
			c5.2,3.5,7-6.1,12.4-3.1c-2.4,11.4-11.5,15.3-16.8,24.9c-8.8,16-2.5,16.1,6.6,34.9c5.1,10.4,6.4,21.5,16.6,28.4
			c6.8,4.6,25.8,0.6,26.1,12.5c-9-12.2-9.4,5.3-1.8,12.7c3.9,3.8,26.7,8.6,32.2,7.2c4.5-1.1,13.9-11.8,17.4-11.3
			c2.2,0.3,8.8,13.6,10.8,14.6c11.4,5.8,10.3,8.8,22.9-0.2c4.7-3.3,7.7-7.9,9.5-13.2c0.4-5.3,0.6-10.7,0.6-16.1
			C470.8,213.8,462.1,179.7,446.7,149.6z"/>
		<path id="color3" class="st7" d="M249.9,30.1c3,0.4,18.4,0.7,19.1,3.5c-9.6,2.6-77.9,6.3-47.6,18.8c-0.7,2.3-16,0-19.8,0.7
			c6.3,16.4,12,32.9,20.7,46.1c11.4,17.2,25.6,37-0.4,51c10.9,10.8,2.1,33.7,12,40.6c0.7-2.3,6.7-3.6,9.1-3.4
			c2.6,5.9,2.2,8.7,4.4,15.3c6.6-7.1,8.7,6.7,17.6-1c4.8-4.2,5-14.1,9-2.3c6.1-21.7,27.6-33.5,2.4-51.1c-4.1-2.9-29.4-1.9-26.5-12.2
			c3.1-10.9,14.1-10.2,18-8.1c-3.3-0.6,1.4,5.7-0.5,8.3c1.2,1.6,21.5-6,37.6,13.9c2.1-1.4-0.7-15.4-3.2-18.9
			c-5.3-7.3-16.4-5.6-21.3-14.5c17.6,2.2,51.6-10.6,49.3-31.4c-3.8-35.1-24.1,8.9-37,12.5c1-17.8,11.7-29.3,26.6-35.8
			c13-5.7,24-9.9,17.7-15c-7.2-3.1-14.5-5.8-22.1-8.1C293,33.1,272.8,28.8,249.9,30.1z"/>
		<path id="color4" class="st1" d="M460.8,315.8c-9.2-15.5-24.1,16-43.7,3.6c-4.7,3.8,0.6,8.7-6.6,8.6c1.3,0-32.9-3.2-30.5-1.5
			c-5.7-4-1.3-30.5,3-33.1c2.4,2.5,20.9,23.8,23.7,10.5c1.8-8.7-17.8-23.3-20.4-34c-8.8,4.4-6.5,10.3-15.6,6.9
			c-3.6-1.3-18.9-34.2-23.3-40.3c1.7-1.7,4-1.7,7.1-0.1c-0.9-9.1-5.9-18.8-12.5-16.2c-7.8,14.4-2.9,22,2.2,34.3
			c3.5,8.6,19.5,28.8,10,34c-10.9-18.7-38.5-42.5-29.4-65.9c-22.2,1.1-16.7-29.7-16.7-43.2c-9.5,8.3-15.9,8.1-19.8,13.7
			c-0.3,13-3.8,18.3-11.8,31.2c-4.6,7.4-5,15.2-14.1,11.5c-6.8-2.8-2.9-11.6-14.4-7.2c-3.2,1.2-9,16.3-8.5,18
			c1.3,4.1,7,12.5,13.3,14.3c11.3,3.3,7.5,7.5,15.6,7.1c8.7-0.4,1.6-12.6,14.7-8.7c4,1.2,8.6,6.6,11.1,10c6,8.1,31.1,75,38.3,71.4
			c5.1-2.5-4.2-37.2-6.7-40.7c9.5,4.1,10.4,14.7,13.1,22.1c2.7,7.5,4.8,13.8,7.1,20.9c4,12.1,3.8,30.5-11.6,30.5
			c-3.5,11.2-28.2,4.2-27.2,4.3c-0.8,7.9,34.6,8,38,10.4c11.6,8,9,19.2,9.4,32.3c5.3,3.8,5.1-3.8,9.2-3.5c3.3,0.2,2.6,13.7,2.3,21
			C410.7,410.3,444.8,367.1,460.8,315.8z"/>
	</g>
</g>
</svg>
