<?xml version="1.0" encoding="utf-8"?>
<!-- Generator: Adobe Illustrator 19.0.0, SVG Export Plug-In . SVG Version: 6.00 Build 0)  -->
<svg version="1.1" id="sector_icon" xmlns="http://www.w3.org/2000/svg" xmlns:xlink="http://www.w3.org/1999/xlink" x="0px"
	 y="0px" viewBox="0 0 500 500" style="enable-background:new 0 0 500 500;" xml:space="preserve">
<style type="text/css">
	.st0{fill:#FFFFFF;}
	.st1{fill:#79B1D2;}
	.st2{fill:#2887A8;}
	.st3{fill:#7D5B44;}
	.st4{fill:#CFA783;}
	.st5{fill:#D7B38B;}
	.st6{fill:#B88B64;}
	.st7{fill:#192619;}
	.st8{fill:#546241;}
	.st9{fill:#3A4E33;}
	.st10{fill:#795135;}
	.st11{fill:#442C14;}
	.st12{fill:#271907;}
	.st13{fill:#16381F;}
	.st14{fill:#3B7244;}
	.st15{fill:#1E4B29;}
	.st16{fill:#75B27F;}
	.st17{opacity:0.7;}
	.st18{fill:#262626;}
</style>
<g id="group_6_">
	<g id="island">
		<path id="lining_54_" class="st0" d="M473.13,298.45c-8.51-20.29-22.63-37.12-41.98-50.12c3.27-9.63,7.48-27.4,3.83-46.94
			c6.83,4.02,15.15,5.24,23,2.9c12.25-3.65,20.76-15.05,20.76-27.77c0-23.19-13.18-56.01-42.26-73.59
			c-2.99-3.55-6.92-6.26-11.31-8.04c-2.52-1.03-16.27-6.08-34.6-6.08c-1.78,0-3.65,0.09-5.42,0.19c-1.22-0.19-2.52-0.28-3.93-0.37
			h-1.4c-7.11,0-15.24,1.22-23.28,3.46c-0.19-0.37-0.37-0.84-0.47-1.22c1.87-3.46,3.09-7.39,3.37-11.41l2.34-27.4
			c1.22-14.87-9.26-28.52-24.03-30.95c-1.03-0.19-9.91-1.68-21.04-1.68c-5.89,0-11.41,0.47-16.46,1.22
			c-5.05-1.12-10.29-0.94-15.24,0.65c-4.3,1.4-15.52,5.24-26.74,10.94c-5.89,1.03-11.41,3.93-15.62,8.32
			c-2.62,0.94-5.14,2.34-7.48,4.02c-2.99,2.24-17.21,13.56-26.65,31.04c-7.39-4.96-19.92-12.34-33.94-15.52
			c-1.5-0.37-3.09-0.56-4.68-0.65c-14.68-4.86-28.05-5.89-36.65-5.89c-7.01,0-11.69,0.65-13.46,0.94
			c-5.24,0.84-10.1,3.09-14.21,6.55C66.38,73.85,41.6,110.5,35.15,139.4c-2.81,12.53,3.18,25.62,14.49,31.79
			c10.47,5.7,24.31,3.93,33.19-4.02c0.09,0,0.09,0,0.19,0c2.06,1.31,4.3,2.34,6.64,3.09c0.84,0.28,1.68,0.47,2.62,0.65
			c-18.51,26.18-19.73,57.23-18.98,72.94c-29.92,10.29-43.11,27.86-48.9,41.05c-6.45,14.77-7.29,32.17-2.34,49.28
			c-0.84,1.03-1.59,2.15-2.24,3.27c-2.43,4.3-5.98,13.09-2.06,24.5c2.52,18.61,11.5,30.58,27.3,36.47
			c3.09,17.86,14.21,33.66,32.35,45.63c39.37,26.18,104.91,31.79,142.78,20.76c13.37,6.83,31.98,6.36,43.57,6.17
			c2.15,0,4.77,0,6.92-0.09c12.34,6.45,35.53,10.29,62.56,10.29c37.5,0,85.75-7.95,108.75-30.2c3.83-3.65,6.17-8.6,6.64-13.93
			c0.65-7.76-1.12-14.77-5.05-20.57C473.69,392.8,499.03,359.7,473.13,298.45z"/>
		<g id="island_1_">
			<g id="water_1_">
				<path id="light_1_" class="st1" d="M92.56,261.42C35.15,274.51,33.74,315,50.11,343.61c-6.55,0.47-15.05,3.65-10.47,13.09
					c1.59,16.55,7.76,21.97,27.58,24.31c-10.85,64.71,124.64,79.76,159.05,57.97c1.12,17.39,52.92,6.17,53.95,12.16
					c20.66,13.09,117.44,12.62,146.71-15.8c1.12-12.53-18.23-14.21-24.97-15.24c36.84-27.4,78.45-47.69,50.87-113.05
					C407.11,198.59,177.84,242.81,92.56,261.42z"/>
				<path id="dark_1_" class="st2" d="M113.69,263.57c0,0-41.14,9.16-51.62,37.4c-10.47,28.24,18.98,36.65,26.18,42.73
					c7.2,6.08-12.44-5.33-17.67-0.75s20.95,20.57,40.49,24.41c0,0-41.14,3.09-2.62,35.06c38.52,32.07,77.14,26.74,67.32,15.24
					c-9.82-11.41-7.2-7.67,43.76,2.24c50.96,9.91,69.29,3.83,79.76,1.5c10.47-2.24-5.24,10.66-13.09,13
					c-7.85,2.24,26.93,10.01,67.51-2.99c40.49-13,37.78-18.42,23.38-16.92c-14.4,1.5-8.51-4.58,11.78-6.83
					c20.29-2.24,29.45-12.25,18.98-15.24c-10.47-3.09,27.77-12.81,35.25-35.91c5.24-15.99-7.2-28.24-7.2-28.24
					c-7.2-6.83,2.62-3.83,3.93-14.49c1.31-10.66,5.24-29.74-79.11-58.72C276.49,226.17,113.69,263.57,113.69,263.57z"/>
			</g>
			<g id="sand_1_">
				<g id="borders_1_">
					<g id="border4_1_">
						<path id="XMLID_64_" class="st3" d="M68.06,299.48c0,0-2.15,37.4,68.07,43.76c0,0,3.83-3.18,7.57-4.58
							C143.71,338.56,71.43,333.05,68.06,299.48z"/>
					</g>
					<g id="border3_1_">
						<path id="XMLID_62_" class="st3" d="M123.79,363.44c0,0-5.89,37.03,106.13,44.88c112.11,7.85,148.39,1.4,150.45-23.94
							c0,0-6.83,25.06-145.22,16.08C154.83,395.23,124.26,374.1,123.79,363.44z"/>
					</g>
					<g id="border2_1_">
						<path id="XMLID_60_" class="st3" d="M429.56,330.15c0,0,13.09,36.47-53.3,41.98c0,0-3.18-5.14-11.88-9.16
							C364.38,363.06,426.47,368.58,429.56,330.15z"/>
					</g>
					<g id="border1_1_">
						<path id="XMLID_58_" class="st3" d="M422.36,318.55c0,0,20.2,1.87,18.79-13c0,0-0.56,10.29-22.72,7.76L422.36,318.55z"/>
					</g>
				</g>
				<path id="color_49_" class="st4" d="M195.51,234.68c0,0-93.97,5.24-121.46,47.13s48.16,57.51,69.85,56.76
					c0,0-25.43,10.1-19.36,29.74c6.08,19.73,98.74,44.88,226.29,34.97c32.91-2.52,39.37-28.61,14.96-39.83c0,0,38.9,9.54,59-14.87
					c14.59-17.67-5.8-34.97-5.8-34.97s21.79,3.93,22.07-8.04c0.37-17.67-50.87-60.69-130.25-78.08
					C235.53,210.93,196.54,229.44,195.51,234.68z"/>
				<path id="shine4_1_" class="st5" d="M215.89,241.79c-29.83-0.56-94.07,8.6-101.27,34.32c-7.2,25.71,65.55,33.29,108.56,1.03
					C266.01,244.96,247.03,242.35,215.89,241.79z"/>
				<path id="shine3_1_" class="st5" d="M218.61,332.49c-32.17-4.49-21.69,24.12,42.55,31.7
					C325.3,371.67,417.12,360.35,218.61,332.49z"/>
				<path id="shine2_1_" class="st5" d="M356.53,301.35c21.97,0.56,58.82,34.32,4.49,37.59
					C306.78,342.12,268.73,299.2,356.53,301.35z"/>
				<path id="shine1_1_" class="st5" d="M285.09,233.18c39.93,6.36,115.76,33.29,97.71,47.78
					C364.66,295.46,214.49,221.96,285.09,233.18z"/>
			</g>
		</g>
		<g id="right_palm_2_">
			<path id="shadow_27_" class="st6" d="M330.53,332.86c0,0-23-33.94-86.77-24.12c-23.1,4.3-14.12,20.01,11.59,14.4
				C268.07,332.86,343.81,357.45,330.53,332.86z"/>
			<g id="grass_2_">
				<path id="grass_lining" class="st7" d="M296.03,307.71c-6.64-20.66,0-27.12,0.84-27.77c0.47-0.47,1.12-0.65,1.78-0.65
					c0.09,0,0.09,0,0.19,0c0.75,0.09,1.4,0.47,1.78,1.03c1.03,1.31,1.87,2.71,2.62,4.11c1.78-4.86,3.55-8.14,3.65-8.51
					c0.47-0.94,1.4-1.4,2.43-1.4h0.09c1.03,0.09,1.96,0.65,2.34,1.68c2.24,5.61,1.87,11.22,0.56,16.18
					c1.03-0.19,1.96-0.19,2.81-0.19c4.21,0.09,7.76,1.78,7.95,1.78c1.03,0.47,1.68,1.68,1.5,2.81c-0.19,1.12-1.03,1.96-2.15,2.15
					c7.85,2.52,8.7,9.16,8.7,9.54c0.09,1.12-0.47,2.15-1.4,2.62c-0.37,0.19-0.84,0.28-1.31,0.28c-0.65,0-1.22-0.28-1.68-0.65
					c-1.96-1.78-4.02-2.71-5.98-2.71c-5.33-0.09-9.44,6.17-9.54,6.26c-0.47,0.75-1.4,1.22-2.24,1.22l-9.91-3.74L296.03,307.71z"/>
				<path id="grass_color" class="st8" d="M298.55,306.96c-6.26-19.54,0-24.97,0-24.97c3.46,4.39,4.49,8.79,4.3,12.62
					c2.24-9.44,6.36-17.39,6.36-17.39c2.81,7.11,0.94,14.49-1.68,20.01c5.61-4.86,14.21-0.84,14.21-0.84
					c-5.24,0.65-9.16,4.02-11.88,7.48c2.9-2.81,7.01-3.65,11.03-2.52c6.73,1.87,7.39,7.39,7.39,7.39
					c-10.75-9.63-19.73,3.74-19.73,3.74S303.04,311.82,298.55,306.96z"/>
				<path id="grass_shadows" class="st9" d="M298.55,306.96c-2.9-9.16-3.09-15.24-2.43-19.08h0.09c-0.65,6.17,1.5,12.62,2.81,11.03
					c1.31-1.59,1.22-4.21-0.28-10.01c1.68,1.96,2.34,6.73,3.46,3.37c0.19-0.65,0.28-1.5,0.19-2.34c0.37,1.68,0.47,3.27,0.47,4.77
					c0.37-1.68,0.84-3.27,1.31-4.77c-0.84,4.58,1.5,6.36,3.55,1.03c-0.19,7.48,2.9-6.08,2.9-6.08l0,0c0,4.58-1.4,8.88-3.18,12.53
					c-1.31,1.22-2.52,2.9-3.37,5.33c0,0.19,0,0.37,0,0.56l0,0c0.28,2.24,2.15,2.43,6.26-2.99c2.34-3.09,5.05-4.49,7.48-5.05
					c2.34,0.47,3.93,1.22,3.93,1.22c-5.24,0.65-9.07,4.02-11.88,7.39c2.52-2.43,6.08-3.37,9.63-2.81c-1.68,0-3.37,0.28-4.39,1.12
					c-2.71,2.34,7.29-0.94,13.09,6.64c-10.75-9.63-19.45,4.02-19.45,4.02S303.32,312.85,298.55,306.96z"/>
			</g>
			<g id="rtree">
				<g id="rtrunk">
					<path id="rtcolor" class="st10" d="M299.02,310.42c0,0-28.24-65.64,24.22-141.57c0,0,0.37-2.81-4.02-4.02
						c0,0-51.9,28.52-61.06,140.45C258.16,305.28,281.91,303.13,299.02,310.42z"/>
					<path id="rtshadow" class="st11" d="M284.06,247.58c-8.98-14.77,10.47-24.59,9.35-36.09c-1.03-11.5,8.32-9.07,15.43-28.8
						c2.52-7.01,6.83-12.81,11.5-17.39c3.27,1.31,2.99,3.65,2.99,3.65c-52.46,75.93-24.22,141.57-24.22,141.57
						c-7.2-3.09-15.52-4.49-22.82-5.05C256.1,283.49,289.02,255.72,284.06,247.58z"/>
					<path id="rtlining" class="st12" d="M325.67,325.57c-6.92-5.61-14.77-10.1-23.19-13.46c0.47-1.03,0.56-2.15,0.09-3.18
						c-0.28-0.65-26.37-65.08,23.84-137.92c0.37-0.47,0.56-1.12,0.65-1.78c0.19-2.24-0.94-6.45-6.83-8.14l0,0
						c-1.03-0.28-1.96-0.19-2.9,0.37c-2.15,1.22-53.77,30.76-63.02,143.53c0,0.19,0,0.28,0,0.47c-0.75,0.09-1.59,0.09-2.34,0.19
						c-0.19,0-3.37,4.21-2.81,4.21c25.43-3.18,57.23,4.02,76.68,19.82l1.31-2.15C326.79,326.6,326.14,326.03,325.67,325.57z
						 M317.35,170.72c-3.74,5.7-7.11,11.41-10.19,17.49c-1.31-0.75-2.99-1.59-5.05-2.15C308.47,178.29,313.89,173.43,317.35,170.72z
						 M297.62,192.23c2.52,0.56,4.77,1.59,6.45,2.52c-3.55,7.57-6.55,15.34-8.98,23.38c-2.99-0.84-7.01-1.78-11.31-1.96
						C287.89,207.38,292.57,199.33,297.62,192.23z M280.79,222.8c4.49,0.19,9.26,1.59,12.16,2.71c-2.24,8.79-3.74,17.58-4.49,26.28
						c-4.39-1.59-10.57-3.55-16.27-4.3C274.62,238.79,277.52,230.47,280.79,222.8z M270.22,254.78c7.2,1.12,13.75,4.3,17.77,6.45
						c-0.19,8.6,0.28,17.11,1.4,25.25c-6.26-2.34-15.15-4.96-23.47-4.96c-0.37,0-0.65,0-1.03,0
						C266.2,272.27,268.07,263.29,270.22,254.78z M263.49,291.34c10.57-1.31,21.88,2.06,27.4,4.02c0.75,3.65,1.5,6.64,2.15,8.98
						c-8.51-2.34-17.39-2.99-23.75-3.18c-2.71-0.09-5.05,0-6.92,0C262.74,297.8,263.12,294.52,263.49,291.34z"/>
				</g>
				<path id="rleaves_lining" class="st13" d="M421.14,119.67c-0.65-1.87-2.06-3.46-4.02-4.21c-0.47-0.19-11.41-4.49-26.46-4.49
					c-2.43,0-4.86,0.09-7.2,0.37c-0.75-0.28-1.59-0.47-2.52-0.56h-1.12l0,0c-10.38,0-23,3.74-29.55,7.29
					c-1.22,0.65-2.15,1.68-2.81,2.81c-1.22,0.47-2.71,1.12-4.39,2.24c-0.37-5.33-1.31-8.6-1.5-8.98c-0.47-1.4-1.4-2.71-2.52-3.55
					c-2.06-14.59-12.53-26.56-13.09-27.21c-1.12-1.31-2.62-2.06-4.3-2.24c-7.2-8.79-20.48-16.92-25.34-19.73
					c-1.12-0.65-2.34-0.94-3.46-0.94c-0.75,0-1.5,0.09-2.24,0.37c-10.66-5.42-24.87-6.73-26.65-6.92c-0.19,0-0.37,0-0.56,0
					c-3.46,0-6.36,2.52-6.92,5.98l-2.9,19.54c-0.28,1.87,0.19,3.83,1.4,5.33l6.08,7.76c0.65,0.75,1.4,1.4,2.24,1.87l12.9,15.05
					c0.37,0.47,0.75,0.84,1.22,1.12c0.28,0.65,0.65,1.31,1.12,1.87l12.25,14.4l0.09,0.09c0,0.19,0.09,0.28,0.19,0.47
					c-6.92-2.81-12.81-3.46-16.36-3.46l0,0c-2.15,0-3.55,0.19-3.93,0.28c-0.94,0.19-1.78,0.47-2.52,1.03
					c-0.65,0-1.31-0.09-1.87-0.09c-13.18,0-24.03,7.57-24.5,7.95c-0.75,0.56-1.4,1.22-1.87,1.96c-19.36,6.83-24.5,19.26-25.53,22.54
					c-0.65,1.68-0.65,3.65,0.09,5.33c0.09,0.28,0.19,0.47,0.37,0.65c-2.71,8.32-4.3,18.98-2.9,28.71c0.37,2.71,2.43,5.05,5.14,5.7
					c0.56,0.19,1.22,0.19,1.78,0.19c2.15,0,4.11-0.94,5.52-2.71c1.96-2.52,7.29-5.8,9.63-6.92c1.12-0.56,2.06-1.4,2.71-2.52
					c0.28-0.09,0.56-0.19,0.84-0.28c0.65-0.28,1.22-0.65,1.78-1.03c3.18-2.62,14.03-4.86,20.38-5.52c0.94,0.47,1.96,0.65,2.99,0.65
					c1.03,0,2.06-0.19,2.99-0.65c1.87-0.94,10.01-2.52,17.11-3.65c1.03,0.56,2.15,0.94,3.37,0.94c0.94,0,5.61,0.47,9.26,0.94
					c0.28,0,0.56,0,0.75,0c1.4,0,2.81-0.47,4.02-1.31c5.33-3.74,11.22-4.58,15.24-4.58c0.37,0,0.65,0,0.94,0l0,0l0,0
					c0.19,0.09,0.37,0.19,0.56,0.37c0.19,0.09,8.79,5.33,5.14,26.28c-0.37,1.87,0.19,3.83,1.31,5.42c0.47,0.56,0.94,1.12,1.59,1.5
					c-0.75,1.31-1.03,2.81-0.84,4.3c0.84,6.17,0.56,9.16-0.09,11.88c-0.47,2.06,0,4.3,1.31,5.98c-0.09,0.65,0,1.31,0.09,2.06
					c1.22,6.26,1.96,13.56,1.96,13.56c0.09,1.12,0.47,2.24,1.12,3.18c-0.19,1.12-0.09,2.24,0.28,3.37
					c1.5,4.21,3.74,12.44,3.37,16.55c-0.19,2.24,0.75,4.49,2.43,5.89c1.31,1.12,2.9,1.68,4.49,1.68c0.56,0,1.12-0.09,1.78-0.19
					c1.4-0.37,33.29-9.16,35.53-55.26l1.78,1.96c0.19,0.28,0.47,0.47,0.65,0.65c-0.19,0.47-0.37,0.84-0.56,1.4
					c-1.22,2.81-0.47,5.98,1.78,8.04c2.62,2.24,5.24,6.55,5.98,7.85c0.28,0.47,0.56,0.94,0.94,1.31c0.09,1.68,0.75,3.37,1.87,4.58
					l6.73,7.11c1.31,1.4,3.18,2.15,5.05,2.15c0.37,0,0.65,0,1.03-0.09c2.24-0.37,4.21-1.78,5.24-3.74
					c0.84-1.68,19.92-41.05-6.73-70.04c-8.6-9.26-17.39-15.43-25.81-19.45c0.75,0.28,1.5,0.37,2.24,0.37c1.22,0,2.43-0.28,3.46-0.94
					c0.47,0.09,0.94,0.19,1.5,0.28c0.09,0,9.07,0.75,20.48,7.01c1.03,0.56,2.24,0.84,3.37,0.84c0.94,0,1.87-0.19,2.71-0.56
					c0.19,0.09,0.37,0.09,0.56,0.19c0,0,4.86,1.5,10.85,6.45c1.31,1.03,2.9,1.59,4.39,1.59c1.87,0,3.74-0.75,5.14-2.24
					c0.09-0.09,0.19-0.19,0.19-0.19c0.56,0.37,1.22,0.56,1.96,0.75c2.43,0.56,10.01,2.99,12.62,7.11c1.31,2.06,3.55,3.18,5.89,3.18
					c0.65,0,1.31-0.09,1.96-0.28c2.99-0.84,4.96-3.55,4.96-6.64C456.77,159.41,445.64,131.92,421.14,119.67z"/>
				<path id="rleaves_color" class="st14" d="M411.88,123.31c2.62-1.4,2.62-1.4,2.62-1.4s-13.37-5.33-30.48-3.74
					c-2.24,0.28-4.21,3.46-4.21,3.46s-0.28-1.59,0.94-3.93c-9.82-0.28-21.88,3.65-27.21,6.45c-0.94,2.71-1.59,5.24-1.59,5.24
					l-0.94-2.24c0,0-6.83,0.37-17.67,16.64c5.24-15.9,1.59-27.49,1.59-27.49s0,0-2.81,2.43c2.24-15.34-11.41-30.67-11.41-30.67
					l-1.4,2.71c-2.62-9.54-26.46-23.28-26.46-23.28s0,0-1.4,2.06c-9.26-7.11-28.05-8.7-28.05-8.7l-2.9,19.54l6.08,7.76l2.24-3.93
					l-0.56,5.14l13.18,15.43l2.99-3.65l-0.65,6.64l12.25,14.4l2.52-3.55l-1.03,6.45l5.8,9.72l3.74-6.36l-1.78,8.14l7.48,12.72
					l2.24-3.27l-0.84,8.51l3.09,5.89c-21.13-33.66-45.35-29.45-45.35-29.45s0,0,2.34,2.34c-14.21-4.77-28.52,5.33-28.52,5.33
					s0,0,2.9,1.03c-24.31,5.7-27.77,20.2-27.77,20.2s-1.03,1.12,3.65-1.68c-3.83,7.2-7.48,21.13-5.8,33.1
					c3.55-4.58,11.97-8.88,11.97-8.88l2.06-5.24c0,0-0.47,3.27,1.96,2.24c6.36-5.24,24.22-7.11,24.22-7.11
					c2.52-2.99,5.8-5.42,5.8-5.42c-1.96,3.83-2.15,6.08-2.15,6.08c4.39-2.06,20.95-4.58,20.95-4.58c3.27-3.18,7.67-3.93,7.67-3.93
					c-2.9,2.15-5.05,5.05-5.05,5.05c1.96,0,10.01,0.94,10.01,0.94c10.1-7.11,21.32-5.89,23.47-5.52l0.47,0.84c0,0,0,0,0.09,0
					c0.94,0.47,13.37,7.57,8.88,33.66c3.27,0.28,7.39-3.37,7.39-3.37s0,5.33-5.33,12.53c0.94,6.55,0.75,10.57-0.19,14.49
					c5.7-1.59,8.6-3.65,8.6-3.65s-0.84,4.21-7.11,8.6c1.31,6.64,2.06,14.21,2.06,14.21s4.39-2.06,7.01-5.24
					c0.09,5.8-5.98,10.1-5.98,10.1s4.39,12.25,3.74,19.54c0,0,29.08-7.48,30.39-50.49c0.47-14.4-3.83-25.53-10.19-33.66
					c3.74,4.21,5.7,7.48,5.7,7.48l1.78-3.83c0,0,3.18,3.09,2.34,8.51c2.99,1.68,8.32,7.85,8.32,7.85s0,0,1.4-5.7
					c0.75,3.27,0.28,14.21,0.28,14.21l4.02,4.39c0,0,0,0,2.99-4.96c0.09,6.45,0.65,9.07-1.68,14.4c4.11,3.55,7.48,9.72,7.48,9.72
					s0.47,1.03,2.24-6.92c0.28,6.36-0.37,11.41-0.37,11.41l6.73,7.11c0,0,18.14-36.47-5.61-62.18
					c-34.04-36.65-70.41-21.04-72.84-19.92l0,0c0,0-0.09,0-0.09,0.09c0.28-0.19,14.96-9.72,30.2-10.29c1.5-5.42,1.5-5.42,1.5-5.42
					l1.4,4.58c0,0,11.59-3.65,21.32,0.28c4.77-4.3,5.33-5.24,5.33-5.24l0.09,4.58c0,0,10.29,0.65,23.38,7.85
					c6.08-5.61,6.08-5.61,6.08-5.61l-0.84,5.52c0,0,6.08,1.68,13.37,7.76c4.58-5.05,9.72-5.14,9.72-5.14l-1.03,3.46
					c0,0,12.16,2.62,17.02,10.1C449.85,159.69,437.88,132.29,411.88,123.31z"/>
				<g id="rleaf5">
					<path id="rl5shadow" class="st15" d="M312.21,122.85c8.32,4.11,8.04,29.17,7.29,41.8l-5.24-10.1l0.84-8.51l-2.24,3.27
						l-7.48-12.72l1.78-8.14l-3.74,6.36l-5.8-9.72l1.03-6.45l-2.52,3.55l-12.25-14.4l0.65-6.64l-2.99,3.65l-13.18-15.43l0.56-5.14
						l-2.24,3.93l-6.08-7.76l2.81-19.17c18.79,7.67-0.37,22.44,35.53,41.14C312.95,109.66,301.08,117.23,312.21,122.85z"/>
					<path id="rl5shine" class="st16" d="M326.7,145.66c0,0,6.45-38.9-44.6-75.65c-14.49-8.98,20.95,0.94,30.86,23.75
						c1.22-8.88,16.92,8.6,15.05,33.66C332.12,119.57,336.05,129.3,326.7,145.66z"/>
				</g>
				<g id="rleaf4">
					<path id="rl4shadow" class="st15" d="M356.81,173.34c10.1,8.7,19.82,2.24,22.44,12.16s12.25,2.71,15.8,22.63
						c3.27,18.23,9.44,22.16,6.08,37.68c-0.19,0.37-0.28,0.56-0.28,0.56l-6.73-7.2c0,0,0.75-5.14,0.37-11.41
						c-1.78,7.95-2.24,6.92-2.24,6.92s-3.37-6.17-7.48-9.72c2.34-5.42,1.78-7.95,1.68-14.4c-2.99,4.96-2.99,4.96-2.99,4.96
						l-4.02-4.39c0,0,0.47-10.94-0.28-14.21c-1.4,5.7-1.4,5.7-1.4,5.7s-5.33-6.17-8.32-7.85c0.84-5.52-2.34-8.51-2.34-8.51
						l-1.78,3.83c0,0-8.98-14.77-24.78-21.97C346.71,168.57,352.97,170.07,356.81,173.34z"/>
					<path id="rl4shine" class="st16" d="M339.32,162.68c0,0,35.44-0.94,49.09,25.81c4.02,6.92,13.37,14.03,14.87,33.29
						C404.87,240.85,418.9,164.18,339.32,162.68z"/>
				</g>
				<g id="rleaf3">
					<path id="rl3shadow" class="st15" d="M355.13,142.48c10.94,4.49,19.64-9.07,27.58-0.56c7.67,8.32,53.77,3.83,67.14,34.41
						c0,0.09,0,0.09,0,0.19c-4.86-7.48-17.02-10.1-17.02-10.1l1.03-3.46c0,0-5.14,0.09-9.72,5.14c-7.29-5.98-13.37-7.76-13.37-7.76
						l0.84-5.52c0,0,0,0-6.08,5.61c-13.09-7.2-23.38-7.85-23.38-7.85l-0.09-4.58c0,0-0.56,0.84-5.33,5.24
						c-9.82-3.93-21.32-0.28-21.32-0.28l-1.4-4.58c0,0,0,0-1.5,5.42c-12.53,0.47-24.78,7.01-28.8,9.35
						C331.37,154.82,347.08,139.21,355.13,142.48z"/>
					<path id="rl3shine" class="st16" d="M337.64,146.6c0,0,43.76-40.77,96.78,7.57c12.06,11.31,0.75-27.4-31.04-25.81
						c11.5-5.24-9.44-12.34-28.8-1.5C380.65,120.69,363.63,115.93,337.64,146.6z"/>
				</g>
				<g id="rleaf2">
					<path id="rl2shadow" class="st15" d="M252.64,162.31c9.72-9.63,20.01,4.39,32.91-3.74c9.54-6.08,24.22,1.68,31.14,6.08
						c-4.49-0.19-12.81,0.47-20.48,5.8c0,0-8.04-0.94-10.01-0.94c0,0,2.06-2.9,5.05-5.05c0,0-4.39,0.84-7.67,3.93
						c0,0-16.55,2.52-20.95,4.58c0,0,0.19-2.34,2.15-6.08c0,0-3.27,2.52-5.8,5.42c0,0-17.86,1.87-24.22,7.11
						c-2.52,1.03-1.96-2.24-1.96-2.24l-2.06,5.24c0,0-7.85,4.02-11.59,8.42C223.75,161.28,243.2,171.66,252.64,162.31z"/>
					<path id="rl2shine" class="st16" d="M303.23,152.77c0,0-31.89-14.49-69.66,9.44c-13,9.54-5.7-18.42,25.43-18.05
						c-9.35-2.71-2.81-13.84,18.33-3.46C269.75,134.44,291.45,128.92,303.23,152.77z"/>
				</g>
				<g id="rleaf1">
					<path id="rl1shadow" class="st15" d="M339.7,187.83c-1.4,8.51,15.24,9.63,6.83,24.31c-8.23,14.31,12.81,25.25-6.55,54.33
						c-0.47,0.19-0.75,0.19-0.75,0.19c0.65-7.29-3.74-19.54-3.74-19.54s6.08-4.3,5.98-10.1c-2.62,3.18-7.01,5.24-7.01,5.24
						s-0.75-7.57-2.06-14.21c6.26-4.39,7.11-8.6,7.11-8.6s-2.9,1.96-8.6,3.65c0.94-3.93,1.12-7.95,0.19-14.49
						c5.33-7.11,5.33-12.53,5.33-12.53s-4.11,3.65-7.39,3.37c4.68-27.02-8.98-33.76-8.98-33.76c0.09-0.09,0.19-0.09,0.28-0.19
						C328.48,167.82,341.01,173.71,339.7,187.83z"/>
					<path id="rl1shine" class="st16" d="M338.11,168.66c0,0,34.69,16.46,16.46,70.5c-8.88,31.23,18.89-6.17,12.34-34.88
						C360.46,175.58,338.11,168.66,338.11,168.66z"/>
				</g>
			</g>
		</g>
		<g id="left_palm_2_">
			<path id="shadow_15_" class="st6" d="M153.15,357.08c0,0,39.65-33.38,116.23-5.52c27.4,10.94,11.13,26.84-19.08,13.65
				C231.14,373.16,135.67,370.64,153.15,357.08z"/>
			<g id="grass_right_2_">
				<path id="rightgrass_lining" class="st7" d="M312.3,335.2c-5.42-6.08-11.31-10.01-17.39-11.88c-2.06-0.65-4.11-1.03-6.08-1.12
					c2.62-4.3,3.09-7.48,3.18-8.23c0.09-1.12-0.28-2.15-0.94-2.99c-0.47-0.56-1.12-1.03-1.78-1.22c-0.28-0.09-0.56-0.09-0.84-0.19
					c-4.68-0.19-8.79,0.37-12.62,1.4c5.42-10.66,8.51-19.26,8.7-19.92c0.56-1.5,0.19-3.09-0.84-4.21c-0.47-0.47-1.03-0.84-1.59-1.03
					c-0.75-0.19-1.59-0.19-2.34,0.09c-28.33,11.41-33.1,51.9-33.29,53.67c0,0.19,0,0.37,0,0.47c-0.75,1.78-1.03,2.99-1.03,2.99
					c-0.37,1.4,0,2.99,0.94,4.02c0.47,0.47,0.94,0.75,1.59,0.94c0.75,0.19,1.5,0.19,2.15-0.09c0.09,0,0.09,0,0.19-0.09
					c1.78,0,8.98,0.19,16.55,2.52c0.56,0.19,1.12,0.37,1.68,0.56c0.65,0.19,1.31,0.47,1.96,0.65c8.98,2.71,21.23,3.74,26.93-0.56
					c0.84-0.65,1.4-1.59,1.59-2.71c0.19-1.12-0.09-2.15-0.75-3.09c-0.19-0.28-3.09-4.11-8.04-7.76c5.52,0.19,9.82,1.12,12.72,1.96
					c3.18,0.94,4.86,1.96,4.86,1.96c0.28,0.19,0.47,0.28,0.75,0.37c1.4,0.47,3.09-0.09,4.02-1.4
					C313.7,338.85,313.61,336.69,312.3,335.2z"/>
				<path id="rightgrass_color" class="st8" d="M250.3,340.06c0,0,4.39-39.65,30.86-50.31c0,0-5.14,14.87-14.31,29.74
					c5.52-3.65,12.53-6.17,21.51-5.89c0,0-0.47,5.89-8.51,13.56c8.32-2.43,18.89-1.22,29.92,10.85c0,0-13.09-7.76-35.63-2.71
					c13.18,1.4,21.41,12.62,21.41,12.62c-4.21,3.18-15.62,2.81-25.53-0.65c-10.01-3.46-19.82-3.27-19.82-3.27L250.3,340.06z"/>
				<path id="rightgrass_shadows" class="st9" d="M250.02,343.99c0,0,9.82-0.19,19.82,3.27s21.32,3.83,25.53,0.65
					c0,0-0.28-0.37-0.84-1.03c-8.04,3.83-18.14,0.65-23.28-1.5c-5.61-2.34-7.85-5.14,0.75-4.77c-4.86-1.12-4.02-4.77,2.99-4.86
					c0.65,0,1.31,0,1.96,0.09c-0.94-0.19-1.96-0.37-2.99-0.47c22.54-4.96,35.63,2.71,35.63,2.71c-0.65-0.65-1.22-1.31-1.87-1.96
					c-12.16-6.92-24.97-2.81-25.25-4.3c-0.37-1.68,5.33-2.71,5.33-2.71s-5.98,0.56-5.33-1.31c0.65-1.87,7.85-1.31,7.85-1.31
					l0.19-0.09c-3.93-0.65-7.57-0.19-10.85,0.75c0.75-0.75,1.5-1.5,2.15-2.15c0-0.09-0.09-0.09-0.09-0.19
					c-0.94,0.94-1.96,1.87-3.09,2.71l0,0c-0.47,0.37-0.94,0.75-1.5,1.12c-0.09,0-0.09,0.09-0.19,0.09c-0.47,0.37-0.94,0.65-1.4,1.03
					c-0.09,0.09-0.19,0.09-0.19,0.19c-0.47,0.28-0.94,0.65-1.4,0.94c-0.09,0-0.09,0.09-0.19,0.09c-2.62,1.59-5.05,2.81-7.2,3.46
					c-3.55,1.22-5.89,1.03-5.42-0.84c1.03-4.21,5.24-7.2,15.9-11.78c-5.05-0.37-13.28,4.3-9.16-1.78c0.75-1.12,1.96-2.24,3.46-3.18
					c-1.68,0.75-3.27,1.68-4.77,2.71c1.12-1.87,2.24-3.74,3.27-5.52c-5.24,7.39-10.47,6.17-5.7-3.74
					c-10.01,10.29,4.77-12.34,4.77-12.34v-0.09c-15.8,15.43-18.79,42.36-18.79,42.36L250.02,343.99z"/>
			</g>
			<g id="grass_left_2_">
				<path id="leftgrass_lining" class="st7" d="M213.56,298.45c-0.47-0.75-1.22-1.22-2.06-1.4c-0.09,0-0.19,0-0.28-0.09
					c-0.94-0.09-1.87,0.09-2.62,0.75c-1.78,1.5-3.18,3.09-4.49,4.68c-0.84-7.11-1.96-12.25-2.06-12.72
					c-0.28-1.4-1.31-2.43-2.62-2.71h-0.09c-1.31-0.28-2.62,0.28-3.46,1.5c-4.49,6.83-5.8,14.59-5.52,21.69
					c-1.22-0.56-2.34-0.84-3.46-1.12c-5.33-1.22-10.29-0.19-10.47-0.09c-1.5,0.37-2.62,1.68-2.71,3.27
					c-0.09,1.59,0.75,3.09,2.06,3.65c-10.57,0.84-13.65,9.63-13.75,10.01c-0.47,1.4-0.09,2.99,0.94,4.02
					c0.47,0.37,0.94,0.65,1.5,0.84c0.75,0.19,1.59,0.09,2.34-0.37c3.09-1.78,5.89-2.34,8.32-1.78c6.73,1.59,10.1,11.5,10.1,11.59
					c0.37,1.22,1.4,2.15,2.52,2.43c0.28,0.09,0.56,0.09,0.94,0.09l3.55-0.19c0.09,0,0.09,0,0.19,0c0.09,0,0.19,0.09,0.28,0.09
					c0.56,0.09,1.12,0.09,1.59-0.09l3.46-1.03c1.22-0.37,2.15-1.5,2.43-2.81c0.09-0.65,0.19-1.31,0.28-1.96l0,0
					c0.47,0.75,1.22,1.22,1.96,1.4c0.19,0,0.37,0.09,0.56,0.09c1.22,0.09,2.43-0.56,3.09-1.78
					C220.76,310.51,214.4,299.57,213.56,298.45z"/>
				<path id="leftgrass_color" class="st8" d="M194.01,339.13l-5.42-0.09c0,0-6.83-21.32-23.28-11.78c0,0,2.43-7.29,11.5-7.67
					c4.21-0.19,8.6,1.4,11.97,4.49c-2.43-4.68-6.08-9.26-11.5-11.5c0,0,11.97-2.62,17.58,5.8c-1.59-8.42-1.78-18.98,3.93-27.68
					c0,0,2.81,12.16,2.81,25.62c1.03-5.24,3.65-10.85,9.26-15.62c0,0,3.37,9.44-10.38,33.94C200.37,334.54,198.88,338,194.01,339.13
					z"/>
				<path id="leftgrass_shadows" class="st9" d="M193.73,339.22l-5.14-0.19c0,0-6.83-21.32-23.28-11.78
					c9.44-8.42,21.13-0.65,18.42-4.68c-1.03-1.5-2.99-2.43-5.14-2.9c3.74,0.28,7.2,1.5,10.01,4.3c-2.43-4.86-5.8-9.07-11.41-11.31
					c0,0,2.24-0.47,5.33-0.37c2.81,1.59,5.8,4.39,7.85,9.26c2.43,5.8,4.3,7.95,5.61,7.76l0,0c0.19,0,0.37-0.09,0.47-0.19
					c0,0,0.09,0,0.09-0.09c0.28-0.28,0.56-0.65,0.75-1.12c0,0,0-0.09,0.09-0.09c0.09-0.28,0.19-0.56,0.28-0.84
					c-0.37-4.3-1.78-7.39-3.55-9.54c-0.47-5.33-0.47-11.22,0.75-16.74h0.09c0,0-0.19,19.54,1.87,9.26c0.94,7.85,4.49,6.26,4.77-0.19
					c0.09,1.78,0.28,3.65,0.37,5.61c0.47-1.68,1.03-3.37,1.78-5.05c-0.37,1.22-0.56,2.34-0.47,3.27c0.37,4.96,2.71-1.31,5.42-3.46
					c-3.55,7.39-4.49,10.85-3.37,13.46c1.22,2.62,5.89-5.42,6.83-14.03c0.09,0,0.09,0,0.19,0c-0.37,5.42-3.55,13.65-10.01,25.15
					C202.15,334.54,198.32,338.38,193.73,339.22z"/>
			</g>
			<g id="ltree">
				<g id="ltrunk">
					<path id="ltcolor" class="st10" d="M199.62,338.85c0,0,55.26-79.67,12.34-199.64c0,0,0.37-3.83,6.26-4.11
						c0,0,56.57,55.54,34.22,210.11C252.55,345.2,223.37,334.64,199.62,338.85z"/>
					<path id="ltshadow" class="st11" d="M237.49,258.62c15.71-17.02-5.7-36.75-0.94-51.99c4.77-15.24-7.76-14.96-10.66-44.04
						c-1.03-10.29-4.77-19.54-9.16-27.3c-4.49,0.75-4.86,3.93-4.86,3.93c43.01,119.97-12.25,199.64-12.25,199.64
						c10.01-1.78,20.85-0.94,30.2,0.65C261.81,316.4,228.8,268.06,237.49,258.62z"/>
					<path id="ltlining" class="st12" d="M260.12,346.79c-1.03-0.47-2.15-0.84-3.27-1.22c22.25-154.94-33.29-211.42-35.63-213.66
						c-0.84-0.84-1.87-1.31-3.18-1.22c-7.48,0.28-10.1,5.24-10.38,8.04l0,0c-0.09,0.65,0,1.4,0.28,2.06
						c41.42,115.85-11.31,194.68-11.78,195.52c-0.56,0.84-0.84,1.87-0.75,2.81c-11.78,1.78-23.19,5.33-33.76,10.75
						c-0.75,0.37-1.68,0.94-2.62,2.06l0.94,3.37c29.27-15.15,71.44-14.49,102.39-1.96C263.02,353.62,260.31,346.89,260.12,346.79z
						 M253.11,263.39c-7.85-1.12-17.02-0.37-23.19,0.47c1.87-12.62,2.62-25.62,2.43-38.81c4.02-0.56,11.03-1.12,17.21,0.37
						C251.43,237.39,252.64,250.2,253.11,263.39z M237.59,178.39c4.49,11.88,8.04,24.97,10.57,38.9c-4.3-1.03-8.79-1.31-12.44-1.31
						c-1.31,0-2.62,0-3.74,0.09c-0.65-12.34-2.06-24.22-4.39-36.19C230.11,179.04,233.75,178.2,237.59,178.39z M216.92,140.14
						c3.18,3.83,10.29,13.37,17.49,30.2c-3.37,0-6.26,0.75-8.51,1.5C223.47,160.9,220.48,150.52,216.92,140.14z M227.96,275.17
						c5.7-1.78,15.52-4.02,25.43-3.09c0.19,12.81-0.28,26.18-1.4,39.83c-5.89-1.78-12.44-2.43-18.61-2.43
						c-5.61,0-10.94,0.56-15.24,1.12C222.25,299.48,225.53,287.6,227.96,275.17z M214.12,320.33c7.48-0.94,23.47-1.87,36.65,3.74
						c-0.56,5.61-1.12,10.57-1.78,15.34c-2.43-0.75-5.52-1.59-9.26-2.43c-7.29-1.68-17.49-3.55-27.86-3.55c-1.31,0-2.71,0-4.02,0.09
						C209.54,330.34,211.69,325.85,214.12,320.33z"/>
				</g>
				<path id="lleaves_lining" class="st13" d="M363.45,196.9c-0.19-3.83-2.43-21.97-24.97-37.31c-0.19-1.12-0.65-2.24-1.5-3.27
					c-0.56-0.65-12.72-15.52-30.3-18.61c-0.65-0.94-1.59-1.68-2.71-2.24c-0.65-0.28-6.64-2.99-16.36-2.99
					c-4.68,0-10.19,0.65-16.27,2.34l4.3-4.77c0.56-0.65,1.03-1.4,1.31-2.15c0.19-0.09,0.37-0.28,0.65-0.47l19.82-15.52
					c0.75-0.56,1.4-1.31,1.78-2.15c0.75-0.28,1.4-0.65,2.06-1.12l21.04-16.27c1.03-0.28,2.06-0.75,2.99-1.5l9.91-8.51
					c1.4-1.22,2.24-2.9,2.43-4.68l2.34-27.4c0.28-3.65-2.24-6.83-5.8-7.48c-0.28-0.09-7.95-1.31-17.3-1.31
					c-7.01,0-13.18,0.75-18.42,2.15c-1.22-1.03-2.81-1.59-4.49-1.59c-0.75,0-1.4,0.09-2.15,0.37c-4.96,1.59-25.99,8.7-37.78,18.61
					c-0.47-0.09-0.94-0.09-1.4-0.09c-1.5,0-2.99,0.47-4.21,1.4C247.59,63,230.48,76,224.22,94.79c-1.68,0.47-3.18,1.68-4.11,3.27
					c-0.28,0.56-3.18,5.8-5.24,14.77c-2.99-4.02-5.61-6.17-7.57-7.39c0,0,0,0,0-0.09c-0.19-1.68-0.94-3.18-2.06-4.3
					c-6.36-6.08-21.6-16.18-35.44-19.36c-0.56-0.09-1.03-0.19-1.59-0.19c-0.56,0-1.03,0.09-1.59,0.19h-0.09
					c-13.18-4.96-25.34-5.89-33.1-5.89c-5.89,0-9.54,0.56-10.01,0.65c-2.43,0.37-4.39,1.96-5.33,4.21
					c-34.13,8.04-56.2,41.05-61.25,63.77c-0.65,2.99,0.75,6.17,3.46,7.67c1.03,0.56,2.15,0.84,3.27,0.84c1.87,0,3.65-0.75,4.96-2.06
					c4.68-4.77,14.12-6.08,19.08-6.08c1.12,0,2.34-0.28,3.46-0.84c0.47,0.65,0.84,1.31,1.22,2.06c0.84,1.68,2.34,2.9,4.11,3.46
					c0.65,0.19,1.4,0.28,2.15,0.28c1.12,0,2.24-0.28,3.27-0.84c9.26-4.86,16.18-5.33,16.27-5.33c0.47,0,0.84-0.09,1.22-0.19
					c1.31,1.31,3.09,2.06,4.86,2.06c0.65,0,1.31-0.09,1.96-0.28c9.26-2.71,16.92-3.27,21.79-3.27c4.21,0,6.73,0.47,6.73,0.47
					c0.37,0.09,0.84,0.09,1.22,0.09s0.75,0,1.03-0.09c1.31,1.78,3.37,2.71,5.52,2.71c0.37,0,0.75,0,1.03-0.09
					c1.03-0.19,2.15-0.28,3.27-0.28c5.42,0,10.75,1.87,14.4,3.46c-18.7,0.28-37.22,7.01-55.26,19.92
					c-40.77,29.45-29.08,87.15-28.61,89.58c0.47,2.24,2.06,4.21,4.3,5.05c0.84,0.28,1.68,0.47,2.52,0.47c1.4,0,2.81-0.47,4.02-1.22
					l10.57-7.39c1.68-1.22,2.71-2.99,2.9-5.05c0.84-0.47,1.68-1.12,2.24-1.96c1.22-1.4,6.08-6.45,10.29-8.88
					c2.52-1.4,3.93-4.3,3.46-7.2c-0.28-1.78-0.37-3.27-0.37-4.58c0.75-0.19,1.5-0.56,2.24-1.12l6.36-4.68
					c0.19-0.19,0.37-0.37,0.56-0.47c-0.28,1.22-0.56,2.43-0.75,3.65c-12.16,62.93,24.69,84.81,26.28,85.75
					c1.03,0.65,2.24,0.94,3.46,0.94c1.03,0,2.06-0.28,3.09-0.75c2.06-1.03,3.55-2.99,3.83-5.33c0.94-7.01,7.29-18.7,9.72-22.63
					c0.84-1.31,1.12-2.81,1.03-4.3c1.12-0.84,2.06-2.06,2.52-3.46c0-0.09,3.18-9.82,6.64-18.05c0.37-1.03,0.56-2.06,0.56-3.09
					c2.06-1.31,3.37-3.55,3.37-5.98c0-4.21,0.56-8.79,3.74-17.3c0.56-1.59,0.56-3.37-0.09-4.96c-0.28-0.75-0.56-1.4-0.75-2.15
					c1.5-0.09,2.9-0.56,4.11-1.5c1.5-1.22,2.43-3.09,2.62-4.96c1.87-31.7,16.18-36.37,16.27-36.47c0.09,0,0.09,0,0.19-0.09
					c0.28-0.09,0.56-0.19,0.75-0.28c4.58,0.94,13.65,3.83,20.48,12.16c1.12,1.4,2.71,2.24,4.49,2.52c4.86,0.65,10.85,1.5,12.06,1.78
					c0.56,0.09,1.12,0.19,1.59,0.19c0.94,0,1.78-0.19,2.62-0.47c8.79,3.93,19.08,9.07,21.41,11.13c1.31,1.12,2.9,1.68,4.58,1.68
					c0.65,0,1.31-0.09,1.96-0.28c0.09,0.09,0.19,0.09,0.28,0.09c7.67,2.9,21.23,9.54,25.06,14.96c0.37,0.56,0.84,1.03,1.4,1.5
					c0.56,0.37,1.03,0.75,1.59,1.03c0.28,1.5,1.03,2.99,2.15,4.02c3.18,2.9,8.88,9.16,10.66,13.46c1.12,2.62,3.65,4.21,6.45,4.21
					c0.09,0,0.09,0,0.19,0c2.81-0.09,5.33-1.87,6.36-4.49c4.58-12.34,5.7-27.68,4.68-39.93c0.65-0.47,1.22-1.12,1.59-1.78
					C363.26,200.18,363.63,198.49,363.45,196.9z"/>
				<path id="lleaves_color" class="st14" d="M227.86,170.53c0,0-15.71-18.05-34.97-23.75c-0.28-7.85-0.28-7.85-0.28-7.85l-3.09,5.7
					c0,0-13.46-8.7-26.93-6.55c-4.68-7.39-5.05-8.79-5.05-8.79l-1.5,6.08c0,0-13.09-2.52-31.79,2.99c-5.89-9.54-5.89-9.54-5.89-9.54
					l-0.56,7.67c0,0-8.14,0.37-19.08,6.08c-4.21-8.32-10.75-10.1-10.75-10.1l0.19,5.05c0,0-16.08-0.47-24.41,8.14
					c5.14-22.91,28.43-56.1,63.77-59.84c-2.9-2.81-2.9-2.81-2.9-2.81s18.42-2.9,39.37,4.86c2.71,1.12,4.3,5.98,4.3,5.98
					s0.84-2.06,0-5.7c12.34,2.81,26.46,11.97,32.26,17.58c0.37,3.93,0.47,7.57,0.47,7.57l1.87-2.71c0,0,8.51,2.71,17.11,28.33
					c-1.78-23.19,6.36-37.78,6.36-37.78s0,0,2.81,4.21c1.87-21.41,23.66-37.78,23.66-37.78l0.94,4.11c6.17-12.06,40.3-23,40.3-23
					s0,0,1.12,3.27c13.84-6.64,37.87-2.62,37.87-2.62l-2.34,27.4l-9.91,8.51l-1.68-6.08l-0.84,7.2l-21.23,16.55l-2.71-5.89
					l-1.22,9.16l-19.82,15.52l-2.15-5.7l-0.65,9.16l-10.19,11.31l-2.81-9.91l-0.19,11.59l-13.28,14.77l-1.78-5.14l-1.5,11.78
					l-5.61,7.01c36.75-38.71,65.92-25.15,65.92-25.15s0,0-3.74,2.43c19.26-1.87,34.22,16.55,34.22,16.55s0,0-3.93,0.47
					c28.89,15.71,28.8,36.37,28.8,36.37s0.94,1.87-4.02-3.55c2.62,11.03,3.09,31.04-2.81,46.75c-3.09-7.29-12.34-15.9-12.34-15.9
					l-1.03-7.76c0,0-0.37,4.58-3.18,2.34c-6.45-9.16-28.24-17.49-28.24-17.49c-2.34-4.86-5.61-9.26-5.61-9.26
					c1.31,5.8,0.84,8.98,0.84,8.98c-4.86-4.3-24.97-13-24.97-13c-3.18-5.33-8.42-7.85-8.42-7.85c2.99,3.93,4.77,8.51,4.77,8.51
					c-2.43-0.56-12.81-1.96-12.81-1.96c-10.47-12.81-24.69-15.24-27.49-15.52l-1.12,1.31c0,0,0,0-0.09,0
					c-1.31,0.37-19.17,5.89-21.32,42.73c-4.3-0.65-8.32-7.01-8.32-7.01s-1.68,7.29,2.9,18.61c-3.09,8.51-4.11,14.03-4.11,19.73
					c-6.73-4.02-9.72-7.67-9.72-7.67s-0.19,5.98,6.36,14.03c-3.65,8.6-6.83,18.61-6.83,18.61s-4.86-4.3-7.2-9.35
					c-1.87,7.85,4.39,15.62,4.39,15.62s-9.26,15.24-10.66,25.25c0,0-34.22-19.64-22.91-78.36c3.83-19.64,12.62-33.29,23-42.36
					c-5.98,4.49-9.54,8.32-9.54,8.32l-1.12-5.8c0,0-4.96,3.09-5.52,10.85c-4.3,1.31-12.9,7.95-12.9,7.95s0,0,0-8.23
					c-1.96,4.21-4.68,19.17-4.68,19.17l-6.36,4.68c0,0,0,0-2.34-7.67c-2.06,8.7-3.55,11.97-2.24,20.1
					c-6.26,3.55-12.34,10.75-12.34,10.75s-0.94,1.22-0.75-10.1c-2.34,8.51-2.9,15.62-2.9,15.62l-10.57,7.39
					c0,0-11.69-55.26,25.81-82.47C185.88,133.69,227.86,170.53,227.86,170.53L227.86,170.53z"/>
				<g id="lleaf5">
					<path id="ll5shadow" class="st15" d="M252.92,117.7c-11.69,2.9-18.89,36.94-21.79,54.23l9.63-11.97l1.5-11.78l1.78,5.14
						l13.28-14.77l0.19-11.59l2.81,9.91l10.19-11.31l0.65-9.16l2.15,5.7l19.82-15.52l1.22-9.16l2.71,5.89l21.23-16.55l0.84-7.2
						l1.68,6.08l9.91-8.51l2.24-26.84c-25.9,4.21-6.36,30.48-57.13,44.14C256.1,99.66,268.73,113.87,252.92,117.7z"/>
					<path id="ll5shine" class="st16" d="M227.86,143.88c0,0,3.74-54.79,78.92-87.9c20.95-7.48-26.56-5.52-45.91,22.16
						c1.12-12.44-23.84,6.08-29.17,40.68C228.99,106.86,221.13,118.82,227.86,143.88z"/>
				</g>
				<g id="lleaf4">
					<path id="ll4shadow" class="st15" d="M181.76,171.66c-15.34,8.51-25.62-3.46-31.79,9.16c-6.26,12.62-16.18-0.28-26.65,25.53
						c-9.63,23.66-18.51,26.93-19.08,49c0.09,0.56,0.19,0.84,0.19,0.84L115,248.8c0,0,0.65-7.11,2.9-15.62
						c-0.19,11.31,0.75,10.1,0.75,10.1s6.17-7.2,12.34-10.75c-1.31-8.04,0.19-11.31,2.24-20.1c2.34,7.67,2.34,7.67,2.34,7.67
						l6.36-4.68c0,0,2.71-15.05,4.68-19.17c0,8.23,0,8.23,0,8.23s8.51-6.64,12.9-7.95c0.56-7.67,5.52-10.85,5.52-10.85l1.12,5.8
						c0,0,15.8-17.11,37.78-21.69C195.79,168.48,187.56,168.38,181.76,171.66z"/>
					<path id="ll4shine" class="st16" d="M206.92,162.87c0,0-44.23-12.81-69.57,18.89c-7.11,8.04-21.04,14.68-28.8,40.21
						C100.79,247.4,106.4,139.02,206.92,162.87z"/>
				</g>
				<g id="lleaf3">
					<path id="ll3shadow" class="st15" d="M193.08,130.42c-15.15,2.52-21.97-18.7-34.5-9.72c-12.06,8.79-68.82-12.34-94.82,24.78
						c0,0.09,0,0.19-0.09,0.19c8.32-8.6,24.41-8.14,24.41-8.14l-0.19-5.05c0,0,6.45,1.78,10.75,10.1
						c11.03-5.8,19.08-6.08,19.08-6.08l0.56-7.67c0,0,0,0,5.89,9.54c18.61-5.52,31.79-2.99,31.79-2.99l1.5-6.08
						c0,0,0.37,1.4,5.05,8.79c13.46-2.06,26.93,6.55,26.93,6.55l3.09-5.7c0,0,0,0,0.28,7.85c15.62,4.68,28.99,17.49,33.38,22.07
						C219.26,154.92,204.21,128.55,193.08,130.42z"/>
					<path id="ll3shine" class="st16" d="M213.93,141.64c0,0-42.73-69.48-123.99-21.23c-18.61,11.41,7.39-37.31,46.85-24.87
						c-12.9-10.75,15.62-13.56,36.65,7.39C167.64,92.55,190.46,91.71,213.93,141.64z"/>
				</g>
				<g id="lleaf2">
					<path id="ll2shadow" class="st15" d="M315.95,190.64c-9.26-16.18-26.46-0.65-40.21-15.8c-10.19-11.31-31.04-5.98-41.05-2.24
						c5.7,1.22,16.08,5.14,24.03,14.87c0,0,10.38,1.4,12.81,1.96c0,0-1.78-4.58-4.77-8.51c0,0,5.24,2.52,8.42,7.85
						c0,0,20.1,8.79,24.97,13c0,0,0.47-3.18-0.84-8.98c0,0,3.37,4.39,5.61,9.26c0,0,21.88,8.32,28.24,17.49
						c2.81,2.24,3.18-2.34,3.18-2.34l1.03,7.76c0,0,8.6,7.95,11.97,15.15C352.51,198.68,324.92,206.44,315.95,190.64z"/>
					<path id="ll2shine" class="st16" d="M255.26,161.18c0,0,44.42-9.26,84.72,35.44c13.46,17.11,12.72-23.1-26.46-32.63
						c12.53-0.56,7.76-17.86-21.97-10.66C302.76,147.34,277.33,132.85,255.26,161.18z"/>
				</g>
				<g id="lleaf1">
					<path id="ll1shadow" class="st15" d="M198.78,196.9c-0.75,11.97-22.07,8.04-15.9,30.67c5.98,22.07-23.66,30.02-8.23,75.74
						c0.56,0.37,0.84,0.56,0.84,0.56c1.4-10.1,10.66-25.25,10.66-25.25s-6.26-7.76-4.39-15.62c2.34,5.14,7.2,9.35,7.2,9.35
						s3.27-10.01,6.83-18.61c-6.55-8.04-6.36-14.03-6.36-14.03s2.99,3.65,9.72,7.67c0-5.7,1.03-11.13,4.11-19.73
						c-4.58-11.41-2.9-18.61-2.9-18.61s4.02,6.36,8.32,7.01c2.34-38.15,21.41-42.73,21.41-42.73c-0.09-0.09-0.19-0.19-0.28-0.28
						C218.89,173.43,201.4,177.27,198.78,196.9z"/>
					<path id="ll1shine" class="st16" d="M206.54,171.38c0,0-48.62,11.03-42.08,90.05c1.68,45.26-21.97-14.49-5.05-51.24
						C176.34,173.53,206.54,171.38,206.54,171.38z"/>
				</g>
			</g>
		</g>
	</g>
	<g id="sectors" class="st17">
		<rect id="top_left" x="34.72" y="34.72" class="st0" width="215.28" height="215.28"/>
		<rect id="top_right" x="250" y="34.72" class="st0" width="215.28" height="215.28"/>
		<rect id="bottom_right" x="250" y="250" class="st0" width="215.28" height="215.28"/>
	</g>
	<path id="sectors_gray_lining" class="st18" d="M258.92,35.97h-17.84H35.97v205.11v17.84v205.11h205.11h17.84h205.11V258.92v-17.84
		V35.97H258.92z M53.8,53.8h187.28v187.28H53.8V53.8z M241.08,446.2H53.8V258.92h187.28V446.2z M446.2,446.2H258.92V258.92H446.2
		V446.2z M258.92,241.08V53.8H446.2v187.28H258.92z"/>
	<path id="sectors_white_oultining" class="st0" d="M463.41,36.59v426.82H36.59V36.59H463.41 M500,0H0v500h500V0L500,0z"/>
</g>
</svg>
