<?xml version="1.0" encoding="utf-8"?>
<!-- Generator: Adobe Illustrator 19.0.0, SVG Export Plug-In . SVG Version: 6.00 Build 0)  -->
<svg version="1.1" id="twinsun_icon" xmlns="http://www.w3.org/2000/svg" xmlns:xlink="http://www.w3.org/1999/xlink" x="0px"
	 y="0px" viewBox="0 0 500 500" style="enable-background:new 0 0 500 500;" xml:space="preserve">
<style type="text/css">
	.st0{fill:#FFFFFF;}
	.st1{fill:#0405B6;}
	.st2{fill:#2F3A86;}
	.st3{fill:#5B6D17;}
	.st4{fill:#8BA5D1;}
	.st5{fill:#FDFA83;}
	.st6{fill:#AEC6EF;}
	.st7{fill:#DBEBF7;}
	.st8{fill:#B8C656;}
	.st9{fill:#02023A;}
	.st10{fill:#060760;}
</style>
<g id="group_2_">
	<path id="lining_2_" class="st0" d="M497.45,298.67c-0.56-2.76-1.15-5.61-1.21-7.14c-0.04-1.05,0.09-3.03,0.22-4.96
		c0.21-3.16,0.48-7.1,0.34-11.47c-0.3-9.36-2.33-17.52-3.96-24.07l-1.87-7.52l-4.23-16.98c-1.11-4.46-2.97-11.91-8-19.34
		c-0.74-1.1-1.48-2.08-2.17-2.95c-0.3-4.49-0.87-10.81-3.36-17.68c-2.13-5.88-5.36-11.28-9.53-16.02C431.07,72.95,343.4,8,242.83,8
		c-22.04,0-43.77,3.16-64.75,9.41c-3.47-0.63-6.97-0.95-10.49-0.95c-1.19,0-2.38,0.04-3.57,0.11c-10.1,0.63-18.49,3.68-25.23,6.13
		l-1.09,0.4c-11.34,4.11-22.84,7.68-35.01,11.46c-6.96,2.16-13.92,4.33-20.82,6.7c-9.69,3.33-35.43,12.19-44.57,39.04
		c-1.09,3.19-1.73,6.06-2.18,8.39c-5.29,5.14-15.37,15.38-16.28,32.33c-0.06,1.05-0.07,2.05-0.06,2.97
		C8.05,149.77,6,179.22,12.89,206.42c-0.3,1.68-0.58,3.36-0.84,5.03c-0.08,0.19-0.15,0.37-0.22,0.54
		c-3.96,9.74-7.31,19.85-9.96,30.05c-0.98,3.75-3.57,13.71-0.18,25.05c2.25,7.53,6.19,12.58,8.08,15l1.68,2.15
		c5.2,37.94,19.06,74.05,40.42,105.34c0.68,2.21,1.42,4.1,2.05,5.64c4.82,11.64,12.24,22.19,21.47,30.51
		c1.89,1.7,3.87,3.31,5.85,4.9c1.32,1.06,3.14,2.52,3.68,3.12c0.58,0.63,1.08,1.33,1.61,2.01c1.92,2.46,4.54,5.84,8.16,9.2
		c7.88,7.31,16.38,10.83,22.58,13.39c0.99,0.41,1.99,0.82,2.96,1.25c3.14,1.38,6.62,3.26,10.29,5.26c3.92,2.13,7.98,4.32,12.51,6.43
		c8,3.71,15.56,6.13,23,7.33c24.65,8.88,50.46,13.37,76.79,13.37c72.05,0,140.31-34.72,184.47-93.36
		c7.32-4.03,12.44-9.23,15.98-12.83l14.08-14.32c0.23-0.24,0.55-0.56,0.89-0.9c3.26-0.45,7.9-1.26,12.91-3.4
		c18.82-8,30.1-28.43,28.73-52.05C499.52,308.79,498.37,303.18,497.45,298.67z"/>
	<path id="background_bottom" class="st1" d="M427.68,338.52c-0.07-1.9-0.14-3.8-0.21-5.7c-0.07-1.26-0.11-2.52-0.15-3.78l0,0
		c-1.26-0.81-2.65-1.81-4.22-3.04c1.85,1.46-9.42-29.32-8.53-26.51c-2.7-8.52-6.24-11.85-10.05-21.32
		c-6.21-15.46-13.39-30.8-22.04-45.06c-10.65,2.39-30.47-19.88-38.74-23.61c-19.31-8.71-42.18-25.79-44.06-29.17
		c-2.63-4.16-18.01-10.92-22.96-12.87c6.79-7.04-18.64-14.25-26.63-16.4c-2.2-0.58-6.68,1.53-8.11-1.5
		c-2.21-4.71-1.97-5.79,2.54-9.5c0,0,2.44-2.22,10.18-1.4c-3.18-5-3.96-8.09-3.05-9.76c-0.84-0.13-1.67-0.28-2.52-0.39
		c-4.28-0.54-31.14,0.3-32.48-0.49c-0.57-0.33-1.07-0.66-1.55-0.99c-2.56,3.53-6.75,7.02-9.78,8.01c0.5,6.01-4.46,4.6-4.3,15.23
		c0.16,10.7,3.38,22.47,1.97,33.71c-3.71,0.41-12.65-12.63-12.97-11.8c3.12,2.35,1.77,9,0.61,15.67c4.6,8.04,24.1,21.64,21.26,19.37
		c4.09,3.26,7.37,5.32,10.36,6.86c3.19-5.54,42.53-0.56,23.73,28.31c-12.74,19.57-22.04,3.56-41.26,5.69
		c-34.92,3.87-33.57-19.47-37.66-48.25c-4.12-11.57-8.45-74.19,18.97-69.81c0.96-3.42,2.72-6.87,0.45-10.33
		c-2.4-3.67-5.98-6.07-10.09-7.89c-4.4,14.9-95.89,32.21-108.57,36.71c-3.8,9.62-7.1,19.68-9.03,24.37
		c-5.24,12.76-6.84,16-9.37,29.17c0.12-0.63,0.24-1.24,0.36-1.83c-0.06,1.35-0.25,2.68-0.77,3.96c-3.28,7.66-6.64,15.3-9.92,22.96
		c-2.95,7.57-5.49,15.32-7.54,23.21c-0.62,2.38-1.2,4.92-0.49,7.27c0.49,1.64,1.56,3.02,2.6,4.36c1.91,2.44,3.82,4.89,5.73,7.33
		c0.49,0.62,0.99,1.25,1.51,1.87c0.14,1.4,0.31,2.79,0.48,4.19c0,0,0.01,0,0.01,0c3.96,34.02,15.74,65.54,33.48,92.56c0,0,0,0,0,0
		c0.09,0.13,0.18,0.27,0.27,0.4c0.54,0.82,1.07,1.65,1.62,2.46c0.03,0.03,0.06,0.06,0.09,0.09c1.17,1.73,2.36,3.46,3.59,5.15
		c0,0.06,0,0.11,0,0.17c0.18,2.23,0.91,4.37,1.76,6.43c3,7.26,7.61,13.8,13.36,18.98c3.84,3.46,8.18,6.32,11.68,10.15
		c2.77,3.03,4.97,6.61,7.97,9.4c4.78,4.43,11.13,6.45,17.03,9.04c8,3.51,15.45,8.26,23.38,11.94c5.6,2.6,11.58,4.64,17.65,5.25
		c4.79,1.81,9.67,3.4,14.63,4.82c-0.02,0-0.03,0-0.05,0c0.27,0.08,0.55,0.15,0.82,0.22c1.2,0.34,2.4,0.66,3.6,0.98
		c1.02,0.27,2.03,0.54,3.05,0.8c0.09,0.02,0.17,0.05,0.26,0.07c0.01,0,0.01,0,0.02,0c15.16,3.75,30.97,5.77,47.24,5.77
		c28.07,0,54.8-5.93,79.11-16.6c0.01,0,0.03,0.01,0.04,0.01c0.32-0.14,0.64-0.3,0.96-0.44c0.21-0.09,0.43-0.18,0.64-0.28
		c-0.01,0-0.01-0.01-0.02-0.01c33.96-15.26,63.12-39.81,84.42-70.6c17.24-20.6,19.21-27.74,19.21-27.74
		c-0.01-0.01-0.02-0.01-0.02-0.02C427.98,342.41,427.8,340.71,427.68,338.52z"/>
	<path id="background_top" class="st1" d="M410.26,131.24c0,0-0.01,0-0.01,0c0,0,0.01,0.01,0.01,0.01
		c-5.39,1.09-8.34-4.28-12.53-6.39c0,0-19.16-6.62-25.72-18.11c-9.86-5.96-22.36-29.64-27.62-38.3c-0.12-0.24-0.07-0.3,0.05-0.27
		c-29.89-17.93-64.56-28.25-101.6-28.25c-3.6,0-7.17,0.09-10.73,0.28c-3.36,0.19-11.62,0.85-14.55,1.35c0.02,0,0.04,0,0.07,0
		c-4.03,0.37-8.04,1.18-8.92,1.32c-1.55,0.27-3.1,0.6-4.64,0.91c0,0-6.3,1.31-10.2,2.27c-2.83,0.83-5,1.27-10.36,2.99
		c1.77,1.23,4.11,2.83,6.37,4.38l10.69,2.7c2.8,0.45,5.54,0.83,8.24,1.19c32.36-7.04,33.92,1.22,65.11,15.11
		c16.51,7.35,31.53,14.55,45.69,25.21c13.17,9.92,24.61,10.85,34.03,16.66c0.24-1.4,2.38-2.19,7.84-1.86
		c9.17,0.55,35.11,26.33,39.98,32c6.28,7.32,19.84,18.34,30.76,29.96C426.51,159.05,419.11,144.59,410.26,131.24z"/>
	<g id="twinsun_1_">
		<path id="cloud22" class="st2" d="M365.62,345.96c0,0-34.1,3.78-37.23,8.13c-7.39,15.02,14.57,4.7,17.07,18.63
			c-10.09,2.23-19.58,0.63-28.47-4.79c-6.59,8.08-1.12,16.51,4.51,24.01c8.64,11.52,21.57-5.94,27.66-11.65
			C354.29,375.49,368.94,356.18,365.62,345.96"/>
		<path id="land11_1_" class="st3" d="M194.52,299.88c-0.96-1.55-2.42-2.98-2.79-4.67c-1.19-5.37-1.04-4.62-6.97-4.71
			c-5.4-0.09-10.77-2.16-16.15-3.36c-1.01-2.86-2.02-5.72-3.03-8.58c2.04-2.35,2.89-5.17,2.99-8.27c3.42-7.44,8.28-8.89,14.25-3.21
			c5.27,5.01,12.63,8.7,11.89,18.04c3.12,3.11,2.99,6.95,2.28,10.93C196.54,297.58,195.71,298.86,194.52,299.88z"/>
		<path id="cloud21" class="st4" d="M345.61,373.56c-11.29,5.25-22.03,7.35-28.62-5.63C327.48,360.45,346.37,351.49,345.61,373.56
			C329.93,380.85,346.04,361.18,345.61,373.56z"/>
		<path id="water7" class="st1" d="M191.4,452.03c0.94,0.35,1.89,0.7,2.83,1.05C193.21,452.93,192.22,452.73,191.4,452.03
			c-1.19,0.07-2.38,0.14-3.56,0.21c17.49,5.09,35.93,7.84,55,7.84c28.7,0,56-6.19,80.76-17.31c-5.15-2.71-0.1-8.08-2.84-12.18
			c-8.52-12.73-14.94-26.88-22.6-40.21c-7.49-13.06-13.68-24-30.22-21.69c-3.57-0.66-7.07-0.58-10.41,1.1
			c-0.32,0.24-0.63,0.5-0.95,0.74c-2.64-1.84-5.28-3.68-7.92-5.52c-0.58-3.54-2.72-9.36-1.5-10.26c12.18-8.98,1.85-12.13-3.54-16.59
			c-2.13-1.76-4.31-3.44-6.47-5.16c-1.46-1.43-2.93-1.69-4.41-0.86c-2.05-2.96-5.41-3.48-8.47-4.59c-2.48-0.73-5.03-0.92-7.61-1.15
			c-1.55,0.03-3.03,0.22-4.59,0.56c-2.57-1.77,0.88-1.65,0.67-2.65c0.01-0.01,0.02-0.03,0.03-0.04c2.65,0.7,5.37,1.85,7.37-1.6
			c3.42-1.71,6.74-3.67,10.27-5.05c1.06-0.41,2.14-0.74,3.23-1.05c2.24,0.1,4.51-0.37,6.73-1.71c0.95-0.81,3.2-1.89,4.15-2.7
			c2.64-3.87,4.78-7.14,6.44-11.42c2.64-6.77-1.14-11.73-7.38-9.01c-12.05,5.27-21.21,0.33-29.54-7.04
			c-7.17-6.35-13.01-6.19-19.32,0.44c0.32,4.13,0.65,8.26,0.97,12.39c-0.44,0.77-0.83,1.56-1.16,2.38
			c-1.15,6.91-2.29,13.82-3.44,20.72c-4.6,3.89-13.41-0.09-15.33,8.83l-0.66-0.6c-2.11,0.62-4.27,1.02-6.41,1.51
			c-2.46,1.91-4.92,3.82-7.37,5.72c-0.82,0.09-1.67,0.23-2.54,0.45c-4.32,3.36-8.42,6.69-12.05-1.06c-1.27-2.71-3.58-4.41-6.23-5.5
			c-0.16-4.33-3.09-7.86-4.1-11.96c9.08-1.14,18.23-1.91,27.12-3.92c2.02-0.46,3.7-2.52,5.36-4.66c1.12-0.68,2.23-1.47,3.31-2.38
			c3.51-5.37,3.22-11.22,2.03-17.18c-1.26-4.24-3.13-8.13-5.67-11.66c4.4-0.93,4.22-3.64,0.03-7.92c-1.72,1.19-3.44,2.38-5.16,3.57
			c-1.27-0.57-2.62-0.96-4.05-1.18c-3.34-0.43-6.76-0.6-9.95,0.33c-15.55,4.53-27.92,2.11-35.56-14.75
			c-2.71-5.98-8.76-8.98-15.71-7.83c-7.05,1.17-14.28,0.36-21.28,2.19c-1.34,0.52-2.55,1.23-3.64,2.19
			c-0.18,0.17-0.34,0.38-0.5,0.58c-2.79,0.24-5.58,0.48-8.36,0.72c-0.17-0.64-0.4-1.23-0.8-1.7c-1.77-2.22-3.93-3.62-6.82-3.53
			c-9.69,4.64-9.15,16.65-15.44,23.73c4.01,35.52,16.53,68.35,35.46,96.19c1.08,1.14,2.16,2.27,3.27,3.39
			c1.38,0.17,2.84,0.1,4.13,0.54c18.92,6.42,23.08,4.18,28.03-15.18c0.55-1.1,1.2-0.88,2.19-0.12l0.09,0.04
			c3.91,5.32,8.37,9.29,15.6,8.12c5.58-1.03,11.26-0.68,16.87-1.25c15.01-1.51,21.32-7.78,23.04-23.04
			c1.52,2.12,3.04,4.23,4.56,6.35c2.92,3.36,5.91,3.38,8.94,0.94c0.41,0.39,0.85,0.69,1.34,0.91c-0.29,0.85-0.33,1.73-0.05,2.63
			c0.64,1.59,1.47,3.05,2.51,4.38c1.18,1.24,2.41,2.29,4.23,1.33c2.76,2.67,5.51,5.34,8.27,8.01c-0.38,0.1-0.76,0.18-1.16,0.37
			c-11.03,11.88-6.65,31.47-19.67,42.35c7.96,3.13,14.48,6.86,16.96,16.93c1.93,7.87,8.74,12.49,17.26,12.74
			c-2.46,1.93-4.92,3.86-7.38,5.78c-1.9-1-3.81-2.01-5.71-3.01c-2.33,0.38-4.66,0.76-7,1.14c2.01,0.5,4.03,1,6.04,1.5
			C201.56,454.31,193.65,449.47,191.4,452.03z"/>
		<path id="land11" class="st5" d="M195.09,417.78c-1.74-5.15-7.26-7.21-12.09-9.19c-2.87-1.23-3.52-6.5-5.27-9.16
			c-1.03-1.6-3.79,0.18-5.05-1.25c-4-3.24-7.13-7.47-11.18-10.66c-1.6-0.87-3.24-1.62-4.87-2.42c-1-0.6-1.99-1.2-3.02-1.73
			c-0.54-0.28-1.08-0.57-1.63-0.84c-1.01-1.48-2.01-2.96-3.02-4.44c-0.06,1.29-0.11,2.57-0.17,3.86c-0.02,0-0.04,0-0.06,0
			c-0.91,0.68-2.65-0.26-3.1,0.83c-0.46,1.7-1.42,1.97-3.26,1.56c-3.6-1.03-3.32,2.42-4.39,4.03c-0.56,3.17-0.33,5.72-3.03,2.72
			c-8.23-9.14-12.65-20.75-18.99-31.1c-1.14-0.92-2.2-1.5-3.58-1.56c-1.31,0.47-2.37,1.27-3.13,2.49
			c-2.27,10.43-8.35,14.46-18.52,12.35c-2.97-0.62-11.33-5.66-15.88-5.33c1.8,2.74,3.64,5.46,5.56,8.1c0,0.06,0,0.11,0,0.17
			c0.18,2.23,0.91,4.37,1.76,6.43c3,7.26,7.61,13.8,13.36,18.98c3.84,3.46,8.18,6.32,11.68,10.15c2.77,3.03,4.97,6.61,7.97,9.4
			c4.78,4.43,11.13,6.45,17.03,9.04c8,3.51,15.45,8.26,23.38,11.94c5.6,2.6,11.58,4.64,17.65,5.25c7.25,2.74,14.71,5.02,22.32,6.9
			c3.11-0.46,5.58-1.88,6.04-6.36c-0.24-1.4-0.72-2.54-2.08-3.01c0.59-1.16,1.16,0.16,1.63-0.05c2.12,1.4,4.28,3.08,7.07,3.21
			c4.9-0.14,8.47-1.61,7.34-7.85C207,434.47,198.77,428.68,195.09,417.78z"/>
		<path id="cloud20" class="st4" d="M448.66,219.43c-3.82-6.23-1.71-14.66-4.23-21.59c-1.39-3.83-4.15-6.96-7.44-9.28
			c-1.41-4.79-3.02-9.5-4.75-14.14c-10.93-11.63-24.5-22.66-30.78-29.98c-4.87-5.67-30.81-31.45-39.98-32
			c-22.92-1.38,12.29,16.8,3.58,18.69c-0.71,0.15,5.25,11.31-1.73,12.49c-9.34,1.58-6.81-14.85-9.39-16.81
			c-7.3-5.53-2.44-8.85-18.21-9.45c-19.74-0.75-12.98,6.47-11.52,14.28c0.36,1.96-36.54-12.05-38.82-14.64
			c15.29,9.86,48.83,6.83,27.3-9.97c-8.43-6.57-24.77-9.29-32.13-12.84c-13.3-6.42-18.8-17.28-30.59-25
			c-15.75-10.31-31.36-10.13-49.38-13.05c-4.03-0.65-51.77-15.79-44,2.74c3.47,8.29,20.38,1.54,24.7,11.12
			c6.17,13.7-32.28,12.82-38.62,13.47c-12.2,1.26-18.97-2.05-29.17-1.57c-6.76,0.32-30.81,11.24-29.13,11.54
			c6.74,0.7,12.87,6.98,18.3,1.56c-5.17,11.46,10.87,8.93,18.38,9.28c-7.06,3.21-15.33,5.83-6.62,15.83
			c-10.61,7.19-22.07,7.26-26.38-3.81c-11.84,9.38-21.34,17.07-20.23,32.24c16.18-5.75,162.27-32.63,87.7-48.42
			c6.03,0.6,90.39-5.69,102.17,5.62c-17.42,9.87-24.89,0.53-41.77,1.1c2.35,7.08-12.71,13.33,0.76,21.21
			c1.35,0.79,28.2-0.05,32.48,0.49c25.31,3.16,47.06,18.13,67.15,34.75c20.71,17.14,23.01,36.71,52.07,22.53
			c22.87-11.16,21.7-20.96,43.3,2.38c-48.32-15.13-18.01,45.27,2.82,57.2C440.71,260.4,447.78,241.5,448.66,219.43z"/>
		<path id="cloud19" class="st4" d="M167.08,199.85c-4.22-11.86-8.68-77.36,21.07-69.37c0.25,17.31,14.06,13.95,15.84-1.02
			c4.41,12.89-3.15,7.74-2.96,20.81c0.16,10.7,3.38,22.47,1.97,33.71c-3.71,0.41-12.65-12.63-12.97-11.8
			c5.47,4.12-2.79,21.47,0.28,28.93c1.74,4.23,10.12,6.92,12.27,9.81c10.52,14.11,14.26,20.82,31.94,27.73
			c1.9-5.5,0.2-8.77-5.11-9.8c0.11-4.35,7.54-0.12,5.3-6.18c-42.09-14.78,36.37-18.81,11.28,19.73
			c-12.74,19.57-22.04,3.56-41.26,5.69C169.82,251.98,171.16,228.63,167.08,199.85z"/>
		<path id="land10" class="st3" d="M85.03,226.41c-0.33-1.25-0.86-2.35-1.66-3.36c-0.15-1.47-2.16-1.06-2.3-1.87
			c0.15-1.07,0.16-2.13-0.01-3.18c-0.3-2.35-0.22-4.71,0.14-7.04c1.19-5.39,2.92-10.83-0.98-15.9c-2.5-1.64-5.05-1.92-7.71-0.39
			c-0.65,0.81-1.4,1.37-2.21,1.81c0.73-0.57,1.41-1.2,1.96-1.97c0.2-4.72,2.8-8.52,4.39-12.67c0.34-1.36,0.55-2.76,0.57-4.16
			c-0.31-5.03-1.19-9.87-7.16-10.55c-5.21-0.6-8.72,2.67-11.38,6.84c-3.04,4.76-3.44,11-7.67,15.14c-2.7,4.74-0.04,10.25-2,15.09
			c-3.28,7.66-6.64,15.3-9.92,22.96c-2.95,7.57-5.49,15.32-7.54,23.21c-0.62,2.38-1.2,4.92-0.49,7.27c0.49,1.64,1.56,3.02,2.6,4.36
			c1.91,2.44,3.82,4.89,5.73,7.33c0.49,0.62,0.99,1.25,1.51,1.87c0.14,1.4,0.31,2.79,0.48,4.19c1.87-0.68,3.91-1.24,4.68-2.59
			c3.92-6.88,7.2-14.16,10.72-21.3c1.77-3.9-0.03-7.71-0.27-11.56c-0.15-2.44-0.52-5.65,2.11-6.4c3.21-0.91,3.32,2.67,3.93,4.78
			c1.86,6.38,5.69,8.7,11.85,6.7C81.05,240.73,85.97,235.39,85.03,226.41z M63.99,198.54c-0.99,0.35-1.76,0.42-2.26,0.34
			c0.71-0.14,1.56-0.27,2.47-0.58c1.34-0.46,2.72-0.76,4.11-0.99C66.88,197.76,65.39,198.04,63.99,198.54z"/>
		<path id="cloud18" class="st6" d="M469.18,317.05c-0.47-8.14-3.34-15.99-3.68-24.14c-0.23-5.59,0.73-11.17,0.55-16.76
			c-0.18-5.81-1.59-11.5-3-17.13c-2.03-8.17-4.07-16.33-6.1-24.5c-0.78-3.12-1.59-6.32-3.37-8.95c-1.41-2.07-3.35-3.72-4.72-5.81
			c-2.08,4.93-20.31,34.39-22.16,31.68c1.64,5.52,22.96,12.72,28.07,13.07c-18.86,14.98,9.93,59.58,8.63,60.71
			c0.82-0.71,3.39-3.62,5.79-6.54C469.19,318.14,469.21,317.59,469.18,317.05z"/>
		<path id="cloud17" class="st7" d="M180.45,61.89c0.01,0,0.02,0,0.03,0C180.46,61.9,180.46,61.89,180.45,61.89
			c-10.45-1.86-22.25-10.1-33.11-8.46c-2.07,0.75-4.15,1.46-6.23,2.18c-13.5,7.78-0.85,20.66-22.14,20.09
			c3.97-4.67,7.86-8.95,7.28-15.18c-4.91,1.57-9.82,3.1-14.74,4.63c-6.67,2.07-13.35,4.15-19.96,6.42
			c-9.84,3.38-20.59,8.3-24.68,17.96c-1.22,6.52,2.69,13,0.66,22.49c-2.4,11.19-8.67,22.26-12.56,33.9
			c-8.22,24.55-6.91,35.81-5.94,58.27c2.79-15.02,4.26-17.87,9.78-31.3c3.85-9.36,13.17-40.05,20.93-46.07
			c7.95-6.17,21.85,1.87,31.48-3.49c12.7-7.07-6.84-12.23,12.28-17.67c-13.32-11.34-18.83-18.34-31.87-13.9
			c10.63-5.32,14.25-8.38,25.51-9.02c3.57,3.61,6.81,7.5,9.74,11.68c4.17-1.2,8.09-2.98,11.76-5.36c4.15-0.14,40.75-4.59,42.61-6.63
			C184.77,78.58,197.85,64.98,180.45,61.89z M179.92,61.8C178.7,61.58,179.06,61.65,179.92,61.8L179.92,61.8z"/>
		<path id="cloud16" class="st7" d="M266.39,104.66c-24.37-12.27-42.16-6.76-63.37-8.56c-20.14-1.7-39.56-11.13-58.33,3.83
			c11.34,9.29,33.48,7.07,41.81,19.78c3.81,5.81-3.78,11.62,0.24,17.27c5.13,7.21,12.52,12.47,17.07-1.64
			c6.02,0.03,21.87-17.12,8.1-16.78c22.24-8.06-0.32-0.77,6.08-10.97C247.04,121.92,260.22,101.55,266.39,104.66z"/>
		<path id="cloud15" class="st7" d="M433.55,288.26c-8.91,4.05,19.24,61.19-10.44,37.75c1.85,1.46-9.42-29.32-8.53-26.51
			c-2.7-8.52-6.24-11.85-10.05-21.32c-13.25-32.98-30.8-65.51-58.06-87.79c7.69-0.53,20.65-4.5,26.46-9.31
			c-0.81,0.67,17.36-17.5,11.88-16.6c5.44-0.89,31.52,20.07,36.93,26.34c-10.85,5.06-21.87-9.58-32.43,2.12
			c-7.25,8.03,9.22,30.98,14.93,37.11c22.57,24.18,49.37,19.47,31.61,54.08C435.86,284.12,435.55,287.35,433.55,288.26z"/>
		<path id="cloud14" class="st4" d="M196.53,358.25c13.11,5.96-3.75,54.3-17.57,52.31c-5.53-0.8-9.13-32.47,6.67-45.89
			c-11.91,9.13-41.77,33.52-55.4,15.47c-14.27-18.9,20.04-24.52,31.46-28.2c14.45-4.66,0.19-18.64,20.56-6.37
			C189.26,349.8,186.2,353.56,196.53,358.25z"/>
		<path id="land9" class="st8" d="M128.59,366.05c3.89,7.33,7.79,14.67,11.68,22c0.49,1.36,1.11,2.69,1.45,4.09
			c0.58,2.41,0.98,4.87,1.46,7.31c-2.46-0.38-6.1,0.18-7.2-1.29c-8.9-11.96-19.31-23.15-21.42-39.14
			C119.24,361.37,123.92,363.71,128.59,366.05z"/>
		<path id="land8" class="st8" d="M140.28,332.51c-1.93-4.76-3.86-9.51-5.8-14.27c4.22-5.42,10.38-3.9,15.86-4.72
			c7.5-1.12,15.27-1.27,21.19-7.31c-0.97-6.35-1.95-12.71-2.92-19.06c5.84-4.15,13.21-1.01,19.3-4.51c3.69-2.12,4.7,1.41,5.88,4.13
			c1.79,4.12,1.77,8.71,3.25,12.9c1.37,7.01,0.99,13.76-2.82,19.98c-3.76,5.32-10.21,6.43-14.97,10.2c-1.08,0.7-2.27,1.12-3.51,1.34
			c-2.37,0.1-4.75,0.25-6.91,1.49c-3.28,2.77-8.03,2.64-10.98,6.07c-0.64,4.11,0.5,9.22-6.33,9.1c-5.57-0.1-5.24-3.44-5.85-7.63
			C145.26,337.43,142.17,335.06,140.28,332.51z"/>
		<path id="land7" class="st8" d="M73.82,243.94c0.07,3.8,0.13,7.6,0.2,11.39l0.03-0.05c-3.55,3.11-7.3,3.73-11.32,0.97
			c-1.98-1.58-3.96-3.17-5.94-4.75c-1.85-4.94-5.52-10.1-4.99-14.75c0.47-4.08,5.64-7.59,8.74-11.35c1.58,2.93,4.58,5.93,4.45,8.78
			C64.66,241.28,67.26,244.19,73.82,243.94z"/>
		<path id="land6" class="st8" d="M286.92,314.88c1.55-4.96,3.11-9.92,4.66-14.87c7.09-3.71,10.15,0.91,12.68,6.61
			c0.19,2.09-0.61,3.82-1.91,5.31c-2.58,2.37-1.87,4.69,0.22,6.96c1.86,1.46,3.8,2.18,6,1.07c2.57-2.89-0.34-5.27-0.66-7.89
			c-0.06-0.68-0.09-1.33-0.13-2.01c0.31-1.41,0.91-2.63,1.77-3.75c4.89-5.22,10.2-8.31,17.09-3.78
			c4.49,6.16,11.41,11.49,13.27,19.12c-1.26,10.32-2.25,22.23-7.14,32.02c-1.37,1.14-2.84,1.28-4.4,0.44
			c-4.44-1.49-10.67-1.56-12.99-4.73c-9.47-12.9-24.14-14.8-36.84-20.86C276.8,321.85,276.8,321.85,286.92,314.88z"/>
		<path id="land5" class="st3" d="M339.73,279.16c-13.13-1.12-26.25-2.24-39.38-3.35c-0.33,0.98-0.66,1.96-0.99,2.94
			c-0.86,2.69-1.72,5.38-2.58,8.07c-1.82,0.37-3.65,1.12-5.46,1.06c-8.62-0.27-7.84,3.63-3.91,9.08c1.92,0.44,3.33,1.62,4.46,3.23
			l-0.28-0.19c3.97,3.2,7.93,6.41,11.9,9.61c-1.13,1.21-2.25,2.42-3.38,3.63c-1.47-1.11-2.94-2.21-4.42-3.32
			c0.17,1.64-0.06,3.47,0.59,4.87c0.96,2.05,2.54,3.78,3.86,5.65c1.77,7.52,6.89,3.25,10.78,3.3c6.28-4.6,5.81-7.32-2.03-11.75
			c0.38-1.17,0.76-2.34,1.13-3.51c5.32-1.9,10.64-3.79,15.96-5.69c0.74-0.11,1.49-0.21,2.23-0.33c1.38-0.66,2.57-1.59,3.53-2.82
			c2.51-3.94,5.58-6.21,2.57-10.16c0.4-0.09,1.11-1.95,1.5-2.05C340.53,286.75,342.63,285.91,339.73,279.16z"/>
		<path id="cloud13" class="st6" d="M370.41,138.54c-11-33.2-28.38-24.03-50.8-40.91c-14.17-10.66-29.18-17.86-45.69-25.21
			c-33.02-14.7-32.81-23.11-71.12-13.72c5.95,12.36,26.82,1.68,37.44,5.67c8.45,3.17,18.57,21.27,26.98,26.5
			c15.5,9.64,40.54,8.53,50.71,27.65c-11.86-1.03-26.01-3.94-38.02-2.4c4.08,9.96,43,20.43,52.99,18.69
			c-2.82-4.09-6.08-7.77-9.76-11.04c3.91-0.61,4.83-2.05,2.77-4.31c34.34-3.6,12.22,0.2,25.12,16.88
			C355.34,141.93,377.22,159.08,370.41,138.54C368.6,133.05,371.99,143.29,370.41,138.54z"/>
		<path id="cloud12" class="st6" d="M57.02,145.37c2.02-6.13,19.25-38.43,10.97-36.19c-0.07-0.04-0.41,0.07-1.18,0.46
			c-0.27,0.25-0.44,0.44-0.58,0.59c-15.93,15.81-27.17,51.98-25.3,79.63c0.81,5.02,1.98,9.97,3.57,14.79
			C48.02,184.01,50.27,165.79,57.02,145.37z"/>
		<path id="water6" class="st9" d="M427.68,338.52c-0.07-1.9-0.14-3.8-0.21-5.7c-0.31-5.84-0.15-11.76-1.13-17.47
			c-0.44-2.59-3.15-4.76-4.83-7.13c-1.26-6.68-2.53-13.35-3.79-20.03c-4.69-8.23-9.38-16.45-14.07-24.68
			c-1.65-4.57-2.56-9.67-5.18-13.53c-1.98-2.92-6.14-4.25-9.33-6.29c-2.03-3.82-4.07-7.64-6.1-11.47
			c-10.22,2.55-11.84-10.11-19.59-11.94c-0.93-0.23-1.86-0.46-2.79-0.69c-0.38-0.94-0.76-1.87-1.13-2.81
			c0.17-7.87-2.22-12.16-10.55-8.11c-2.83-1.32-5.65-2.65-8.48-3.97c-4.72-2.4-12.05-3.65-13.59-7.44
			c-2.7-6.63-7.86-9.17-12.26-13.18c-1.93-2.89-5.69-3.4-7.63-6.27c-1.23-0.18-2.45-0.35-3.68-0.53c-0.51-0.4-1.02-0.79-1.53-1.19
			c0.51-0.15,1.01-0.32,1.52-0.52c-0.04-1.3-0.08-2.6-0.12-3.9c-1.69,0.25-3.39,0.5-5.08,0.75c-0.08-0.11-0.18-0.21-0.26-0.33
			c-0.81-1.02-1.69-1.98-2.66-2.84c-2.16-1.26-4.4-0.18-6.6-0.27c-1.54-0.06-3.17,0.73-4.63-0.4c1.87-0.25,3.39-1.13,4.45-2.78
			c-0.77-1.84-1.08-4.71-2.38-5.33c-5.61-2.64-11.5-4.62-17.29-6.85c-0.58-0.48-1.19-0.86-1.82-1.18c0.5-0.1,1-0.26,1.51-0.48
			c1.43-0.8,2.86-1.6,4.29-2.4c-1.06-0.51-2.09-1.36-3.19-1.45c-2.14-0.17-4.32,0.06-6.48,0.13c-0.71,0.83-0.92,1.73-0.65,2.69
			c-0.36-0.08-0.72-0.17-1.08-0.25c-3.97-0.54-7.77-2.28-11.89-1.65c-1.2,0.39-2.24,1.04-3.14,1.93c0.18-0.33,0.41-0.62,0.54-1
			c-0.03-1.08-0.24-2.08-0.58-3.03c1.97,0.57,3.9,0.17,5.75-1.93c0.48-1.15,0.42-2.21-0.29-3.27c-1.39-0.26-1.82-1.24-0.75-1.88
			c0.19-0.11,0.32-0.2,0.42-0.28c-0.07,0.19-0.01,0.5,0.55,0.86c1.02,0.26,2.07,0.06,3.05-0.57c0.75-1.1,0.89-2.26,0.31-3.48
			c-0.53-1.57-1.05-3.15-1.58-4.72l0.35-0.45c-0.19-1.55-1.19-2.6-2.13-3.68c-14.27-13.22-22.55-13.08-31.79,0.56
			c-0.95-0.32-1.9-0.64-2.85-0.95c-7.71-3.33-9.99,2.88-12.91,7.95c-0.81,2-1.44,4.05-1.91,6.16c-0.58,4.26-3.42,7.5-4.68,11.45
			c-3.77,10.9,3.47,20.87,2.52,31.52c-0.12,2.26-0.02,4.51,0.54,6.71c1.98,5.57,5.55,9.24,11.31,10.36
			c4.75,0.18,10.92,4.14,13.94,0.18c1.91-8.69-7.08-19.88-9.09-27.26c-4.37-16.11,0.12-22.44,16.01-21.29
			c3.73,0.27,7.43,1.57,11.17,0.19c0.45-0.22,0.77-0.55,1.12-0.87c-2.85,4.34-1.06,8.66,0.64,13.01
			c4.28,10.99,13.26,15.8,22.98,20.78c26.48,13.55,57.62,17.73,78.25,43.52c5.67,7.09,8.19,11.17,4.68,20.22
			c-3.9,10.04-12.12,19.77-6.56,32.08c8.67,7.3,17.91,9.8,28.06,4.5c6.25,9.36,17.41,3.14,25.44,6.91c0.99,0.86,1.91,1.79,2.85,2.73
			c0.77,1.04,1.49,2.11,2.24,3.15c0.47,0.73,0.97,1.44,1.5,2.12c-0.79,4.07-1.26,11.55-1.97,12.56c-2.55,5.62-8.31,5.93-12.79,8.38
			c-8.78,4.78-15.71,18.53-11.54,25.71c5.7,9.81,14.73,10.85,24.4,5.69c1.95-0.01,3.89-0.03,5.84-0.04
			c2.89-3.14,9.56-6.71,12.83-9.89c0.05,0.15,0.09,0.31,0.14,0.46c1.19,0.22,3.54,0.36,4.73,0.58
			C428.01,342.58,427.8,340.83,427.68,338.52z"/>
		<path id="cloud11" class="st7" d="M183.55,370.84c13.13-2.14,5.63-24.96-9.32-17.47c-0.05,3.86-0.91,7.55-2.59,11.06
			c4.26,6.98,2.35,10.21-5.72,9.71c-3.8,5.6-24.44-10.13-11.52,11.96c10.61,14.77,20.04,22.38,30.12,6.94
			C188.18,387.43,172.97,372.56,183.55,370.84C188.68,370,174.98,372.24,183.55,370.84z"/>
		<path id="cloud10" class="st2" d="M180.12,243.46c8.32,1.85,5.83,2.91,12.74-7.29c6.83,14.68,11.42,4.79,24.41,12.54
			C210.6,260.68,177.4,263.54,180.12,243.46C182.38,243.96,178.77,253.41,180.12,243.46z"/>
		<path id="water5" class="st10" d="M407.99,372.15c-21.64,31.27-51.36,56.13-86.01,71.33c-1.33-0.24-2.67-0.55-3.64-0.87
			c-1.91-0.63-3.56-2.07-5.33-3.15c1.57-0.49,3.24-0.8,4.69-1.54c0.99-0.5,2.54-2.09,2.4-2.37c-0.76-1.45-2.36-3.93-3.01-3.73
			c-10.75,3.33-7.6-3.59-6.97-9.42c0.38-3.49,0.67-8.9-1.24-10.44c-10.19-8.18-14.73-20.15-20.36-31.22
			c-3.26-6.41-5.86-9.92-13.15-6.66c-1.61,0.72-4.28-1.12-6.47-1.78c-0.08-3.32,2.21-5.18,4.17-7.24c3.92-4.13,2.88-6.85-2.31-7.93
			c-10.37-2.15-11.87-8.05-6.95-16.91c3.55-5.59,7-11.31,13.85-13.15c12.3,0.07,23.03,5.14,32.44,12.64
			c6.03,4.8,12.16,9.16,18.94,12.62c1.56,1.76,1.99,3.85,1.63,6.16c-2.07,5.77-7.73,7.8-11.43,11.87
			c-6.81,11.31,1.05,17.32,7.41,23.86c4.42-9.5,14.99-10.4,21.89-16.43c0.18-0.09,0.32-0.24,0.5-0.34c-0.05-1.09-0.1-2.18-0.15-3.27
			c4.99-7.79,9.98-15.59,14.96-23.38c4.54-9.04,4.09-19.98,10.01-28.52c3.78-4.25,8.82-4.99,13.96-5.48
			c6.27,0.07,12.08-5.08,18.64-1.85c-0.13,6.03-3.42,8.55-8.91,8.94c-10.22,0.73-13.2,7.61-15.63,17.04
			c-2.24,8.69,2.06,10.75,7.61,12.11c3.57,0.87,7.39,0.63,11.18,0.56c0.95-0.42,1.89-0.91,2.82-1.53c1.58-0.39,3.06-0.37,4.38,0.34
			c1.63-4.63,5.53-6.98,9.4-9.38c2.01-0.87,4.09-1.14,6.25-0.81c1.4,0.39,2.61,1.12,3.64,2.18
			C427.2,344.42,425.23,351.56,407.99,372.15z"/>
		<path id="water4" class="st10" d="M285.42,316.76c4.73-3.31,8.63-7.18,8.74-13.68c-0.14-1.36-0.45-2.65-0.97-3.93
			c-0.54-1.15-1.06-2.26-1.69-3.37c-1.04-5.65,4.52-4.37,6.58-6.82c2.17-2.41,2.92-5.64,4.5-8.39c0.64-0.89,1.37-1.71,2.12-2.5
			c10.32,4.52,21.52,3.77,32.46,4.57c-1.21,1.64-2.42,3.28-3.63,4.91c-1.55,3.97-3.1,7.93-4.65,11.9c-0.64,1.36-1.49,2.54-2.74,3.36
			l-0.15-0.01c3.05,6.34,6.1,12.68,9.15,19.01c9.28,0.05,15.37-5.17,19.88-12.99c7.39-10.17,16.66-16,29.43-13.79
			c6.27-1.03,12.79,4.18,18.91-0.82c0.14-6.6-4.48-5.77-8.59-6.17c-6.67-0.65-13.31-1.64-19.97-2.49
			c-9.53-2.06-19.05-4.13-28.58-6.19c0.08-2.46-0.5-5.21,0.35-7.33c3.52-8.74,7.19-17.43,11.36-25.85
			c2.69-5.43,3.55-9.93-1.43-14.41c-6.59-5.93-12.64-12.56-19.52-18.09c-4.65-3.74-10.15-6.53-15.59-8.98
			c-7.16-3.23-14.78-5.36-21.95-8.59c-10.36-4.66-20.11-11.12-30.8-14.54c-15-4.8-20.77-15.62-22.72-30.23
			c-6.49-1-13.01-3-19.46-2.8c-12.74,0.39-16.65,4.18-14.43,17.13c1.82,10.6,7.29,20.52,11.14,30.73
			c1.95,10.14,12.33,10.35,17.85,16.29c5.62,0.97,12.11,4.39,13.86-5.38c3.47,3.97,5.88,10.21,12.57,7.26
			c-0.23,0.91-0.33,1.87-0.26,2.88c1.66,3.23,0.65,5.73-1.87,7.82c-1.25,4.22-3.01,8.26-4.21,12.5c0.55,4.25,0.13,8.74,2.85,12.44
			c6.71,3.71,13.43,7.4,16.33,15.47c0.48,1.33,1.9,3.06,0.97,3.92c-0.99,0.91-2.07-1.02-3.04-1.81
			c-6.34-5.16-12.17-10.79-15.38-18.73c-4.71-1.83-9.19-0.12-13.7,1.05c-6.83,2.15-12.81,7.75-20.78,5.52
			c-0.68-0.62-0.98-0.38-1.1-0.13c0.01-0.1,0.03-0.2,0.04-0.38c0.17-2.16,2.81-0.26,3.72-1.67c1.04-1.01,1.36-2.23,0.93-3.65
			c-3.87-4.62-8.67-4-13.61-2.51c-18.44,11.21-28.45,9.84-36.52-4.95c-3.79-5.95-3.31-13.27-5.89-19.6
			c-2.97-4.43-5.64-9.65-9.33-12.85c-11.93-10.33-20.71-25.44-37.8-28.37c-3.08-0.5-6.14-0.81-9.19,0.29
			c-1.23,0.14-1.23,2.49-2.39,1.85c-0.87-0.47,0.56-2.39-0.67-3.3c-4.67-3.02-8.57-1.2-12.2,2.2c-1.71,2.21-3.03,4.55-2.16,7.55
			c2.83,3.64,8.47,3.42,10.51,8.2c0.74,4.22-1.88,5.44-5.08,6.16c-5.2,1.18-9.52,4.12-13.61,7.48c-2.97,3.47-6.11,6.73-10.24,8.72
			c-0.45,0.48-0.9,0.95-1.36,1.42c2.32,9.47-3.89,15.33-8.58,21.82c-2.93,3.86-2.99,7.66,0.2,11.39c6.61,0,13.58,1.41,19.74-0.3
			c11.57-3.2,17.08,1.25,20.97,12.15c2.97,8.32,9.45,13.16,18.85,11.98c8.8-1.1,17.63-1.99,26.45-2.97c3.1-2.6,7.69-1.22,10.59-4.32
			c5.28-3.98,9.59-1.98,13.91,2.04c3.9,3.63,5.96,8.9,10.33,12.04c8.39-1.91,15.89-0.3,22.67,5.46c3.31,2.82,7.58,5.87,11.63,5.12
			c13.9-2.59,18.69,2.52,14.78,16.54c9.59-0.44,18.93-0.08,27.95,4.41C275.99,319.53,280.99,318.77,285.42,316.76z"/>
		<path id="cloud9" class="st4" d="M79.7,179.72c-6.67,6.06-2.2,2.42-10.36,16.02c2.78,3.41,6.41,3.42,10.89,0.01
			c-1.06,8.82-2.18,25.42,9.02,16.7c5.01-3.9,6.41-12.98,6.86-13.61c1.45-2.06,23.97-16.3,3.38-19.52
			C98.23,179.14,88.1,172.25,79.7,179.72z"/>
		<path id="cloud8" class="st6" d="M244.54,140.07c-4.51,3.71-4.76,4.79-2.54,9.5c1.42,3.03,5.91,0.92,8.11,1.5
			c7.98,2.16,33.42,9.36,26.63,16.4c4.96,1.95,20.33,8.7,22.96,12.87c1.88,3.38,24.75,20.46,44.06,29.17
			c8.91,4.02,31.23,29.57,41.05,22.61c-2.82-17.62-31.4-43.91-45.69-46.84c0-16-19.64-25.76-35.07-36.64
			c-4.19-2.96-67.96-39.27-49.32-9.97C246.98,137.85,244.54,140.07,244.54,140.07z"/>
		<path id="water3" class="st9" d="M191.57,119.13c-1.9-0.56-3.8-0.73-5.69-0.54c9.23-15.45-44.65-3.09-51.32,0.05
			c-7.91,3.73-13.95,10.85-21.87,13.65c-12.56,4.45-23.13-4.46-38.87,9.46c-10.01,8.85-25.62,35.62-21.71,49.18
			c4.16-8.87,10.18-16.96,18.71-21.19c5.17,14.99,3.05,17.28,8.08,11.77c1.27-1.39,9.84-1.85,16.92-9.71
			c7.73-8.58,22.21-29.28,38.54-32c-3.79,7.96-2.89,8.01,2.83,9.31c3.94-3.24,4.93-6.41,2.96-9.52c15.22,22.27-28.02,31.54-5.32,35
			c-15.39,8.96,1.11,10.34,8.03,17.43c4.89,5.01,25.58,29.76,30.95,30.61c6.01-5.22-7.62-47.12-3.58-59.78
			C172.02,157.23,194.58,120.84,191.57,119.13C189.7,118.95,192.56,119.69,191.57,119.13z"/>
		<path id="cloud7" class="st2" d="M138.31,142.03c-2.19,2.1-2.35-2.5-3.2-3.45c-9.75-10.33-20.63,9.15-33.48,25.1
			c-6.73,8.35-18.13,15.8-21.93,17.36c19.55,1.05,50.52,11.4,57.78-6.03c-3.35-4.04-14.88-6.74-19.38-3.9
			c4.09-11.24,15.73-11.77,18.82-22.96c1.62,3.25,2.04,6.71,1.24,10.39c9.69-5.76,16.73-14.48,2.46-19.22
			C139.51,138.8,138.52,141.56,138.31,142.03z M116.12,172.09C119.31,172.91,115.42,172.52,116.12,172.09
			C116.55,172.2,116.14,172.08,116.12,172.09z"/>
		<path id="cloud6" class="st2" d="M264.84,235.14c2.26-17.86,13.91-19.22-12.28-29.83c-10.57-4.28-44.73-1.52-50.56-16.97
			c-0.73-1.11-4.35-20.71-11.77-26.49c-11.22,31.23,15.46,45.91,38.39,54.91c6.94,2.72,16.64-5.96,21.15,8.88
			c2,6.6-3.96,12.42-7.03,17.3c-5.22,8.3-9.66,8.17-20.6,11.18c15.45,6.83,22.57,0.07,40.86-4.32
			c4.22,17.31,18.71,38.73,22.84,27.54c4.45-12.05-13.01-31-19.87-31.47C265.28,244.83,263.9,241.49,264.84,235.14z"/>
		<path id="cloud5" class="st2" d="M115.44,192.83c-27.24-11.37-23.94,5.24-23.05,7.13c3.06,5.23-8.67,18.22-8.04,13.04
			c1.33-10.93-13.25,9.32-1.95,9.12c9.6-0.17,36.85-12.79,36.05-24.47C118.2,194,117.82,192.31,115.44,192.83z"/>
		<path id="cloud4" class="st2" d="M407.35,303.15c0.14-28.17-45.97-17.98-52.33,5.67c36.52-15.2,17.53-2.6,20.29,15.55
			c10.94-3.01,28.77-2.73,31.09-14.74C406.42,306.49,407.19,303.98,407.35,303.15z"/>
		<path id="cloud3" class="st7" d="M188.43,183.01c-4.15-2.46-6.39,3.16-5.58,12.71c0.61,7.27,17.85,17.4,22.5,21.58
			c6.87,6.19,8,20.59,20.89,22.68c16.72,2.7,6.08-7.66,10.46-10.07c2.26-1.24,2.5-0.31,4.07-0.72c2.33-1.28,1.67-3.16,4-4.44
			c-14.27-9.06-19.04-6.46-32.87-17.51c3.12,2.49-20.61-14.09-22.14-21.52C189.76,185.73,189.86,183.86,188.43,183.01z"/>
		<path id="cloud2" class="st4" d="M139.18,147.69c-12.06-2.35-24.16,19.55-27.82,28.95c10.88-2.22,34.5-11.52,34.92-24.8
			C136.6,163.18,143.92,148.62,139.18,147.69C138.37,147.53,142.04,148.25,139.18,147.69z"/>
		<path id="land4" class="st3" d="M288.3,314.57c-1.51,2.05-4.53,4.31-5.85,6.48c-1.45,2.38-2.61,4.96-3.89,7.45
			c-4.18,4.38-8.35,8.77-12.53,13.15c-2.63-5.22-5.26-10.43-7.88-15.65c-3.02-1.42-2.18,0.55-1.76,2.15
			c0.74,1.72,1.78,3.37,2.14,5.17c0.42,2.08,0.23,4.28,0.3,6.43c-1.41-1.14-2.8-2.32-4.24-3.43c-2.85-2.19-5.72-4.34-8.58-6.51
			c-6.47,1.7-12.85,0.49-19.24-0.65c-2.81-1.02-5.31-2.5-7.09-5.06c0.99-12.04,11-8.46,17.53-10.94c1.95-0.71,3.93-1.15,6-0.76
			c2.82-1.35,5.54-2.99,8.47-3.95c2.8-0.92,7.18-2.66,8.52-1.39C268,314.52,278.94,313.73,288.3,314.57z"/>
		<path id="land3" class="st8" d="M215.33,328.7c2.58-0.04,5.08-0.08,7.66-0.12c2.87,1.46,5.74,2.91,8.61,4.37
			c1.75,0.01,3.5,0.03,5.24,0.04c7.35,8.62,11.86,18.11,8.85,30.06c-0.19,0.75,0.77,1.75,1.31,2.56c2.73,3.53,5.93,6.07,10.61,5.64
			c3.76,0.35,7.53,0.7,11.29,1.05c3.24-1.9,6.92-3.3,9.59-5.84c2.19-2.09,4.8-5.99,4.22-8.25c-0.59-2.29-4.78-3.77-7.6-5.15
			c-1.1-0.54-2.77,0.34-4.16,0.25c-9.18-0.61-9.18-0.63-4.94-11.65c3.19-7.59,0-12.37-6.47-15.7c-0.59-0.02-0.78-0.04-1.27,0.16
			c-0.01,0.01-0.07,0.01-0.15-0.11c-1.07-1.55-1.86-3.52-3.28-4.53c-1.41-0.99-3.45-1-5.22-1.44c0.18,1.76-0.26,4.2,0.68,5.12
			c1.49,1.46,3.81,2.02,5.83,2.91c-3.05,10.12-7.36-3.91-10.69,0.27c-0.89,0.17-1.76,0.35-2.61,0.59
			c-5.49-1.57-10.97-3.14-16.46-4.7l-0.19-0.04c-2.09-0.52-3.98-1-6.07-1.52c-2.73,0.46-5.46,0.93-8.19,1.39l-0.02-0.02
			c-1.85,1.24-4.5,1.98-3.04,5.28c2.13-0.2,4.25-0.4,6.38-0.6L215.33,328.7z"/>
		<path id="cloud1" class="st6" d="M375.31,324.37c-6.44,30.03-13.42,26.56-42.48,28.39c1.67-22.41,5.92-48.91,33.48-52.02
			C390.5,298.02,379.15,307.64,375.31,324.37C374.23,329.41,376.5,319.2,375.31,324.37z"/>
		<path id="land2" class="st8" d="M77.58,196.41c-0.37,0.29-3.58,6.75-4,6.83c-4.87,0.98-13.02-2.89-17.9-2.01
			c-0.12,0.02-0.36-0.62-0.54-0.96c4.73-1.51,9.47-3.02,14.2-4.53C70.04,196.36,76.88,195.79,77.58,196.41z"/>
		<path id="water2" class="st9" d="M193.87,46.06c-2.83,0.83-5,1.27-10.36,2.99c3.1,2.15,7.92,5.42,11.01,7.58
			c1.07,0.76,2.13,1.54,3.17,2.35c1.7-0.09,3.4-0.18,5.1-0.27c3.72,0.79,7.73,2.17,11.23,0.71c18.31-7.63,32.71,1.26,47.42,10.82
			c14.56,9.47,34.26,9.32,45.25,25.72c5.43,5.21,13.13,4.65,19.23,8.16c2.6,1.39,4.89,3.19,6.92,5.35c0.83,0.84,1.72,1.6,2.71,2.23
			c2.06,1.24,4.2,2.28,6.59,2.61c1.21,0.06,2.42,0.01,3.62-0.18c6.25-2.83,28.07,11.61,42.2,22.12c7.5,9.91,17.82,16.94,24.54,28.03
			c4.22,6.97,12.85,11.06,19.51,16.44c-7.42-22.99-24.23-38.01-41.62-52.44c-1.19-0.98-3.27-0.8-5.22-0.78
			c-14.2-30.39-58.52-68.21-87.21-70.06c-0.51,0.2-1.01,0.35-1.52,0.52c-9.27-4.25-18.54-8.5-27.8-12.75
			c-0.75,0.41-1.5,0.42-2.26,0.04c-1.99-0.15-3.98-0.3-5.98-0.46c-0.65-0.95-1.28-1.94-1.9-2.98c-11.67-4.52-23.43,1.38-35.12-0.32
			c-4.88-0.54-13.33,1.19-14.65,1.4c-1.55,0.27-3.1,0.6-4.64,0.91C204.07,43.79,197.76,45.1,193.87,46.06z"/>
		<path id="water_1" class="st2" d="M432,180.72c1.01,0.54,2.02,1.08,3.02,1.61c-6.28-19.11-15.13-37-26.15-53.19
			c-3.46-2.12-6.59-5.07-11.15-4.28c-1.93-0.95-3.85-1.91-5.78-2.86c-1.28-2.26-4.06-1.7-5.7-3.26l0.01,0.01
			c-0.92-1.36-2.05-2.42-3.69-2.73c-1.61-1.11-3.22-2.21-4.83-3.32c-0.97-1.04-1.92-2.09-3.07-2.91c-0.89-1.01-1.78-2.02-2.67-3.02
			c-5.8-8.34-4.33-20.96-14.57-26.7c-3.37-3.12-6.51-6.7-9.82-9.96c-30.59-19.13-66.44-30.17-104.79-30.17
			c-3.6,0-7.17,0.09-10.73,0.28c-3.36,0.19-11.62,0.85-14.55,1.35c7.16,0.43,20.14,0.65,27.28,1.25c4.23,0.35,8.43,1.15,12.64,1.75
			c2.14,1.76,4.53,2.93,7.29,3.2c1.31,0.2,2.6,0.39,3.92,0.48c10.26,1.5,17.65,11.69,28.89,10.25c13.41,5.74,26.9,11.29,40.17,17.35
			c3.76,1.72,8.15,4.21,10.06,7.65c5.77,10.4,10.45,21.45,15.56,32.25c-1.17,3.12,0.42,4.74,2.95,5.84
			c5.75,1.95,11.5,3.91,17.26,5.86C403.47,141.53,417.98,160.88,432,180.72z"/>
		<path id="land1" class="st7" d="M410.28,131.24c-17.03-25.67-41.48-48.73-65.58-62.93c-0.28-0.18-0.51-0.25-0.32,0.15
			c5.26,8.66,17.76,32.34,27.62,38.3c6.57,11.5,25.72,18.11,25.72,18.11C401.91,126.97,404.9,132.32,410.28,131.24z"/>
	</g>
</g>
</svg>
