<?xml version="1.0" encoding="utf-8"?>
<!-- Generator: Adobe Illustrator 19.0.0, SVG Export Plug-In . SVG Version: 6.00 Build 0)  -->
<svg version="1.1" id="undergas_icon" xmlns="http://www.w3.org/2000/svg" xmlns:xlink="http://www.w3.org/1999/xlink" x="0px"
	 y="0px" viewBox="0 0 500 500" style="enable-background:new 0 0 500 500;" xml:space="preserve" width="160px" height="160px">
<style type="text/css">
	.st0{fill:#FFFFFF;}
	.st1{fill:#150B0B;}
	.st2{fill:#FDF264;}
	.st3{fill:#F6750B;}
	.st4{fill:#A32A0B;}
</style>
<g id="group_3_">
	<path id="lining_3_" class="st0" d="M243.8,485.8c-7.6,0-14.6-2.7-20.3-7.6c-0.7,0.3-1.4,0.5-2.2,0.7c-6.6,2-26.3,8-44.9-7.3
		c-7.8-0.3-14.5-2.6-20-5.5c-2.1,2-4.5,3.7-7.2,4.7c-5.5,2.2-11.6,1.9-16.9-0.7c-9.5-4.1-13.1-11.1-14.6-16.2c-1-3.8-2-7.6-2.9-11.5
		c-10.9,3-19.1-0.3-23.4-2.8c-8.5-5.1-14-14.2-15.4-25.6c-0.8-6.2-0.9-12-1.1-17.7c-2.2,0.2-4.3,0.4-6.5,0.5
		c-15.6,1-23.5-8.3-27.5-16.2c-1.1-2.2-2.9-4.8-4.9-7.8c-1.2-1.8-2.5-3.6-3.7-5.5c-5.1-7.9-5.2-18.3-0.2-26.3
		c2.4-3.7,5.6-6.6,9.3-8.3c-0.4-2.8-0.6-5.6-0.6-8.3c-3.9-2.1-6.8-4.5-8.4-5.9c-2.1-0.8-4.9-2.2-7.7-4.6c-4.7-3.5-8.2-8.5-10-14.4
		c-0.6-2.1-1-4.2-1-6.4c-1.8-1.8-3.9-3.9-5.9-6.7c-3.4-3.7-5.6-8.4-6.3-13.6c-0.4-1.3-0.8-2.7-1.1-4.3C-1.8,255,2.7,246.7,7,242
		c2.5-2.7,6.2-5.6,11.4-7.1c1.9-4.8,5.2-8.9,9.6-11.5c0.5-0.4,1.2-0.8,2-1.3c1.8-7.1,4.8-12.6,7.6-17.3c1.4-2.3,2.8-5.6,4.2-9.1
		c1.4-3.3,2.8-6.7,4.3-9.9c3.2-6.5,6.6-12.9,10-19.3l3.5-6.5c0.8-1.5,1.7-3,2.6-4.4c0.4-0.7,0.8-1.3,1.2-2c1.9-5.6,2.3-7.9,2.2-8.7
		c-1.7-2.1-8.6-12.4-2.5-25.5c1-4.7,2.7-9,4-11.9c2.8-10.7,11-21,27-22.2c8.7-0.7,16.1,1.5,21.5,3.1C121,81,127.8,76.9,132.4,74
		c1.4-0.8,2.8-1.6,4.1-2.6c2.3-1.8,4.8-3.5,7.3-5.1c1.9-1.3,3.9-2.5,4.8-3.4c12.7-12.3,25.5-13,34-11.4c5.9,1.1,10.5,0.2,15-2.9
		c3-2.2,6.5-3.6,10.1-4.1c4.4-0.7,8.8-4.6,15.5-10.9c2.2-2.1,4.5-4.2,6.8-6.2c2.8-2.4,11.2-9.8,23-7c3.5,0.8,7.8,2.6,11.8,6.7
		c1.2-0.2,2.4-0.4,3.7-0.5c3.3-6.6,9.5-11.2,16.6-12.1c3.8-0.5,12.3-0.6,19.8,6.7c0.1,0.1,0.3,0.1,0.4,0.2c0.5,0.1,1.1,0.3,1.7,0.5
		l2.7,0.6c4.6,1,9.2,1.9,13.8,3.1c8.4,2.1,12.7,8.2,14.3,10.5c2,2.6,3.5,5.7,4.3,9c0,0.1,0,0.1,0.1,0.2l0,0.1
		c2.2,4.1,3.2,8.8,2.9,13.5c7.4,2.2,13.5,7.9,16.4,15.8c0.3,0.6,0.6,1.4,0.9,2.3c7-1.5,18.6-2.7,30.3,4.7
		c10.3,6.5,15.7,16.8,15.1,27.8c0.5,1.2,0.9,2.3,1.2,3.2c3.2,0.1,6.8,0.4,10.5,1.3c3.3,0.7,13,2.8,19,12.5c3.7,6,5,13.4,3.5,20.7
		c-0.3,1.3-0.6,2.6-1,3.8c1.4,0.7,2.7,1.3,4,2c9.4,4.7,13.7,14,15.5,18.8c3.6,0.8,13.1,3,18.5,13.1c1.8,3.4,2.8,7.2,3,11.1
		c1,1.6,2,3.4,2.8,5.5c1.1,2.9,2.5,5.7,3.9,8.5c1.6,3.3,3.2,6.6,4.7,10c1.2,2.8,2.2,6.5,2,10.9c3,5.8,4.5,13.1,4.5,21.8
		c0,3.3-0.7,6.5-1.9,9.4c1.5,7.2,0.9,14.6-1.8,21.8c0.4,20.1-11.2,28.2-18.3,31.3c-4.2,1.8-8.7,2.5-13.2,2c-1.4-0.2-2.8-0.5-4.2-0.9
		c-0.1,0.4-0.1,0.8-0.2,1.2c-1.2,10.4-5.8,17.3-10.8,21.8c1.6,12.7-3.1,22.9-14.7,33.7c-6.9,6.5-10.3,10.3-11.2,14.6
		c-2.3,10.9-10.2,17.1-14.7,19.8c-0.2,0.1-0.3,0.2-0.4,0.3c-2.2,14.4-10.7,24.9-25.4,31c-4.9,2.1-10,4.6-15.2,7.3
		c-3.6,1.9-4,3-4.3,3.6c-6.7,17.8-22.2,26.5-39.2,22.1c-1,0.8-2.2,1.7-3.7,2.5c-10.7,6.2-22,5.8-31.3-0.5
		c-8.8,4.6-17.6,6.5-25.1,8.1c-3.6,0.8-7,1.5-9.9,2.4C251,485.2,247.3,485.8,243.8,485.8z"/>
	<g id="undergas_1_">
		<path id="ground_1_" class="st1" d="M96.7,388.3c0.3,7.5,0.2,15.1,1.1,22.6c1.1,8.7,6.9,11.4,14.8,7.6c2.4-1.1,4.9-2.7,7.3-2.6
			c4.9,0.3,14.2,10.9,15.3,16.2c1,5.1,2.2,10.1,3.6,15.1c0.2,0.8,1.8,1.1,2.8,1.7c0.3-0.9,1-1.9,0.9-2.7c-0.2-3.2-1.1-6.3-0.9-9.5
			c0.1-2.7,1.4-5.3,2.1-8c2.1,1.2,4.3,2.3,6.2,3.8c2.2,1.6,4.2,3.6,6.3,5.4c6.6,5.7,13.3,10.6,22.6,10.3c3.5-0.1,7.6,1.9,10.4,4.4
			c8.1,7,16.9,6.6,26.1,3.8c2.9-0.9,5.7-2.5,8.6-3.5c4.3-1.5,8.2-1.9,10.8,3.4c3,6.1,8,7.2,13.7,5.4c12.7-4,26.6-3.9,37.8-13.2
			c4.1-3.4,8.4-2.5,12,2.2c3.8,5,7.5,5.6,12.3,2.8c1.3-0.8,2.5-2.1,3.6-2.9c6.2-4.3,14.6-2.1,14.6-2.1c7.2,2.3,12.1-1,14.7-7.8
			c2.9-7.8,8.4-12.5,15.1-15.9c5.5-2.8,11-5.6,16.7-8c6.4-2.7,11.3-6.1,12-14.4c0.6-7.2,5.3-11.9,11.1-15.4c1.7-1,3.7-2.8,4.1-4.6
			c2.5-11.9,10.1-19.5,18.2-27.1c8.6-8,9.4-10.7,4.8-21.8c-1.9-4.7-1.5-6.5,2.7-8.1c5-1.9,9.8-4.1,10.6-11c0.5-4.7,1.9-9.2,2.8-13.8
			c0.3-1.3,0.7-3.4,0.1-4c-4-3.9-1.1-6.3,1.2-9c2.7-3.1,10.1-1.6,8.2-9.3c0.8-0.2,1.8-0.7,2.4-0.4c3.1,1.4,6,3.3,9.2,4.5
			c4.7,1.7,6.9,4.1,4.1,9.4c-0.3,0.5,0.2,2.1,0.4,2.2c0.9,0.1,1.8-0.1,2.7-0.4c7.2-3.1,3.6-10,4.7-15.2c3.3-5.8,3.5-11.5-0.3-17.1
			c-0.4-1.7-0.9-3.3-1.3-5c0.9-2.2,1-4.3-0.5-6.3c0,0-0.1-0.3-0.2-0.5c0.1,0.2,0.2,0.4,0.3,0.5c1.5,1.6,3.3,2.9,5.6,2.6
			c0-6.2-1-10.3-3.2-12.2c0,0-4.2-3.2-3.4-6.3c0.3-1.1,2.5-3.4,2.1-4.4c-2.7-6.4-6.2-12.5-8.8-19c-1.6-4-6.7-6.3-4.7-12.3
			c1-3-2.2-3.3-4.5-3.9c-7.3-1.8-12.9-5.6-15.3-13.8c-0.7-2.5-2.5-5.6-4.6-6.6c-6.6-3.3-13.4-6.4-20.5-8.4c-4.4-1.3-4.4-4.3-5.1-7.6
			c-0.8-3.4,0.4-5.3,3.6-6.1c1.1-0.3,2.5-0.6,3-1.5c1.6-2.5,3.5-5.2,4-8.1c0.9-4.7-3.8-5.1-6-5.6c-4.4-1.1-9.1-0.7-13.7-0.6
			c-2.7,0-6.7,1.9-7.7,0.7c-2-2.5-2.3-6.4-3.2-9.8c-0.3-1.2-0.4-2.4-0.6-3.6c-1.2-1.9-1.1-4.5-2.9-6.1c-0.7-0.8-1.4-1.5-2.2-2.3
			c0.2-0.8,0.3-1.7,0.2-2.5c2.4-4.8,1.4-7.9-3.2-10.8c-6-3.8-12-2.8-17.9-1.1c-14.2,4-18.9,1-21.4-14.5c-0.1-0.8-0.6-1.5-0.9-2.2
			c-0.4-1.8-1.5-2.8-3.3-2.6c-3.7-0.4-7.5-0.9-11.2-1.1l-4-11.9c0.1-0.3,0.2-0.5,0.3-0.8c-0.1,0-0.2-0.1-0.3-0.1
			c0.6-2.3-0.3-8.6,0.5-10.2c-0.7-0.7-1.8-4.5-2.7-5.9c0.1-0.1,0.2-0.2,0.3-0.2c-0.8-0.9-1.4-2.3-2.3-2.5
			c-5.8-1.4-11.6-2.6-17.5-3.8c-1.6-0.8-3.6-0.5-5.1-1.9c-0.7-0.2-1.4-0.2-2.1-0.1c-1.5-0.4-2.3-1.4-2.9-2.8c-0.8-1.2-1.8-2.2-3.4-2
			c-1,3.5-1.1,8.4-3.3,10.2c-2.6,2.1-7.1,1.4-10.8,1.9c-0.8,0.1-1.5,0.1-2.3,0.1c-4.5-0.3-6.8,1.8-7.7,6.7c-1.8,9.8-2.7,10.3-12,9.3
			c-0.9-0.1-1.6-1-2.4-1.5c0.9-0.4,1.8-0.8,2.8-1.2c1.1-0.4,2.2-0.7,3.2-1.3c5.3-2.7,5.8-5,1.9-10c-1.6-2-4.6-3.1-5.6-5.2
			c-2.3-4.9-4.2-4.1-7.6-1.2c-10.2,8.8-19,20-33.1,22.1c-0.4,0.1-0.7,0.3-1,0.5c-9.4,6.6-19.7,8.5-30.7,6.4
			c-6.1-1.1-11,1.2-15.6,5.7c-4.1,4-9.4,6.5-13.9,10c-7,5.5-16.4,8-19.7,18.4c-1.2,3.8-8.8,5.1-13.5,4.1c-6.9-1.5-13.4-4.7-20.8-4.2
			c-4.7,0.4-7.2,1.9-7.7,6.8c0,0-3.5,6.9-3.9,12.3c-0.5,0.9-1.7,2.4-1.4,2.7c7.9,10.4,5,21.3,1.2,32.1c-1.1,3.3-3.3,6.1-5,9.2
			c-4.4,8.4-9,16.6-13.2,25.1c-3.4,6.9-5.7,14.4-9.6,20.9c-2.9,4.7-4.9,8.9-5.6,14.6c-0.5,4-1.1,9.9-7.7,9.5
			c-1.3-0.1-2.8,1.4-4.2,2.1c1.5,0.9,3,2.2,4.6,2.6c2.2,0.5,4.6,0,6.8,0.5c2.6,0.5,5.4,13.5,3.4,15.4c-0.4,0.4-2.1-0.8-2.8-0.5
			c-4.1,2.2-6.8-1.8-10.3-2.5c-4.1-0.8-8.3-1.2-12.4-1.9c-5.3-0.9-6.8,0.8-5.7,6.7c0.3,1.5,1,2.9,1.5,4.4c-0.2,0-0.2,0.3-0.2,0.9
			c0,0.5,0.3,1,0.9,1.3l-0.2-0.2c4.2,7.2,14.4,10.8,11.9,22.1l-0.3-0.1c0.4,1.3,1.3,2.2,2.4,2.8c1.2,1.6,3.2,1.4,4.6,2.4l-0.2-0.2
			c4.8,3,8.5,9.3,15.5,6.5c5-2.5,7.1,0.5,7.1,0.5c-0.1,1.5-0.9,4-1.1,5.5c-1.5,11.4-3.6,22.9,5.6,32.3c4.7,1.8,7.4-5.5,12.3-2.9
			c1.5,0.3,3.1,0.6,4.7,0.7c1.4,0,2.8,0.1,4.1,0.2c-2.7,8.9-5.9,20.4-9.6,21.2c-5.8,0.3-11.1-0.6-16.4-3.7
			c-4.1-2.3-9.3-2.5-14.4-3.7c3.8,5.8,7.3,10.4,9.9,15.6c1.7,3.5,3.3,4.1,6.9,3.9c8.5-0.5,17-2.2,25.5-0.1
			C106.5,376.7,96.7,388.3,96.7,388.3 M117.5,156.4c0,0.3,0.1,0.6,0.1,1c-0.3-0.4-0.7-0.8-1-1.2
			C117.1,156.3,117.5,156.3,117.5,156.4z M303.2,357c-2.9-1.5-5.7-0.5-7.2,1.8c-5.5,7.9-14,9.6-21.9,12.4c-19.2,6.8-39,5.9-57.3-1.4
			c-10.7-4.3-20.7-7.3-31.9-6.8c-5.6,5-0.6,7.4,2.1,10.5c2.3,2.6,6.8,5.2,4,8.9c-3,3.9-6.5-0.3-8.6-2.7c-7.3-8.5-16.5-13.2-26.3-17
			c-12.9-5-20.9-16.2-29.6-26.5c-2.6-3.2-3.7-7.5-1.5-11.4c2.2-4,5.5-1.2,8.3-0.5c3.1,0.8,6.1,1.1,8.8-1.2c3.1-10.1-6.6-16.9-6-26.3
			c-0.2-2-0.6-3.7-1.2-5.1c0.2-3.9-0.1-7.7-3.5-11c-0.8-0.8-1-3.7-0.4-4.2c4.1-3.7,1.8-5.8-0.5-9.5c-2.1-3.3-2.2-8.3-2.2-12.5
			c0-3.5,1.3-7.1,2.1-10.6c-0.7-1.8-2-2.7-3.8-2.4c0-0.9,0-1.8-0.3-2.7c-9.5-7.7-7.5-17.5-4.7-27.6c3.9-14.1,3.9-14.1,13.2-4.1
			c0.8,0.9,2.1,0.7,3.2,0.3c4.1-2.9,6.2-7,6.5-12.1c2.1,2.8,3,6,5.1-0.9c1.8-5.9,5.6-11.1,9-16.5c0,0,0.1,0,0.1,0
			c1.7-0.5,3.3-1.3,4.6-2.7c1.4-1.8,2.4-3.9,3.6-5.9c1.5-4.9,6.4-7.2,7.9-12.1c-0.2-3.2-2.4-6-1.4-9.3c0.6-2.2,17.3-15.5,19.5-15.7
			c2-0.2,2.7,1,2.7,2.8c0.1,2.8,0,5.7,2.9,7.3c4.9,1.1,9.3,0.2,13.4-2.8c3.5-1.7,4.1-1.4,5.6-2.1c1.2-0.5,5,0.4,4,1
			c-0.9,0.6-1.1,0.2-2.6,0.6c-2.3,1.2-2.7-0.9-5,0.3c-5.5,3-2.6,5,0.9,6.8c12,2.3,24.4-0.8,36.4,2c3,0.7,6,0.8,9,0.2
			c2.1-0.8,4.1-1.3,6.2-1.9c5.3,1,10.6,2.3,15.4,1.2c8.2-2,13.6,0.3,18.6,6.5c1.5,1.8,3,2.2,4.4,0.9c0.1,0,0.1,0.1,0.2,0.1
			c1,0.3,2.1,0.5,3.2,0.5c3.8-0.1,6.3-2.7,8.8-5.3c3.4-3.6,7.2-3.4,10.1,0.1c7.3,8.4,17.9,13.1,22.8,23.9c2.4,5.4,7.8,8.4,9.7,14.2
			c-6-1.7-11.4-4.9-16.8-8c-4.8-2.8-9.6-8-15.3-1.7c-0.9,3.6,0.5,6.7,2.9,8.6c7.8,6.2,9.6,14.9,10,24.4c0.6,2.3,1.4,4.5,2.4,6.7
			c0,1.2,0,2.5-0.1,3.7c-0.4,5.9-3.5,9.1-9.6,10.3c-1.2,3.6-1.8,8.3,2.4,8.8c0,4.3-2.1,8.9,2.2,12.5c1.1,0.9,1.6,2.5,2.2,4
			c-0.2,0.3-0.5,0.5-0.6,0.8c-1.5,4,0.4,6.8,2.7,9.5c6.9,6.9,13.6,13.2,3.4,23.6c-3.8,3.9,0,8,4.4,10c2-0.1,3.7-1,5.6-1.5
			c3.1-0.7,6.7-4.4,9.4-0.4c2.4,3.5-0.7,7-2.5,10c-3.7,6.1-9.5,10.7-11.8,18c-4.8,15.8-17.3,25.7-26.5,38.1
			c-1.9,2.6-4.8,3.9-7.9,4.8c-9.2,2.7-11.3,1-11.2-8.9C305,359.6,304.3,358.2,303.2,357z"/>
		<path id="yellow_core_1_" class="st2" d="M349.7,300.4c1.6,1.9-1.7,8.9-2.2,11.2c-4.4,20.5-25.1,48.1-40.5,49.6
			c-1.6,0.2-2.9-0.7-4.2-1.7c-5.1,0.3-5.1,0.3-6.9,3.4c-1.2,1.9-2.2,4.8-3.8,5.4c-18.3,6.2-36.2,14.9-56.2,8.5
			c-2.5-0.8-5.5-0.9-7.9-0.1c-7.5,2.5-14-1.5-18.3-6.1c-3.3-3.4-6-3.8-9.5-3.8c-6,0-12,0.4-17.6-2.7c-0.5,0-0.9,0-1.4,0
			c-1.3,1.3-2.6,0.9-4,0.2c-13.8-12.2-24.4-27.6-36-42c-2-5-3.8-10-5.9-14.9c-1.3-3.1-2.6-6.1-1.3-9.5c-3.1-10.8-4.5-22-8.1-32.6
			c-2.6-7.3-0.4-14.2,1.6-21.1c2.1-5.1,1.2-10.6,2.4-15.8c2-7.1,3.1-14.5,6.7-21.1c0.7-4.6,7.2-6.4,5.2-12.2c1.3,0.3,5.2-3,5.9-4.7
			c2.7-6.2,6-11.8,12-15.1c0.7-1,1.5-2,2.2-2.9c1.7-0.3,0.9-3.7,3.4-3.1c0.5-1,1.7-2.7,1.5-2.9c-3.7-3.7-2.5-5.1,2-5.7
			c1.7-0.2,3.3-1.7,4.9-2.6c7.4-7.3,15.9-12.5,25.2-16.5c3.9-1,7.9-1.9,11.8-2.9c4.5-1.9,8.9-3.3,13.2,0.3c-4,0.6-7.9,1.2-11.9,1.8
			c0.2,1,0.4,2.1,0.5,3.1c13.1,2.2,26.3-0.7,39.4,1.6c3.2,0,6.4,0,9.6,0.1c15.4-1.9,31-4.8,43.9,8.2c0.8-0.2,1.5-0.1,2.2,0.5
			c7.7,7,17.7,11.7,20.6,23.5c-0.8,4.4,2.2,6.7,4.9,8.6c7.5,5.5,10.5,12.9,9.1,22.4c-0.2,1.1,0.1,2.4,0.2,3.6
			c1.6,8.4,4.5,17.2-5.9,22c-5.2,1.3-4.6,3.7-1,6.6c0.6,6.2,5.5,11.2,4.6,17.8c-0.9,4.3,2.1,5.7,4.7,7.4c1.1,4.5,1.5,7.8-4.7,8
			C339.9,274.1,356,285.1,349.7,300.4z"/>
		<path id="orange_core_1_" class="st3" d="M353.5,281.1c-3-5-6-10-8.9-15.1c-1.3,7.3,0.1,4.5-5.8,4.9c-2.3,0.1-10.8,1.9-12.1,1.6
			c-0.9-0.2-3.2-41.1-4.9-45c-18,14.5,3.9,38.3-10.2,50.9c-10.4,9.3-35,3.6-31.1-14.2c1.6-7.3,15.1-8.9,17.8-15.8
			c2.6-6.9-1.4-17.1-3.7-23.8c-3.3-9.3-8.6-22.2-14.1-30.1c-1-1.5-16.9-16.5-16.9-14.2c0-5.6,10.6-10.8,15.5-9.5
			c9.5,2.4,5.3,11.4,9.4,17.7c2.8,4.4,10.8,6.9,12.3,10.9c1.9,5-7.9,14.3-6.4,16.5c3.7,5.3,23.1-3.2,24.3-7.7
			c0.3-0.9-4-11.7-4.2-13.1c-0.7-5.1,1.4-11,0.4-16.9c-8.4,11-10.7,11.2-20.9,1.8c6.7-1.9,9.2-1.3,15.2-2c-4.1-5.6-8.1-6.3-12-13.6
			c-3.9,8.1-40.2,2.3-49.3,1.2c-12.7-1.5-22.9-8-23.4,7.3c-0.2,5.7,7.3,11.3,2.7,16.8c-2.1,2.6-18.5-3.4-20.6-4.3
			c-0.3-0.1-17.9-9.3-15-10.2c-6.9,2.2,0.7,1.4-2.5,9.2c-8.3,20.6-2.4,8.4,7.7,17.7c3.3,3,3.1,9.6,6.8,13.3
			c4.2,4.2,12.7,6.4,18.2,7.7c9.8,2.3,31.2,0.4,18.9,17.9c-3.7,5.3-3.9-1.2-6.7,0.2c-8.1,4-15.8,7.8-25.6,8
			c8.4,10,11.6,9.3,0.8,19.4c-7.8,7.3-18.3,9.8-26.3,2c15.2-15.6-7.2,2.3-8.3-11.8c-1.1-14.3,23.5-2.9,13-20.6
			c0.6,1-14.7-8.1-13.6-8.4c-4.4,1.2-3.6,11.1-7,12.3c-10.9,3.8,5.3-30.4,5.6-36.2c-3.2,0-10.4,4.7-12.3,2
			c-4.2-6.2,29.8-15.1,12.7-31.5c-8.9,11.9-28.7,33.6-29.2,49.2c-0.2,7.2,4.6,1.2,4.8,7.6c0.2,6.1,0.1,11-0.1,16.4
			c0,1.2-5.5,21.7-3.9,23c13.2,10.4,13.3-12.4,15.3-16c4.6,3.4,16.2,14,15.6,19.6c-1.2,11.3-9.3,2-6.3,13.7
			c-0.9-3.7,7.4,6.4,6.7,5.3c2.3,3.6,5.7,11.5,3.7,16.1c-8.1,18.7-11.7-5.5-12.7-12.4c-7.6,6.6-17.9,11.8-12.3,22.7
			c2.6,5.1,9.7,8.4,14.9,9.1c4.5,0.6,9.4-3.7,13.3-2.9c18.1,3.6,22.5,56.8,50,32.9c-3.4-3.8-4.7-4.7-7.6-7.6
			c14.1-7.8,23.6,31.2,26.6,10.3c3.8-27.2-53.4-8.1-42.5-26.9c4.5-7.8,16.3,0.2,20.7-5c5.6-6.5-1.6-16.8,8.6-22.3
			c5.2-2.8,26,3.5,26.9,10c2.4,16.2-21.4,9.9-26.5,17c2.9,2.2,27.6-0.2,19.2,8.6c2.5,2.2,25.2,3.7,29,2.3c5.7-2.1,6-6.2,10.2-8.8
			c5.2-3.2,11.8-2.7,15.5-8.1c3.4-5.1-8.3-7.3,0.1-14.9c2-1.8,16.6-1.3,20.2-2.3c-4,1.1,15.6-9.7,13.2-5.8c4.5-7.4-2.1-8.1-0.2-14.8
			C347.5,287.4,358.2,288.5,353.5,281.1C350.4,276.2,355.3,284,353.5,281.1z M231.9,208.5c-2.6,14.8-18.8,6.7-5.6-12.6
			C233.1,203.5,233.1,201.3,231.9,208.5C231.3,212.1,232.2,206.7,231.9,208.5z M220.6,318.1c-4.7,20.8-29.6-20.8-30.4-18.3
			c1.8-5.4,8.9,1.9,11.5-2.5c3.3-5.7-1-12.8,4.9-16.5C223.7,270.1,222.4,310.1,220.6,318.1C220,320.8,221.7,313,220.6,318.1z
			 M291,238.5c4.3,9.2-12.5,25.7-17.1,13C271.5,244.8,287.8,231.8,291,238.5C293.6,244.3,290.5,237.5,291,238.5z M248.1,188.9
			c4.6-4.1,16.7,2.1,20.5,4.8c11.4,8.2,7.8-1.1,3.1,15.7c-1.2,4.3-8.6,13.2,1.4,13.7c8.6,0.4,3.5-8.1,9-11.8
			c22.2,25.7-30,37.8-31.7,4.6c-0.1-1.1,11.3-6.5,11.8-6.8C254.6,207.8,233.8,201.9,248.1,188.9z M260.3,284.5
			c-13.1,27.5-30.8,0.2-14.7-8.8c6.5-3.7-9.3-4-7.6-3.1c-3.6-1.8-9.1,4.6-9.4-3.9c-0.6-14,22.9-18,30.5-15.1
			c-1.1,1.3-14.1,15.4-15.3,13.4C247.8,273.6,268.8,266.7,260.3,284.5C257.9,289.4,264.3,276.2,260.3,284.5z M337.3,296.6
			c-5.4,3.6-11.8,6.8-18.2,7.9c-3.9,0.7-15.7-2.5-17.3-1.7c-13,6.2,2.1,18.7-16,16.9c-8.6-0.9-23.3-9-23.7-19.3
			c-0.1-3.4,8.1-23.1,13-21.5c7.4,2.4,1.6,12.4,8.1,16.4c1.3,0.8,22.9-7.4,26.1-8.5c10.1-3.3,12.2-5.3,21-2
			C332.7,285.7,350.3,287.8,337.3,296.6C328.2,302.8,339.4,295.2,337.3,296.6z"/>
		<path id="lava18_1_" class="st3" d="M158.9,429c-0.6-0.3-1.1-0.5-1.7-0.6c-1.4-1.8-2.9-3.5-4.9-4.6l-0.1-0.2
			c-0.2-1.3-0.9-2.1-2.2-2.2l-0.2-0.2c-12.6-15-30.4-22.1-45.2-33.8c-3-2.3-7.2-3-6.8-8.4c-0.2-0.9-0.5-1.8-0.7-2.7
			c-1.1-2.5-2.7-4.5-4.8-6.1c-0.7-0.8-1.3-1.8-1.8-2.8c-2.4-6.1-7.3-10.3-10.4-15.8c-3-5.4-4.2-10.4,1.2-15c1.5,0.2,3,0.4,4.4,0.6
			c7.5,5,14.4,10.5,19.2,18.7c4.4,7.5,11.1,11.6,18.9,14.9c13.1,5.6,25.3,13.3,34.5,25c6.6,8.4,15.6,12.7,24.2,17.8
			c0.7,0,1.4,0.3,2,0.6c2.2,0.6,3.6,2.5,5.3,4c1.4,0.1,2.9,0.2,4.3,0.2c6.5,7.9,5.5,13.8-2.9,17.4C179,441.1,168.8,435.8,158.9,429z
			"/>
		<path id="lava17_1_" class="st4" d="M97.8,379.2c0.8,1.3,1.4,3.5,2.4,3.7c13,2.4,20.3,15.3,32.6,19.6c6.6,2.3,11.5,9.9,17.1,15.3
			c0.5,0.5,0,2.3-0.1,3.5c-8.7-6.9-20.4-7.5-28.2-16.6c-2.1-2.4-7-2.8-10.6-3c-5.2-0.3-8.7-1.4-9.4-7.9c-0.2-2-3.5-3.5-5.4-5.3
			C96.7,385.4,97.3,382.3,97.8,379.2z"/>
		<path id="lava16_1_" class="st4" d="M74.1,283.6c1.5,4.2,3.4,8.2,4.3,12.5c0.3,1.7-1.2,5-2.7,5.8c-3.6,1.8-7.6,2.6-11.5,3.7
			c-1.3,0.2-2.6,0.5-3.8,0.7c-1.6-0.1-2.4-0.9-2.2-2.6c-2.1-11.2-2.2-14.3,0.4-20.1c0.6-1.4,2.7-1.9,4.1-2.9c0.9,0.7,1.7,1.6,2,2.7
			C67.7,294.1,70.9,289.6,74.1,283.6z"/>
		<path id="lava15_1_" class="st4" d="M439,245.6c-0.8-1.9-1.6-3.9-2.3-5.8c-6.1-4.6-9.4-10.9-9.5-18.9c0-7.7-4.2-15.7,2.1-23
			c3.3-3.9,2.5-8-1.7-11.4c-3.3-2.7-5.9-6.9-9.5-8.5c-6.2-2.9-10.4-8-15.1-12.6c-3.5-3.4-7.5-6.3-11.4-9.3
			c-2.5-8.7-8.7-18.1-12.8-25.2c-1.7,5.2-3.3,10.4-5.1,15.4c-0.3,0.8-1.8,1.2-2.7,1.7c-1,0.5-2,0.9-3,1.4c1,0.5,1.9,1.1,2.9,1.4
			c5.8,1.4,13,5.3,19.2,7.3c-3.4,16.2,0.5,25,12.5,27.9c16.6,4,20.5,13.7,10.8,29c-3.9,6.2-3.2,9.8,1.3,14.6
			c5.5,5.9,9.8,13,8.6,21.8c-1.5,10.5,1.5,20.1,4.3,29.8c7.8-6.3,10.4-12.8,7.3-22.3C432.9,252.8,433.9,248.7,439,245.6z"/>
		<path id="lava14_1_" class="st4" d="M277.1,411.6c0.9-4.4-1.6-5.9-5.3-5.4c-3.7,0.5-7.5,0.9-11.2,1.6c-4.8,1-9.5,2.9-14.3,3.2
			c-4.5,0.3-6.3,1.9-5.7,6.5c0.7,5.1-1.9,6.5-6.1,6.1c-2.3-0.2-4.6-0.3-6.8-0.6c-11.2-1.5-22.4-3-33.7-4.5c4.5,10.7,3.8,12.2-6,14.8
			c-2.2,0.6-4.2,2-6.4,2.2c-2.5,0.1-6.2,0.3-7.5-1.3c-4.3-5.1-10-4.1-15.2-5.2c2.6,7,7.8,10.6,14.5,11.6c7.4,1.1,14.8,1.9,22.2,2.3
			c2.3,0.1,5-1.4,6.9-2.9c3-2.5,4.4-1.7,6.1,1.5c0.5,1,2.5,1.1,3.8,1.6c1.8,4,5.8,5,9.3,4.6c5.5-0.7,11-1.6,16.5-2.3
			c-1.9-0.8-3.8-2.3-5.7-2.3c-6.2-0.2-13.1-0.9-19.4-0.9c4.5-8,10.4-10.5,18.9-5.3c3.7,2.2,8.6,2.8,12.1,0.1
			c8-6.1,17.5-5.1,26.3-7.2c4-1,8.5,0,11.6-4C279.2,421.5,275.9,417.6,277.1,411.6z"/>
		<path id="lava13_1_" class="st3" d="M390.6,155.3c0.7,6.7,1.5,13.5,1.9,20.2c0.3,4.4,2.2,6.6,6.3,7.1c4.1,0.6,8.1,2,12.2,2
			c4.4,0,7.2,1.7,8.6,5.9c1.1,3.5,4.8,6.6,1.2,11.1c-1.2,1.5-0.3,4.7-0.5,7.1c-0.2,1.9-0.3,4.3-1.3,5.7c-2.1,3-4.9,5.6-7.3,8.3
			c2.9,2.5,7.1,4.5,8.5,7.8c3.2,7.5,10,14.1,5.7,24.3c-1.5,3.7-0.1,9.7,1.7,13.7c2.1,4.7,1.4,8.4-0.1,12.6c-0.1,0.7-0.3,1.3-0.4,2
			c-2.5,3.9-3.8,8-2.7,12.7c0.1,3.2,0.1,6.3,0.2,9.5c-1,6.5-6.3,8.7-10.4,12c-6.5,5.2-10.4,10.7-4,19.1c4.4,5.8,1.9,10.8-3.2,14.2
			c-4.4,2.9-7.9,6.2-9.2,11.6c-0.9,3.1-1.9,6.2-2.8,9.3c-13.2,15-36.6,14.3-47.9-1.2c-3.3-4.5-0.4-7.4,2.1-10.5
			c0.5-0.3,1.1-0.5,1.7-0.6c2.4-1.3,5-1.7,7.6-2c7.9-0.8,10.3-2.8,11.3-10c2.6-12,6.5-23.4,13.8-33.2c4.5-6.1,6.8-12.3,3-20.2
			c-2.2-4.6-0.2-6.9,4.8-8c7.5-1.6,8.1-2.3,8.2-10.2c0-5.6-0.6-11.1,1.8-16.7c1-2.3-1.2-6.9-3.1-9.6c-3-4.3-5.3-7.8-0.7-12.7
			c1.2-1.3,1.8-4.8,1-6.4c-4.6-9.2-8.5-18.5-11.4-28.6c-2.2-7.7-8.8-13.8-13.3-20.8c-2.5-3.9-4.7-8.1-6.8-12.3
			c-1.2-2.5-1.2-6.3-3-7.8c-10.6-8.9-17.3-21.4-27.2-31c-3-2.9-6.1-5.6-9.1-8.5c3.9-10.6,7.6-12.1,18.9-7.8c2.2,0.5,4.9,0.2,6.5,1.5
			c3.8,2.9,6.6,8.5,12.6,3.8c0.5-0.4,2.5,1.1,3.6,2.1c3.3,3.2,6.4,6.5,9.6,9.8c2.4,7.1-1,12.4-4.8,17.5c-0.7,1-2.7,1.7-4.1,0.1
			c0.6,1.6,1.9,0.9,3,1C379.3,149.7,386,148.6,390.6,155.3L390.6,155.3z"/>
		<path id="lava12_1_" class="st3" d="M212.6,443.1c0.1-2.4-0.3-5,0.3-7.3c1.7-6.4,6.4-8.5,12.2-5.8c3.1,1.5,6,3.6,9.2,4.7
			c4.3,1.4,8.7,2.8,11.7-3.2c0.8-1.6,3.7-2.8,5.7-3c10.1-1.1,20.3-1.9,30.5-2.8c1.4,0.2,2.7,0.4,4.1,0.7c2.6,2,5.6,1.6,8.6,1.9
			c6.1,0.6,8.8,3.8,6.1,10.5c-7.5,2.6-14.9,5.2-22.4,7.7c-1.2,0.4-2.7,0.2-4,0.1c-7.1-0.9-14-2.5-20.7,3c-1.8,1.5-6.3-0.3-9.4-1.1
			c-2.1-0.5-4.1-2-6.1-3C230,441.2,220.8,448.5,212.6,443.1L212.6,443.1z"/>
		<path id="lava11_1_" class="st4" d="M164.5,395.6c-10.7-9.7-21.6-19.2-32.6-28.5c-8.6-7.3-18.1-13.6-25.8-21.9
			c-6.1-6.5-12.3-9.1-20.4-7.8c-3.4-3.1-10.3-3.1-12.6-0.3c-1.4,1.7-2.6,3.5-3.9,5.3c3.8,6.4,7.7,12.8,11.5,19.2
			c3.9,2.6,7.8,5.3,11.8,7.9c1.6-5.8-2.4-8.7-5.4-12.2c-4.6-5.4-4.2-9.8-0.9-17.5c0.2,0.8,0.5,1.6,1,1.9
			c8.9,5.9,14.9,14.4,20.1,23.9c1,1.8,3.5,2.8,5.4,3.7c9.9,4.5,20.6,7.6,28.6,16c0.8,0.8,2.1,1,3.1,1.5c4.8,2.6,8.2,6.4,11.7,10.9
			c6.7,8.5,14.4,16.7,26.4,16.1C176.5,407.7,170.8,401.3,164.5,395.6z"/>
		<path id="lava10_1_" class="st4" d="M397.7,362.4c-1.7-5.2,0.7-8.6,4.3-11.5c2.1-1.7,4.5-3,6.5-4.8c2.4-2,3.5-4.4,0.7-7.1
			c-0.6-0.6-1.1-1.1-1.6-1.8c-1.8-2.5-5.6-5.6-5.1-7.4c1.1-4.4,3.6-8.8,6.7-12c4.6-4.7,10.1-8.4,15.3-12.5
			c4.3,8.3,3.9,12.3-2.9,14.5c-6.8,2.1-5.8,5.5-3.8,10.6c3,7.7,4.7,15.5-3.2,21.5c-1.2,0.9-2.7,2.6-3.7,2.4
			C404.3,353.2,402.1,359.7,397.7,362.4z"/>
		<path id="lava9_1_" class="st4" d="M111.2,135.5c0.1,2.8,0.5,5.7,0.1,8.4c-0.7,4.7-1.8,9-7.9,9.7c-2.7,0.3-5,3.9-7.5,5.9
			c1.1,1,2.2,2,3.3,3c-1.7,8.5-4.6,16.6-5.2,25.5c-0.4,4.7-5.8,9-9.3,13.2c-0.7,0.8-3.2,0.9-4.2,0.2c-0.9-0.7-1.7-3.1-1.3-4.2
			c1.9-5,1.5-10.4,4.9-15.3c3.4-4.9,4.9-11.7,6.3-17.8c1.4-6.5,2.3-12.8,10.1-14c1-0.2,2.1-1.2,2.7-2.2c1.1-2,1.8-4.3,2.6-6.4
			c-1.9-0.2-3.7-0.3-5.6-0.8c-1.6-0.4-3.2-1.2-4.8-1.9c0-1.9,0.9-3.1,2.5-3.8c3.5-0.4,7,0.5,10.5-0.2
			C109.3,134.8,110.3,135,111.2,135.5z"/>
		<path id="lava8_1_" class="st4" d="M74.2,240.9c0,3.8,0.7,6.3-0.2,7.7c-1.2,2.1-3.4,4.2-5.5,5c-0.9,0.3-3.8-2.5-4.3-4.4
			c-2.4-9.8-6.7-19.9,0.7-29.5c0.5-0.6,1.4-1.2,2.2-1.2c0.5,0,1.4,0.9,1.6,1.6C70.7,227.6,72.6,235.1,74.2,240.9z"/>
		<path id="lava7_1_" class="st3" d="M324.7,99.7c-1.5-1.2-3.1-2.5-5-3c-12.8-3.5-25.1-10.7-39-7.3c-3.3,0.8-5.9-0.8-8.8-1.8
			c-15-5.4-30.1-9.6-45.4-1c-2.8,1.6-6.4,2.3-8.9,1c-12.5-6.2-23.7,1.8-35.4,3.2c-0.6,0.2-1.2,0.4-1.7,0.6
			c-6.5,6.6-13.9,10.9-23,11.7c-7,0.6-13.2,3.2-18.8,7.8c-6.2,10-14.1,17.1-26.1,17.6c-1.2,0-2.4,2.3-3.6,3.6
			c-0.7,1.7-0.9,3.5-0.7,5.3c1.7,8.5-2.7,12.6-9.4,15.7c-3,1.4-6,4.3-4.1,8.7c0.9,2.1,2.8,2.5,4.5,0.4c3.3-1.4,6.6-2.8,9.8-4.3
			c1.6-0.7,7.1,1.5,8.7,0.8c1.1-2.6-0.9-4.1,0.9-4.1c10.3,0,15.9,10.3,24.9,13.1c3.2-2,6.5-3.9,9.5-6.1c4.7-3.5,4.6-3.6-0.4-8.7
			c-1.8-5-7.4-7-9.2-14.3c6.3,5.4,11.7,9.9,18.4,4.4l0.1,0c1-5.5,5.2-7.5,9.2-9.7l0.1-0.1c0.8-0.8,1.6-1.7,2.8-2
			c0.5-0.1,1.1-0.4,1.6-0.6c1-0.6,1.8-1.4,2.5-2.2l0.1-0.1c3.9-5.6,3.5-16.1,14.1-14.4c5.9-3.6,11.6-7.3,18.9-7.9
			c6.7-0.6,13.5-2.4,19.9-4.8c7.6-2.9,15-5.9,23.2-4.6c1.8,2.8,3.3,6,5.5,8.3c1.9,2,0.1,11.7,7.2,4.5c0.5,0.9,1.3,1.7,1.4,2.7
			c0.4,2.3,1.4,4.5,2.8,1.3c4.6-10.5,12.5-13,22.3-11.8c3,0.9,5.9,1.7,8.9,2.6c5.6,2.6,11,5.7,16.8,7.8c3.6,1.3,7.2,1.1,8.9-2.9
			C329.6,105.3,327.7,102.1,324.7,99.7z"/>
		<path id="lava6_1_" class="st3" d="M74.1,283.6c0,2.4,0.4,4.9,0,7.3c-0.3,1.6-1.4,3.9-2.7,4.3c-2.4,0.8-5.5,1.1-6.4-2.9
			c-0.8-3.9-1.6-7.7-2.3-11.6c0-0.7,0.1-1.3,0.4-2c1-1.4,0.3-3.6,2.1-4.5C70.5,274.8,73.1,278.3,74.1,283.6z"/>
		<path id="lava5_1_" class="st4" d="M387,375.8c-4.4-2.9-6.1,0.6-8.8,2.4c-5.4,3.5-10.8,5.6-16.2-0.5c-2.5-2.9-5.7-6.4-8.9-7
			c-7.4-1.4-5.8-5.4-4.2-9.7c6.4-0.2,15.4-1.9,20.6,2.1c1.1,0.9,2.8,1.4,4.2,1.3c1.6-0.2,3.1-1.2,4.7-1.9c-0.9-1.1-1.6-2.4-2.6-3.2
			c-3.8-3-6.9-6.3-6-11.9c-3.5,3.1-6.3,7-11.5,7.7c-2.3,0.3-7.1,3.5-9.9,5.3c-3.5,1.1-4.1,4.3-4.1,7.8c0,5.3,0,10.6,0,15.9
			c0,4.9-2.3,7.6-7,7.6c-2.7,0-5.3-0.4-8-0.7c-7.2-0.6-14.3-1.9-21.5-1.8c-7.2,0.1-9.5,6.2-5.4,12.7c1.9,3,4.8,5.6,5.7,8.9
			c2.7,9.9,6.7,18.1,16.8,21c2,5.4,5.1,2.8,8.2,1.4c6.7-3.1,9.7-9.7,13.9-15.4c3.1-4.3,5.9-10,12.5-9.1c8.2,1.2,12.6-4.4,14-11.2
			c1.4-6.4,5.1-8.8,9.7-10.6c6.9-2.6,11.4-7,11.9-15.1C392.2,373.2,388.3,376.7,387,375.8z"/>
		<path id="lava4_1_" class="st4" d="M178.1,128.4c-1-5.8,1.3-10.7,4-15.5c3.1-5.4,3.4-5.5,8.3-0.1c0.5,0.5,1.2,0.9,1.8,1.3
			C187.5,118.8,182.8,123.6,178.1,128.4z"/>
		<path id="lava3_1_" class="st4" d="M171.1,133.4c-8.1,0.6-9.3,1.9-10.1,9.8c-5.8,0.2-11.6,0.7-14.2-7.2c-0.4-1.1-4.1-2.1-5.5-1.3
			c-3.1,1.7-4,5.4-1.6,8.1c3.6,4.2,7.3,8.6,12.9,10.2c2.8-3.4,8.4-3.9,9.1-9.7C164.7,140.3,168.2,136.4,171.1,133.4z"/>
		<path id="lava2_1_" class="st4" d="M345,109.4c-13-7.6-24.1-19.6-40.1-20.4c-1.1-0.1-2.3-0.3-3.3-0.7c-6-2.5-11.7-5.1-18.5-2.2
			c-1.9,0.8-5.8-1.3-7.9-3.3c-3.6-3.4-7.4-4.9-12.1-4.6c-4.5,0.3-9.1,1-13.6,0.7c-7.7-0.4-15,0.9-22.4,3.4
			c-4.6,1.5-10.3,2.9-14.4,1.2c-11.6-4.8-20.1,2-29.2,6.7c0,0,0,0,0,0c-4.1,1.6-11.2,4.8-15.4,6.2c-8.1,2.6-16.2,5.8-24.5,7.1
			c-5.3,0.9-4.4,4.2-4.9,7.5c1.5,0,3.4,0.7,4.5,0c6.2-3.5,12.8-4,19.5-5.3c7-1.4,17.8-5.5,20.5-14.7c6.9,0.8,13.6,1.1,20.1-2.9
			c1.9-1.1,5.7-1.3,7.2,0c6.9,6,14.1,4.4,19.9-0.3c6.1-4.9,12-3.9,18.3-3.1c3,0.4,5.9,1.8,8.8,1.7c5.2-0.2,9.6,1.5,13.9,4.5
			c2,1.4,5.2,3.2,7,2.4c16.4-6.9,29.9,3.6,44.5,7.7c0.7,0.2,1.8,0.6,1.9,1.1c0.7,2.4,1.1,4.9,1.7,7.3c-2,0.1-4.2,0.8-5.9,0.1
			c-5.9-2.4-11.1-7.4-18.2-5.2c1.8,2.2,4.3,4.2,5.4,6.8c3.9,9.9,11.4,11.4,20.1,10.3c4.3-8.2,11.7-7.7,18.9-7.8
			C346.1,112.2,345.9,110,345,109.4z"/>
		<path id="lava1_1_" class="st3" d="M331.1,418.3c-4.3,0-5.8,0.3-7.3-0.1c-0.8-0.2-1.6-1.3-2-2.2c-0.2-0.4,0.4-1.5,0.9-1.9
			c0.9-0.7,2.1-1,3-1.7c2.1-1.6,4.1-3.2,6.1-4.9c-2.4-0.5-4.7-0.9-7.1-1.4c-0.8-0.2-1.5-0.9-2.3-1.3c0.6-0.4,1.2-1,1.9-1.2
			c3.6-0.8,7.2-2,10.9-2.1c3.8-0.1,8.2,1.1,8.6,5.7c0.4,4.5-2,8.5-6.6,9.9C334.3,418,331.3,418.2,331.1,418.3z"/>
		<path id="volcano_1_" class="st2" d="M98.6,115.9c1.7-0.5,3.6-0.2,5.5,0.8c3.9,2,7.5,4.3,10.9,5.7c3.3,1.5,6.4,2.3,8.6,2.1
			c2.2-0.1,3.3-1.1,3.3-1c0,0-1.2,0.1-3.1-0.4c-1.9-0.6-4.6-1.6-7.7-3.2c-3.1-1.8-6.7-3.9-10.6-6.1c-2-1.1-4.7-2.4-7.7-1.8
			c-2.8,0.4-6.2,1.2-8,3.6c-1.9,2.4-2.3,5.5-2.7,8.2c-0.6,2.7-0.8,5.8,0.3,8.5c1,2.9,3.4,4.6,5.2,5.6c1.9,1.1,3.4,1.7,4.6,2.9
			c5.1,4.1,4.8,10.1,5,9.9c0,0,0.6-1.1,0.8-3.5c0.2-2.3-0.8-6.1-3.7-9c-1.4-1.4-3.3-2.7-5-3.6c-1.7-1-3.1-2-3.7-3.7
			c-0.6-1.7-0.4-3.8,0.4-5.8c0.1-0.2,0.3-0.4,0.5-0.6c0.8-0.3,1.8-0.4,2.7,0.3c2,1,4.6,2.7,7.2,4.8c1.2,1.1,2.4,2.3,3.5,3.4
			c0.6,0.6,1.2,1.1,1.7,1.7c0.5,0.6,1,1.1,1.5,1.6c0,0,1.7,3.1,7.4-1.1c-0.1-0.1-3.3-0.5-4.9-2c-0.3-0.3-0.9-0.9-1.3-1.5
			c-0.4-0.6-0.9-1.1-1.4-1.8c-1-1.3-2.1-2.6-3.2-4c-2.2-2.8-4.7-5.5-6.9-7.3c-0.5-0.3-0.7-0.7-1-1.1
			C97.3,116.7,97.8,116.1,98.6,115.9z"/>
	</g>
</g>
</svg>
