<?xml version="1.0" encoding="utf-8"?>
<!-- Generator: Adobe Illustrator 19.0.0, SVG Export Plug-In . SVG Version: 6.00 Build 0)  -->
<svg version="1.1" id="zeelish_icon" xmlns="http://www.w3.org/2000/svg" xmlns:xlink="http://www.w3.org/1999/xlink" x="0px"
	 y="0px" viewBox="0 0 469.77 499.99" style="enable-background:new 0 0 469.77 499.99;" xml:space="preserve" width="160px" height="160px">
<style type="text/css">
	.st0{fill:#FFFFFF;}
	.st1{fill:#5A4841;}
	.st2{fill:#A03121;}
	.st3{fill:#A8958D;}
	.st4{fill:#2A1D1C;}
	.st5{fill:#492B19;}
	.st6{fill:#662011;}
	.st7{fill:#CB5B3D;}
	.st8{fill:#8E2317;}
	.st9{fill:#0B0000;}
	.st10{fill:#EBC216;}
	.st11{fill:#E77303;}
</style>
<g id="group_4_">
	<path id="lining_4_" class="st0" d="M416.14,115.89c0.38-1.78,0.86-3.53,1.02-5.37c0.09-1.06,0.14-2.12,0.15-3.18
		c0.43-0.66,0.83-1.34,1.21-2.04l1.67-3.12l0.7-1.3c1.36-2.54,2.31-5.28,2.82-8.1c0.73-1.49,1.33-3.05,1.79-4.69l2.83-10.02
		l1.93-6.84c2.13-7.54,0.95-15.55-3.09-22.08c-1.89-5.06-5.24-9.51-9.7-12.74l-1.22-0.89c-1.03-4.4-2.31-9.13-4.21-14.01
		c-4.6-11.78-14.75-18.12-30.16-18.85c-0.4-0.02-0.8-0.03-1.18-0.06c-1.18-0.15-2.36-0.23-3.54-0.23c-1.8,0-3.6,0.18-5.36,0.52
		c-3.92-1.92-8.21-2.9-12.51-2.9c-5.62,0-11.25,1.68-16.03,5.13c-9.61,6.93-12.57,16.23-13.57,22.44c-0.98,1.11-1.86,2.29-2.65,3.54
		c-6.5,1.77-13.3,4.57-18.68,8.86c-0.62,0.5-1.1,1.01-1.67,1.51c-22.64-7.28-46.75-11.26-71.78-11.26C105.37,30.23,0,135.6,0,265.11
		s105.37,234.88,234.88,234.88c129.52,0,234.89-105.37,234.89-234.88C469.77,208.49,449.63,156.49,416.14,115.89z"/>
	<path id="planet_background" class="st1" d="M442.06,265.11c0-28.78-5.89-56.18-16.49-81.08c-0.02-0.01-0.05-0.02-0.07-0.02
		c-9.68-22.71-23.37-43.24-40.07-60.93c-0.02,0-0.05,0-0.07,0c-9.93-10.54-20.87-20.1-32.8-28.38l0,0c0,0-0.01,0-0.01-0.01
		c-1.06-0.73-2.11-1.48-3.18-2.19c-0.02,0-0.04,0.01-0.07,0.01c-20.67-13.72-43.96-23.74-68.95-29.32
		c-0.11-0.06-0.22-0.12-0.32-0.17c-14.55-3.24-29.63-5.09-45.16-5.09c-20.8,0-40.85,3.14-59.78,8.87c-0.03,0-0.06,0-0.09,0
		c-27.44,8.27-52.37,22.17-73.7,40.22c-0.07,0.01-0.14,0.02-0.21,0.03c-44.85,38-73.4,94.66-73.4,158.06
		c0,44.04,13.93,84.73,37.37,118.29c-0.02,0.04-0.06,0.06-0.08,0.1c18.79,26.91,43.83,49.02,72.98,64.49
		c-0.11,0.01-0.23,0.02-0.34,0.02c29.01,15.46,62.09,24.28,97.25,24.28c35.82,0,69.52-9.1,98.91-25.1
		c-0.01-0.01-0.02-0.02-0.04-0.04C398.26,412.04,442.06,343.71,442.06,265.11z"/>
	<path id="volcano_background" class="st2" d="M403.6,63.7c-0.7-0.76-1.41-1.52-2.11-2.28c-0.09-0.86-0.18-1.72-0.27-2.58
		c-3.23-2.34-6.46-4.68-9.68-7.02c-0.03,0-0.06,0-0.09,0c-1.59-6.68-2.74-13.82-5.21-20.14c-0.57-1.46-5.92-1.05-9.08-1.5
		c-9.45,2.89-12.3,2.68-17.71-2.47c-5.54,3.99,1.16,12.07-8.99,18.29c-1.55,3.4-3.1,6.81-4.65,10.21c-0.01-0.01-0.02-0.03-0.03-0.04
		c-6.09-0.09-16.13,2.27-20.17,5.49c-4.49,3.57-6.66,7.78-0.54,12.08c2.21,1.55,4.42,3.09,6.63,4.64c2.86,5.04,2.79,9.28-2.66,12.79
		c-3.61,2.32-6.77,5.34-10.12,8.04c0,0,0,0,0.01,0c0,0,0,0-0.01,0c-1.43,0.91-2.86,1.81-4.29,2.72c-2.13,1.72-4.27,3.45-6.4,5.17
		c-4.41,5.3-10.32,10.02-12.74,16.12c-1.7,4.28,1.35,10.44,2.27,15.76c2.99-0.63,6.34-0.59,8.9-2c7.7-4.25,15.09-9.07,22.6-13.66
		c-2.68,6.23-5.95,12.29-7.82,18.76c-1.02,3.54,0.33,7.76,0.61,11.67c3.3-0.34,6.6-0.67,9.91-1.01c2.09-1.52,0.96-4.81,0.2-7.08
		c0.13-3.27,1.7-8.21,2.01-10.71c1.54-2.06,3.96-3.63,5.75-4.69c-0.04,0.1-0.09,0.21-0.13,0.31c1.95,0.15,6.6,0.32,8.55,0.47
		c0.65-0.3,0.88-0.79,0.68-1.48c2.66-5.86,5.43-11.96,8.1-17.82l0,0c3.51-1.72,7.03-3.44,10.54-5.15c1.81,2.51,3.54,5.09,5.45,7.53
		c2.99,3.81,6.13,7.66,11.53,3.61c5.38-4.03,6.65-13.39,2.55-17.73c2.3-2.58,4.6-5.16,6.9-7.75c0.79-1.48,1.58-2.95,2.37-4.43l0,0
		c0-0.87,0-1.74,0-2.61c0-1.52-0.01-3.05-0.01-4.57c0.8-0.05,1.6-0.07,2.4-0.07C400.42,74.94,402.01,69.32,403.6,63.7z"/>
	<g id="zeelich">
		<path id="color16" class="st3" d="M409.09,339.63c3.58-10.54,5.83-22.74,13.73-30.33c12.53-12.04,11.97-26.89,13.59-41.68
			c-0.02-3.25-0.05-6.5-0.07-9.76c0.87-2.89-0.58-4.93-2.48-6.81c-3.57-2.68-6.42-5.89-8.02-10.15
			c-6.96-18.61-2.49-36.09,0.42-55.16c-9.72-23.4-23.69-44.52-40.81-62.66c-4.47-0.22-9.31,2.38-12.31,6.34
			c-3.73,4.92-1.75,10.32,1.47,15.5c3.97,6.37,8.14,12.85,9.91,20.24c5.74,24.07,4.87,48.65,5.13,73.17c-1.24,1.81-3,3.12-4.52,4.67
			c-0.68,0.85-1.27,1.75-1.74,2.73c-3.27,5.19-3.68,12.2-9.81,15.59c-1.39,0.86-2.73,1.8-3.97,2.87c-8.78,5.7-8.89,12.79-4.01,21.27
			c2.54,4.42,5.59,8.54,7.83,13.16c0.45,0.9,0.91,1.77,1.46,2.63c1.14,1.69,0.98,3.3-0.15,4.85c-0.51,0.82-0.99,1.68-1.35,2.58
			c-1.21,3.18-0.63,5.65,1.59,8.59c4.84,6.41,2.87,9.47-4.81,11.87c-9.55,2.99-14.26-3.58-20.04-8.43
			c-5.4-1.55-10.92-1.51-16.35-0.39c-10.91,2.24-13.61,7.55-9.85,18.7c2.01,2.55,4.97,3.56,7.76,4.87
			c10.08,5.41,13.57,14.77,15.21,25.29c0.13,3.15-1.24,5.67-3.27,7.91c-0.97,1.16-1.87,2.37-2.62,3.69c-1.3,3.06-4.1,4.62-6.5,6.56
			c-0.74,0.83-1.4,1.72-1.94,2.69c-4.75,6.74-8.94,13.83-11.95,21.51c-2.39,6.08-2.69,11.72,5.57,13.65
			c1.16-0.14,2.22-0.51,3.19-1.17c7.12-6.56,14.07-13.42,24.81-12.99c8.99-4.29,17.79-8.82,22.25-18.55
			c0.73-1.86,1.28-3.89,2.89-5.18C394.78,374.86,402.86,357.95,409.09,339.63z"/>
		<path id="color15" class="st4" d="M234.88,472.29c35.82,0,69.52-9.1,98.91-25.1c-0.31-0.29-0.61-0.58-0.79-0.84
			c-9.11-7.68-18.62-2.59-28.02-0.85c-4.2,1.36-8.34,2.85-12.39,4.59c-15.03,5.95-30.29,5.52-45.69,1.65
			c-3.19-1.66-4.82-4.85-7.22-7.28c-1.54-0.99-3.25-1.47-5.07-1.52c-1.86,0.05-3.6,0.46-5.01,1.78c-2.16,1.62-4.26,4.56-6.48,4.66
			c-12.17,0.55-25.25,3.25-36.37-0.16c-16.81-5.16-32.77-2.09-49.12-1.21C166.64,463.46,199.72,472.29,234.88,472.29z"/>
		<path id="color14" class="st1" d="M392.09,241.78c0.6-1.82,1.81-3.69,1.7-5.46c-0.79-11.99-3.94-24.24-2.38-35.88
			c2.78-20.81-4.63-38.64-11.94-56.87c-1.69-4.22-3.43-8.41-5.15-12.62c3.48-0.57,6.96-1.12,10.43-1.74
			c1.17-0.21,2.29-0.64,3.44-0.96c-0.03-0.64,0.02-1.37,0.05-2.09c-11.54-12.73-24.51-24.12-38.87-33.66
			c-5.1,0.58-9.34,2.96-11.68,9.23c-0.81,1.4-3.49,2.08-1.74,4.48c6.8-1.57,12.01-1.68,6.94,7.6c4.84,6.16,0.53,23.75,19.39,13.01
			c-10.15,10.66-5.12,15.95,6.24,20.04c-5.54,3.64-14.33,5.75-9.48,12.28c9.4,12.67,5.88,29.53,15.18,41.88
			c1.73,4.03,2.48,8,1.77,12.58C374.16,225.3,380.82,236.42,392.09,241.78z"/>
		<path id="color13" class="st1" d="M228.4,60.28c-8.46,6.16-15.55,4.69-23.64,0.96c-0.65-0.3-1.47-0.46-2.3-0.53
			c-0.9,0.14-1.81,0.26-2.71,0.41c-0.26,0.13-0.55,0.25-0.73,0.45c-6.87,7.83-15.41,5.49-24.02,5.22
			c-28.67,8.64-54.6,23.41-76.55,42.65c3.75,0.29,7.87,0.4,8.78,2.16c6.63,12.84,12.8,3.98,20.38,1.46
			c13.18-4.37,23.49-17.85,39.62-12.99c5.11-5.04,3.86-15.72,15.56-15.13c19.39,0.98,38.3-1.5,54.28-14.25
			C238.29,61.89,233.85,56.32,228.4,60.28z"/>
		<path id="color12" class="st4" d="M157.11,73.16c10.05,0.49,20.65-5.2,30.18,2.66c0.39,0.32,4.01-1.83,4.57-3.39
			c4.25-11.78,13.13-8.9,18.43-3.54c6.46,6.54,8.79,6.42,14.47-0.5c7.73-9.42,8.1-7.51,11.44,4.94c11.2,3.33,37.31,0.81,44.84-9.77
			c-0.26-0.18-0.67-0.37-0.99-0.56c-14.55-3.24-29.63-5.09-45.16-5.09C207.35,57.93,181.14,63.41,157.11,73.16z"/>
		<path id="color11" class="st1" d="M442.06,265.11c0-28.78-5.89-56.18-16.49-81.08c-1.05-0.34-2.03-0.75-3.22-0.95
			c-2.76,24.51-0.64,48.21,11.6,70.25c0.4,0.76,0.78,6.17,1.16,11.55c-0.28,3.78-0.54,7.27-0.74,8.07
			c-2.31,9.23-1.55,21.91-7.41,26.98c-10.29,8.93-12.56,20.47-17.67,31.22c-6.72,14.12-13.13,28.4-20.21,42.33
			c-1.83,3.61-5.95,5.99-8.53,9.31c-2.43,3.12-4.23,6.72-6.31,10.11c5.39,6.56,10.81,5.88,16.25,3.21
			c-16.23,18.53-34.11,33.96-62.25,30.28c-0.46,0.09-0.86,0.33-1.3,0.47c0.12-1.26,0.23-2.51,0.35-3.77
			c-6.75-1.19-7.19-5.09-4.26-10.24c4.22-7.41,8.55-14.75,12.83-22.13c-7.5-1.03-12.2,0.73-15.23,9.09
			c-3.17,8.72-8.2,17.06-20.2,17.66c-3.67,0.19-7.08,5.6-10.61,8.62c-1.39,0.77-3.22,1.2-4.08,2.35
			c-9.04,12.12-19.27,11.51-30.67,3.49c-2.49-1.75-5.86-2.24-8.83-3.32c0,0,0,0.01,0,0.01c0,0,0,0,0-0.01
			c-3.63-1.46-8.62-5.22-10.67-4c-12.65,7.46-23.21-0.08-34.4-3.39c-1.75-1.43-3.3-3.07-5.08-4.46c-0.44-0.1-0.9-0.16-1.35-0.23
			c1.7-3.12-0.21-9.19,3.1-9.36c12.96-0.66,20.04-9.32,27.97-17.49c2.02-2.08,6.13-1.12,9.32-1.17c3.99-0.07,8,0.15,11.93-0.66
			c4.19-0.87,9.16-3.4,7.76-7.45c-3.99-11.52,2.18-27.56-14.85-33.73c-4.48-1.62-7.36-6.77,0.54-8.6
			c13.23-3.06,16.59-16.38,25.67-23.73c2.46-1.99,2.29-6.12,0.95-9.1c-4.52-10.05-0.75-18.86,4.1-27.26
			c7.93-13.75,13.56-28.9,24.51-40.84c0.53-1.53,1.2-3.32,0.48-4.67c-5-9.37-3.56-17.72,1.94-26.69c3.58-5.83,2.05-12.62-4.31-16.81
			c-5.29-3.49-8.24-8.46-10.59-14.08c-2.65-6.33-6.9-11.65-11.46-16.69c-3.81-4.21-8.35-6.47-13.75-2.97
			c-9.12,5.91-13.71,1.41-17.34-6.83c-2.44-5.54-5.43-10.33-13.13-10.07c-9.43,0.32-11.91-3.78-8.29-12.29
			c3.44-8.08,8.04-13.78,18.34-14.34c13.62-0.74,24.11-8.38,25.14-17.81c-11.07-9.16-26.19-8.56-37.62-4.6
			c-18.72,6.5-37.01,13.24-57.09,13.2c-6.55,3.01-10.04,10.19-16.93,12.65c-13.01,4.63-20.6,15.16-28.26,25.64
			c-1.25,3.58-3.67,6.03-7.1,7.52c-3.3,2.51-6.36,5.26-8.55,8.85c-0.82,3.2-1.64,6.4-2.46,9.6c3.73,4.17,7.2,4.07,10.37-0.65
			c1.72-2.7,3.12-5.99,5.82-7.5c5.3-2.94,10.05-14.18,17.22-1.76c1.33,2.3,4.17,1.06,6.53,0.19c8.56-3.14,14.81-0.33,18.28,8.03
			c1.9,4.57,1.44,9.43,1.43,14.18c-0.03,9.53,5.14,12.49,13.82,11.89c9.57-0.66,14.56-6.68,19-14.36
			c4.39-7.59,14.64-8.97,23.14-4.42c9.03,4.84,5.53,10.94,2,17.01c-3.65,6.28-3.69,12.35-1.58,19.4
			c3.27,10.92,0.08,14.47-11.34,14.98c-7.08,0.32-14.49-0.91-20.51,4.36c-3.62,7.88,5.34,13.12,4.31,20.45
			c0.75,0.88,1.64,1.6,2.66,2.15c3.28,1.91,8.72,2.9,6.73,8.13c-2.23,5.84-8.15,8.28-13.8,7.18c-6.94-1.35-14.28-1.82-20.72-5.21
			c-7.03-3.69-11.32-0.23-14.86,5.37c-3.23,5.1-3.05,10.67-1.65,16.21c3.61,14.24-5.27,25.21-9.88,37.19
			c-1.76,4.56-6.97,4.65-11.59,3.88c-6.7-1.13-13.41-2.26-20.05,0.36c-3.96,2.93-8.26,6.47-5.54,11.7
			c6.94,13.31,2.52,26.52,0.91,40.38c-6.53-2.43-6.03-9.11-9.06-13.33c-4.07-3.86-6.97-11.28-14.43-4.64
			c-2.17,5.11,0.98,9.27,2.57,13.61c2.6,7.09,2.32,11.04-6.98,8.46c-4.63-1.29-10.1-0.37-12.55,3.47
			c20.21,28.95,47.65,52.36,79.68,67.9c4.44,0.11,9.02-0.55,13.32-1.54c4.67-1.07,9.65-1.47,14.15,0.14
			c15.52,5.56,31.38,3.07,47.17,2.56c4.55-0.15,8.68-1.06,11.21-5.4c0.1-0.94,0.05-1.74-0.07-2.45c1.29-0.02,2.59-0.04,3.88-0.07
			l0,0c0,0,0,0,0,0c1.75,0.24,3.49,0.47,5.23,0.7c1.62,2.36,3.23,4.73,4.85,7.09c0,0,0,0,0,0c16.72,8.93,33.43,6.11,50.13-0.03
			c3.26-1.64,6.53-3.28,9.79-4.91l0,0c9.48,0.07,18.97,0.14,28.46,0.21C397.83,412.74,442.06,344.11,442.06,265.11z"/>
		<path id="color10" class="st4" d="M422.35,183.07c1.14,9.27,9.01,26.56,10.57,35.76c2.42,14.19-1.7,20.35,1.02,34.49
			c-14.84-4.48-21.77-7.72-23.95-18.33c-2.52-12.23,7.15-36.29,7.39-49c0.03-1.62,0.88-3.11,2.49-4.7
			C420.03,181.9,422.27,182.44,422.35,183.07z"/>
		<path id="color9" class="st4" d="M336.83,388.4c-0.33,0.78-0.65,1.56-0.98,2.34c-5.82,1.88-10.37,4.82-13.12,10.87
			c-4.2,9.26-10.29,16.79-21.33,18.75c-4.45,0.79-7.11,4.81-10.35,7.68c-18.54,16.2-20.69,16.32-45.46,2.6
			c-2.95-2.32-6.26-3.61-9.91-2.2c-12.16,4.69-23.13,0.85-33.95-4.41c-2.03-1.65-3.69-3.74-5.87-5.24c-0.82-0.64-1.44-1.45-1.9-2.38
			c-4.05-13.78-3.98-13.18,10.08-14.66c4.51-0.48,10.91-4.13,12.36-7.91c2.78-7.21,6.88-8.95,13.58-8.48c3.98,0.28,8,0.09,12,0.06
			c7.8-0.05,14.6-0.36,8.07-11.28c-1.82-3.04,0.16-8.19-1.28-11.67c-1.66-3.99-5.14-7.24-7.91-10.75
			c-3.49-4.41-7.06-8.75-10.59-13.11c3.74-1.24,7.54-2.35,11.22-3.76c2.52-0.96,5.44-1.78,7.22-3.61
			c4.97-5.1,9.65-10.53,13.99-16.18c1.51-1.96,3.15-6.02,2.22-7.32c-8.33-11.6-2.07-21.86,3.34-31.29
			c7.94-13.84,17.42-26.79,26.25-40.13c9.06-6.82,11.36-17.12,13.31-27.27c3.67-19.05,9.24-23.21,28.73-20.25
			c5.7,3.53,7.24,7.87,0.74,11.65c-5.69,3.31-7.64,7.43-6.49,13.7c0.73,3.95-0.1,7.88-1.57,11.64c-2.42,6.19,1.58,6.58,5.98,6.58
			c14.55,4.46,15.94,17.48,18.58,29.36c0.89,4,2.05,7.49,4.62,10.57c3.54,11.12,6.75,22.45,18.24,28.48l0.18,0.18
			c0.99,1.81,0.95,3.59-0.13,5.35l-0.15,0.13c-7.29,5.5-12.51,14.73-23.71,13.23c-12.63-7.96-26.5-4.91-31.48,6.64
			c-2.77,6.42-1.64,10.57,5.4,12.45c2.42,0.8,4.84,1.6,7.25,2.4c1.58,13.1,2.44,26.3,4.69,39.33
			C338.88,383.33,337.82,385.85,336.83,388.4z"/>
		<path id="color8" class="st5" d="M338,190.79c-4.38,0.01-9.61-1.49-12.96,0.38c-5.2,2.91-10.92,7.34-13.17,12.53
			c-3.33,7.68-2.84,16.97-5.93,24.8c-1.4,3.56-7.47,5.27-11.43,7.82c-4.86-10.94-8.48-21.45,1.22-32.36
			c1.49-1.67-2.5-8.97-4.9-13.11c-2.46-4.26-6.36-7.67-9.14-11.78c-4.19-6.2-7.71-12.84-11.97-18.99
			c-3.09-4.46-6.36-5.87-11.74-1.48c-7.34,5.99-13.94,5.83-18.28-4.89c-2.83-6.99-4.7-19.6-17.47-9.11
			c-2.67-5.36-8.78-11.98-7.36-15.83c3.73-10.11,7.32-21.24,23.51-20.52c7.41,0.33,15.23-8.54,22.86-13.23
			c10.1-1.38,17.84,2.55,25.73,8.87c5.92,4.75,14.2,6.53,21.36,9.78c4.59,2.08,10.73,3.5,4.53,10.6c-1.18,1.35-0.44,4.38-0.59,6.64
			c2.48-0.29,4.51-1.35,6.4-2.56c7.93-5.09,13.76-11.88,24.21-14.55c3.29,4.62,6.59,9.24,9.4,13.18c3.11-1.26,7.69-3.12,12.27-4.97
			c-1.12,5.37-2.24,10.73-3.67,17.62c-0.54-0.18,2.08,0.18,4.07,1.49c2.86,1.88,5.26,4.46,7.86,6.74c-2.83,1.53-6.14,2.57-8.33,4.74
			c-1.55,1.54-2.72,4.99-2.08,6.92c1.45,4.33,4.79,8.04,6.2,12.38c3.02,9.32,5.31,18.88,7.9,28.34c-8.39,7.55-14.48,0.86-20.98-3.38
			c-3.22-7.34,0.45-13.71,2.82-20.26c1.16-8.77-7.25-13.6-8.8-21.32c-0.99-4.95-3.59-9.52-3.7-14.71c0.3-0.95,1.03-1.64,1.63-2.42
			c-1.45-0.44-0.44,1.59-1.53,1.54c-1.88,2.33-2.97,5.33-1.05,7.54c8.13,9.38,5,19.44,2.46,29.57
			C345.53,182.33,344.87,188.65,338,190.79z"/>
		<path id="color7_1_" class="st4" d="M394.3,397.1c1.12-1.83,0.84-4.52,1.21-6.82c-7.09,0.88-14.19,1.75-21.28,2.62
			c-7.33,5.4-14.65,10.79-21.98,16.19c-14.97-0.41-16.37,11.32-24.45,13.78l-0.54,0.23c-0.68,1.68-1.15,3.39-0.49,5.2
			c17.59,2.85,35.38-1.86,49.55-12.1c5.96-5.58,11.66-11.41,16.93-17.66C393.58,398.04,393.98,397.61,394.3,397.1z"/>
		<path id="color6_1_" class="st4" d="M387.56,245.16c-1.73-1-3.36-2.28-5.21-2.94c-6.48-2.3-14.99,4.89-19.52-8.48
			c-2.93-8.64-5.61-16.73-6.04-25.74c-0.06-1.19-0.41-2.35-0.62-3.54c-1.26-2.38-1.11-4.64,0.77-6.65
			c6.52,0.8,13.06,1.64,19.59,2.44c0.53,5.19,0.54,10.5,1.72,15.54c1.29,5.48,3.17,10.97,5.73,15.96c1.92,3.74,5.35,6.71,8.11,10.02
			C390.58,242.91,389.07,244.03,387.56,245.16z"/>
		<path id="color5_1_" class="st5" d="M387.56,245.16c-1.96-4.61-5.69-7-10.42-6.21c-6.04,1-7.8-2.76-10.95-6.67
			c-6.53-8.12-4.44-18.35-8.22-26.97c-6.09-3.17-9.58,0.53-9.84,5.51c-0.39,7.56-3.85,12.2-9.78,16.03
			c-2.27,1.46-3.89,3.88-2.98,7.03c4.24,6.37,13.61,8.45,12.69,19.59c-0.5,6.04,5.61,12.62,8.74,18.96
			c4.51-3.09,8.98-6.28,14.72-6.69c0.88-0.83,1.75-1.65,2.63-2.48c4.12-5.57,8.24-11.14,12.35-16.72c0,0,0.01-0.01,0.01-0.01
			C387.24,246.35,387.58,245.9,387.56,245.16z"/>
		<path id="color4_1_" class="st1" d="M376.49,314.8c-0.99-0.51,0.18-5.49,0.53-8.66c1.04-0.62,2.08-1.23,3.12-1.85
			c-1.06-1.05-2.12-2.11-3.18-3.16c-1.89-3.63-4.42-8.27-6.02-11.58c-3.85-8.01-11.28-16.15,0.57-23.81
			c-6.72-1.76-13.31-3.23-14.72,6.7c2.73,11.85,4.77,26.73,19.99,29.97c-0.02,0.9-0.04,1.8-0.06,2.7
			c-7.96,3.8-16.48,9.06-24.42,12.82c-9.31-11.08-28.31-6.86-33.74,7.49c-4.04,10.65-3.53,12.87,5.35,13.29
			c-2.31,8.23,10.34,30.43,12.39,42.2c0.17,2.5,0.34,5.01,0.51,7.51c1.92-2.63,3.85-5.27,5.77-7.9c0,0,0,0,0,0
			c0.83-0.81,1.65-1.62,2.48-2.43c1.92-2.16,2.32-5.36,4.91-7.05c-4.4-32.35-19.36-31.45-23.9-34.07
			c-3.14-8.57-0.89-12.3,8.47-13.43c5.87-0.71,11.84-0.55,17.77-0.78v0c2.83,10.18,13.7,14.66,22.37,8.37
			C380.27,327.05,390.54,322.04,376.49,314.8z"/>
		<path id="color3_1_" class="st1" d="M290.62,398.04c-0.58-4.12-0.09-8.62-1.92-11.75c-2.99-5.09-5.76-10.42,1.46-12.37
			c7.17-1.93,15.15-0.84,22.77-1.08c-0.67,3.78-0.02,8.99-2.26,11.06C304.96,389.18,297.95,393.04,290.62,398.04z"/>
		<path id="color2_1_" class="st1" d="M359.23,166.69c-3.73-9.59-7.72-19.08-11.61-28.61l-0.23-0.23c-9.2,2.59-9,7.85-3.8,14.15
			c3.91,4.73,7.77,8.85,2.22,15.31c-1.59,1.86-0.36,6.14-0.43,9.31c0,0,0.01-0.01,0.01-0.01c0,0,0,0.01-0.01,0.01
			c-2.46,4.72-4.92,9.45-7.39,14.17c-0.07,2.37,0.24,6.73-0.25,6.82c-11.3,2.12-12.4,8.79-9.43,18.37c0.8,2.57-1.14,5.99-1.81,9.03
			c-0.72,3.26-1.42,6.51-2.13,9.77c3.67-0.3,7.33-0.6,11-0.9c6.04-7.84,20.4-10.52,15.6-25.28c-0.24-0.74,3.41-2.63,5.24-4.03
			c0.26-2.2,0.48-4.5,0.73-6.71c1.63-7.12,3.25-14.23,4.88-21.35C360.98,173.23,360.45,169.82,359.23,166.69z"/>
		<path id="color1_1_" class="st3" d="M352.57,94.69c-24.59-17.02-53.06-28.69-83.8-33.76c-6.44,2.22-12.72,5.6-19.36,6.78
			c-18.37,3.26-34.21,11.89-53.34,13.81c-12.32,1.23-29.04-0.16-30.44,17.34c-14.4-10.16-29.2,9.96-42.36,12.41
			c-9.52,1.77-12.22-4.69-20.2-4.47c-0.71,0.02-1.32,0.15-1.95,0.25c-44.85,38-73.4,94.66-73.4,158.06
			c0,45.41,14.78,87.27,39.55,121.41c6.2-9.49,11.44,2.52,18.68-2.64c7.86-5.59-0.09-18.07-2.83-25.13
			c10.57,4.83,7.15,5.33,14.29,12.25c2.47,2.4,4.05,11.82,10.84,8.34c6.07-3.11,3.37-22.18,2.82-27.19
			c-1.94-17.47-9.59-23.92,8.83-26.56c17.08-2.45,20.15,6,28.56-12.93c2.73-6.14,5.32-13.59,6.1-20.35
			c0.67-5.83-3.12-16.87-1.3-22.23c5.39-15.85,17.16-3.97,27.56-2.48c5.77,0.83,28.85-0.98,26.42-11.87
			c0.15,0.67-12.32-8.46-12.22-8.34c-0.99-1.18-4.92-13.81-5.93-18.17c6.48-0.73,30.44,0.44,35.32-6.23
			c5.25-7.19-2.35-18.78-1.27-27.26c1.56-12.28,14.51-20.18-3.27-27.41c-16.21-6.6-19.08,4.57-29.23,13.39
			c-26.46,23-16.94-19.07-32.33-27.15c-5.6-2.94-10.22,1.08-14.73-0.55c-2.63-0.95-5.84-5.54-7.96-5.58
			c-7.31-0.13-2.04-2.26-10.66,2.94c-2.03,1.23-12.56,12.83-12.56,13.34c-9.79-10.08,9.8-17.66,17.24-25.3
			c9.83-10.1,22.77-22.99,35.85-28.98c10.07-4.61,20.23-5.71,31.37-8.2c15.8-3.53,29.71-12.63,46.55-11.59
			c14.32,0.88,27.44,7.8,39.72,14.52c4.62,2.52,15.06,5.72,17.91,9.12c3.22,3.83,2.29,4.31,3.58,6.36c2.21,3.51-5.03,7.6,1.54,10.77
			c3.06,1.48,10.89-1.35,13.17-2.88c3.03-2.04,35.04-13.74,24.89-24.43c-1.51-0.19-3.02-0.37-4.54-0.56
			c-0.14-0.02-0.14-0.03-0.1-0.03C336.37,102.92,346.53,97.75,352.57,94.69z"/>
	</g>
	<g id="volcano_1_">
		<path id="fumes7" class="st2" d="M387.18,99.98c4.1,4.34,2.83,13.7-2.55,17.73c-5.4,4.05-8.54,0.2-11.53-3.61
			c-1.91-2.44-3.64-5.01-5.45-7.53c-1.05-2.85-1.25-6.98-3.28-8.32c-10.64-7.02-21.74-13.33-32.68-19.89
			c-2.21-1.55-4.42-3.09-6.63-4.64c-6.12-4.3-3.95-8.5,0.54-12.08c4.04-3.22,14.08-5.58,20.17-5.49c1.6,2.48,3.21,4.95,4.81,7.43
			c10.94-4.29,20.72,5.19,31.21,7.04c6.69,1.18,13.33,1.4,14.64,10.01c0,1.52,0.01,3.05,0.01,4.57c0,0.87,0,1.74,0,2.61l0,0
			c-2.71-0.02-5.54-0.55-8.1,0.06c-2.95,0.71-5.66,2.44-8.47,3.73C382.31,94.39,384.75,97.19,387.18,99.98z"/>
		<path id="fumes6" class="st6" d="M350.58,63.68c-1.6-2.48-3.21-4.95-4.81-7.43c1.56-3.42,3.12-6.84,4.68-10.26
			c10.16-6.21,3.46-14.29,8.99-18.29c5.41,5.16,8.25,5.37,17.71,2.47c3.15,0.45,8.51,0.04,9.08,1.5c2.52,6.45,3.67,13.77,5.31,20.57
			c-7.84-0.36-15.13-0.18-22.96-0.62C360.51,51.16,351.66,56.42,350.58,63.68z"/>
		<path id="fumes5" class="st7" d="M331.69,78.36c10.94,6.56,22.05,12.87,32.68,19.89c2.04,1.34,2.24,5.48,3.28,8.32
			c-3.51,1.72-7.03,3.44-10.54,5.15c-6-3.76-12-7.53-18-11.29c-1.55-0.15-3.1-0.31-4.65-0.46c-5.19-0.26-10.37-0.52-15.56-0.78
			c3.36-2.7,6.52-5.72,10.12-8.04C334.48,87.64,334.54,83.4,331.69,78.36z"/>
		<path id="fumes4" class="st8" d="M396.45,87.81c-0.79,1.48-1.58,2.95-2.37,4.43c-2.3,2.58-4.6,5.16-6.9,7.75
			c-2.43-2.8-4.87-5.59-7.3-8.39c2.81-1.29,5.52-3.01,8.47-3.73C390.91,87.25,393.74,87.78,396.45,87.81z"/>
		<path id="fumes3" class="st6" d="M348.34,131.02c-1.95-0.15-6.6-0.32-8.55-0.47c1.9-5.5,6.48-10.99,8.38-16.49
			c0.28,5.16,0.56,10.32,0.84,15.48C349.22,130.23,348.99,130.72,348.34,131.02z"/>
		<path id="black_lining" class="st9" d="M333.74,129.09c-0.89-6.47,3.16-8.83,2.27-15.3c-1.5,0.35-3.08,0.71-4.58,1.06
			c-4.51,2.99-9.02,5.94-13.62,8.8c-3.95,2.46-7.75,5.16-12.04,6.87c-1.77,0.7-4.21-0.72-6.45-1.21c0.6-2.19,0.45-4.7,1.76-6.31
			c3.69-4.53,7.96-8.6,11.97-12.87c2.85-2.34,5.58-4.73,8.43-7.06c-2.29-0.38-4.59-0.76-6.88-1.14c-2.13,1.72-4.27,3.45-6.4,5.17
			c-4.41,5.3-10.32,10.02-12.74,16.12c-1.7,4.28,1.35,10.44,2.27,15.76c2.99-0.63,6.34-0.59,8.9-2c7.7-4.25,15.09-9.07,22.6-13.66
			c-2.68,6.23-5.95,12.29-7.82,18.76c-1.02,3.54,0.33,7.76,0.61,11.67c3.3-0.34,6.6-0.67,9.91-1.01
			C324.65,146.53,321.86,141.59,333.74,129.09z"/>
		<path id="fumes2" class="st2" d="M339.14,100.45c-3.61-3.22-15.6-1.02-20.24-1.26c-1.43,0.91-2.86,1.81-4.29,2.72
			c2.29,0.38,4.59,0.76,6.88,1.14c4.28-1.02,14.03-0.27,18.43-1.25c0.52,0.88,1.04,1.75,1.56,2.63c2.23,3.21,4.46,6.42,6.69,9.63
			c0.28,5.16-0.19,7.3,0.73,15.74c2.7-5.94,5.51-12.13,8.21-18.07C349.81,102.73,345.13,104.19,339.14,100.45z"/>
		<path id="fumes1" class="st8" d="M391.53,51.82c3.23,2.34,6.46,4.68,9.68,7.02c0.09,0.86,0.18,1.72,0.27,2.58
			c0.7,0.76,1.41,1.52,2.11,2.28c-1.59,5.62-3.17,11.24-4.76,16.86c-0.8,0-1.6,0.02-2.4,0.07c-1.32-8.6-7.95-8.83-14.64-10.01
			c-10.49-1.85-19.46-10.59-31.23-7.02c1.07-7.25,9.41-13.34,17.46-12.88C375.85,51.15,383.69,51.46,391.53,51.82z"/>
		<path id="lava2_1_" class="st10" d="M321.4,103.04c4.32-1.03,8.74-2.04,13.06-3.07c1.55,0.15,3.1,0.31,4.65,0.46
			c0.79,1.33,1.64,2.73,2.43,4.06c-1.84,3.17-3.63,6.3-5.47,9.48c-1.49,0.35-3.1,0.68-4.59,1.03c-4.51,2.99-8.97,6.07-13.56,8.93
			c-3.95,2.46-7.9,5.08-12.19,6.79c-1.76,0.7-4.4-0.78-6.65-1.27c0.6-2.19,0.61-4.87,1.92-6.48c3.69-4.54,7.92-8.63,11.93-12.9
			C315.79,107.72,318.55,105.38,321.4,103.04z"/>
		<path id="lava1_1_" class="st11" d="M348.23,114c-2.23-3.21-4.52-6.36-6.75-9.57c-1.84,3.18-3.68,6.35-5.52,9.52
			c-0.29,7.24-3.19,10.36-2.45,15.27c-9.29,3.58-12.45,17.86-1.56,23.49c2.09-1.52,0.96-4.81,0.2-7.08
			c0.13-3.27,1.7-8.21,2.01-10.71c2.35-3.13,6.75-5.15,7.82-5.94C343.88,123.48,348.29,119.07,348.23,114z"/>
	</g>
</g>
</svg>
